<svg width="24" height="25" viewBox="0 0 24 25" fill="none" xmlns="http://www.w3.org/2000/svg">
<path d="M7.18213 11.7668C7.18213 11.4753 7.24978 11.1883 7.3791 10.9313C7.50841 10.6742 7.6954 10.455 7.92349 10.293C8.15158 10.1311 8.41374 10.0314 8.68674 10.0029C8.95975 9.97429 9.23517 10.0177 9.48861 10.1292C9.74205 10.2408 9.9657 10.417 10.1397 10.6424C10.3138 10.8677 10.4328 11.1351 10.4863 11.421C10.5398 11.7069 10.5262 12.0024 10.4465 12.2814C10.3669 12.5603 10.2238 12.8141 10.0298 13.0202L7 16.2443H11M2.75 5.49432H21.25V19.9943H2.75V5.49432ZM17 13.1193C17 14.8452 15.669 16.2443 14.027 16.2443H12.5405V9.99432H14.027C15.669 9.99432 17 11.3934 17 13.1193Z" stroke="#191C1E" stroke-width="1.5" stroke-linejoin="round"/>
</svg>
