<svg width="24" height="25" viewBox="0 0 24 25" fill="none" xmlns="http://www.w3.org/2000/svg">
<path d="M21.25 12.7443C21.25 10.121 17.1086 7.99432 12 7.99432C6.89137 7.99432 2.75 10.121 2.75 12.7443M21.25 12.7443C21.25 15.3677 17.1086 17.4943 12 17.4943C6.89137 17.4943 2.75 15.3677 2.75 12.7443M21.25 12.7443C21.25 17.853 17.1086 21.9943 12 21.9943C6.89137 21.9943 2.75 17.853 2.75 12.7443M21.25 12.7443C21.25 7.63569 17.1086 3.49432 12 3.49432C6.89137 3.49432 2.75 7.63569 2.75 12.7443M16.75 12.7443C16.75 17.853 14.6793 21.9943 12.125 21.9943C9.57068 21.9943 7.5 17.853 7.5 12.7443C7.5 7.63569 9.57068 3.49432 12.125 3.49432C14.6793 3.49432 16.75 7.63569 16.75 12.7443Z" stroke="#191C1E" stroke-width="1.5" stroke-linejoin="round"/>
</svg>
