<svg width="24" height="25" viewBox="0 0 24 25" fill="none" xmlns="http://www.w3.org/2000/svg">
<path d="M6.76073 12.106C6.76073 11.7999 6.83746 11.4984 6.98413 11.2284C7.13079 10.9584 7.34286 10.7282 7.60155 10.5581C7.86024 10.388 8.15756 10.2833 8.46719 10.2533C8.77681 10.2233 9.08918 10.2689 9.37662 10.386C9.66406 10.5032 9.9177 10.6883 10.1151 10.925C10.3125 11.1616 10.4475 11.4425 10.5082 11.7428C10.5324 11.8629 10.5445 11.9845 10.5445 12.106C10.5445 12.1928 10.5366 12.2797 10.5208 12.3655C10.4811 12.5799 10.393 12.7806 10.2641 12.9496C10.1352 13.1187 9.96952 13.2509 9.78181 13.3346C9.63155 13.4016 9.47085 13.4358 9.309 13.4358H8.38236M12.0107 3.74432L20.0215 8.36932V17.6193L12.0107 22.2443L4 17.6193V8.36932L12.0107 3.74432ZM17.2607 13.4358C17.2607 15.125 15.9297 16.4943 14.2878 16.4943H12.8013V10.3773H14.2878C15.9297 10.3773 17.2607 11.7466 17.2607 13.4358Z" stroke="#191C1E" stroke-width="1.5" stroke-linejoin="round"/>
<path d="M6.76074 14.6326C6.76074 14.9388 6.83747 15.2402 6.98413 15.5102C7.1308 15.7802 7.34287 16.0105 7.60156 16.1805C7.86024 16.3506 8.15757 16.4553 8.4672 16.4853C8.77682 16.5153 9.08919 16.4697 9.37663 16.3526C9.66407 16.2354 9.91771 16.0503 10.1151 15.8137C10.3125 15.577 10.4475 15.2961 10.5082 14.9958C10.5324 14.8758 10.5445 14.7541 10.5445 14.6326C10.5445 14.5545 10.5366 14.4763 10.5208 14.3991C10.4811 14.2061 10.393 14.0255 10.2641 13.8734C10.1352 13.7212 9.96953 13.6022 9.78182 13.5269C9.63155 13.4666 9.47086 13.4358 9.30901 13.4358" stroke="#191C1E" stroke-width="1.5" stroke-linejoin="round"/>
</svg>
