<svg width="24" height="25" viewBox="0 0 24 25" fill="none" xmlns="http://www.w3.org/2000/svg">
<path d="M2.75 11.7443H21.25M9 8.74432H15M3 19.9943C4.65685 19.9943 6 18.6512 6 16.9943M9.75 16.9943V18.4943C9.75 19.3228 9.07843 19.9943 8.25 19.9943M20.25 19.9943C18.5931 19.9943 17.25 18.6512 17.25 16.9943M13.5 16.9943V18.4943C13.5 19.3228 14.1716 19.9943 15 19.9943M4.75 14.7443H19.25C20.3546 14.7443 21.25 13.8489 21.25 12.7443V7.49432C21.25 6.38975 20.3546 5.49432 19.25 5.49432H4.75C3.64543 5.49432 2.75 6.38975 2.75 7.49432V12.7443C2.75 13.8489 3.64543 14.7443 4.75 14.7443Z" stroke="#191C1E" stroke-width="1.5" stroke-linejoin="round"/>
</svg>
