<svg width="24" height="25" viewBox="0 0 24 25" fill="none" xmlns="http://www.w3.org/2000/svg">
<path d="M5.8125 17.7443H5.4C4.96239 17.7443 4.54271 17.5698 4.23327 17.2592C3.92384 16.9486 3.75 16.5273 3.75 16.0881V6.15057C3.75 5.71131 3.92384 5.29004 4.23327 4.97943C4.54271 4.66882 4.96239 4.49432 5.4 4.49432H18.6C19.0376 4.49432 19.4573 4.66882 19.7667 4.97943C20.0762 5.29004 20.25 5.71131 20.25 6.15057V16.0881C20.25 16.5273 20.0762 16.9486 19.7667 17.2592C19.4573 17.5698 19.0376 17.7443 18.6 17.7443H18.1875M8.79066 20.9943H15.2093C16.2316 20.9943 16.8466 19.9004 16.29 19.0741L13.0807 14.3104C12.9637 14.1366 12.8036 13.9938 12.6148 13.895C12.4261 13.7961 12.2148 13.7443 12 13.7443C11.7852 13.7443 11.5739 13.7961 11.3852 13.895C11.1964 13.9938 11.0363 14.1366 10.9193 14.3104L7.71 19.0741C7.15335 19.9004 7.76842 20.9943 8.79066 20.9943Z" stroke="#191C1E" stroke-width="1.5" stroke-linejoin="round"/>
</svg>
