<svg width="24" height="25" viewBox="0 0 24 25" fill="none" xmlns="http://www.w3.org/2000/svg">
<path d="M12 7.54433C12 5.91933 13.2188 4.29433 14.8438 4.29433C14.8438 5.91933 13.625 7.54433 12 7.54433ZM12.4062 9.44558C11.9878 9.44558 11.6644 9.31233 11.3021 9.16445C10.8446 8.97595 10.3254 8.76308 9.47556 8.76308C7.95619 8.76308 5.5 9.98183 5.5 13.2318C5.5 17.0116 8.02281 20.9506 9.64781 20.9506C10.1922 20.9506 10.6813 20.7369 11.1501 20.533C11.5783 20.3461 11.9894 20.1673 12.4062 20.1673C12.8231 20.1673 13.2334 20.3461 13.6624 20.533C14.1312 20.7369 14.6211 20.9506 15.1655 20.9506C16.2965 20.9506 17.6526 19.0412 18.5 16.6037C17.1838 16.0512 16.3371 14.7496 16.3371 13.2318C16.3371 11.9083 17.0408 11.03 18.0938 10.3881C17.2812 9.16933 16.0731 8.76308 15.2053 8.76308C14.3554 8.76308 13.8362 8.97595 13.3788 9.16445C13.0164 9.31233 12.8247 9.44558 12.4062 9.44558Z" stroke="#191C1E" stroke-width="1.5" stroke-linejoin="round"/>
</svg>
