<svg width="24" height="25" viewBox="0 0 24 25" fill="none" xmlns="http://www.w3.org/2000/svg">
<path d="M10 8.49432L9.53929 9.73897C8.93571 11.3711 8.63393 12.1872 8.03839 12.7827C7.44286 13.3783 6.62679 13.68 4.99464 14.2836L3.75 14.7443L4.99464 15.205C6.62679 15.8086 7.44286 16.1113 8.03839 16.7059C8.63393 17.3006 8.93571 18.1175 9.53929 19.7497L10 20.9943L10.4607 19.7497C11.0643 18.1175 11.367 17.3015 11.9616 16.7059C12.5562 16.1104 13.3732 15.8086 15.0054 15.205L16.25 14.7443L15.0054 14.2836C13.3732 13.68 12.5571 13.3783 11.9616 12.7827C11.3661 12.1872 11.0643 11.3711 10.4607 9.73897L10 8.49432Z" stroke="#191C1E" stroke-width="1.5" stroke-linejoin="round"/>
<path d="M16.7606 5.14107L17 4.49432L17.2405 5.14107C17.5536 5.99041 17.7107 6.41507 18.0205 6.72491C18.3289 7.03334 18.753 7.19041 19.5995 7.50393L20.25 7.74432L19.6032 7.98482C18.7539 8.29791 18.3292 8.45499 18.0194 8.76482C17.7107 9.07357 17.5536 9.49824 17.2394 10.3476L17 10.9943L16.7595 10.3476C16.4464 9.49824 16.2893 9.07357 15.9795 8.76374C15.6711 8.45531 15.247 8.29823 14.4005 7.98471L13.75 7.74432L14.3967 7.50382C15.2461 7.19074 15.6707 7.03366 15.9806 6.72382C16.2893 6.41508 16.4464 5.9904 16.7606 5.14107Z" stroke="#191C1E" stroke-width="1.5" stroke-linejoin="round"/>
</svg>
