<svg width="24" height="25" viewBox="0 0 24 25" fill="none" xmlns="http://www.w3.org/2000/svg">
<path d="M14.8333 10.6582C14.2679 10.0935 13.4872 9.74432 12.625 9.74432C10.8991 9.74432 9.5 11.1434 9.5 12.8693C9.5 14.5952 10.8991 15.9943 12.625 15.9943C13.4872 15.9943 14.2679 15.6451 14.8333 15.0805M8 12.8693H12.75M2.75 5.49432H21.25V19.9943H2.75V5.49432Z" stroke="#191C1E" stroke-width="1.5" stroke-linejoin="round"/>
<path d="M14.8333 10.6582C14.2679 10.0935 13.4872 9.74432 12.625 9.74432C10.8991 9.74432 9.5 11.1434 9.5 12.8693C9.5 14.5952 10.8991 15.9943 12.625 15.9943C13.4872 15.9943 14.2679 15.6451 14.8333 15.0805M8 12.8693H12.75M2.75 5.49432H21.25V19.9943H2.75V5.49432Z" stroke="black" stroke-opacity="0.2" stroke-width="1.5" stroke-linejoin="round"/>
</svg>
