<svg width="24" height="25" viewBox="0 0 24 25" fill="none" xmlns="http://www.w3.org/2000/svg">
<path d="M12 19.2443C8.41015 19.2443 5.5 16.3342 5.5 12.7443M12 6.24432C15.5899 6.24432 18.5 9.15447 18.5 12.7443M21.25 12.7443C21.25 17.853 17.1086 21.9943 12 21.9943C6.89137 21.9943 2.75 17.853 2.75 12.7443C2.75 7.63569 6.89137 3.49432 12 3.49432C17.1086 3.49432 21.25 7.63569 21.25 12.7443ZM14 12.7443C14 13.8489 13.1046 14.7443 12 14.7443C10.8954 14.7443 10 13.8489 10 12.7443C10 11.6398 10.8954 10.7443 12 10.7443C13.1046 10.7443 14 11.6398 14 12.7443Z" stroke="#191C1E" stroke-width="1.5" stroke-linejoin="round"/>
</svg>
