<svg width="24" height="25" viewBox="0 0 24 25" fill="none" xmlns="http://www.w3.org/2000/svg">
<path d="M5.11481 19.6295L3.75 20.9943M18.8852 5.85913L20.25 4.49432M8.98773 15.7566L15.0123 9.73205M15.4426 5.85913L15.1904 5.60696C15.029 5.44561 14.8102 5.35497 14.5819 5.35497C14.3537 5.35497 14.1349 5.44561 13.9735 5.60696L13.0388 6.54162C12.8775 6.70302 12.7868 6.92189 12.7868 7.1501C12.7868 7.37832 12.8775 7.59719 13.0388 7.75858L15.0123 9.73205M15.4426 5.85913L16.5554 4.74631C16.7168 4.58496 16.9357 4.49432 17.1639 4.49432C17.3921 4.49432 17.611 4.58496 17.7724 4.74631L19.998 6.97195C20.1594 7.13334 20.25 7.35221 20.25 7.58043C20.25 7.80864 20.1594 8.02751 19.998 8.18891L18.8852 9.30173M15.4426 5.85913L18.8852 9.30173M18.8852 9.30173L19.1374 9.5539C19.2987 9.71529 19.3894 9.93416 19.3894 10.1624C19.3894 10.3906 19.2987 10.6095 19.1374 10.7709L18.2027 11.7055C18.0413 11.8669 17.8224 11.9575 17.5942 11.9575C17.366 11.9575 17.1471 11.8669 16.9857 11.7055L15.0123 9.73205M8.5574 19.6295L8.80957 19.8817C8.97097 20.043 9.18984 20.1337 9.41805 20.1337C9.64627 20.1337 9.86514 20.043 10.0265 19.8817L10.9612 18.947C11.1225 18.7856 11.2132 18.5668 11.2132 18.3385C11.2132 18.1103 11.1225 17.8915 10.9612 17.7301L7.01426 13.7831C6.85286 13.6218 6.63399 13.5311 6.40578 13.5311C6.17757 13.5311 5.9587 13.6218 5.7973 13.7831L4.86264 14.7178C4.70129 14.8792 4.61065 15.0981 4.61065 15.3263C4.61065 15.5545 4.70129 15.7734 4.86264 15.9347L5.11481 16.1869M8.5574 19.6295L7.44458 20.7423C7.28319 20.9037 7.06432 20.9943 6.8361 20.9943C6.60789 20.9943 6.38902 20.9037 6.22763 20.7423L4.00199 18.5167C3.84064 18.3553 3.75 18.1364 3.75 17.9082C3.75 17.68 3.84064 17.4611 4.00199 17.2997L5.11481 16.1869M8.5574 19.6295L5.11481 16.1869" stroke="#191C1E" stroke-width="1.5" stroke-linecap="round" stroke-linejoin="round"/>
</svg>
