<svg width="24" height="25" viewBox="0 0 24 25" fill="none" xmlns="http://www.w3.org/2000/svg">
<path d="M8.85336 14.9884C9.44369 14.2405 10.1454 13.7551 10.8881 13.496M3.86621 13.5758C4.78254 12.7454 6.03773 12.2334 7.4223 12.2334C8.76192 12.2334 9.98043 12.7127 10.8881 13.496M10.8881 13.496C12.1935 13.0405 13.6256 13.2841 14.8021 14.0297C14.1086 13.1173 14.2011 11.9565 13.9452 10.2982L12.4345 8.17794C10.3971 8.57889 9.6244 8.51784 8.70229 7.85454C8.13021 7.40326 8.32503 6.74655 8.83025 6.20204C9.56744 5.39023 10.038 4.73847 10.6637 4.538C10.885 4.46787 11.1227 4.49345 11.3506 4.53635C12.2231 4.70382 12.9174 4.934 13.7669 5.1518C13.9897 5.20654 14.1995 5.30496 14.384 5.44134C14.5685 5.57772 14.7241 5.74935 14.8417 5.94629C16.5604 8.8726 17.7698 10.8122 19.3606 13.6189C19.9682 14.6914 20.4734 15.9429 20.1481 17.1334C20.0152 17.6185 19.6941 17.9906 19.2657 18.2538C15.9058 20.3221 12.8885 20.695 10.5193 19.6835C8.49454 21.7118 5.16022 21.1023 3.86621 19.7681" stroke="#191C1E" stroke-width="1.5" stroke-linejoin="round"/>
</svg>
