<svg width="24" height="25" viewBox="0 0 24 25" fill="none" xmlns="http://www.w3.org/2000/svg">
<path d="M6.32834 11.4072C6.14221 12.1173 6.04166 12.8747 6.04166 13.661C6.04166 17.7111 8.7093 20.9943 12 20.9943C15.2907 20.9943 17.9583 17.7111 17.9583 13.661C17.9583 12.1074 17.5658 10.6666 16.8961 9.48074M6.32834 11.4072C4.75004 10.9943 3.75004 10.0443 3.75004 7.24429M6.32834 11.4072C6.50999 10.7143 6.77314 10.0664 7.10389 9.4807M17.6717 11.4072C19.25 10.9943 20.25 10.0443 20.25 7.24429M6.98332 17.6193C5.40501 18.0322 4.75004 20.2443 4.75004 21.7443M17.0167 17.6193C18.595 18.0322 19.25 20.2443 19.25 21.7443M12 10.9943C10.0165 10.9943 8.24884 10.4029 7.10389 9.4807M12 10.9943C13.9835 10.9943 15.7512 10.403 16.8961 9.48074M12 10.9943V12.7443M7.10389 9.4807C7.76114 8.31681 8.68534 7.39843 9.76737 6.85985M16.8961 9.48074C16.2389 8.31685 15.3147 7.39846 14.2327 6.85988M7.27494 3.74429L9.76737 6.85985M16.7251 3.74429L14.2327 6.85988M9.76737 6.85985C10.4569 6.51665 11.2105 6.32767 12 6.32767C12.7895 6.32767 13.5431 6.51665 14.2327 6.85988M6.05311 14.1193H3.00004M21 14.1193H17.9469" stroke="#191C1E" stroke-width="1.5" stroke-linejoin="round"/>
</svg>
