<svg width="24" height="25" viewBox="0 0 24 25" fill="none" xmlns="http://www.w3.org/2000/svg">
<path d="M15.875 5.49432H16.75C19.2353 5.49432 21.25 7.50904 21.25 9.99432V12.2443M15.875 5.49432H11.75M15.875 5.49432L16.875 9.99432M21.25 12.2443V17.9943H19M21.25 12.2443H17.375L16.875 9.99432M2.75 9.99432V17.9943H5.125M2.75 9.99432V6.49432C2.75 5.94204 3.19772 5.49432 3.75 5.49432H7.25M2.75 9.99432H7.25M7.25 5.49432V9.99432M7.25 5.49432H11.75M7.25 9.99432H11.75M11.75 5.49432V9.99432M11.75 9.99432H16.875M15.125 17.9943H9M9 17.9943C9 19.0989 8.10457 19.9943 7 19.9943C5.89543 19.9943 5 19.0989 5 17.9943C5 16.8898 5.89543 15.9943 7 15.9943C8.10457 15.9943 9 16.8898 9 17.9943ZM19 17.9943C19 19.0989 18.1046 19.9943 17 19.9943C15.8954 19.9943 15 19.0989 15 17.9943C15 16.8898 15.8954 15.9943 17 15.9943C18.1046 15.9943 19 16.8898 19 17.9943Z" stroke="#191C1E" stroke-width="1.5" stroke-linejoin="round"/>
</svg>
