<svg width="24" height="25" viewBox="0 0 24 25" fill="none" xmlns="http://www.w3.org/2000/svg">
<path d="M2.75 8.49432V18.9943H5M2.75 8.49432V5.99432C2.75 5.1659 3.42157 4.49432 4.25 4.49432H18.25C19.9069 4.49432 21.25 5.83747 21.25 7.49432V8.49432H18.25M2.75 8.49432H12.25M18.25 8.49432H12.25M18.25 8.49432L21.2368 13.4943L21.25 18.9943H19.25M12.25 8.49432V13.4943V18.9943M12.25 18.9943H8.75M12.25 18.9943H15.375M5 18.9943C5 19.5248 5.21071 20.0335 5.58579 20.4085C5.96086 20.7836 6.46957 20.9943 7 20.9943C7.53043 20.9943 8.03914 20.7836 8.41421 20.4085C8.78929 20.0335 9 19.5248 9 18.9943C9 18.4639 8.78929 17.9552 8.41421 17.5801C8.03914 17.205 7.53043 16.9943 7 16.9943C6.46957 16.9943 5.96086 17.205 5.58579 17.5801C5.21071 17.9552 5 18.4639 5 18.9943ZM19.25 18.9943C19.25 19.5248 19.0393 20.0335 18.6642 20.4085C18.2891 20.7836 17.7804 20.9943 17.25 20.9943C16.7196 20.9943 16.2109 20.7836 15.8358 20.4085C15.4607 20.0335 15.25 19.5248 15.25 18.9943C15.25 18.4639 15.4607 17.9552 15.8358 17.5801C16.2109 17.205 16.7196 16.9943 17.25 16.9943C17.7804 16.9943 18.2891 17.205 18.6642 17.5801C19.0393 17.9552 19.25 18.4639 19.25 18.9943Z" stroke="#191C1E" stroke-width="1.5" stroke-linejoin="round"/>
<path d="M12.25 13.4943H21.2368" stroke="#191C1E" stroke-width="1.5" stroke-linejoin="round"/>
</svg>
