<svg width="24" height="25" viewBox="0 0 24 25" fill="none" xmlns="http://www.w3.org/2000/svg">
<path d="M19 17.9943C19 19.0989 18.1046 19.9943 17 19.9943C15.8954 19.9943 15 19.0989 15 17.9943M19 17.9943C19 16.8898 18.1046 15.9943 17 15.9943C15.8954 15.9943 15 16.8898 15 17.9943M19 17.9943H21.25V14.9943C21.25 12.7852 19.4591 10.9943 17.25 10.9943H2.75V17.9943H5M15 17.9943H9M9 17.9943C9 19.0989 8.10457 19.9943 7 19.9943C5.89543 19.9943 5 19.0989 5 17.9943M9 17.9943C9 16.8898 8.10457 15.9943 7 15.9943C5.89543 15.9943 5 16.8898 5 17.9943" stroke="#191C1E" stroke-width="1.5" stroke-linejoin="round"/>
<path d="M2.75 10.9943L3.98596 7.00455C4.3102 5.95787 5.27825 5.24432 6.374 5.24432H9.03125M9.03125 5.24432H12.7658C13.6972 5.24432 14.5514 5.76212 14.9823 6.58791L17.2812 10.9943M9.03125 5.24432V10.9943" stroke="#191C1E" stroke-width="1.5" stroke-linejoin="round"/>
</svg>
