<svg width="24" height="25" viewBox="0 0 24 25" fill="none" xmlns="http://www.w3.org/2000/svg">
<path d="M19.2971 15.9943H5.62681L7.20415 13.5487M7.20415 13.5487L19.2971 12.4617L21.25 6.48345H5.62681M7.20415 13.5487L5.62681 6.48345M5.62681 6.48345L4.92935 3.49432H2M10.5 20.4943C10.5 21.3228 9.82843 21.9943 9 21.9943C8.17157 21.9943 7.5 21.3228 7.5 20.4943C7.5 19.6659 8.17157 18.9943 9 18.9943C9.82843 18.9943 10.5 19.6659 10.5 20.4943ZM17.5 20.4943C17.5 21.3228 16.8284 21.9943 16 21.9943C15.1716 21.9943 14.5 21.3228 14.5 20.4943C14.5 19.6659 15.1716 18.9943 16 18.9943C16.8284 18.9943 17.5 19.6659 17.5 20.4943Z" stroke="#191C1E" stroke-width="1.5" stroke-linejoin="round"/>
</svg>
