<svg width="24" height="25" viewBox="0 0 24 25" fill="none" xmlns="http://www.w3.org/2000/svg">
<path d="M2.74997 12.6193C2.74997 17.6589 6.83537 21.7443 11.875 21.7443C16.9146 21.7443 21 17.6589 21 12.6193C21 7.57969 16.9146 3.49429 11.875 3.49429C8.99252 3.49429 6.42223 4.83078 4.74997 6.91788M4.74997 6.91788V2.24429M4.74997 6.91788H9.62497M14.75 10.2678C14.1139 9.63541 13.2357 9.24432 12.2657 9.24432C10.324 9.24432 8.74999 10.8113 8.74999 12.7443C8.74999 14.6773 10.324 16.2443 12.2657 16.2443C13.2357 16.2443 14.1139 15.8532 14.75 15.2208M6.99999 12.7443H12.5" stroke="#191C1E" stroke-width="1.5" stroke-linejoin="round"/>
</svg>
