<svg width="24" height="25" viewBox="0 0 24 25" fill="none" xmlns="http://www.w3.org/2000/svg">
<path d="M7.20839 15.8693V22.5777M16.7917 15.8693V22.5777M7.28555 12.9605L6.93814 9.43606C6.69376 6.95685 6.57205 5.71772 7.1001 4.82839C8.00001 3.42731 10.25 3.42731 12.0001 3.42731C13.6867 3.42731 16 3.42731 16.9 4.82839C17.4281 5.71772 17.3063 6.95685 17.062 9.43606L16.7146 12.96M7.28555 12.9605C7.44406 12.839 7.6142 12.7462 7.79105 12.6915C9.00047 12.3168 10.5415 12.036 12.0001 12.036C13.4586 12.036 15.0006 12.3178 16.2091 12.6906C16.3859 12.7455 16.5561 12.8383 16.7146 12.96M7.28555 12.9605C6.62807 13.4645 6.17044 14.4644 6.26155 15.3068C6.30372 15.694 6.60368 15.8693 6.91897 15.8693H17.0811C17.3974 15.8693 17.6964 15.694 17.7386 15.3068C17.8297 14.4644 17.3721 13.4646 16.7146 12.96" stroke="#191C1E" stroke-width="1.5" stroke-linejoin="round"/>
</svg>
