<svg width="24" height="25" viewBox="0 0 24 25" fill="none" xmlns="http://www.w3.org/2000/svg">
<path d="M12 5.99432V3.74432M12 5.99432H8.625M12 5.99432H15.375M8.625 5.99432H7.25C6.14543 5.99432 5.25 6.88975 5.25 7.99432V9.36932M8.625 5.99432V3.74432M15.375 5.99432H16.75C17.8546 5.99432 18.75 6.88975 18.75 7.99432V9.36932M15.375 5.99432V3.74432M5.25 12.7443H3M5.25 12.7443V9.36932M5.25 12.7443V16.1193M5.25 9.36932H3M5.25 16.1193V17.4943C5.25 18.5989 6.14543 19.4943 7.25 19.4943H8.625M5.25 16.1193H3M18.75 12.7443H21M18.75 12.7443V9.36932M18.75 12.7443V16.1193M18.75 9.36932H21M18.75 16.1193V17.4943C18.75 18.5989 17.8546 19.4943 16.75 19.4943H15.375M18.75 16.1193H21M12 19.4943V21.7443M12 19.4943H8.625M12 19.4943H15.375M8.625 19.4943V21.7443M15.375 19.4943V21.7443M10.25 16.4943H13.75C14.8546 16.4943 15.75 15.5989 15.75 14.4943V10.9943C15.75 9.88975 14.8546 8.99432 13.75 8.99432H10.25C9.14543 8.99432 8.25 9.88975 8.25 10.9943V14.4943C8.25 15.5989 9.14543 16.4943 10.25 16.4943Z" stroke="#191C1E" stroke-width="1.5" stroke-linejoin="round"/>
</svg>
