<svg width="24" height="25" viewBox="0 0 24 25" fill="none" xmlns="http://www.w3.org/2000/svg">
<path d="M15.8418 9.55962C15.0276 8.74688 13.9038 8.24432 12.6625 8.24432C10.1772 8.24432 8.1625 10.259 8.1625 12.7443C8.1625 15.2296 10.1772 17.2443 12.6625 17.2443C13.9038 17.2443 15.0276 16.7418 15.8418 15.929M6 14.2443H12.5208M6 11.2443H12.5208M21.25 12.7443C21.25 17.853 17.1086 21.9943 12 21.9943C6.89137 21.9943 2.75 17.853 2.75 12.7443C2.75 7.63569 6.89137 3.49432 12 3.49432C17.1086 3.49432 21.25 7.63569 21.25 12.7443Z" stroke="#191C1E" stroke-width="1.5" stroke-linejoin="round"/>
</svg>
