<svg width="24" height="25" viewBox="0 0 24 25" fill="none" xmlns="http://www.w3.org/2000/svg">
<path d="M21.25 10.7443C21.25 7.84481 17.1086 5.49431 12 5.49431C10.8702 5.49431 9.78775 5.60926 8.78693 5.81969M21.25 10.7443V14.7443C21.25 15.7418 20.7598 16.6744 19.9087 17.4686M21.25 10.7443C21.25 12.4919 19.7456 14.04 17.4317 14.9943M2.74998 10.7443L2.74998 14.7443C2.74998 16.5679 4.38822 18.1744 6.87498 19.1155M2.74998 10.7443C2.74998 12.5679 4.38822 14.1744 6.87498 15.1155M2.74998 10.7443C2.74998 9.14352 4.0123 7.71007 6.00278 6.74711M12 19.9943V15.9943M12 19.9943C10.1044 19.9943 8.34205 19.6707 6.87498 19.1155M12 19.9943C14.2882 19.9943 16.3823 19.5227 17.9972 18.7415M12 15.9943C10.1044 15.9943 8.34205 15.6707 6.87498 15.1155M12 15.9943C13.04 15.9943 14.0399 15.8969 14.9729 15.7173M6.87498 15.1155V19.1155M17.125 19.1155V17.8693M2.74999 3.49432L6.00278 6.74711M21.25 21.9943L17.9972 18.7415M6.00278 6.74711L14.9729 15.7173M14.9729 15.7173L17.125 17.8693M17.125 17.8693L17.9972 18.7415" stroke="#191C1E" stroke-width="1.5" stroke-linejoin="round"/>
</svg>
