<svg width="24" height="25" viewBox="0 0 24 25" fill="none" xmlns="http://www.w3.org/2000/svg">
<path d="M20.25 12.2443C20.25 13.2108 17.8995 13.9943 15 13.9943C12.1005 13.9943 9.75 13.2108 9.75 12.2443M20.25 12.2443C20.25 11.2778 17.8995 10.4943 15 10.4943C12.1005 10.4943 9.75 11.2778 9.75 12.2443M20.25 12.2443V19.2443C20.25 20.2108 17.8995 20.9943 15 20.9943C12.1005 20.9943 9.75 20.2108 9.75 19.2443V12.2443M3.75 6.18182C3.75 5.21532 6.1005 4.43182 9 4.43182C11.8995 4.43182 14.25 5.21532 14.25 6.18182C14.25 7.14832 11.8995 7.93182 9 7.93182C6.1005 7.93182 3.75 7.14832 3.75 6.18182ZM3.75 6.18182V16.6818C3.75 17.4822 5.3125 18.3654 7.5625 18.3654M3.75 9.68182C3.75 10.5122 5.5625 11.3869 7.8125 11.3869M3.75 13.1818C3.75 13.9822 5.3125 14.8654 7.5625 14.8654M20.25 15.7443C20.25 16.7108 17.8996 17.4943 15 17.4943C12.1004 17.4943 9.75 16.7108 9.75 15.7443" stroke="#191C1E" stroke-width="1.5" stroke-linejoin="round"/>
</svg>
