<svg width="24" height="25" viewBox="0 0 24 25" fill="none" xmlns="http://www.w3.org/2000/svg">
<path d="M12 15.9943L12 19.9943M12 15.9943C17.1086 15.9943 21.25 13.6438 21.25 10.7443M12 15.9943C6.89137 15.9943 2.75 13.6438 2.75 10.7443M2.75 10.7443C2.75 7.84483 6.89137 5.49432 12 5.49432C17.1086 5.49432 21.25 7.84483 21.25 10.7443M2.75 10.7443L2.75 14.7443C2.75 17.6438 6.89137 19.9943 12 19.9943M21.25 10.7443L21.25 14.7443C21.25 17.6438 17.1086 19.9943 12 19.9943M17.125 19.1155L17.125 15.1155M6.875 19.1155L6.875 15.1155" stroke="#191C1E" stroke-width="1.5" stroke-linejoin="round"/>
</svg>
