<svg width="24" height="25" viewBox="0 0 24 25" fill="none" xmlns="http://www.w3.org/2000/svg">
<path d="M13.1859 11.2284C13.1859 10.861 13.2784 10.4993 13.4553 10.1752C13.6322 9.85124 13.888 9.57494 14.2001 9.37083C14.5121 9.16672 14.8708 9.04109 15.2442 9.00508C15.6177 8.96907 15.9945 9.02379 16.3412 9.16438C16.688 9.30497 16.9939 9.52711 17.232 9.8111C17.4701 10.0951 17.6329 10.4322 17.7062 10.7925C17.7354 10.9366 17.75 11.0826 17.75 11.2284C17.75 11.3325 17.7405 11.4368 17.7214 11.5397C17.6735 11.7971 17.5672 12.0378 17.4117 12.2407C17.2562 12.4436 17.0564 12.6022 16.83 12.7026C16.6487 12.783 16.4549 12.8241 16.2597 12.8241M16.2597 12.8241H15.1419M16.2597 12.8241C16.4549 12.8241 16.6487 12.8611 16.83 12.9334C17.0564 13.0238 17.2562 13.1666 17.4117 13.3492C17.5672 13.5318 17.6735 13.7485 17.7214 13.9801C17.7405 14.0727 17.75 14.1665 17.75 14.2603C17.75 14.4061 17.7354 14.5521 17.7062 14.6961C17.6329 15.0565 17.4701 15.3935 17.232 15.6775C16.9939 15.9615 16.688 16.1837 16.3412 16.3243C15.9945 16.4649 15.6177 16.5196 15.2442 16.4836C14.8708 16.4476 14.5121 16.3219 14.2001 16.1178C13.888 15.9137 13.6322 15.6374 13.4553 15.3134C13.2784 14.9894 13.1859 14.6277 13.1859 14.2603M6.46969 11.1213C6.46969 10.7715 6.55129 10.4271 6.70728 10.1187C6.86326 9.81018 7.08881 9.54712 7.36395 9.35279C7.63908 9.15846 7.95531 9.03885 8.28461 9.00457C8.61392 8.97028 8.94614 9.02237 9.25185 9.15623C9.55757 9.29009 9.82733 9.50158 10.0373 9.77197C10.2472 10.0424 10.3908 10.3633 10.4553 10.7064C10.5199 11.0494 10.5034 11.404 10.4073 11.7388C10.3113 12.0735 10.1386 12.378 9.90464 12.6253L6.25 16.4943H11.0749M2.75 5.49432H21.25V19.9943H2.75V5.49432Z" stroke="#191C1E" stroke-width="1.5" stroke-linejoin="round"/>
</svg>
