<svg width="24" height="25" viewBox="0 0 24 25" fill="none" xmlns="http://www.w3.org/2000/svg">
<path d="M6.5 5.49432V4.49432H2.75V10.4943H6.5V9.49432M6.5 5.49432V9.49432M6.5 5.49432H8.75H16.75L21.25 9.49432H13.5M6.5 9.49432H9.5M9.5 9.49432H12.75H13.5M9.5 9.49432V20.9943M7.25 20.9943H13.5M15.75 20.9943H13.5M13.5 9.49432V20.9943M19.375 13.4943C18.3395 13.4943 17.5 14.3338 17.5 15.3693C17.5 15.8871 17.7099 16.3558 18.0492 16.6951M19.375 13.4943C20.4105 13.4943 21.25 14.3338 21.25 15.3693C21.25 15.8871 21.0401 16.3558 20.7008 16.6951M19.375 13.4943V9.49432" stroke="#191C1E" stroke-width="1.5" stroke-linejoin="round"/>
<path d="M16.75 5.49432L12.75 9.49432L8.75 5.49432" stroke="#191C1E" stroke-width="1.5" stroke-linejoin="round"/>
</svg>
