<svg width="24" height="25" viewBox="0 0 24 25" fill="none" xmlns="http://www.w3.org/2000/svg">
<path d="M18.7556 20.5924C20.1905 19.764 20.6821 17.9292 19.8537 16.4943C19.0252 15.0595 17.1905 14.5678 15.7556 15.3963C14.3207 16.2247 13.8291 18.0595 14.6575 19.4943C15.4859 20.9292 17.3207 21.4208 18.7556 20.5924Z" stroke="#191C1E" stroke-width="1.5" stroke-linejoin="round"/>
<path d="M5.25001 20.5924C3.81513 19.764 3.32351 17.9292 4.15194 16.4943C4.98036 15.0595 6.81514 14.5678 8.25001 15.3963C9.68489 16.2247 10.1765 18.0595 9.34809 19.4943C8.51966 20.9292 6.68489 21.4208 5.25001 20.5924Z" stroke="#191C1E" stroke-width="1.5" stroke-linejoin="round"/>
<path d="M11.5 9.24432H21M3 9.24432H6" stroke="#191C1E" stroke-width="1.5" stroke-linejoin="round"/>
<path d="M9.34808 19.4943L13.9669 11.4943M16.565 6.99432L18.297 3.99432M14.6575 19.4943L5.70856 3.99432" stroke="#191C1E" stroke-width="1.5" stroke-linejoin="round"/>
</svg>
