<svg width="24" height="25" viewBox="0 0 24 25" fill="none" xmlns="http://www.w3.org/2000/svg">
<path d="M20.25 11.1193C20.25 13.3975 16.5563 15.2443 12 15.2443C7.44365 15.2443 3.75 13.3975 3.75 11.1193M20.25 14.6193C20.25 16.8975 16.5563 18.7443 12 18.7443C7.44365 18.7443 3.75 16.8975 3.75 14.6193M20.25 7.61932C20.25 9.8975 16.5563 11.7443 12 11.7443C7.44365 11.7443 3.75 9.8975 3.75 7.61932M20.25 7.61932C20.25 5.34115 16.5563 3.49432 12 3.49432C7.44365 3.49432 3.75 5.34115 3.75 7.61932M20.25 7.61932V17.8693C20.25 20.1475 16.5563 21.9943 12 21.9943C7.44365 21.9943 3.75 20.1475 3.75 17.8693V7.61932" stroke="#191C1E" stroke-width="1.5" stroke-linejoin="round"/>
</svg>
