<svg width="24" height="25" viewBox="0 0 24 25" fill="none" xmlns="http://www.w3.org/2000/svg">
<path d="M21.9313 12.3186C20.9091 11.5759 19.6667 11.1991 18.4042 11.2487C17.1416 11.2983 15.9326 11.7715 14.9718 12.592C14.0111 13.4126 13.3546 14.5327 13.1081 15.7719C13.0769 15.9288 13.0525 16.0864 13.0348 16.2443H9.28482M4.25 16.2443V16.8693C4.25 18.3191 5.42525 19.4943 6.875 19.4943C8.32475 19.4943 9.5 18.3191 9.5 16.8693V16.2443M9.5 16.2443V11.2443M9.5 16.2443H2.75V14.2443C2.75 12.5875 4.09315 11.2443 5.75 11.2443H9.5M9.5 11.2443V5.49432H2.75V11.2443H9.5ZM12.25 5.50696L15.5 5.50696L15.9833 6.99432M15.9833 6.99432L18.75 6.99432M15.9833 6.99432L17.2382 10.8567M21.25 16.8693C21.25 18.3191 20.0747 19.4943 18.625 19.4943C17.1753 19.4943 16 18.3191 16 16.8693C16 15.4196 17.1753 14.2443 18.625 14.2443C20.0747 14.2443 21.25 15.4196 21.25 16.8693Z" stroke="#191C1E" stroke-width="1.5" stroke-linejoin="round"/>
</svg>
