<svg width="24" height="25" viewBox="0 0 24 25" fill="none" xmlns="http://www.w3.org/2000/svg">
<path d="M3.85563 17.1335C4.21676 17.6538 4.81869 17.9943 5.5 17.9943C6.60457 17.9943 7.5 17.0989 7.5 15.9943V9.49432C7.5 8.38975 6.60457 7.49432 5.5 7.49432C4.81793 7.49432 4.21561 7.83575 3.85462 8.35702M3.85563 17.1335C5.41875 20.0279 8.47973 21.9943 12 21.9943C15.5203 21.9943 18.5812 20.0279 20.1444 17.1335M3.85563 17.1335C3.15035 15.8275 2.75 14.3327 2.75 12.7443C2.75 11.1567 3.14996 9.66253 3.85462 8.35702M3.85462 8.35702C5.41743 5.46164 8.47897 3.49432 12 3.49432C15.521 3.49432 18.5826 5.46164 20.1454 8.35702M20.1444 17.1335C19.7832 17.6538 19.1813 17.9943 18.5 17.9943C17.3954 17.9943 16.5 17.0989 16.5 15.9943V9.49432C16.5 8.38975 17.3954 7.49432 18.5 7.49432C19.1821 7.49432 19.7844 7.83575 20.1454 8.35702M20.1444 17.1335C20.8497 15.8275 21.25 14.3327 21.25 12.7443C21.25 11.1567 20.85 9.66253 20.1454 8.35702" stroke="#191C1E" stroke-width="1.5" stroke-linejoin="round"/>
</svg>
