<svg width="24" height="25" viewBox="0 0 24 25" fill="none" xmlns="http://www.w3.org/2000/svg">
<path d="M12 3.49432C6.89137 3.49432 2.75 7.63569 2.75 12.7443C2.75 17.853 6.89137 21.9943 12 21.9943C17.1086 21.9943 21.25 17.853 21.25 12.7443C21.25 7.63569 17.1086 3.49432 12 3.49432ZM12 3.49432V7.49432M12 7.49432C9.10051 7.49432 6.75 9.84483 6.75 12.7443C6.75 15.6438 9.10051 17.9943 12 17.9943C13.4497 17.9943 14.7622 17.4067 15.7123 16.4566M12 7.49432C13.4497 7.49432 14.7622 8.08195 15.7123 9.03201M18.5 6.24432L15.7123 9.03201M18.5 19.2443L15.7123 16.4566M15.7123 9.03201C16.6624 9.98208 17.25 11.2946 17.25 12.7443C17.25 14.1941 16.6624 15.5066 15.7123 16.4566" stroke="#191C1E" stroke-width="1.5" stroke-linejoin="round"/>
</svg>
