<svg width="24" height="25" viewBox="0 0 24 25" fill="none" xmlns="http://www.w3.org/2000/svg">
<path d="M16.6923 5.81782L15.6208 4.74631C15.4594 4.58496 15.2405 4.49432 15.0123 4.49432C14.7841 4.49432 14.5652 4.58496 14.4038 4.74631L12.6085 6.54162C12.4471 6.70302 12.3565 6.92189 12.3565 7.1501C12.3565 7.37832 12.4471 7.59719 12.6085 7.75858L16.9857 12.1358C17.1471 12.2972 17.366 12.3878 17.5942 12.3878C17.8224 12.3878 18.0413 12.2972 18.2027 12.1358L19.998 10.3405C20.1594 10.1791 20.25 9.96026 20.25 9.73205C20.25 9.50384 20.1594 9.28497 19.998 9.12357L18.9265 8.05206M16.6923 5.81782L17.4789 5.03119C17.6245 4.87974 17.7989 4.75886 17.9918 4.67562C18.1847 4.59238 18.3923 4.54844 18.6024 4.54639C18.8125 4.54434 19.0209 4.5842 19.2154 4.66366C19.4099 4.74311 19.5866 4.86056 19.7352 5.00913C19.8838 5.1577 20.0012 5.33441 20.0807 5.52891C20.1601 5.72342 20.2 5.93181 20.1979 6.14191C20.1959 6.35201 20.1519 6.55959 20.0687 6.7525C19.9855 6.94542 19.8646 7.11979 19.7131 7.26543L18.9265 8.05206M16.6923 5.81782L18.9265 8.05206M7.30774 19.6708L8.37925 20.7423C8.54064 20.9037 8.75951 20.9943 8.98773 20.9943C9.21594 20.9943 9.43481 20.9037 9.59621 20.7423L11.3915 18.947C11.5529 18.7856 11.6435 18.5668 11.6435 18.3385C11.6435 18.1103 11.5529 17.8915 11.3915 17.7301L7.01426 13.3528C6.85286 13.1915 6.63399 13.1008 6.40578 13.1008C6.17757 13.1008 5.9587 13.1915 5.7973 13.3528L4.00199 15.1481C3.84064 15.3095 3.75 15.5284 3.75 15.7566C3.75 15.9848 3.84064 16.2037 4.00199 16.3651L5.07349 17.4366M7.30774 19.6708L6.52111 20.4575C6.37547 20.6089 6.20109 20.7298 6.00818 20.813C5.81526 20.8963 5.60769 20.9402 5.39759 20.9423C5.18749 20.9443 4.97909 20.9044 4.78459 20.825C4.59008 20.7455 4.41338 20.6281 4.26481 20.4795C4.11624 20.3309 3.99879 20.1542 3.91934 19.9597C3.83988 19.7652 3.80001 19.5568 3.80207 19.3467C3.80412 19.1366 3.84805 18.9291 3.9313 18.7361C4.01454 18.5432 4.13542 18.3689 4.28686 18.2232L5.07349 17.4366M7.30774 19.6708L5.07349 17.4366M8.12703 14.3391C8.12703 14.3391 8.9524 13.2254 9.49375 12.9724C11.129 12.2064 11.462 11.8742 12.228 10.2381C12.4811 9.6959 13.5947 8.8714 13.5947 8.8714L13.6716 8.82172L15.9255 11.0756L15.8729 11.1495C15.8729 11.1495 15.0484 12.2632 14.5062 12.5162C12.8701 13.2822 12.5379 13.6153 11.7719 15.2505C11.5189 15.7919 10.4052 16.6172 10.4052 16.6172L10.3264 16.665L8.07312 14.4117L8.12703 14.3391Z" stroke="#191C1E" stroke-width="1.5" stroke-linejoin="round"/>
</svg>
