<svg width="24" height="25" viewBox="0 0 24 25" fill="none" xmlns="http://www.w3.org/2000/svg">
<path d="M21.25 11.2443C21.25 9.58747 17.1086 8.24432 12 8.24432C6.89137 8.24432 2.75 9.58747 2.75 11.2443M21.25 11.2443V14.2443C21.25 15.9012 17.1086 17.2443 12 17.2443C6.89137 17.2443 2.75 15.9012 2.75 14.2443V11.2443M21.25 11.2443C21.25 11.7908 20.7996 12.3031 20.0125 12.7443M2.75 11.2443C2.75 11.7908 3.20045 12.3031 3.98749 12.7443M3.98749 12.7443C5.58686 13.641 8.5762 14.2443 12 14.2443C15.4238 14.2443 18.4131 13.641 20.0125 12.7443M3.98749 12.7443C5.58686 11.8476 8.57619 11.2443 12 11.2443C15.4238 11.2443 18.4131 11.8476 20.0125 12.7443" stroke="#191C1E" stroke-width="1.5" stroke-linejoin="round"/>
</svg>
