<svg width="24" height="25" viewBox="0 0 24 25" fill="none" xmlns="http://www.w3.org/2000/svg">
<path d="M6 10.1193V16.9943C6 18.6512 7.34315 19.9943 9 19.9943C10.6569 19.9943 12 18.6512 12 16.9943V8.49432C12 6.83747 13.3431 5.49432 15 5.49432C16.6569 5.49432 18 6.83747 18 8.49432V15.1193M8.25 10.2443V5.99432C8.25 5.1659 7.57843 4.49432 6.75 4.49432H5.25C4.42157 4.49432 3.75 5.1659 3.75 5.99432V10.2443H8.25ZM20.25 15.2443V19.4943C20.25 20.3228 19.5784 20.9943 18.75 20.9943H17.25C16.4216 20.9943 15.75 20.3228 15.75 19.4943V15.2443H20.25Z" stroke="#191C1E" stroke-width="1.5" stroke-linejoin="round"/>
</svg>
