<svg width="24" height="25" viewBox="0 0 24 25" fill="none" xmlns="http://www.w3.org/2000/svg">
<path d="M15.6806 14.8693C15.3076 15.5154 14.7711 16.0519 14.125 16.4249C13.4789 16.7979 12.746 16.9943 12 16.9943C11.254 16.9943 10.5211 16.7979 9.875 16.4249C9.22892 16.0519 8.69241 15.5154 8.31939 14.8693M21.25 12.7443C21.25 17.853 17.1086 21.9943 12 21.9943C6.89137 21.9943 2.75 17.853 2.75 12.7443C2.75 7.63569 6.89137 3.49432 12 3.49432C17.1086 3.49432 21.25 7.63569 21.25 12.7443Z" stroke="#191C1E" stroke-width="1.5" stroke-linejoin="round"/>
<path d="M8.5 9.24432V9.25303M15.5 9.24432V9.25303" stroke="#191C1E" stroke-width="1.5" stroke-linecap="round" stroke-linejoin="round"/>
</svg>
