<svg width="24" height="25" viewBox="0 0 24 25" fill="none" xmlns="http://www.w3.org/2000/svg">
<path d="M12 6.49432L18.25 10.2443M12 6.49432L5.75 10.2443M12 6.49432L14.2596 4.24432L20.5 7.92766L18.25 10.2443M12 6.49432L9.73333 4.24432L3.5 7.95861L5.75 10.2443M18.25 10.2443L12 13.9943M18.25 10.2443L20.5 12.53L14.2667 16.2443L12 13.9943M5.75 10.2443L12 13.9943M5.75 10.2443L3.5 12.53L9.73333 16.2443L12 13.9943M5.75 13.8777V17.561L11.9904 21.2443L18.2308 17.561V13.8777M12 13.9943V21.2443" stroke="#191C1E" stroke-width="1.5" stroke-linejoin="round"/>
</svg>
