<svg width="24" height="25" viewBox="0 0 24 25" fill="none" xmlns="http://www.w3.org/2000/svg">
<path d="M17.0709 10.2818L17.5125 6.08078L21.7135 6.52232M6.9502 15.4143L6.50866 19.6153L2.30766 19.1738" stroke="#191C1E" stroke-width="1.5" stroke-linejoin="round"/>
<path d="M9.26904 21.0829C12.2798 22.0802 15.7294 21.3811 18.1249 18.9856C21.5077 15.6028 21.5077 10.1183 18.1249 6.73556L17.4913 6.10194M14.7753 4.65325C11.7541 3.63421 8.28233 4.32836 5.87499 6.7357C2.49225 10.1184 2.49225 15.603 5.87499 18.9857L6.50862 19.6193M13.2646 7.99432L12.6474 11.8575L14.644 12.7834L10.6294 17.7443L11.2789 13.7557L9.24999 12.9553L13.2646 7.99432Z" stroke="#191C1E" stroke-width="1.5" stroke-linejoin="round"/>
</svg>
