<svg width="24" height="25" viewBox="0 0 24 25" fill="none" xmlns="http://www.w3.org/2000/svg">
<path d="M9.00012 6.56209C9.94521 6.25691 10.9534 6.09204 12 6.09204C16.3026 6.09204 19.9544 8.87797 21.25 12.7443C20.7716 14.172 19.972 15.4523 18.9369 16.4994M2.75012 3.49432L6.82957 7.57377M21.2501 21.9943L17.1706 17.9148M6.82957 7.57377C4.93269 8.76199 3.47374 10.5846 2.75 12.7443C4.04564 16.6107 7.69749 19.3966 12 19.3966C13.8992 19.3966 15.6716 18.8538 17.1706 17.9148M6.82957 7.57377L9.70202 10.4462M17.1706 17.9148L14.2982 15.0424M11.9328 9.49501C13.7383 9.45834 15.2861 11.007 15.2494 12.8116M9.70202 10.4462C9.11389 11.0344 8.75012 11.8469 8.75012 12.7443C8.75012 14.5392 10.2052 15.9943 12.0001 15.9943C12.8976 15.9943 13.7101 15.6306 14.2982 15.0424M9.70202 10.4462L14.2982 15.0424" stroke="#191C1E" stroke-width="1.5" stroke-linejoin="round"/>
</svg>
