<svg width="24" height="25" viewBox="0 0 24 25" fill="none" xmlns="http://www.w3.org/2000/svg">
<path d="M11.1763 9.45682C11.1763 9.14851 11.0538 8.85282 10.8358 8.63481C10.6178 8.4168 10.3221 8.29432 10.0138 8.29432C9.70551 8.29432 9.40982 8.4168 9.19181 8.63481C8.9738 8.85282 8.85132 9.14851 8.85132 9.45682V12.1693M11.1763 9.45682V13.3318M11.1763 9.45682V7.90682C11.1763 7.59851 11.2988 7.30282 11.5168 7.08481C11.7348 6.8668 12.0305 6.74432 12.3388 6.74432C12.6471 6.74432 12.9428 6.8668 13.1608 7.08481C13.3788 7.30282 13.5013 7.59851 13.5013 7.90682V13.2068M8.85132 12.1693L6.59917 14.1386C6.13196 14.5476 5.83459 15.1165 5.76547 15.7335C5.69635 16.3506 5.86048 16.9712 6.22562 17.4734L8.85054 21.0818V22.2443M8.85132 12.1693V15.6568M13.5013 13.2068V14.1068M13.5013 13.2068C13.5013 12.8985 13.6238 12.6028 13.8418 12.3848C14.0598 12.1668 14.3555 12.0443 14.6638 12.0443C14.9721 12.0443 15.2678 12.1668 15.4858 12.3848C15.7038 12.6028 15.8263 12.8985 15.8263 13.2068V13.7143M16.6013 22.2443V21.0818L17.4716 19.9937C17.9114 19.4437 18.1509 18.7604 18.1505 18.0562V13.7568C18.1505 13.4485 18.0281 13.1528 17.8101 12.9348C17.592 12.7168 17.2964 12.5943 16.988 12.5943C16.6797 12.5943 16.384 12.7168 16.166 12.9348C15.9581 13.1428 15.837 13.4214 15.8263 13.7143M15.8263 13.7143C15.8258 13.7285 15.8255 13.7426 15.8255 13.7568M15.8263 13.7143V14.8818M5.91591 9.49432C5.03397 7.78712 5.03397 5.70153 5.91591 3.99432M16.5841 3.99432C17.466 5.70153 17.466 7.78712 16.5841 9.49432" stroke="#191C1E" stroke-width="1.5" stroke-linejoin="round"/>
</svg>
