<svg width="24" height="25" viewBox="0 0 24 25" fill="none" xmlns="http://www.w3.org/2000/svg">
<path d="M12 21.9943C15.7279 21.9943 18.75 18.525 18.75 14.2963C18.75 10.0757 16.125 5.72922 10.5 3.49432C13.625 9.20573 12 12.3098 10.25 12.3098C8.5 12.3098 8.125 10.0749 9.5 7.96412C7.75 7.96412 5.25 10.8198 5.25 14.2963C5.25 18.5178 8.27208 21.9943 12 21.9943ZM12 21.9943C14.0711 21.9943 15 20.2086 15 19.1372C15 17.1647 13.125 15.2086 12 14.4943C10.875 15.2086 9 17.1647 9 19.1372C9 20.2086 9.92894 21.9943 12 21.9943Z" stroke="#191C1E" stroke-width="1.5" stroke-linejoin="round"/>
</svg>
