<svg width="24" height="25" viewBox="0 0 24 25" fill="none" xmlns="http://www.w3.org/2000/svg">
<path d="M5.75 16.9943V12.7443H12M5.75 16.9943C6.85457 16.9943 7.75 17.8898 7.75 18.9943C7.75 20.0989 6.85457 20.9943 5.75 20.9943C4.64543 20.9943 3.75 20.0989 3.75 18.9943C3.75 17.8898 4.64543 16.9943 5.75 16.9943ZM12 12.7443V8.49432M12 12.7443H18.25V16.9943M12 8.49432C10.8954 8.49432 10 7.59889 10 6.49432C10 5.38975 10.8954 4.49432 12 4.49432C13.1046 4.49432 14 5.38975 14 6.49432C14 7.59889 13.1046 8.49432 12 8.49432ZM18.25 16.9943C19.3546 16.9943 20.25 17.8898 20.25 18.9943C20.25 20.0989 19.3546 20.9943 18.25 20.9943C17.1454 20.9943 16.25 20.0989 16.25 18.9943C16.25 17.8898 17.1454 16.9943 18.25 16.9943Z" stroke="#191C1E" stroke-width="1.5" stroke-linejoin="round"/>
</svg>
