<svg width="24" height="25" viewBox="0 0 24 25" fill="none" xmlns="http://www.w3.org/2000/svg">
<path d="M7.25 13.7443C8.15414 11.943 9.63971 11.2256 11.4634 10.7463C12.0893 10.5818 12.7551 10.4454 13.4509 10.3028L13.5154 10.2896M12.2489 15.8614C13.376 13.2586 13.4986 10.6443 13.4986 10.6443M12.2489 15.8614C11.2791 16.3188 10.1007 16.7069 8.66914 16.9781C7.2811 17.2411 5.65498 17.3943 3.75 17.3943M12.2489 15.8614C16.9838 13.6284 16.7481 9.74432 16.7481 9.74432L16.7244 9.33728M12.2489 15.8614C11.1827 18.3236 9.21753 20.7756 5.60687 20.9943M13.5154 10.2896C13.8949 10.2118 14.2831 10.1319 14.6786 10.0443C15.4711 9.86888 16.1467 9.62689 16.7244 9.33728M13.5154 10.2896L13.5 10.6443M20.25 4.49432C19.8738 5.99344 19.1927 8.09995 16.7244 9.33728M15.75 5.99432C15.75 6.82275 15.0784 7.49432 14.25 7.49432C13.4216 7.49432 12.75 6.82275 12.75 5.99432C12.75 5.1659 13.4216 4.49432 14.25 4.49432C15.0784 4.49432 15.75 5.1659 15.75 5.99432Z" stroke="#191C1E" stroke-width="1.5" stroke-linejoin="round"/>
</svg>
