<svg width="24" height="25" viewBox="0 0 24 25" fill="none" xmlns="http://www.w3.org/2000/svg">
<path d="M14.1602 3.74791C14.6358 3.8617 15.0972 4.01223 15.5411 4.19634M16.8341 4.85646C17.2476 5.11044 17.6396 5.39602 18.0068 5.70984M19.0339 6.73687C19.3481 7.10435 19.6339 7.49674 19.8881 7.91067M20.5484 9.20423C20.7322 9.64754 20.8825 10.1082 20.9962 10.5832M12.7267 3.52245C12.4869 3.50381 12.2446 3.49432 12 3.49432C6.89137 3.49432 2.75 7.63569 2.75 12.7443C2.75 17.853 6.89137 21.9943 12 21.9943C14.5522 21.9943 16.863 20.9607 18.5365 19.2893C20.2129 17.615 21.25 15.3008 21.25 12.7443C21.25 12.5 21.2405 12.2579 21.2219 12.0184" stroke="#191C1E" stroke-width="1.5" stroke-linejoin="round"/>
<path d="M12 6.24432V12.7443H16.25" stroke="#191C1E" stroke-width="1.5" stroke-linejoin="round"/>
</svg>
