<svg width="24" height="25" viewBox="0 0 24 25" fill="none" xmlns="http://www.w3.org/2000/svg">
<path d="M4.75 11.9943V20.9943H19.25V11.9943M11.9838 11.911V21.0777M6.99353 5.98242C6.99353 5.16057 7.65826 4.49432 8.47826 4.49432H8.77521C10.5464 4.49432 11.9822 6.01674 11.9822 7.79194V8.74432H9.66605C8.19005 8.74432 6.99353 7.46175 6.99353 5.98242ZM16.9822 5.98242C16.9822 5.16057 16.3175 4.49432 15.4975 4.49432H15.2005C13.4294 4.49432 11.9935 6.01674 11.9935 7.79194V8.74432H14.3097C15.7857 8.74432 16.9822 7.46175 16.9822 5.98242ZM3.75 8.74432H20.25V11.9943H3.75V8.74432Z" stroke="#191C1E" stroke-width="1.5" stroke-linejoin="round"/>
</svg>
