<svg width="24" height="25" viewBox="0 0 24 25" fill="none" xmlns="http://www.w3.org/2000/svg">
<path d="M5.75 8.49432V12.7443H12M5.75 8.49432C6.85457 8.49432 7.75 7.59889 7.75 6.49432C7.75 5.38975 6.85457 4.49432 5.75 4.49432C4.64543 4.49432 3.75 5.38975 3.75 6.49432C3.75 7.59889 4.64543 8.49432 5.75 8.49432ZM12 12.7443V16.9943M12 12.7443H18.25V8.49432M12 16.9943C10.8954 16.9943 10 17.8898 10 18.9943C10 20.0989 10.8954 20.9943 12 20.9943C13.1046 20.9943 14 20.0989 14 18.9943C14 17.8898 13.1046 16.9943 12 16.9943ZM18.25 8.49432C19.3546 8.49432 20.25 7.59889 20.25 6.49432C20.25 5.38975 19.3546 4.49432 18.25 4.49432C17.1454 4.49432 16.25 5.38975 16.25 6.49432C16.25 7.59889 17.1454 8.49432 18.25 8.49432Z" stroke="#191C1E" stroke-width="1.5" stroke-linejoin="round"/>
</svg>
