<svg width="24" height="25" viewBox="0 0 24 25" fill="none" xmlns="http://www.w3.org/2000/svg">
<path d="M12 21.9943C17.1086 21.9943 21.25 17.853 21.25 12.7443C21.25 7.63569 17.1086 3.49432 12 3.49432M12 21.9943C6.89137 21.9943 2.75 17.853 2.75 12.7443C2.75 7.63569 6.89137 3.49432 12 3.49432M12 21.9943C14.2091 21.9943 16 17.853 16 12.7443C16 7.63569 14.2091 3.49432 12 3.49432M12 21.9943C9.79086 21.9943 8 17.853 8 12.7443C8 7.63569 9.79086 3.49432 12 3.49432M3.5417 8.99432H20.4583M3.5417 16.4943H20.4583" stroke="#191C1E" stroke-width="1.5" stroke-linejoin="round"/>
</svg>
