<svg width="24" height="25" viewBox="0 0 24 25" fill="none" xmlns="http://www.w3.org/2000/svg">
<path d="M21.1927 11.7163C21.4308 13.8455 20.9224 15.9913 19.7544 17.7874C18.5863 19.5834 16.831 20.9183 14.7882 21.5641C12.7454 22.2099 10.5417 22.1265 8.55351 21.3283C6.56532 20.53 4.91587 19.0663 3.88683 17.1872C2.85779 15.308 2.51297 13.1299 2.91125 11.0248C3.30953 8.91964 4.42621 7.01805 6.07061 5.64469C7.71501 4.27134 9.78516 3.51139 11.9276 3.49461C14.07 3.47783 16.1518 4.20526 17.8175 5.5527L15.0887 8.01114C14.1107 7.37315 12.9592 7.05368 11.7923 7.09662C10.6254 7.13957 9.50043 7.54283 8.57199 8.25099C7.64356 8.95915 6.9572 9.93746 6.60726 11.0515C6.25731 12.1655 6.26094 13.3605 6.61764 14.4724C6.97435 15.5843 7.66663 16.5584 8.59934 17.2609C9.53206 17.9634 10.6595 18.3598 11.8266 18.3957C12.9937 18.4316 14.1433 18.1051 15.1174 17.4612C16.0915 16.8173 16.8423 15.8875 17.2666 14.7996H13.027V11.7163H21.1927Z" stroke="#191C1E" stroke-width="1.5" stroke-linecap="round" stroke-linejoin="round"/>
</svg>
