<svg width="24" height="25" viewBox="0 0 24 25" fill="none" xmlns="http://www.w3.org/2000/svg">
<path d="M13.9165 11.5997C14.2807 11.1654 14.5 10.6055 14.5 9.99432C14.5 8.61361 13.3807 7.49432 12 7.49432C11.3888 7.49432 10.8288 7.71365 10.3945 8.0779M7.45241 5.13508C8.77552 4.00864 10.4899 3.49432 12 3.49432C14.9779 3.49432 18.75 5.49432 18.75 10.2443C18.75 11.688 18.1265 13.3396 17.2584 14.9392M2.75 3.49432L6.07341 6.81774M21.25 21.9943L16.1035 16.8478M6.07341 6.81774C5.5604 7.74544 5.25 8.88173 5.25 10.2443C5.25 14.9943 12 21.9943 12 21.9943C12 21.9943 14.212 19.7004 16.1035 16.8478M6.07341 6.81774L16.1035 16.8478" stroke="#191C1E" stroke-width="1.5" stroke-linejoin="round"/>
</svg>
