<svg width="24" height="25" viewBox="0 0 24 25" fill="none" xmlns="http://www.w3.org/2000/svg">
<path d="M7.5 15.5398L3.75 17.2443L12 20.9943L20.25 17.2443L16.5 15.5397M13.5 8.74432C13.5 9.57275 12.8284 10.2443 12 10.2443C11.1716 10.2443 10.5 9.57275 10.5 8.74432C10.5 7.9159 11.1716 7.24432 12 7.24432C12.8284 7.24432 13.5 7.9159 13.5 8.74432ZM16.5 8.96392C16.5 12.1092 12 16.7443 12 16.7443C12 16.7443 7.5 12.1092 7.5 8.96392C7.5 5.81865 10.0147 4.49432 12 4.49432C13.9853 4.49432 16.5 5.81865 16.5 8.96392Z" stroke="#191C1E" stroke-width="1.5" stroke-linejoin="round"/>
</svg>
