<svg width="24" height="25" viewBox="0 0 24 25" fill="none" xmlns="http://www.w3.org/2000/svg">
<path d="M17 7.99432L17.002 7.99579" stroke="#191C1E" stroke-width="1.5" stroke-linecap="round" stroke-linejoin="round"/>
<path d="M17 16.2443V17.8693C17 19.5952 15.6009 20.9943 13.875 20.9943C12.1491 20.9943 10.75 19.5952 10.75 17.8693L10.75 10.4943C10.75 9.11361 9.63071 7.99432 8.25 7.99432C6.86929 7.99432 5.75 9.11361 5.75 10.4943V16.9943M5.75 16.9943C4.64543 16.9943 3.75 17.8898 3.75 18.9943C3.75 20.0989 4.64543 20.9943 5.75 20.9943C6.85457 20.9943 7.75 20.0989 7.75 18.9943C7.75 17.8898 6.85457 16.9943 5.75 16.9943ZM20.25 7.96054C20.25 10.3997 17 13.9943 17 13.9943C17 13.9943 13.75 10.3997 13.75 7.96054C13.75 5.52135 15.5662 4.49432 17 4.49432C18.4338 4.49432 20.25 5.52135 20.25 7.96054Z" stroke="#191C1E" stroke-width="1.5" stroke-linejoin="round"/>
</svg>
