<svg width="24" height="25" viewBox="0 0 24 25" fill="none" xmlns="http://www.w3.org/2000/svg">
<path d="M7.05 6.14432C7.05 6.58193 6.87616 7.00161 6.56673 7.31105C6.25729 7.62048 5.83761 7.79432 5.4 7.79432M7.05 6.14432C7.05 5.70672 6.87616 5.28703 6.56673 4.9776C6.25729 4.66816 5.83761 4.49432 5.4 4.49432C4.96239 4.49432 4.54271 4.66816 4.23327 4.9776C3.92384 5.28703 3.75 5.70672 3.75 6.14432C3.75 6.58193 3.92384 7.00161 4.23327 7.31105C4.54271 7.62048 4.96239 7.79432 5.4 7.79432M7.05 6.14432H16.95M5.4 7.79432V17.6943M18.6 7.79432C19.0376 7.79432 19.4573 7.62048 19.7667 7.31105C20.0762 7.00161 20.25 6.58193 20.25 6.14432C20.25 5.70672 20.0762 5.28703 19.7667 4.9776C19.4573 4.66816 19.0376 4.49432 18.6 4.49432C18.1624 4.49432 17.7427 4.66816 17.4333 4.9776C17.1238 5.28703 16.95 5.70672 16.95 6.14432M18.6 7.79432C18.1624 7.79432 17.7427 7.62048 17.4333 7.31105C17.1238 7.00161 16.95 6.58193 16.95 6.14432M18.6 7.79432V17.6943M16.95 19.3443C16.95 19.7819 17.1238 20.2016 17.4333 20.511C17.7427 20.8205 18.1624 20.9943 18.6 20.9943C19.0376 20.9943 19.4573 20.8205 19.7667 20.511C20.0762 20.2016 20.25 19.7819 20.25 19.3443C20.25 18.9067 20.0762 18.487 19.7667 18.1776C19.4573 17.8682 19.0376 17.6943 18.6 17.6943M16.95 19.3443C16.95 18.9067 17.1238 18.487 17.4333 18.1776C17.7427 17.8682 18.1624 17.6943 18.6 17.6943M16.95 19.3443H7.05M7.05 19.3443C7.05 19.7819 6.87616 20.2016 6.56673 20.511C6.25729 20.8205 5.83761 20.9943 5.4 20.9943C4.96239 20.9943 4.54271 20.8205 4.23327 20.511C3.92384 20.2016 3.75 19.7819 3.75 19.3443C3.75 18.9067 3.92384 18.487 4.23327 18.1776C4.54271 17.8682 4.96239 17.6943 5.4 17.6943M7.05 19.3443C7.05 18.9067 6.87616 18.487 6.56673 18.1776C6.25729 17.8682 5.83761 17.6943 5.4 17.6943M15.75 8.99432H8.25V11.4943H15.75V8.99432ZM15.75 13.9943H8.25V16.4943H15.75V13.9943Z" stroke="#191C1E" stroke-width="1.5" stroke-linejoin="round"/>
</svg>
