<svg width="24" height="24" viewBox="0 0 24 24" fill="none" xmlns="http://www.w3.org/2000/svg">
<path d="M6.45 13.4583C6.45 14.8443 7.375 15.75 8.7625 15.75C9.33927 15.75 9.79611 15.5809 10.1331 15.3036M10.1331 15.3036C10.8769 14.6915 11.0365 13.5523 10.6125 12.5417C9.98628 11.0484 8.64595 10.25 6.9125 10.25C6.08453 10.25 5.28199 10.4945 4.60314 10.943M10.1331 15.3036C10.028 15.39 10.0246 15.3865 10.1331 15.3036ZM10.1331 15.3036L13.15 13M4.60314 10.943C4.37686 11.0926 4.16432 11.2648 3.96917 11.4582C3.18855 12.2318 2.75 13.281 2.75 14.375C2.75 15.469 3.18855 16.5182 3.96917 17.2918C4.74979 18.0654 5.80854 18.5 6.9125 18.5H13.542C13.7421 18.5 13.9369 18.4357 14.097 18.3167L21.25 13H13.15M4.60314 10.943L11.0604 6.20294C11.7308 5.75908 12.5368 5.50001 13.4031 5.50001C14.1643 5.49842 14.9118 5.7025 15.5666 6.09069C16.2214 6.47889 16.7591 7.03676 17.123 7.70536C17.3071 8.04459 17.4036 8.33466 17.4526 8.69115C17.5377 9.30877 17.2093 9.90057 16.7137 10.2789L13.15 13" stroke="#191C1E" stroke-width="1.5" stroke-linejoin="round"/>
</svg>
