<svg width="24" height="25" viewBox="0 0 24 25" fill="none" xmlns="http://www.w3.org/2000/svg">
<path d="M10.4263 8.95682C10.4263 8.64851 10.3038 8.35282 10.0858 8.13481C9.86782 7.9168 9.57213 7.79432 9.26382 7.79432C8.95551 7.79432 8.65982 7.9168 8.44181 8.13481C8.2238 8.35282 8.10132 8.64851 8.10132 8.95682V11.6693M10.4263 8.95682V12.8318M10.4263 8.95682V7.40682C10.4263 7.09851 10.5488 6.80282 10.7668 6.58481C10.9848 6.3668 11.2805 6.24432 11.5888 6.24432C11.8971 6.24432 12.1928 6.3668 12.4108 6.58481C12.6288 6.80282 12.7513 7.09851 12.7513 7.40682V9.20682M8.10132 11.6693L5.84917 13.6386C5.38197 14.0476 5.08459 14.6165 5.01547 15.2335C4.94635 15.8506 5.11048 16.4712 5.47562 16.9734L8.10055 20.5818V21.7443M8.10132 11.6693V15.1568M12.7513 9.20682V13.6068M12.7513 9.20682C12.7513 8.89851 12.8738 8.60282 13.0918 8.38481C13.3098 8.1668 13.6055 8.04432 13.9138 8.04432C14.2221 8.04432 14.5178 8.1668 14.7358 8.38481C14.9538 8.60282 15.0763 8.89851 15.0763 9.20682V10.7143M15.8513 21.7443V20.5818L16.7216 19.4937C17.1614 18.9437 17.4009 18.2604 17.4005 17.5562V10.7568C17.4005 10.4485 17.2781 10.1528 17.0601 9.93481C16.842 9.7168 16.5464 9.59432 16.238 9.59432C15.9297 9.59432 15.634 9.7168 15.416 9.93481C15.2081 10.1428 15.087 10.4214 15.0763 10.7143M15.0763 13.8818V10.7143M15.0763 10.7143C15.0758 10.7285 15.0755 10.4926 15.0755 10.5068M3.5 9.99432C4.10847 7.75723 5.60722 5.87758 7.60044 4.74432M16.3996 4.74432C18.3928 5.87758 19.8915 7.75723 20.5 9.99431" stroke="#191C1E" stroke-width="1.5" stroke-linejoin="round"/>
</svg>
