<svg width="24" height="25" viewBox="0 0 24 25" fill="none" xmlns="http://www.w3.org/2000/svg">
<path d="M11.25 6.74432V12.7733L14.5 14.7443M12.0813 4.28446C11.8078 4.25791 11.5305 4.24432 11.25 4.24432C6.55558 4.24432 2.75 8.0499 2.75 12.7443C2.75 17.4387 6.55558 21.2443 11.25 21.2443C13.5952 21.2443 15.7187 20.2945 17.2565 18.7586C17.7764 18.2394 18.2294 17.6532 18.6014 17.0141C18.7874 16.6945 18.9532 16.3617 19.097 16.0173M13.7143 4.60704C14.2522 4.76972 14.7676 4.98428 15.2546 5.24489M16.6365 6.16862C17.0708 6.52478 17.4691 6.92311 17.8253 7.35737M18.7505 8.74166C19.01 9.22702 19.2239 9.74053 19.3862 10.2764M17 11.2443L19.75 13.9943L22.5 11.2443" stroke="#191C1E" stroke-width="1.5" stroke-linejoin="round"/>
</svg>
