<svg width="24" height="25" viewBox="0 0 24 25" fill="none" xmlns="http://www.w3.org/2000/svg">
<path d="M10.5 10.1193V14.2443C10.5 14.5205 11.1716 14.7443 12 14.7443C12.8284 14.7443 13.5 14.5205 13.5 14.2443V10.1193M16.125 13.2443L20.25 14.7443V17.9943L12 20.9943L3.75 17.9943V14.7443L7.875 13.2443M15 7.49432C15 9.15118 13.6569 10.4943 12 10.4943C10.3431 10.4943 9 9.15118 9 7.49432C9 5.83747 10.3431 4.49432 12 4.49432C13.6569 4.49432 15 5.83747 15 7.49432Z" stroke="#191C1E" stroke-width="1.5" stroke-linejoin="round"/>
<path d="M20.25 14.7443L12 17.7443L3.75 14.7443" stroke="#191C1E" stroke-width="1.5" stroke-linejoin="round"/>
</svg>
