<svg width="24" height="25" viewBox="0 0 24 25" fill="none" xmlns="http://www.w3.org/2000/svg">
<path d="M20.25 6.23117V19.2575C20.25 19.7181 20.067 20.1599 19.7413 20.4856C19.4156 20.8113 18.9738 20.9943 18.5132 20.9943H5.48684C5.0262 20.9943 4.58443 20.8113 4.25871 20.4856C3.93299 20.1599 3.75 19.7181 3.75 19.2575V6.23117C3.75 5.77053 3.93299 5.32875 4.25871 5.00303C4.58443 4.67731 5.0262 4.49432 5.48684 4.49432H18.5132C18.9738 4.49432 19.4156 4.67731 19.7413 5.00303C20.067 5.32875 20.25 5.77053 20.25 6.23117Z" stroke="#191C1E" stroke-width="1.5" stroke-linecap="round" stroke-linejoin="round"/>
<path d="M15.9079 12.7443C15.9079 13.7808 15.4962 14.7747 14.7633 15.5076C14.0304 16.2405 13.0364 16.6522 12 16.6522C10.9636 16.6522 9.96957 16.2405 9.2367 15.5076C8.50383 14.7747 8.0921 13.7808 8.0921 12.7443C8.0921 11.7079 8.50383 10.7139 9.2367 9.98102C9.96957 9.24815 10.9636 8.83643 12 8.83643C13.0364 8.83643 14.0304 9.24815 14.7633 9.98102C15.4962 10.7139 15.9079 11.7079 15.9079 12.7443Z" stroke="#191C1E" stroke-width="1.5" stroke-linecap="round" stroke-linejoin="round"/>
<path d="M16.7833 7.968H16.7746" stroke="#191C1E" stroke-width="1.5" stroke-linecap="round" stroke-linejoin="round"/>
</svg>
