<svg width="24" height="25" viewBox="0 0 24 25" fill="none" xmlns="http://www.w3.org/2000/svg">
<path d="M18.25 20.9943H5.75C4.64543 20.9943 3.75 20.0989 3.75 18.9943V4.49432L6.875 5.74432L10 4.49432L13.125 5.74432L16.25 4.49432V18.9943C16.25 20.0989 17.1454 20.9943 18.25 20.9943ZM18.25 20.9943C19.3546 20.9943 20.25 20.0989 20.25 18.9943V16.9943H16.25M5.75 17.9943L14 17.9943M10 8.78993C8.86091 8.78993 7.9375 9.41779 7.9375 10.1923C7.9375 10.9668 8.5 11.3943 10 11.3943C11.5 11.3943 12.25 11.795 12.25 12.7967C12.25 13.7984 11.2426 14.199 10 14.199M10 8.78993C11.1391 8.78993 12.0625 9.41779 12.0625 10.1923M10 8.78993V7.24432M10 14.199C8.75736 14.199 7.75 13.5712 7.75 12.7967M10 14.199V15.7443" stroke="#191C1E" stroke-width="1.5" stroke-linejoin="round"/>
</svg>
