<svg width="24" height="25" viewBox="0 0 24 25" fill="none" xmlns="http://www.w3.org/2000/svg">
<path d="M18.25 20.9943H5.75C4.64543 20.9943 3.75 20.0989 3.75 18.9943V4.49432L6.875 5.74432L10 4.49432L13.125 5.74432L16.25 4.49432V18.9943C16.25 20.0989 17.1454 20.9943 18.25 20.9943ZM18.25 20.9943C19.3546 20.9943 20.25 20.0989 20.25 18.9943V16.9943H16.25M5.75 17.9943L14 17.9943M12.8333 9.65817C12.2679 9.0935 11.4872 8.74432 10.625 8.74432C8.89911 8.74432 7.5 10.1434 7.5 11.8693C7.5 13.5952 8.89911 14.9943 10.625 14.9943C11.4872 14.9943 12.2679 14.6451 12.8333 14.0805M6 11.8693H10.75" stroke="#191C1E" stroke-width="1.5" stroke-linejoin="round"/>
</svg>
