<svg width="24" height="25" viewBox="0 0 24 25" fill="none" xmlns="http://www.w3.org/2000/svg">
<path d="M15 7.49432C15 9.15118 13.6569 10.4943 12 10.4943C10.3431 10.4943 9 9.15118 9 7.49432C9 5.83747 10.3431 4.49432 12 4.49432C13.6569 4.49432 15 5.83747 15 7.49432Z" stroke="#191C1E" stroke-width="1.5" stroke-linejoin="round"/>
<path d="M18.9127 14.2712C20.3475 15.0997 20.8392 16.9344 20.0107 18.3693C19.1823 19.8042 17.3475 20.2958 15.9127 19.4674C14.4778 18.639 13.9861 16.8042 14.8146 15.3693C15.643 13.9344 17.4778 13.4428 18.9127 14.2712Z" stroke="#191C1E" stroke-width="1.5" stroke-linejoin="round"/>
<path d="M5.08733 14.2712C6.52221 13.4428 8.35698 13.9344 9.18541 15.3693C10.0138 16.8042 9.52221 18.639 8.08733 19.4674C6.65246 20.2958 4.81769 19.8042 3.98926 18.3693C3.16083 16.9344 3.65246 15.0997 5.08733 14.2712Z" stroke="#191C1E" stroke-width="1.5" stroke-linejoin="round"/>
</svg>
