<svg width="24" height="25" viewBox="0 0 24 25" fill="none" xmlns="http://www.w3.org/2000/svg">
<path d="M6.875 5.61932L10.25 9.99432M10.25 9.99432V15.1193M10.25 9.99432H13.5M10.25 15.1193H13.5M10.25 15.1193L9.125 22.6193M13.5 15.1193V9.99432M13.5 15.1193L14.625 22.6193M13.5 9.99432L16.875 5.61932M4.25 2.99432L6.25 4.49432M6.25 11.4943L4.25 12.9943M19.5 2.99432L17.5 4.49432M17.5 11.4943L19.5 12.9943M4 7.99432H6M18 7.99432H20M13.5 4.99432C13.5 5.82275 12.8284 6.49432 12 6.49432C11.1716 6.49432 10.5 5.82275 10.5 4.99432C10.5 4.1659 11.1716 3.49432 12 3.49432C12.8284 3.49432 13.5 4.1659 13.5 4.99432Z" stroke="#191C1E" stroke-width="1.5" stroke-linejoin="round"/>
</svg>
