<svg width="24" height="25" viewBox="0 0 24 25" fill="none" xmlns="http://www.w3.org/2000/svg">
<path d="M9.5 14.7443L7.75 15.8693L5.5 13.4943L6.125 17.8693L9.375 18.1193L9.875 20.9943M6 20.9943H13.5M17.0932 16.306L10.75 13.7443L8.90981 7.07363M17.0932 16.306C17.4277 16.6278 17.911 16.7182 18.2773 16.3411C19.4991 15.0833 20.25 13.3755 20.25 11.4943C20.25 7.62833 17.0785 4.49432 13.1663 4.49432C11.603 4.49432 10.158 4.99477 8.98633 5.84239C8.5362 6.16803 8.5936 6.68555 8.90981 7.07363M17.0932 16.306C16.8708 16.092 16.7142 15.7757 16.7016 15.4264C16.6548 14.1338 16.2825 12.7984 15.5571 11.5568C14.2339 9.29197 12.0495 7.87623 9.81416 7.58209C9.44677 7.53374 9.12072 7.33248 8.90981 7.07363M6.75 11.9943C6.75 12.8228 6.07843 13.4943 5.25 13.4943C4.42157 13.4943 3.75 12.8228 3.75 11.9943C3.75 11.1659 4.42157 10.4943 5.25 10.4943C6.07843 10.4943 6.75 11.1659 6.75 11.9943Z" stroke="#191C1E" stroke-width="1.5" stroke-linejoin="round"/>
</svg>
