<svg width="24" height="25" viewBox="0 0 24 25" fill="none" xmlns="http://www.w3.org/2000/svg">
<path d="M19.5485 16.2071L21.4804 16.7247M16.1678 15.3012L18.0996 15.8188M12.787 14.3953L14.7189 14.913M19.5485 9.34837L21.4804 8.83073M16.1678 10.2542L18.0996 9.73659M12.787 11.1601L14.7189 10.6425M13.6443 5.88341L15.0585 4.46919M11.1694 8.35828L12.5836 6.94407M13.6443 19.672L15.0585 21.0862M11.1694 17.1971L12.5836 18.6114M10.75 12.7443C10.75 14.9535 8.95914 16.7443 6.75 16.7443C4.54086 16.7443 2.75 14.9535 2.75 12.7443C2.75 10.5352 4.54086 8.74433 6.75 8.74433C8.95914 8.74433 10.75 10.5352 10.75 12.7443Z" stroke="#191C1E" stroke-width="1.5" stroke-linejoin="round"/>
<path d="M6.75 12.7443H6.7525" stroke="#191C1E" stroke-width="2" stroke-linecap="round" stroke-linejoin="round"/>
</svg>
