<svg width="24" height="25" viewBox="0 0 24 25" fill="none" xmlns="http://www.w3.org/2000/svg">
<path d="M7.4625 10.6818H3.75V20.9943H7.4625V10.6818ZM7.4625 6.35057C7.4625 6.84288 7.26693 7.31503 6.91882 7.66314C6.5707 8.01125 6.09856 8.20682 5.60625 8.20682C5.11394 8.20682 4.6418 8.01125 4.29368 7.66314C3.94557 7.31503 3.75 6.84288 3.75 6.35057C3.75 5.85827 3.94557 5.38612 4.29368 5.03801C4.6418 4.68989 5.11394 4.49432 5.60625 4.49432C6.09856 4.49432 6.5707 4.68989 6.91882 5.03801C7.26693 5.38612 7.4625 5.85827 7.4625 6.35057ZM13.65 10.6818H9.9375V20.9943H13.65V15.8381C13.65 15.4552 13.8021 15.0879 14.0729 14.8172C14.3436 14.5464 14.7108 14.3943 15.0937 14.3943C15.4767 14.3943 15.8439 14.5464 16.1146 14.8172C16.3854 15.0879 16.5375 15.4552 16.5375 15.8381V20.9943H20.2492L20.25 14.3943C20.25 12.3442 18.2997 10.6818 16.37 10.6818C15.2711 10.6818 14.291 11.2205 13.65 12.0629V10.6818Z" stroke="#191C1E" stroke-width="1.5" stroke-linejoin="round"/>
</svg>
