<svg width="24" height="25" viewBox="0 0 24 25" fill="none" xmlns="http://www.w3.org/2000/svg">
<path d="M21 6.24432L10 6.24432M21 12.9943L10 12.9943M21 19.2443L10 19.2443M7.25 6.24432C7.25 7.21082 6.4665 7.99432 5.5 7.99432C4.5335 7.99432 3.75 7.21082 3.75 6.24432C3.75 5.27783 4.5335 4.49432 5.5 4.49432C6.4665 4.49432 7.25 5.27783 7.25 6.24432ZM7.25 12.9943C7.25 13.9608 6.4665 14.7443 5.5 14.7443C4.5335 14.7443 3.75 13.9608 3.75 12.9943C3.75 12.0278 4.5335 11.2443 5.5 11.2443C6.4665 11.2443 7.25 12.0278 7.25 12.9943ZM7.25 19.2443C7.25 20.2108 6.4665 20.9943 5.5 20.9943C4.5335 20.9943 3.75 20.2108 3.75 19.2443C3.75 18.2778 4.5335 17.4943 5.5 17.4943C6.4665 17.4943 7.25 18.2778 7.25 19.2443Z" stroke="#191C1E" stroke-width="1.5" stroke-linejoin="round"/>
</svg>
