<svg width="24" height="25" viewBox="0 0 24 25" fill="none" xmlns="http://www.w3.org/2000/svg">
<path d="M12 3.49432C17.1086 3.49432 21.25 7.63569 21.25 12.7443C21.25 14.7666 20.601 16.6373 19.5 18.1596M18.3246 19.4943C16.6705 21.0448 14.4461 21.9943 12 21.9943C11.179 21.9943 10.3829 21.8874 9.625 21.6866M7.25 20.6832C5.50639 19.6377 4.13574 18.0341 3.38503 16.1193M2.81772 13.8693C2.77301 13.5006 2.75 13.1251 2.75 12.7443C2.75 11.7406 2.90986 10.7743 3.20551 9.86932M6.625 5.21537C5.75253 5.83935 4.99305 6.61121 4.38319 7.49432" stroke="#191C1E" stroke-width="1.5" stroke-linejoin="round"/>
<path d="M12.844 11.499L13.5877 6.74432L8.75 12.8501L11.195 13.8353L10.4123 18.7443L15.25 12.6386L12.844 11.499Z" stroke="#191C1E" stroke-width="1.5" stroke-linejoin="round"/>
</svg>
