<svg width="24" height="25" viewBox="0 0 24 25" fill="none" xmlns="http://www.w3.org/2000/svg">
<path d="M17.7292 12.7443C17.7292 15.9085 15.1641 18.4735 12 18.4735M17.7292 12.7443C17.7292 9.58019 15.1641 7.01516 12 7.01516M17.7292 12.7443H21M12 18.4735C8.83587 18.4735 6.27083 15.9085 6.27083 12.7443M12 18.4735V21.7443M6.27083 12.7443C6.27083 9.58019 8.83587 7.01516 12 7.01516M6.27083 12.7443H3M12 7.01516V3.74432M14.5 12.7443C14.5 14.125 13.3807 15.2443 12 15.2443C10.6193 15.2443 9.5 14.125 9.5 12.7443C9.5 11.3636 10.6193 10.2443 12 10.2443C13.3807 10.2443 14.5 11.3636 14.5 12.7443Z" stroke="#191C1E" stroke-width="1.5" stroke-linejoin="round"/>
</svg>
