<svg width="24" height="25" viewBox="0 0 24 25" fill="none" xmlns="http://www.w3.org/2000/svg">
<path d="M15.25 9.24432C15.25 11.0392 13.7949 12.4943 12 12.4943C10.2051 12.4943 8.75 11.0392 8.75 9.24432" stroke="#191C1E" stroke-width="1.5" stroke-linejoin="round"/>
<path d="M5.5 9.24432H18.5" stroke="#191C1E" stroke-width="1.5" stroke-linejoin="round"/>
<path d="M10.5 6.99432V9.24432H13.5V6.99432H10.5Z" stroke="#191C1E" stroke-width="1.5" stroke-linejoin="round"/>
<path d="M8 22.7443V21.9943V20.7443V19.4943C8 17.2852 9.79086 15.4943 12 15.4943C14.2091 15.4943 16 17.2852 16 19.4943V20.7443V21.9943V22.7443" stroke="#191C1E" stroke-width="1.5" stroke-linejoin="round"/>
<path d="M12 3.49432C9.51472 3.49432 7.5 5.50904 7.5 7.99432V9.24432H16.5V7.99432C16.5 5.50904 14.4853 3.49432 12 3.49432Z" stroke="#191C1E" stroke-width="1.5" stroke-linejoin="round"/>
</svg>
