<svg width="24" height="25" viewBox="0 0 24 25" fill="none" xmlns="http://www.w3.org/2000/svg">
<path d="M21.0614 6.3042L18.3107 9.05498C17.7249 9.64077 16.7751 9.64077 16.1893 9.05498C15.6036 8.4692 15.6036 7.51945 16.1893 6.93366L18.9401 4.18288C18.3527 3.90175 17.6947 3.74432 17 3.74432C14.5147 3.74432 12.5 5.75904 12.5 8.24432C12.5 8.7686 12.5897 9.27193 12.7545 9.73983L8.9955 13.4988C8.52761 13.334 8.02427 13.2443 7.5 13.2443C5.01472 13.2443 3 15.259 3 17.7443C3 18.439 3.15743 19.097 3.43856 19.6844L6.18934 16.9337C6.77513 16.3479 7.72487 16.3479 8.31066 16.9337C8.89645 17.5194 8.89645 18.4692 8.31066 19.055L5.55988 21.8058C6.14733 22.0869 6.80528 22.2443 7.5 22.2443C9.98528 22.2443 12 20.2296 12 17.7443C12 17.2636 11.9246 16.8005 11.785 16.3661L15.6218 12.5294C16.0561 12.6689 16.5193 12.7443 17 12.7443C19.4853 12.7443 21.5 10.7296 21.5 8.24432C21.5 7.5496 21.3426 6.89165 21.0614 6.3042Z" stroke="#191C1E" stroke-width="1.5" stroke-linejoin="round"/>
</svg>
