<svg width="24" height="25" viewBox="0 0 24 25" fill="none" xmlns="http://www.w3.org/2000/svg">
<path d="M12.6875 13.2829C13.4124 12.5579 14.2384 11.9954 15.12 11.5953C15.1233 11.499 15.125 11.4024 15.125 11.3053C15.125 8.68895 13.8993 6.35887 11.9908 4.85797C10.0821 6.35887 8.85632 8.68903 8.85632 11.3055C8.85632 11.3996 8.85791 11.4934 8.86106 11.5867C9.74978 11.9874 10.5823 12.5528 11.3125 13.2829M12.6875 13.2829C12.4393 13.5311 12.2101 13.7912 12 14.0612M12.6875 13.2829C10.6589 15.3114 9.90216 18.1301 10.4171 20.7482M12.6875 13.2829C14.7159 11.2545 17.5344 10.4977 20.1524 11.0125C20.6674 13.6306 19.9106 16.4493 17.8821 18.4778C15.8536 20.5063 13.0351 21.2631 10.4171 20.7482M12 14.0612C11.7899 13.7912 11.5607 13.5311 11.3125 13.2829M12 14.0612C10.4928 15.9982 9.96517 18.4505 10.4171 20.7482M11.3125 13.2829C9.28406 11.2545 6.46555 10.4977 3.84756 11.0125C3.33258 13.6306 4.08936 16.4493 6.11788 18.4778C7.3372 19.6972 8.84201 20.4479 10.4171 20.7482" stroke="#191C1E" stroke-width="1.5" stroke-linejoin="round"/>
</svg>
