<svg width="24" height="25" viewBox="0 0 24 25" fill="none" xmlns="http://www.w3.org/2000/svg">
<path d="M21.25 17.7443C21.25 18.987 20.2426 19.9943 19 19.9943C17.7574 19.9943 16.75 18.987 16.75 17.7443C16.75 16.5017 17.7574 15.4943 19 15.4943C20.2426 15.4943 21.25 16.5017 21.25 17.7443Z" stroke="#191C1E" stroke-width="1.5" stroke-linejoin="round"/>
<path d="M15.75 7.74432C15.75 8.98696 14.7426 9.99432 13.5 9.99432C12.2574 9.99432 11.25 8.98696 11.25 7.74432C11.25 6.50168 12.2574 5.49432 13.5 5.49432C14.7426 5.49432 15.75 6.50168 15.75 7.74432Z" stroke="#191C1E" stroke-width="1.5" stroke-linejoin="round"/>
<path d="M14.6 9.74432L18.0185 15.9598M5.5 19.9943V5.49432" stroke="#191C1E" stroke-width="1.5" stroke-linejoin="round"/>
<path d="M2.5 8.49432L5.5 5.49432L8.5 8.49432M8.5 16.9943L5.5 19.9943L2.5 16.9943" stroke="#191C1E" stroke-width="1.5" stroke-linejoin="round"/>
</svg>
