<svg width="24" height="25" viewBox="0 0 24 25" fill="none" xmlns="http://www.w3.org/2000/svg">
<path d="M12 18.2443V22.7443M12 18.2443C8.41015 18.2443 5.5 15.3342 5.5 11.7443M12 18.2443C13.5402 18.2443 14.9553 17.7086 16.0691 16.8134M8.71177 5.79258C9.202 4.45154 10.4892 3.49432 12 3.49432C13.933 3.49432 15.5 5.06133 15.5 6.99432V11.7443C15.5 11.9363 15.4845 12.1248 15.4548 12.3084M2.75 3.49432L8.5 9.24432M8.5 9.24432V11.7443C8.5 13.6773 10.067 15.2443 12 15.2443C12.7108 15.2443 13.372 15.0325 13.9241 14.6684M8.5 9.24432L13.9241 14.6684M13.9241 14.6684L16.0691 16.8134M21.25 21.9943L16.0691 16.8134" stroke="#191C1E" stroke-width="1.5" stroke-linejoin="round"/>
</svg>
