<svg width="24" height="25" viewBox="0 0 24 25" fill="none" xmlns="http://www.w3.org/2000/svg">
<path d="M19.4528 16.691C18.9828 13.866 16.7611 10.9127 15.2061 9.22266C14.9586 8.95414 14.6525 8.75785 14.3166 8.63716M19.452 16.691C19.8603 19.1393 17.6011 20.9943 15.0769 20.9943H8.92354C6.39935 20.9943 4.141 19.1393 4.54767 16.691C5.01767 13.8668 7.23853 10.9127 8.79438 9.22266C9.04137 8.95418 9.34749 8.75792 9.68342 8.63722M9.68342 8.63722C9.94705 8.5425 10.229 8.49432 10.5152 8.49432H13.4853C13.7714 8.49432 14.0531 8.54248 14.3166 8.63716M9.68342 8.63722L8 5.72962L9.588 6.00138C9.83917 6.04454 10.0967 6.02536 10.3393 5.94544C10.5818 5.86551 10.8023 5.72715 10.9824 5.54185L12 4.49432L13.0176 5.54185C13.1977 5.7273 13.4181 5.86581 13.6606 5.94588C13.9032 6.02595 14.1608 6.04526 14.412 6.00221L16 5.72962L14.3166 8.63716M14.5 13.0485C14.0229 12.5516 13.3643 12.2443 12.6368 12.2443C11.1805 12.2443 10 13.4755 10 14.9943C10 16.5131 11.1805 17.7443 12.6368 17.7443C13.3643 17.7443 14.0229 17.437 14.5 16.9401M8.25 14.9943H12.75" stroke="#191C1E" stroke-width="1.5" stroke-linejoin="round"/>
</svg>
