<svg width="24" height="25" viewBox="0 0 24 25" fill="none" xmlns="http://www.w3.org/2000/svg">
<path d="M21.9313 12.3187C20.9091 11.576 19.6667 11.1991 18.4042 11.2487C17.1416 11.2983 15.9326 11.7715 14.9718 12.5921C14.0111 13.4127 13.3546 14.5328 13.1081 15.772C13.0769 15.9289 13.0525 16.0865 13.0348 16.2444H9.28482M4.25 16.2444V16.8694C4.25 18.3191 5.42525 19.4944 6.875 19.4944C8.32475 19.4944 9.5 18.3191 9.5 16.8694V16.2444M9.5 16.2444V11.2444H5.75C4.09315 11.2444 2.75 12.5875 2.75 14.2444V16.2444H9.5ZM10.25 8.24438H5.125M12.25 5.50702L15.5 5.50702L15.9833 6.99438M15.9833 6.99438L18.75 6.99438M15.9833 6.99438L17.2382 10.8567M21.25 16.8694C21.25 18.3191 20.0747 19.4944 18.625 19.4944C17.1753 19.4944 16 18.3191 16 16.8694C16 15.4196 17.1753 14.2444 18.625 14.2444C20.0747 14.2444 21.25 15.4196 21.25 16.8694Z" stroke="#191C1E" stroke-width="1.5" stroke-linejoin="round"/>
</svg>
