<svg width="24" height="25" viewBox="0 0 24 25" fill="none" xmlns="http://www.w3.org/2000/svg">
<path d="M7.01777 15.75C7.48661 16.2189 7.75 16.837 7.75 17.5C7.75 18.1631 7.48661 18.799 7.01777 19.2678C6.54893 19.7366 5.91304 20 5.25 20C4.58696 20 3.95107 19.7366 3.48223 19.2678C3.01339 18.799 2.75 18.1631 2.75 17.5C2.75 16.837 3.01339 16.2011 3.48223 15.7323C3.95107 15.2634 4.58696 15 5.25 15C5.91304 15 6.54893 15.2812 7.01777 15.75ZM7.01777 15.75L10.3511 11.1985M7.01777 15.75H13.5274C13.7866 14.9702 14.2275 14.2641 14.85 13.6318C15.4165 13.074 16.0422 12.6621 16.7272 12.396M4.5 11.1985H16.1667M12 7.28182H14.3333L16.1667 11.1985M18 15.1152L16.7272 12.396M16.1667 11.1985L16.7272 12.396M16.25 17.5C16.25 18.1631 16.5134 18.7989 16.9822 19.2678C17.4511 19.7366 18.087 20 18.75 20C19.413 20 20.0489 19.7366 20.5178 19.2678C20.9866 18.7989 21.25 18.1631 21.25 17.5C21.25 16.837 20.9866 16.2011 20.5178 15.7323C20.0489 15.2634 19.413 15 18.75 15C18.087 15 17.4511 15.2634 16.9822 15.7323C16.5134 16.2011 16.25 16.837 16.25 17.5Z" stroke="#191C1E" stroke-width="1.5" stroke-linejoin="round"/>
</svg>
