<svg width="24" height="25" viewBox="0 0 24 25" fill="none" xmlns="http://www.w3.org/2000/svg">
<path d="M10.3333 18.161C10.3333 19.7718 9.0275 21.0777 7.41667 21.0777C5.80583 21.0777 4.5 19.7718 4.5 18.161C4.5 16.5502 5.80583 15.2443 7.41667 15.2443C9.0275 15.2443 10.3333 16.5502 10.3333 18.161ZM10.3333 18.161V11.911M19.5 16.0777C19.5 14.6969 18.3808 13.5777 17 13.5777C16.6444 13.5777 16.3062 13.6519 16 13.7857M19.5 16.0777V9.41101M19.5 16.0777C19.5 16.4689 19.4102 16.8391 19.25 17.1688M19.5 9.41101V4.41101L9.5 7.13828M19.5 9.41101L13.3889 11.0777M10.3333 11.911V11.0777M10.3333 11.911L10.9881 11.7324M21.25 21.9944L17.7262 18.4706M10.3333 11.0777L10.9881 11.7324M10.3333 11.0777L4 4.74435M14.6071 15.3515C14.5375 15.5813 14.5 15.8251 14.5 16.0777C14.5 17.4584 15.6193 18.5777 17 18.5777C17.2526 18.5777 17.4964 18.5402 17.7262 18.4706M14.6071 15.3515L17.7262 18.4706M14.6071 15.3515L10.9881 11.7324" stroke="#191C1E" stroke-width="1.5" stroke-linejoin="round"/>
</svg>
