<svg width="24" height="25" viewBox="0 0 24 25" fill="none" xmlns="http://www.w3.org/2000/svg">
<path d="M10.3333 18.161C10.3333 19.7718 9.0275 21.0777 7.41667 21.0777C5.80583 21.0777 4.5 19.7718 4.5 18.161C4.5 16.5502 5.80583 15.2443 7.41667 15.2443C9.0275 15.2443 10.3333 16.5502 10.3333 18.161ZM10.3333 18.161V11.911M19.5 16.0777C19.5 17.4584 18.3808 18.5777 17 18.5777C15.6193 18.5777 14.5 17.4584 14.5 16.0777C14.5 14.6969 15.6192 13.5777 17 13.5777C18.3808 13.5777 19.5 14.6969 19.5 16.0777ZM19.5 16.0777V9.41101M19.5 9.41101V4.41101L10.3333 6.91101V11.911M19.5 9.41101L10.3333 11.911" stroke="#191C1E" stroke-width="1.5" stroke-linejoin="round"/>
</svg>
