<svg width="24" height="25" viewBox="0 0 24 25" fill="none" xmlns="http://www.w3.org/2000/svg">
<path d="M5.5 11.9943V4.49432L3.25 6.24432M14 15.7443H8.75L12.3816 12.2164C12.3816 12.2164 13.25 11.4943 13.25 10.4943C13.25 9.25168 12.2426 8.24432 11 8.24432C9.75736 8.24432 8.75 9.25168 8.75 10.4943M17 17.4943H18M18 17.4943H18.125M18 17.4943C19.4559 17.4943 20.25 18.2443 20.25 19.1193C20.25 20.3693 19.2426 20.9943 18 20.9943C16.7574 20.9943 15.75 20.2668 15.75 19.3693L15.75 19.1193M18.125 17.4943H18.25M18.125 17.4943C19.5 17.4943 20.25 16.7443 20.25 15.8693C20.25 14.6193 19.2986 13.9943 18.125 13.9943C16.9514 13.9943 16 14.7219 16 15.6193V15.7443" stroke="#191C1E" stroke-width="1.5" stroke-linejoin="round"/>
</svg>
