<svg width="24" height="25" viewBox="0 0 24 25" fill="none" xmlns="http://www.w3.org/2000/svg">
<path d="M10.8505 12.1691L12 12.8277V14.1545M9.155 11.1977L6.84992 9.87709M14.845 11.1977L17.1501 9.87709M12 16.0807V18.7443M14.8486 20.3475L17.1531 19.0152M13.1468 21.3313L12 21.9943L10.8532 21.3313M9.15142 20.3475L6.84689 19.0152M20 16.0807V17.3693L18.8464 18.0362M20 14.1545V11.4123M4 14.1545V11.4123M4 16.0807V17.3693L5.15357 18.0362M4 9.45135V8.11932L5.15864 7.44949M20 9.45135V8.11932L18.8414 7.44949M6.84982 6.47177L9.14758 5.14338M10.8494 4.15954L12 3.49432L13.1506 4.15954M14.8524 5.14338L17.1502 6.47177" stroke="#191C1E" stroke-width="1.5" stroke-linejoin="round"/>
<path d="M12 12.8276L13.1495 12.1691" stroke="#191C1E" stroke-width="1.5" stroke-linejoin="round"/>
</svg>
