<svg width="24" height="25" viewBox="0 0 24 25" fill="none" xmlns="http://www.w3.org/2000/svg">
<path d="M11.125 6.99432L14.625 9.11932M11.125 6.99432L7.5 6.36932L7 9.74432M11.125 6.99432L7.75 12.7443M14.625 9.11932L15 12.3693L17.375 14.6193M14.625 9.11932L11.375 14.1193M7.75 12.7443L11.375 14.1193M7.75 12.7443L8.75 17.3693L6.5 22.1193M11.375 14.1193L12.375 17.7443L11.875 22.1193M17 4.99432C17 5.82275 16.3284 6.49432 15.5 6.49432C14.6716 6.49432 14 5.82275 14 4.99432C14 4.1659 14.6716 3.49432 15.5 3.49432C16.3284 3.49432 17 4.1659 17 4.99432Z" stroke="#191C1E" stroke-width="1.5" stroke-linejoin="round"/>
</svg>
