<svg width="24" height="25" viewBox="0 0 24 25" fill="none" xmlns="http://www.w3.org/2000/svg">
<path d="M14.6852 14.4971C13.5852 12.4971 13.2442 11.9971 11.9852 11.9971C10.7262 11.9971 10.2492 12.7521 9.14921 14.7441C8.20721 16.4471 6.30321 16.5891 5.82821 18.0351C5.73121 18.3001 5.68321 18.7121 5.68521 18.9971C5.68521 20.1731 6.47221 20.9971 7.48521 20.9971C8.74421 20.9971 10.4852 19.9971 11.9852 19.9971C13.4852 19.9971 15.2262 20.9971 16.4852 20.9971C17.4982 20.9971 18.2852 20.1741 18.2852 18.9971C18.2852 18.7121 18.2362 18.3001 18.1392 18.0351C17.6642 16.5841 15.6272 16.2001 14.6852 14.4971Z" stroke="#191C1E" stroke-width="1.5" stroke-linejoin="round"/>
<path d="M10.7991 6.73571C10.9912 8.10298 10.3711 9.32042 9.41403 9.45493C8.45694 9.58944 7.52529 8.59009 7.33313 7.22281C7.14097 5.85554 7.76107 4.6381 8.71817 4.50359C9.67526 4.36908 10.6069 5.36843 10.7991 6.73571Z" stroke="#191C1E" stroke-width="1.5" stroke-linejoin="round"/>
<path d="M6.82827 11.1852C7.34549 12.4654 7.14211 13.7548 6.37401 14.0651C5.6059 14.3754 4.56394 13.5892 4.04671 12.3091C3.52949 11.0289 3.73287 9.73952 4.50097 9.42918C5.26908 9.11885 6.31104 9.90506 6.82827 11.1852Z" stroke="#191C1E" stroke-width="1.5" stroke-linejoin="round"/>
<path d="M19.9533 12.3091C20.4705 11.0289 20.2671 9.73952 19.499 9.42918C18.7309 9.11885 17.6889 9.90506 17.1717 11.1852C16.6545 12.4654 16.8579 13.7548 17.626 14.0651C18.3941 14.3754 19.436 13.5892 19.9533 12.3091Z" stroke="#191C1E" stroke-width="1.5" stroke-linejoin="round"/>
<path d="M16.6741 7.22281C16.8662 5.85554 16.2461 4.6381 15.289 4.50359C14.3319 4.36908 13.4003 5.36843 13.2081 6.73571C13.016 8.10298 13.6361 9.32042 14.5932 9.45493C15.5503 9.58944 16.4819 8.59009 16.6741 7.22281Z" stroke="#191C1E" stroke-width="1.5" stroke-linejoin="round"/>
</svg>
