<svg width="24" height="25" viewBox="0 0 24 25" fill="none" xmlns="http://www.w3.org/2000/svg">
<path d="M4.75 13.6797V3.37659L12.6836 3.37937M12.6836 3.37937L19.25 9.92973M12.6836 3.37937V9.92972L19.25 9.92973M19.25 9.92973V13.6797M4.75 19.4943H6.25C7.07843 19.4943 7.75 18.8227 7.75 17.9943C7.75 17.1659 7.07843 16.4943 6.25 16.4943H4.75V19.4943ZM4.75 19.4943V22.7443M20 16.4943H16.5V19.3693M16.5 22.7443V19.3693M16.5 19.3693H19.5M10.25 16.4943H11.75C12.8546 16.4943 13.75 17.3897 13.75 18.4943V20.2443C13.75 21.3489 12.8546 22.2443 11.75 22.2443H10.25V16.4943Z" stroke="#191C1E" stroke-width="1.5" stroke-linejoin="round"/>
</svg>
