<svg width="24" height="25" viewBox="0 0 24 25" fill="none" xmlns="http://www.w3.org/2000/svg">
<path d="M9.38732 12.4467C10.0657 13.6895 11.1154 14.7392 12.3582 15.4175C13.0231 15.7805 13.8279 15.5732 14.3635 15.0375L15.6108 13.7902C16.0013 13.3997 16.6345 13.3997 17.025 13.7902L19.8535 16.6187C20.244 17.0092 20.244 17.6424 19.8535 18.0329L18.9227 18.9637C18.1613 19.725 17.1199 20.1772 16.0535 20.0282C10.2331 19.2152 5.62119 14.5842 4.78467 8.76153C4.63065 7.68949 5.08301 6.64038 5.84883 5.87455L6.77199 4.9514C7.16251 4.56088 7.79568 4.56088 8.1862 4.9514L11.0146 7.77983C11.4052 8.17035 11.4052 8.80352 11.0146 9.19404L9.76734 10.4413C9.23168 10.977 9.02439 11.7817 9.38732 12.4467Z" stroke="#191C1E" stroke-width="1.5" stroke-linejoin="round"/>
</svg>
