<svg width="24" height="25" viewBox="0 0 24 25" fill="none" xmlns="http://www.w3.org/2000/svg">
<path d="M14.1007 12.2923C12.7423 11.8931 11.2577 11.8931 9.89928 12.2923C9.17246 12.5058 8.75 13.2214 8.75 13.979V15.7429C8.75 16.2952 8.30228 16.7429 7.75 16.7429H3.75C3.19772 16.7429 2.75 16.2952 2.75 15.7429V14.4266C2.75 13.3499 3.16672 12.2937 4.02604 11.645C8.71656 8.10426 15.2523 8.11776 19.9611 11.6435C20.828 12.2926 21.25 13.3543 21.25 14.4374V15.7429C21.25 16.2952 20.8023 16.7429 20.25 16.7429H16.25C15.6977 16.7429 15.25 16.2952 15.25 15.7429V13.979C15.25 13.2214 14.8275 12.5058 14.1007 12.2923Z" stroke="#191C1E" stroke-width="1.5" stroke-linejoin="round"/>
</svg>
