<svg width="24" height="25" viewBox="0 0 24 25" fill="none" xmlns="http://www.w3.org/2000/svg">
<path d="M5.5 14.3693L4.74998 18.1584C4.74998 18.1584 10.9192 19.7398 12.0008 20.0064C13.0825 19.7398 19.25 18.1584 19.25 18.1584L18.5017 14.3693M13.6678 9.41411L12.001 8.5801L10.3342 9.41397C10.3342 10.665 10.9803 11.5788 12.001 11.9161C13.0217 11.5788 13.6678 10.6651 13.6678 9.41411ZM2.74998 11.2443L5.12498 14.3693H18.8855L21.2605 11.2443L17.5105 7.24432C17.5105 7.24432 12.3504 5.6661 12.0052 5.50897C11.6601 5.6661 6.49998 7.24432 6.49998 7.24432L2.74998 11.2443Z" stroke="#191C1E" stroke-width="1.5" stroke-linejoin="round"/>
</svg>
