<svg width="24" height="25" viewBox="0 0 24 25" fill="none" xmlns="http://www.w3.org/2000/svg">
<path d="M7.75 6.99432C7.75 8.23696 6.74264 9.24432 5.5 9.24432C4.25736 9.24432 3.25 8.23696 3.25 6.99432C3.25 5.75168 4.25736 4.74432 5.5 4.74432C6.74264 4.74432 7.75 5.75168 7.75 6.99432ZM7.75 6.99432H16.25M16.25 6.99432C16.25 8.23696 17.2574 9.24432 18.5 9.24432C19.7426 9.24432 20.75 8.23696 20.75 6.99432C20.75 5.75168 19.7426 4.74432 18.5 4.74432C17.2574 4.74432 16.25 5.75168 16.25 6.99432ZM17.3696 8.99432L13.125 16.5039M10.875 16.5039L6.625 8.98471M14.25 18.4943C14.25 19.737 13.2426 20.7443 12 20.7443C10.7574 20.7443 9.75 19.737 9.75 18.4943C9.75 17.2517 10.7574 16.2443 12 16.2443C13.2426 16.2443 14.25 17.2517 14.25 18.4943Z" stroke="#191C1E" stroke-width="1.5" stroke-linejoin="round"/>
</svg>
