<svg width="24" height="25" viewBox="0 0 24 25" fill="none" xmlns="http://www.w3.org/2000/svg">
<path d="M8.25 6.74432C8.25 7.98696 7.24264 8.99432 6 8.99432C4.75736 8.99432 3.75 7.98696 3.75 6.74432C3.75 5.50168 4.75736 4.49432 6 4.49432C7.24264 4.49432 8.25 5.50168 8.25 6.74432Z" stroke="#191C1E" stroke-width="1.5" stroke-linejoin="round"/>
<path d="M8.25 18.7443C8.25 19.987 7.24264 20.9943 6 20.9943C4.75736 20.9943 3.75 19.987 3.75 18.7443C3.75 17.5017 4.75736 16.4943 6 16.4943C7.24264 16.4943 8.25 17.5017 8.25 18.7443Z" stroke="#191C1E" stroke-width="1.5" stroke-linejoin="round"/>
<path d="M18 14.9943C16.7574 14.9943 15.75 13.987 15.75 12.7443C15.75 11.5017 16.7574 10.4943 18 10.4943C19.2426 10.4943 20.25 11.5017 20.25 12.7443C20.25 13.987 19.2426 14.9943 18 14.9943Z" stroke="#191C1E" stroke-width="1.5" stroke-linejoin="round"/>
<path d="M8 17.9943L16.25 13.6631M8 7.49432L16.25 11.8256" stroke="#191C1E" stroke-width="1.5" stroke-linejoin="round"/>
</svg>
