<svg width="24" height="25" viewBox="0 0 24 25" fill="none" xmlns="http://www.w3.org/2000/svg">
<path d="M12 8.78993C10.8609 8.78993 9.9375 9.41779 9.9375 10.1923C9.9375 10.9668 10.5 11.3943 12 11.3943C13.5 11.3943 14.25 11.795 14.25 12.7967C14.25 13.7984 13.2426 14.199 12 14.199M12 8.78993C13.1391 8.78993 14.0625 9.41779 14.0625 10.1923M12 8.78993V7.24432M12 14.199C10.7574 14.199 9.75 13.5712 9.75 12.7967M12 14.199V15.7443M5.75 3.49432H18.25L18.25 17.4301L12 22.2443L5.75 17.4301L5.75 3.49432Z" stroke="#191C1E" stroke-width="1.5" stroke-linejoin="round"/>
</svg>
