<svg width="24" height="25" viewBox="0 0 24 25" fill="none" xmlns="http://www.w3.org/2000/svg">
<path d="M6.73056 14.7809L6.94377 14.8614C8.25575 15.3726 9.53877 14.7745 10.9274 13.9987M8.66667 21.7443L5.72898 11.1786M5.72898 11.1786L4.5 6.75844C5.8525 7.31984 7.15521 7.19209 8.41675 6.79562M5.72898 11.1786C9.51821 13.2658 13.7157 6.32602 18.3213 9.32065M18.3213 9.32065L19.5 13.0219C17.9954 12.122 16.657 11.9184 15.4375 12.082M18.3213 9.32065L17 5.17145C15.6328 4.21748 14.2351 4.39889 12.7909 4.9355M15.4375 12.082C13.7485 12.3084 12.2873 13.2388 10.9274 13.9987M15.4375 12.082L12.7909 4.9355M10.9274 13.9987L8.41675 6.79562M8.41675 6.79562C9.92899 6.32035 11.3821 5.45894 12.7909 4.9355" stroke="#191C1E" stroke-width="1.5" stroke-linejoin="round"/>
</svg>
