<svg width="24" height="25" viewBox="0 0 24 25" fill="none" xmlns="http://www.w3.org/2000/svg">
<path d="M5.375 10.7443H2.75V7.99432L5.25 5.49432H21.25L19.75 10.7443H17.8083M9.56348 10.7443H13.625M5.25 15.1193L7.25 17.3693M13.5 15.1193L15.5 17.3693M9.75 18.4943C9.75 19.3228 9.07843 19.9943 8.25 19.9943C7.42157 19.9943 6.75 19.3228 6.75 18.4943C6.75 17.6659 7.42157 16.9943 8.25 16.9943C9.07843 16.9943 9.75 17.6659 9.75 18.4943ZM9.31066 8.93366C9.89645 9.51945 9.89645 10.4692 9.31066 11.055L5.31066 15.055C4.72487 15.6408 3.77513 15.6408 3.18934 15.055C2.60355 14.4692 2.60355 13.5194 3.18934 12.9336L7.18934 8.93366C7.77513 8.34788 8.72487 8.34788 9.31066 8.93366ZM18 18.4943C18 19.3228 17.3284 19.9943 16.5 19.9943C15.6716 19.9943 15 19.3228 15 18.4943C15 17.6659 15.6716 16.9943 16.5 16.9943C17.3284 16.9943 18 17.6659 18 18.4943ZM17.5607 8.93366C18.1464 9.51945 18.1464 10.4692 17.5607 11.055L13.5607 15.055C12.9749 15.6408 12.0251 15.6408 11.4393 15.055C10.8536 14.4692 10.8536 13.5194 11.4393 12.9336L15.4393 8.93366C16.0251 8.34788 16.9749 8.34788 17.5607 8.93366Z" stroke="#191C1E" stroke-width="1.5" stroke-linejoin="round"/>
</svg>
