<svg width="24" height="25" viewBox="0 0 24 25" fill="none" xmlns="http://www.w3.org/2000/svg">
<path d="M16.25 16.2443V9.49432H7.75V16.2443M12 11.9943V14.9943" stroke="#191C1E" stroke-width="1.5" stroke-linejoin="round"/>
<path d="M14.9585 9.49432C14.7205 10.9132 13.4865 11.9943 12 11.9943C10.5135 11.9943 9.27954 10.9132 9.0415 9.49432M13.75 22.7443V16.7443C13.75 15.7778 12.9665 14.9943 12 14.9943C11.0335 14.9943 10.25 15.7778 10.25 16.7443V22.7443M13.5 4.99432C13.5 5.82275 12.8284 6.49432 12 6.49432C11.1716 6.49432 10.5 5.82275 10.5 4.99432C10.5 4.1659 11.1716 3.49432 12 3.49432C12.8284 3.49432 13.5 4.1659 13.5 4.99432Z" stroke="#191C1E" stroke-width="1.5" stroke-linejoin="round"/>
</svg>
