<svg width="24" height="25" viewBox="0 0 24 25" fill="none" xmlns="http://www.w3.org/2000/svg">
<path d="M8.94857 11.6193C9.56989 12.6955 9.20117 14.0716 8.12501 14.6929C7.04885 15.3142 5.67277 14.9455 5.05145 13.8693M8.94857 11.6193C8.32725 10.5432 6.95117 10.1745 5.87501 10.7958C4.79885 11.4171 4.43013 12.7932 5.05145 13.8693M8.94857 11.6193L16.5 21.9943H9.25L5.05145 13.8693M5.3252 11.2443L11.125 3.99432M13.375 5.99432L9.19141 13.2443M11.4199 6.24432L14.75 8.74432M13.375 3.99435L16 7.24432M17 11.7443C15.7574 11.7443 14.75 10.737 14.75 9.49432C14.75 8.25168 15.7574 7.24432 17 7.24432C18.2426 7.24432 19.25 8.25168 19.25 9.49432M13.75 4.99432C13.75 5.82275 13.0784 6.49432 12.25 6.49432C11.4216 6.49432 10.75 5.82275 10.75 4.99432C10.75 4.1659 11.4216 3.49432 12.25 3.49432C13.0784 3.49432 13.75 4.1659 13.75 4.99432Z" stroke="#191C1E" stroke-width="1.5" stroke-linejoin="round"/>
</svg>
