<svg width="24" height="25" viewBox="0 0 24 25" fill="none" xmlns="http://www.w3.org/2000/svg">
<path d="M16.625 20.7577C13.7858 22.3988 10.261 22.4065 7.41529 20.7809M4.02673 17.438C2.3379 14.5738 2.32453 10.9949 3.98662 8.11932M7.40246 4.71513C10.2772 3.06675 13.8481 3.08765 16.7052 4.77784M20.06 8.20096C21.6664 11.0471 21.6464 14.5629 20 17.3924M15.1088 18.1291C13.201 19.2317 10.8326 19.2369 8.92059 18.1446M6.64375 15.8985C5.509 13.974 5.50002 11.5693 6.6168 9.63713M8.91196 7.34979C10.8435 6.24221 13.2429 6.25626 15.1626 7.39192M17.4168 9.69198C18.4962 11.6043 18.4827 13.9667 17.3765 15.8679M15.25 12.7443C15.25 14.5392 13.7949 15.9943 12 15.9943C10.2051 15.9943 8.75 14.5392 8.75 12.7443C8.75 10.9494 10.2051 9.49432 12 9.49432C13.7949 9.49432 15.25 10.9494 15.25 12.7443Z" stroke="#191C1E" stroke-width="1.5" stroke-linejoin="round"/>
</svg>
