<svg width="24" height="25" viewBox="0 0 24 25" fill="none" xmlns="http://www.w3.org/2000/svg">
<path d="M7.5 2.74432L7.5 13.7443M7.5 13.7443C5.84315 13.7443 4.5 15.0875 4.5 16.7443C4.5 18.4012 5.84315 19.7443 7.5 19.7443M7.5 13.7443C9.15685 13.7443 10.5 15.0875 10.5 16.7443C10.5 18.4012 9.15685 19.7443 7.5 19.7443M16 11.7443L16 22.7443M16 11.7443C17.6569 11.7443 19 10.4012 19 8.74432C19 7.08747 17.6569 5.74432 16 5.74432M16 11.7443C14.3431 11.7443 13 10.4012 13 8.74432C13 7.08747 14.3431 5.74432 16 5.74432M7.5 19.7443L7.5 22.7443M16 2.74432V5.74432" stroke="#191C1E" stroke-width="1.5" stroke-linejoin="round"/>
</svg>
