<svg width="24" height="25" viewBox="0 0 24 25" fill="none" xmlns="http://www.w3.org/2000/svg">
<path d="M15 12.7443C15 14.4012 13.6568 15.7443 12 15.7443C10.3431 15.7443 8.99999 14.4012 8.99999 12.7443C8.99999 11.0875 10.3431 9.74432 12 9.74432C13.6568 9.74432 15 11.0875 15 12.7443Z" stroke="#191C1E" stroke-width="1.5" stroke-linejoin="round"/>
<path d="M18.4234 11.7429L20.8309 9.98289C20.6443 9.38562 20.3988 8.81437 20.1012 8.27595L19.929 7.97767C19.6049 7.43981 19.2277 6.9376 18.8046 6.47834L16.0782 7.68251C15.5599 7.26438 14.976 6.92424 14.3444 6.67992L14.024 3.71642C13.3726 3.57102 12.6953 3.49432 12.0001 3.49432C11.3048 3.49432 10.6274 3.57103 9.976 3.71645L9.65562 6.67999C9.02407 6.92431 8.44024 7.26444 7.92194 7.68255L5.19557 6.47839C4.77098 6.93924 4.3926 7.44334 4.0678 7.98332L3.90218 8.27019C3.60312 8.81032 3.35652 9.38354 3.16928 9.98297L5.57674 11.743C5.52628 12.0694 5.50009 12.4038 5.50009 12.7443C5.50009 13.0848 5.52628 13.4192 5.57674 13.7456L3.16928 15.5057C3.35653 16.1051 3.60313 16.6783 3.9022 17.2185L4.06779 17.5053C4.39259 18.0453 4.77097 18.5494 5.19557 19.0103L7.92194 17.8061C8.44024 18.2242 9.02407 18.5643 9.65562 18.8087L9.976 21.7722C10.6274 21.9176 11.3048 21.9943 12.0001 21.9943C12.6953 21.9943 13.3726 21.9176 14.024 21.7722L14.3444 18.8087C14.976 18.5644 15.5599 18.2243 16.0782 17.8061L18.8046 19.0103C19.2277 18.551 19.6049 18.0488 19.929 17.5109L20.1012 17.2127C20.3988 16.6743 20.6443 16.103 20.8309 15.5058L18.4234 13.7457C18.4739 13.4193 18.5001 13.0849 18.5001 12.7443C18.5001 12.4038 18.4739 12.0694 18.4234 11.7429Z" stroke="#191C1E" stroke-width="1.5" stroke-linejoin="round"/>
</svg>
