<svg width="24" height="25" viewBox="0 0 24 25" fill="none" xmlns="http://www.w3.org/2000/svg">
<path d="M9.04856 13.7795L15.0446 16.5465M8.86262 11.3361L14.8853 8.55691M20.25 7.70265C20.25 9.22143 19.0188 10.4527 17.5 10.4527C15.9812 10.4527 14.75 9.22143 14.75 7.70265C14.75 6.18387 15.9812 4.95265 17.5 4.95265C19.0188 4.95265 20.25 6.18387 20.25 7.70265ZM9.25 12.7443C9.25 14.2631 8.01878 15.4943 6.5 15.4943C4.98122 15.4943 3.75 14.2631 3.75 12.7443C3.75 11.2255 4.98122 9.99432 6.5 9.99432C8.01878 9.99432 9.25 11.2255 9.25 12.7443ZM20.25 17.786C20.25 19.3048 19.0188 20.536 17.5 20.536C15.9812 20.536 14.75 19.3048 14.75 17.786C14.75 16.2672 15.9812 15.036 17.5 15.036C19.0188 15.036 20.25 16.2672 20.25 17.786Z" stroke="#191C1E" stroke-width="1.5" stroke-linejoin="round"/>
</svg>
