<svg width="24" height="25" viewBox="0 0 24 25" fill="none" xmlns="http://www.w3.org/2000/svg">
<path d="M6.89679 5.02799C6.73377 4.84784 6.53687 4.70157 6.31733 4.59753C6.09778 4.49348 5.85989 4.43369 5.61724 4.42158C5.37459 4.40947 5.13193 4.44527 4.90311 4.52694C4.6743 4.60861 4.46381 4.73455 4.28367 4.89756C4.10352 5.06058 3.95725 5.25748 3.8532 5.47703C3.74916 5.69657 3.68937 5.93446 3.67726 6.17711C3.66515 6.41976 3.70095 6.66242 3.78262 6.89124C3.86429 7.12005 3.99023 7.33054 4.15324 7.51069C4.48247 7.8745 4.94274 8.09263 5.43279 8.11709C5.92285 8.14155 6.40255 7.97034 6.76636 7.64111C7.13018 7.31188 7.34831 6.85162 7.37277 6.36156C7.39723 5.87151 7.22601 5.39181 6.89679 5.02799ZM17.1032 20.4607C17.2662 20.6408 17.4631 20.7871 17.6827 20.8911C17.9022 20.9952 18.1401 21.055 18.3828 21.0671C18.6254 21.0792 18.8681 21.0434 19.0969 20.9617C19.3257 20.88 19.5362 20.7541 19.7163 20.5911C19.8965 20.4281 20.0428 20.2312 20.1468 20.0116C20.2509 19.7921 20.3106 19.5542 20.3228 19.3115C20.3349 19.0689 20.2991 18.8262 20.2174 18.5974C20.1357 18.3686 20.0098 18.1581 19.8468 17.978C19.5175 17.6142 19.0573 17.396 18.5672 17.3716C18.0772 17.3471 17.5975 17.5183 17.2337 17.8475C16.8698 18.1768 16.6517 18.637 16.6272 19.1271C16.6028 19.6171 16.774 20.0968 17.1032 20.4607ZM4.28367 17.8475C3.91985 18.1768 3.70172 18.637 3.67726 19.1271C3.6528 19.6171 3.82402 20.0968 4.15324 20.4607C4.48247 20.8245 4.94274 21.0426 5.43279 21.0671C5.92285 21.0915 6.40255 20.9203 6.76636 20.5911C6.94651 20.4281 7.09278 20.2312 7.19683 20.0116C7.30087 19.7921 7.36066 19.5542 7.37277 19.3115C7.38488 19.0689 7.34908 18.8262 7.26741 18.5974C7.18574 18.3686 7.0598 18.1581 6.89679 17.978C6.73377 17.7978 6.53687 17.6516 6.31733 17.5475C6.09778 17.4435 5.85989 17.3837 5.61724 17.3716C5.12718 17.3471 4.64748 17.5183 4.28367 17.8475ZM20.325 6.26934C20.325 6.75999 20.1301 7.23054 19.7831 7.57748C19.4362 7.92442 18.9656 8.11933 18.475 8.11933C17.9843 8.11933 17.5138 7.92442 17.1669 7.57748C16.8199 7.23054 16.625 6.75999 16.625 6.26934C16.625 5.77869 16.8199 5.30813 17.1669 4.96119C17.5138 4.61425 17.9843 4.41934 18.475 4.41934C18.9656 4.41934 19.4362 4.61425 19.7831 4.96119C20.1301 5.30813 20.325 5.77869 20.325 6.26934Z" stroke="#191C1E" stroke-width="1.5" stroke-linejoin="round"/>
<path d="M6.89678 5.02799C8.40941 4.02475 10.1849 3.49116 12 3.49434C12.6352 3.49557 13.2518 3.55724 13.85 3.67934M19.7265 7.65683C20.7232 9.16613 21.2531 10.9356 21.25 12.7443C21.2488 13.3795 21.1871 13.9962 21.065 14.5943M17.1032 20.4607C15.5906 21.4639 13.8151 21.9975 12 21.9943C11.3648 21.9931 10.7482 21.9314 10.15 21.8093M4.28366 17.8475C3.28042 16.3349 2.74684 14.5594 2.75001 12.7443C2.75125 12.1092 2.81291 11.4925 2.93501 10.8943" stroke="#191C1E" stroke-width="1.5" stroke-linejoin="round"/>
<path d="M12.875 7.49432L10.25 11.9568L13.75 13.5318L11.125 17.9943" stroke="#191C1E" stroke-width="1.5" stroke-linejoin="round"/>
</svg>
