<svg width="24" height="25" viewBox="0 0 24 25" fill="none" xmlns="http://www.w3.org/2000/svg">
<path d="M9.10135 4.49432V7.49432M14.8986 6.27811V7.47173M14.8986 20.9943V17.9943M9.10135 19.0991V17.9247" stroke="#191C1E" stroke-width="1.5" stroke-linejoin="round"/>
<path d="M9.10135 4.49432L3.75 6.27811V20.9943L9.10135 19.0991L14.8986 20.9943L20.25 19.0991V4.49432L14.8986 6.27811L9.10135 4.49432Z" stroke="#191C1E" stroke-width="1.5" stroke-linejoin="round"/>
<path d="M6.43804 12.7443C7.2171 10.4195 9.41291 8.74432 12 8.74432C14.587 8.74432 16.7828 10.4195 17.5619 12.7443C16.7828 15.0691 14.587 16.7442 12 16.7442C9.41291 16.7442 7.2171 15.0691 6.43804 12.7443Z" stroke="#191C1E" stroke-width="1.5" stroke-linejoin="round"/>
<path d="M13.75 12.7443C13.75 13.7108 12.9665 14.4943 12 14.4943C11.0335 14.4943 10.25 13.7108 10.25 12.7443C10.25 11.7778 11.0335 10.9943 12 10.9943C12.9665 10.9943 13.75 11.7778 13.75 12.7443Z" stroke="#191C1E" stroke-width="1.5" stroke-linejoin="round"/>
</svg>
