<svg width="24" height="25" viewBox="0 0 24 25" fill="none" xmlns="http://www.w3.org/2000/svg">
<path d="M5.45926 6.20358C3.78534 7.8775 2.75 10.19 2.75 12.7443C2.75 15.2986 3.78534 17.6111 5.45926 19.2851M7.58058 8.3249C6.44956 9.45593 5.75 11.0184 5.75 12.7443C5.75 14.4702 6.44955 16.0327 7.58058 17.1637M18.5407 6.20358C20.2147 7.8775 21.25 10.19 21.25 12.7443C21.25 15.2986 20.2147 17.6111 18.5407 19.2851M16.4194 8.3249C17.5504 9.45593 18.25 11.0184 18.25 12.7443C18.25 14.4702 17.5504 16.0327 16.4194 17.1637M15.25 12.7443C15.25 14.5392 13.7949 15.9943 12 15.9943C10.2051 15.9943 8.75 14.5392 8.75 12.7443C8.75 10.9494 10.2051 9.49432 12 9.49432C13.7949 9.49432 15.25 10.9494 15.25 12.7443Z" stroke="#191C1E" stroke-width="1.5" stroke-linejoin="round"/>
</svg>
