<svg width="24" height="25" viewBox="0 0 24 25" fill="none" xmlns="http://www.w3.org/2000/svg">
<path d="M6.89882 7.64313L7.97078 6.57117C10.7681 3.77388 15.3223 3.79278 18.1429 6.61338C20.9635 9.43397 20.9824 13.9882 18.1851 16.7855L17.1131 17.8574M6.89882 7.64313L3.75 10.7919L6.51637 13.5583L9.66519 10.4095M6.89882 7.64313L9.66519 10.4095M9.66519 10.4095L10.7371 9.33754C12.0192 8.05545 14.1066 8.06411 15.3994 9.35688C16.6921 10.6497 16.7008 12.737 15.4187 14.0191L14.3467 15.0911M17.1131 17.8574L13.9643 21.0062L11.1979 18.2399L14.3467 15.0911M17.1131 17.8574L14.3467 15.0911M8.25 15.4943V16.3515C8.25 19.2443 4 17.7443 4 20.6372V21.4943" stroke="#191C1E" stroke-width="1.5" stroke-linejoin="round"/>
</svg>
