<svg width="24" height="25" viewBox="0 0 24 25" fill="none" xmlns="http://www.w3.org/2000/svg">
<path d="M5.75 18.4943V20.7027M18.25 18.4943V20.7027M18.5 10.1397V7.99432C18.5 6.61361 17.3807 5.49432 16 5.49432H8C6.61929 5.49432 5.5 6.61361 5.5 7.99432V10.1397M18.5 10.1397C17.767 10.4364 17.25 11.155 17.25 11.9943V14.4943H6.75V11.9943C6.75 11.155 6.23296 10.4364 5.5 10.1397M18.5 10.1397C18.7316 10.046 18.9848 9.99432 19.25 9.99432C20.3546 9.99432 21.25 10.8898 21.25 11.9943V17.4943C21.25 18.0466 20.8023 18.4943 20.25 18.4943H3.75C3.19772 18.4943 2.75 18.0466 2.75 17.4943V11.9943C2.75 10.8898 3.64543 9.99432 4.75 9.99432C5.01523 9.99432 5.26839 10.046 5.5 10.1397" stroke="#191C1E" stroke-width="1.5" stroke-linejoin="round"/>
</svg>
