<svg width="24" height="25" viewBox="0 0 24 25" fill="none" xmlns="http://www.w3.org/2000/svg">
<path d="M5.40909 6.86932L4.75 10.2443H12M5.40909 6.86932L6.06818 3.49432H12M5.40909 6.86932H18.5909M18.5909 6.86932L17.9318 3.49432H12M18.5909 6.86932L19.25 10.2443H12M12 3.49432V10.2443" stroke="#191C1E" stroke-width="1.5" stroke-linejoin="round"/>
<path d="M6.25 18.406L12 15.4942L17.75 18.406M6.25 18.406V22.7443M6.25 18.406L4 19.5454M17.75 18.406V22.7443M17.75 18.406L20 19.5454" stroke="#191C1E" stroke-width="1.5" stroke-linejoin="round"/>
<path d="M5.5 12.7444L7.12499 14.3425L8.74997 12.7444M15.5 12.7444L17.125 14.3425L18.75 12.7444" stroke="#191C1E" stroke-width="1.5" stroke-linejoin="round"/>
</svg>
