<svg width="24" height="25" viewBox="0 0 24 25" fill="none" xmlns="http://www.w3.org/2000/svg">
<path d="M12 5.74432V14.7443M12 14.7443C11.0335 14.7443 10.25 15.5278 10.25 16.4943C10.25 17.4608 11.0335 18.2443 12 18.2443C12.9665 18.2443 13.75 17.4608 13.75 16.4943C13.75 15.5278 12.9665 14.7443 12 14.7443ZM2.75 12.7443C2.75 7.63569 6.89137 3.49432 12 3.49432C17.1086 3.49432 21.25 7.63569 21.25 12.7443C21.25 16.555 18.9458 19.8274 15.6546 21.2443H8.34538C5.05424 19.8274 2.75 16.555 2.75 12.7443Z" stroke="#191C1E" stroke-width="1.5" stroke-linejoin="round"/>
<path d="M8.32637 7.68789L8.32839 7.68642M6.05586 10.8129L6.05663 10.8105M17.944 10.813L17.9448 10.8153M15.6737 7.68797L15.6757 7.68944" stroke="#191C1E" stroke-width="1.5" stroke-linecap="round" stroke-linejoin="round"/>
</svg>
