<svg width="24" height="25" viewBox="0 0 24 25" fill="none" xmlns="http://www.w3.org/2000/svg">
<path d="M13.2603 15.2858C12.595 14.5847 11.4874 14.5557 10.7863 15.221C10.0852 15.8863 10.0562 16.994 10.7215 17.695C11.3868 18.3961 12.4945 18.4251 13.1955 17.7598C13.8966 17.0945 13.9256 15.9869 13.2603 15.2858ZM13.2603 15.2858L18.5 10.3135M2.75 12.7443C2.75 7.63569 6.89137 3.49432 12 3.49432C17.1086 3.49432 21.25 7.63569 21.25 12.7443C21.25 16.555 18.9458 19.8274 15.6546 21.2443H8.34538C5.05424 19.8274 2.75 16.555 2.75 12.7443Z" stroke="#191C1E" stroke-width="1.5" stroke-linejoin="round"/>
<path d="M12 6.49432H12.0025M8.32637 7.68788L8.32839 7.68641M6.05586 10.8129L6.05663 10.8105M15.6737 7.68797L15.6757 7.68944" stroke="#191C1E" stroke-width="1.5" stroke-linecap="round" stroke-linejoin="round"/>
</svg>
