<svg width="24" height="25" viewBox="0 0 24 25" fill="none" xmlns="http://www.w3.org/2000/svg">
<path d="M11.3295 14.8789C10.4379 15.2519 10.0175 16.277 10.3904 17.1687C10.7634 18.0603 11.7886 18.4808 12.6802 18.1078C13.5718 17.7348 13.9923 16.7096 13.6193 15.818C13.2463 14.9264 12.2212 14.5059 11.3295 14.8789ZM11.3295 14.8789L8.04121 6.99673M2.75 12.7443C2.75 7.63569 6.89137 3.49432 12 3.49432C17.1086 3.49432 21.25 7.63569 21.25 12.7443C21.25 16.555 18.9458 19.8274 15.6546 21.2443H8.34538C5.05424 19.8274 2.75 16.555 2.75 12.7443Z" stroke="#191C1E" stroke-width="1.5" stroke-linejoin="round"/>
<path d="M12 6.49432H12.0025M6.05586 10.8129L6.05663 10.8105M17.944 10.813L17.9448 10.8153M15.6737 7.68797L15.6757 7.68944" stroke="#191C1E" stroke-width="1.5" stroke-linecap="round" stroke-linejoin="round"/>
</svg>
