<svg width="24" height="25" viewBox="0 0 24 25" fill="none" xmlns="http://www.w3.org/2000/svg">
<path d="M12.6706 14.8789C11.779 14.5059 10.7538 14.9263 10.3808 15.818C10.0078 16.7096 10.4283 17.7348 11.3199 18.1078C12.2115 18.4807 13.2367 18.0603 13.6097 17.1686C13.9827 16.277 13.5622 15.2518 12.6706 14.8789ZM12.6706 14.8789L15.9663 6.99615M2.75 12.7443C2.75 7.63569 6.89137 3.49432 12 3.49432C17.1086 3.49432 21.25 7.63569 21.25 12.7443C21.25 16.555 18.9458 19.8274 15.6546 21.2443H8.34538C5.05424 19.8274 2.75 16.555 2.75 12.7443Z" stroke="#191C1E" stroke-width="1.5" stroke-linejoin="round"/>
<path d="M12 6.49432H12.0025M8.32637 7.68788L8.32839 7.68641M6.05586 10.8129L6.05663 10.8105M17.944 10.813L17.9448 10.8153" stroke="#191C1E" stroke-width="1.5" stroke-linecap="round" stroke-linejoin="round"/>
</svg>
