<svg width="24" height="25" viewBox="0 0 24 25" fill="none" xmlns="http://www.w3.org/2000/svg">
<path d="M10.7396 15.2858C10.0743 15.9869 10.1033 17.0945 10.8044 17.7598C11.5055 18.4251 12.6131 18.3961 13.2784 17.695C13.9437 16.994 13.9147 15.8863 13.2136 15.221C12.5126 14.5557 11.4049 14.5847 10.7396 15.2858ZM10.7396 15.2858L5.49603 10.3098M2.75 12.7443C2.75 7.63569 6.89137 3.49432 12 3.49432C17.1086 3.49432 21.25 7.63569 21.25 12.7443C21.25 16.555 18.9458 19.8274 15.6546 21.2443H8.34538C5.05424 19.8274 2.75 16.555 2.75 12.7443Z" stroke="#191C1E" stroke-width="1.5" stroke-linejoin="round"/>
<path d="M12 6.49432H12.0025M8.32637 7.68788L8.32839 7.68641M17.944 10.813L17.9448 10.8153M15.6737 7.68797L15.6757 7.68944" stroke="#191C1E" stroke-width="1.5" stroke-linecap="round" stroke-linejoin="round"/>
</svg>
