<svg width="24" height="25" viewBox="0 0 24 25" fill="none" xmlns="http://www.w3.org/2000/svg">
<path d="M14.5567 15.9943L15.5793 15.4028C16.7439 14.729 17.3257 14.3921 17.4037 13.9122C17.4152 13.8373 17.4188 13.7614 17.4145 13.6857C17.3755 13.2026 16.823 12.8299 15.7191 12.0846M15.7191 12.0846L10.6198 8.64282M15.7191 12.0846L13.4875 10.5777C12.7362 11.5499 12.0933 12.6012 11.57 13.7128C11.0933 14.7171 10.856 15.2187 10.9005 15.7928L7.66671 14.911M10.6198 8.64282C8.61675 7.29082 8.15633 4.82516 9.5625 2.99432M10.6198 8.64282C7.9115 11.3512 6.58337 18.8457 6.58337 22.4943M10.6198 8.64282L13.4864 10.5777M15.25 22.4943C14.196 21.2647 13.1115 19.5693 12.0542 18.0072C11.3143 16.913 10.9438 16.3648 10.9005 15.7917M16.3333 5.70266C16.3333 6.13363 16.1621 6.54696 15.8574 6.85171C15.5526 7.15645 15.1393 7.32766 14.7083 7.32766C14.2774 7.32766 13.864 7.15645 13.5593 6.85171C13.2545 6.54696 13.0833 6.13363 13.0833 5.70266C13.0833 5.27168 13.2545 4.85835 13.5593 4.55361C13.864 4.24886 14.2774 4.07766 14.7083 4.07766C15.1393 4.07766 15.5526 4.24886 15.8574 4.55361C16.1621 4.85835 16.3333 5.27168 16.3333 5.70266Z" stroke="black" stroke-width="1.5" stroke-linejoin="round"/>
</svg>
