<svg width="24" height="25" viewBox="0 0 24 25" fill="none" xmlns="http://www.w3.org/2000/svg">
<path d="M20.25 20.9943V4.49432H3.75V20.9943M20.25 20.9943H3.75M20.25 20.9943V16.7443M20.25 20.9943V7.99432M20.25 20.9943H14.75M3.75 20.9943V16.7443M3.75 20.9943H9.25M3.75 20.9943V7.99432M3.75 7.99432H20.25M3.75 7.99432V12.2443M3.75 7.99432L9.25 7.99432M20.25 7.99432V12.2443M20.25 7.99432L14.75 7.99432M20.25 12.2443H3.75M20.25 12.2443V16.7443M3.75 12.2443V16.7443M20.25 16.7443H3.75M14.75 20.9943L14.75 7.99432M14.75 20.9943H9.25M14.75 7.99432H9.25M9.25 20.9943L9.25 7.99432" stroke="#191C1E" stroke-width="1.5" stroke-linejoin="round"/>
</svg>
