<svg width="24" height="25" viewBox="0 0 24 25" fill="none" xmlns="http://www.w3.org/2000/svg">
<path d="M14.644 10.883L13.8999 11.6511L11.1651 14.3843L12.4438 15.6673M12.4438 15.6673L16.9556 20.2416C16.9566 20.2427 16.9578 20.2435 16.9592 20.244C16.9606 20.2444 16.9621 20.2444 16.9636 20.2441C16.965 20.2438 16.9663 20.243 16.9674 20.242C16.9684 20.241 16.9692 20.2397 16.9696 20.2383L20.2497 5.2548C20.2501 5.25333 20.2501 5.25179 20.2497 5.25033C20.2493 5.24888 20.2485 5.24756 20.2473 5.24653C20.2462 5.2455 20.2449 5.2448 20.2434 5.24449C20.2419 5.24419 20.2404 5.24429 20.239 5.2448L3.7551 11.9176C3.75366 11.9182 3.75242 11.9192 3.75152 11.9205C3.75062 11.9218 3.7501 11.9233 3.75001 11.9249C3.74993 11.9264 3.75028 11.928 3.75103 11.9294C3.75179 11.9307 3.75291 11.9319 3.75427 11.9326L8.29165 14.3843L9.11168 19.3827C9.11209 19.3841 9.11286 19.3854 9.11392 19.3865C9.11498 19.3875 9.1163 19.3882 9.11773 19.3885C9.11916 19.3889 9.12065 19.3888 9.12205 19.3884C9.12346 19.388 9.12472 19.3871 9.12571 19.3861L12.4438 15.6673Z" stroke="#191C1E" stroke-width="1.5" stroke-linejoin="round"/>
</svg>
