<svg width="24" height="25" viewBox="0 0 24 25" fill="none" xmlns="http://www.w3.org/2000/svg">
<path d="M12 16.2443C11.1716 16.2443 10.5 16.9159 10.5 17.7443C10.5 18.5728 11.1716 19.2443 12 19.2443C12.8284 19.2443 13.5 18.5728 13.5 17.7443C13.5 16.9159 12.8284 16.2443 12 16.2443ZM12 16.2443V9.24433M20 12.9943H17M20 6.99432L17 6.99432M18.5 9.99432H17M9.25 6.24432C9.25 4.72554 10.4812 3.49432 12 3.49432C13.5188 3.49432 14.75 4.72554 14.75 6.24432V14.5038C15.6677 15.2834 16.25 16.4459 16.25 17.7443C16.25 20.0915 14.3472 21.9943 12 21.9943C9.65279 21.9943 7.75 20.0915 7.75 17.7443C7.75 16.4459 8.3323 15.2834 9.25 14.5038V6.24432Z" stroke="#191C1E" stroke-width="1.5" stroke-linejoin="round"/>
</svg>
