<svg width="24" height="25" viewBox="0 0 24 25" fill="none" xmlns="http://www.w3.org/2000/svg">
<path d="M10.1618 19.9943C11.3318 19.9943 12.454 19.536 13.2814 18.7202C14.1087 17.9045 14.5735 16.798 14.5735 15.6443V10.0219C15.616 10.8471 16.9132 11.2961 18.25 11.2943V9.11932C17.2749 9.11932 16.3398 8.73741 15.6503 8.05759C14.9609 7.37777 14.5735 6.45573 14.5735 5.49432H12.3676V15.6443C12.3676 16.0745 12.2383 16.495 11.9959 16.8527C11.7535 17.2104 11.409 17.4891 11.0059 17.6538C10.6028 17.8184 10.1593 17.8615 9.73142 17.7775C9.30352 17.6936 8.91047 17.4865 8.60197 17.1823C8.29347 16.8781 8.08338 16.4906 7.99827 16.0686C7.91315 15.6467 7.95684 15.2094 8.1238 14.812C8.29075 14.4146 8.57349 14.0749 8.93624 13.8359C9.299 13.5969 9.72548 13.4693 10.1618 13.4693V11.2943C8.99169 11.2943 7.86954 11.7526 7.04218 12.5684C6.21481 13.3842 5.75 14.4906 5.75 15.6443C5.75 16.798 6.21481 17.9045 7.04218 18.7202C7.86954 19.536 8.99169 19.9943 10.1618 19.9943Z" stroke="#191C1E" stroke-width="1.5" stroke-linecap="round" stroke-linejoin="round"/>
</svg>
