<svg width="24" height="25" viewBox="0 0 24 25" fill="none" xmlns="http://www.w3.org/2000/svg">
<path d="M12.3994 12.6361L13.9509 8.5082C14.1352 8.0178 13.7727 7.49432 13.2488 7.49432H12.5021C11.856 7.49432 11.2494 7.72002 10.7707 8.1078M12.3994 12.6361L11.7336 14.4074H8.19262M12.3994 12.6361L10.7707 8.1078M12.3994 12.6361L13.832 16.6193M8.19262 14.4074L9.89685 9.36397C10.0676 8.85862 10.3755 8.42796 10.7707 8.1078M8.19262 14.4074L11.209 17.9291L12.3893 22.4943M9.2418 18.4508L7 22.3693M17.5 4.99432C17.5 5.82275 16.8284 6.49432 16 6.49432C15.1716 6.49432 14.5 5.82275 14.5 4.99432C14.5 4.1659 15.1716 3.49432 16 3.49432C16.8284 3.49432 17.5 4.1659 17.5 4.99432Z" stroke="#191C1E" stroke-width="1.5" stroke-linejoin="round"/>
</svg>
