<svg width="24" height="25" viewBox="0 0 24 25" fill="none" xmlns="http://www.w3.org/2000/svg">
<path d="M12 18.9943C14.7776 18.9943 17.1319 17.1825 17.9457 14.6762M12 18.9943C9.22244 18.9943 6.86806 17.1825 6.05429 14.6762M12 18.9943V14.9943M12 14.9943C11.0001 14.9943 10.1525 14.3421 9.85954 13.4398M12 14.9943C12.9999 14.9943 13.8475 14.3421 14.1405 13.4398M10.6774 10.9239C10.1153 11.333 9.75 11.996 9.75 12.7443C9.75 12.987 9.78843 13.2208 9.85954 13.4398M10.6774 10.9239C11.0486 10.6537 11.5057 10.4943 12 10.4943C12.4943 10.4943 12.9514 10.6537 13.3226 10.9239M10.6774 10.9239L8.32606 7.68763M9.85954 13.4398L6.05429 14.6762M14.1405 13.4398C14.2116 13.2208 14.25 12.987 14.25 12.7443C14.25 11.996 13.8847 11.333 13.3226 10.9239M14.1405 13.4398L17.9457 14.6762M13.3226 10.9239L15.6739 7.68761M15.6739 7.68761C14.6427 6.93708 13.373 6.49432 12 6.49432C10.6269 6.49432 9.3573 6.93709 8.32606 7.68763M15.6739 7.68761C17.2352 8.82388 18.25 10.6656 18.25 12.7443C18.25 13.4185 18.1432 14.0678 17.9457 14.6762M8.32606 7.68763C6.76482 8.8239 5.75 10.6656 5.75 12.7443C5.75 13.4185 5.85676 14.0678 6.05429 14.6762M21.25 12.7443C21.25 17.853 17.1086 21.9943 12 21.9943C6.89137 21.9943 2.75 17.853 2.75 12.7443C2.75 7.63569 6.89137 3.49432 12 3.49432C17.1086 3.49432 21.25 7.63569 21.25 12.7443Z" stroke="#191C1E" stroke-width="1.5" stroke-linejoin="round"/>
</svg>
