<svg width="24" height="25" viewBox="0 0 24 25" fill="none" xmlns="http://www.w3.org/2000/svg">
<path d="M15.8616 8.79141C15.9518 8.45767 16 8.10662 16 7.74432C16 5.53518 14.2091 3.74432 12 3.74432C9.79086 3.74432 8 5.53518 8 7.74432C8 8.08603 8.04285 8.41773 8.12346 8.73434C7.09948 9.73322 6.46368 11.1282 6.46368 12.6717C6.46368 15.7093 8.92612 18.1717 11.9637 18.1717C15.0013 18.1717 17.4637 15.7093 17.4637 12.6717C17.4637 11.1574 16.8517 9.78601 15.8616 8.79141Z" stroke="#191C1E" stroke-width="1.5" stroke-linejoin="round"/>
<path d="M14.375 11.3693L12 13.7443L9.625 11.3693" stroke="#191C1E" stroke-width="1.5" stroke-linejoin="round"/>
<path d="M7.75 21.9943H12M12 21.9943H16.25M12 21.9943V13.7443" stroke="#191C1E" stroke-width="1.5" stroke-linejoin="round"/>
</svg>
