<svg width="24" height="25" viewBox="0 0 24 25" fill="none" xmlns="http://www.w3.org/2000/svg">
<path d="M5.5 14.1193C5.5 14.484 5.64487 14.8337 5.90273 15.0916C6.16059 15.3495 6.51033 15.4943 6.875 15.4943C7.23967 15.4943 7.58941 15.3495 7.84727 15.0916C8.10513 14.8337 8.25 14.484 8.25 14.1193C8.25 13.7547 8.10513 13.4049 7.84727 13.1471C7.58941 12.8892 7.23967 12.7443 6.875 12.7443C6.51033 12.7443 6.16059 12.8892 5.90273 13.1471C5.64487 13.4049 5.5 13.7547 5.5 14.1193Z" stroke="#191C1E" stroke-width="1.5" stroke-linecap="round" stroke-linejoin="round"/>
<path d="M15.75 14.1193C15.75 14.484 15.8949 14.8337 16.1527 15.0916C16.4106 15.3495 16.7603 15.4943 17.125 15.4943C17.4897 15.4943 17.8394 15.3495 18.0973 15.0916C18.3551 14.8337 18.5 14.484 18.5 14.1193C18.5 13.7547 18.3551 13.4049 18.0973 13.1471C17.8394 12.8892 17.4897 12.7443 17.125 12.7443C16.7603 12.7443 16.4106 12.8892 16.1527 13.1471C15.8949 13.4049 15.75 13.7547 15.75 14.1193Z" stroke="#191C1E" stroke-width="1.5" stroke-linecap="round" stroke-linejoin="round"/>
<path d="M10.604 15.8829L12 17.7443L13.396 15.8829M10.604 15.8829C10.998 15.0497 11.1019 14.1081 10.8982 13.2084C10.6915 12.2959 10.1808 11.4807 9.44986 10.8966C8.71888 10.3126 7.81107 9.99442 6.87542 9.99432H2.75042L3.66709 11.5261C3.07888 12.2537 2.75552 13.1597 2.75007 14.0953C2.74462 15.0309 3.05742 15.9406 3.63711 16.675C4.21681 17.4095 5.02896 17.925 5.94026 18.137C6.85157 18.349 7.80788 18.2449 8.65223 17.8418C9.49658 17.4387 10.1788 16.7605 10.5869 15.9186C10.5927 15.9067 10.5983 15.8948 10.604 15.8829ZM13.396 15.8829C13.002 15.0497 12.8981 14.1081 13.1018 13.2084C13.3085 12.2959 13.8192 11.4807 14.5501 10.8966C15.2811 10.3126 16.1889 9.99442 17.1246 9.99432H21.2496L20.3329 11.5261C20.9211 12.2537 21.2445 13.1597 21.2499 14.0953C21.2554 15.0309 20.9426 15.9406 20.3629 16.675C19.7832 17.4095 18.971 17.925 18.0597 18.137C17.1484 18.349 16.1921 18.2449 15.3478 17.8418C14.5034 17.4387 13.8212 16.7605 13.4131 15.9186C13.4073 15.9067 13.4017 15.8948 13.396 15.8829Z" stroke="#191C1E" stroke-width="1.5" stroke-linecap="round" stroke-linejoin="round"/>
<path d="M9.25 7.74432C11.0833 7.07766 12.9167 7.07766 14.75 7.74432" stroke="#191C1E" stroke-width="1.5" stroke-linecap="round" stroke-linejoin="round"/>
</svg>
