<svg width="24" height="25" viewBox="0 0 24 25" fill="none" xmlns="http://www.w3.org/2000/svg">
<path d="M10.375 13.9943L10.125 22.4943M10.375 13.9943L12.875 13.1193M10.375 13.9943L8.625 9.11932M12.875 13.1193L17.625 20.3693M12.875 13.1193L11.625 8.11932M8.625 9.11932L11.625 8.11932M8.625 9.11932L6.125 15.3693M11.625 8.11932L18 11.4943M10.25 4.99432C10.25 5.82275 9.57843 6.49432 8.75 6.49432C7.92157 6.49432 7.25 5.82275 7.25 4.99432C7.25 4.1659 7.92157 3.49432 8.75 3.49432C9.57843 3.49432 10.25 4.1659 10.25 4.99432Z" stroke="#191C1E" stroke-width="1.5" stroke-linejoin="round"/>
</svg>
