<svg width="24" height="25" viewBox="0 0 24 25" fill="none" xmlns="http://www.w3.org/2000/svg">
<path d="M7.05 6.14432C7.05 6.58193 6.87616 7.00161 6.56673 7.31105C6.25729 7.62048 5.83761 7.79432 5.4 7.79432C4.96239 7.79432 4.54271 7.62048 4.23327 7.31105C3.92384 7.00161 3.75 6.58193 3.75 6.14432C3.75 5.70672 3.92384 5.28703 4.23327 4.9776C4.54271 4.66816 4.96239 4.49432 5.4 4.49432C5.83761 4.49432 6.25729 4.66816 6.56673 4.9776C6.87616 5.28703 7.05 5.70672 7.05 6.14432ZM20.25 6.14432C20.25 6.58193 20.0762 7.00161 19.7667 7.31105C19.4573 7.62048 19.0376 7.79432 18.6 7.79432C18.1624 7.79432 17.7427 7.62048 17.4333 7.31105C17.1238 7.00161 16.95 6.58193 16.95 6.14432C16.95 5.70672 17.1238 5.28703 17.4333 4.9776C17.7427 4.66816 18.1624 4.49432 18.6 4.49432C19.0376 4.49432 19.4573 4.66816 19.7667 4.9776C20.0762 5.28703 20.25 5.70672 20.25 6.14432ZM20.25 19.3443C20.25 19.7819 20.0762 20.2016 19.7667 20.511C19.4573 20.8205 19.0376 20.9943 18.6 20.9943C18.1624 20.9943 17.7427 20.8205 17.4333 20.511C17.1238 20.2016 16.95 19.7819 16.95 19.3443C16.95 18.9067 17.1238 18.487 17.4333 18.1776C17.7427 17.8682 18.1624 17.6943 18.6 17.6943C19.0376 17.6943 19.4573 17.8682 19.7667 18.1776C20.0762 18.487 20.25 18.9067 20.25 19.3443ZM7.05 19.3443C7.05 19.7819 6.87616 20.2016 6.56673 20.511C6.25729 20.8205 5.83761 20.9943 5.4 20.9943C4.96239 20.9943 4.54271 20.8205 4.23327 20.511C3.92384 20.2016 3.75 19.7819 3.75 19.3443C3.75 18.9067 3.92384 18.487 4.23327 18.1776C4.54271 17.8682 4.96239 17.6943 5.4 17.6943C5.83761 17.6943 6.25729 17.8682 6.56673 18.1776C6.87616 18.487 7.05 18.9067 7.05 19.3443Z" stroke="#191C1E" stroke-width="1.5" stroke-linejoin="round"/>
<path d="M14.9167 8.99432H9.08333C8.86232 8.99432 8.65036 9.08212 8.49408 9.2384C8.3378 9.39468 8.25 9.60664 8.25 9.82766V10.661C8.25 10.882 8.3378 11.094 8.49408 11.2502C8.65036 11.4065 8.86232 11.4943 9.08333 11.4943H14.9167C15.1377 11.4943 15.3496 11.4065 15.5059 11.2502C15.6622 11.094 15.75 10.882 15.75 10.661V9.82766C15.75 9.60664 15.6622 9.39468 15.5059 9.2384C15.3496 9.08212 15.1377 8.99432 14.9167 8.99432ZM14.9167 13.9943H9.08333C8.86232 13.9943 8.65036 14.0821 8.49408 14.2384C8.3378 14.3947 8.25 14.6066 8.25 14.8277V15.661C8.25 15.882 8.3378 16.094 8.49408 16.2502C8.65036 16.4065 8.86232 16.4943 9.08333 16.4943H14.9167C15.1377 16.4943 15.3496 16.4065 15.5059 16.2502C15.6622 16.094 15.75 15.882 15.75 15.661V14.8277C15.75 14.6066 15.6622 14.3947 15.5059 14.2384C15.3496 14.0821 15.1377 13.9943 14.9167 13.9943Z" stroke="#191C1E" stroke-width="1.5" stroke-linejoin="round"/>
</svg>
