<svg width="24" height="25" viewBox="0 0 24 25" fill="none" xmlns="http://www.w3.org/2000/svg">
<path d="M12 18.2443C11.0335 18.2443 10.25 19.0278 10.25 19.9943C10.25 20.9608 11.0335 21.7443 12 21.7443C12.9665 21.7443 13.75 20.9608 13.75 19.9943C13.75 19.0278 12.9665 18.2443 12 18.2443ZM12 18.2443V6.74432M6.5 11.7443C7.4665 11.7443 8.25 10.9608 8.25 9.99432C8.25 9.02783 7.4665 8.24432 6.5 8.24432C5.5335 8.24432 4.75 9.02783 4.75 9.99432C4.75 10.9608 5.5335 11.7443 6.5 11.7443ZM6.5 11.7443V12.8763C6.5 13.2551 6.714 13.6013 7.05279 13.7707L12 16.2443M12 13.7443L17.1815 11.2662C17.5289 11.1001 17.75 10.7492 17.75 10.3641V9.24432M12 3.49432L14 6.74432H10L12 3.49432ZM16.25 6.24432H19.25V9.24432H16.25V6.24432Z" stroke="#191C1E" stroke-width="1.5" stroke-linejoin="round"/>
</svg>
