<svg width="24" height="25" viewBox="0 0 24 25" fill="none" xmlns="http://www.w3.org/2000/svg">
<path d="M21.25 20.7443V19.2443C21.25 17.8636 20.1307 16.7443 18.75 16.7443C17.3693 16.7443 16.25 17.8636 16.25 19.2443V20.7443V18.7131C16.25 16.3831 14.3472 14.4943 12 14.4943C9.65279 14.4943 7.75 16.3831 7.75 18.7131V20.7443V19.2443C7.75 17.8636 6.63071 16.7443 5.25 16.7443C3.86929 16.7443 2.75 17.8636 2.75 19.2443V20.7443M20.625 11.8693C20.625 12.9049 19.7855 13.7443 18.75 13.7443C17.7145 13.7443 16.875 12.9049 16.875 11.8693C16.875 10.8338 17.7145 9.99432 18.75 9.99432C19.7855 9.99432 20.625 10.8338 20.625 11.8693ZM7.125 11.8693C7.125 12.9049 6.28553 13.7443 5.25 13.7443C4.21447 13.7443 3.375 12.9049 3.375 11.8693C3.375 10.8338 4.21447 9.99432 5.25 9.99432C6.28553 9.99432 7.125 10.8338 7.125 11.8693ZM15 8.50419C15 10.1665 13.6569 11.5141 12 11.5141C10.3431 11.5141 9 10.1665 9 8.50419C9 6.84189 10.3431 5.49432 12 5.49432C13.6569 5.49432 15 6.84189 15 8.50419Z" stroke="#191C1E" stroke-width="1.5" stroke-linejoin="round"/>
</svg>
