<svg width="24" height="25" viewBox="0 0 24 25" fill="none" xmlns="http://www.w3.org/2000/svg">
<path d="M4.75 22.7443V19.4943C4.75 16.7329 6.98858 14.4943 9.75 14.4943C10.5593 14.4943 11.3237 14.6866 12 15.028M14.25 16.9943V14.6761C14.25 13.6092 15.1454 12.7443 16.25 12.7443C17.3546 12.7443 18.25 13.6092 18.25 14.6761V15.1913M13.5 7.24432C13.5 9.31539 11.8211 10.9943 9.75 10.9943C7.67893 10.9943 6 9.31539 6 7.24432C6 5.17326 7.67893 3.49432 9.75 3.49432C11.8211 3.49432 13.5 5.17326 13.5 7.24432ZM13.25 16.9943V19.7443C13.25 20.5728 13.9216 21.2443 14.75 21.2443H17.75C18.5784 21.2443 19.25 20.5728 19.25 19.7443V16.9943H13.25Z" stroke="#191C1E" stroke-width="1.5" stroke-linejoin="round"/>
</svg>
