<svg width="24" height="25" viewBox="0 0 24 25" fill="none" xmlns="http://www.w3.org/2000/svg">
<path d="M12 5.49432H3.75V20.9943H19.25V12.7443M17.125 4.49432L16.8948 5.1162C16.5927 5.93286 16.4417 6.3412 16.1448 6.63807C15.8469 6.93599 15.4385 7.08703 14.6219 7.38807L14 7.61932L14.6254 7.85047C15.4394 8.15193 15.8472 8.30296 16.1438 8.59953C16.4417 8.89745 16.5927 9.30578 16.8937 10.1224L17.125 10.7443L17.3552 10.1224C17.6573 9.30579 17.8083 8.89745 18.1052 8.60057C18.4031 8.30266 18.8115 8.15162 19.6281 7.85057L20.25 7.61932L19.6246 7.38818C18.8106 7.08672 18.4028 6.93568 18.1062 6.63912C17.8083 6.3412 17.6573 5.93287 17.3562 5.1162L17.125 4.49432ZM15 13.2443L10 16.2443L10 10.2443L15 13.2443Z" stroke="#191C1E" stroke-width="1.5" stroke-linejoin="round"/>
</svg>
