<svg width="24" height="25" viewBox="0 0 24 25" fill="none" xmlns="http://www.w3.org/2000/svg">
<path d="M8.85269 20.7443V17.1001L10.5579 17.2778C11.0543 17.2505 11.5241 17.0466 11.8808 16.7037C12.2376 16.3608 12.4575 15.9019 12.4999 15.4112V10.3448C12.5059 9.06429 11.998 7.83387 11.088 6.92424C10.1779 6.01461 8.94033 5.50027 7.64741 5.49437C6.35449 5.48848 5.11215 5.99152 4.19371 6.89281C3.27527 7.79411 2.75595 9.01985 2.75 10.3004C2.75 12.7891 3.33873 13.0149 3.64745 14.3446C3.8561 15.1477 3.86503 15.9889 3.67348 16.7961L2.75 20.7443M19.25 18.7443C20.5301 17.4846 21.2495 15.7763 21.25 13.9949C21.2505 12.2135 20.5321 10.5048 19.2527 9.24432M16.7738 16.2443C17.0853 15.9484 17.3319 15.5968 17.4995 15.2098C17.667 14.8228 17.7522 14.4081 17.75 13.9896C17.7477 13.5711 17.6582 13.1572 17.4866 12.7718C17.315 12.3865 17.0646 12.0372 16.75 11.7443" stroke="#191C1E" stroke-width="1.5" stroke-linejoin="round"/>
</svg>
