<svg width="24" height="25" viewBox="0 0 24 25" fill="none" xmlns="http://www.w3.org/2000/svg">
<path d="M8.85269 20.7443V17.1001L10.5579 17.2778C11.0543 17.2505 11.5241 17.0466 11.8808 16.7037C12.2376 16.3608 12.4575 15.9019 12.4999 15.4112V10.3448C12.5059 9.06429 11.998 7.83387 11.088 6.92424C10.1779 6.01461 8.94033 5.50027 7.64741 5.49437C6.35449 5.48848 5.11215 5.99152 4.19371 6.89281C3.27527 7.79411 2.75595 9.01985 2.75 10.3004C2.75 12.7891 3.33873 13.0149 3.64745 14.3446C3.8561 15.1477 3.86503 15.9889 3.67348 16.7961L2.75 20.7443M21.5 16.6193L18.875 13.9943M18.875 13.9943L16.25 11.3693M18.875 13.9943L21.5 11.3693M18.875 13.9943L16.25 16.6193" stroke="#191C1E" stroke-width="1.5" stroke-linejoin="round"/>
</svg>
