<svg width="24" height="25" viewBox="0 0 24 25" fill="none" xmlns="http://www.w3.org/2000/svg">
<path d="M9.55418 6.99432C10.0894 6.41024 10.801 5.95995 11.6239 5.70986C13.1749 5.23909 14.8876 5.55102 16.1152 6.5329C17.3428 7.51232 17.8988 9.00778 17.5754 10.458H18.3922C19.9704 10.458 21.25 11.7419 21.25 13.3271C21.25 13.6479 21.1976 13.9564 21.101 14.2443" stroke="#191C1E" stroke-width="1.5" stroke-linejoin="round"/>
<path d="M6.59203 12.7523C4.47012 12.7523 2.75 14.3729 2.75 16.3713C2.75 18.2836 4.32376 19.8617 6.31757 19.9943H16.3914C17.9704 19.9943 19.25 18.7347 19.25 17.1787C19.25 15.6236 17.9704 14.364 16.3922 14.364H15.5754C15.8988 12.9412 15.3428 11.4741 14.1152 10.5132C12.8876 9.54994 11.1749 9.24392 9.6239 9.70578C8.07207 10.1685 6.91625 11.3296 6.59203 12.7523Z" stroke="#191C1E" stroke-width="1.5" stroke-linejoin="round"/>
</svg>
