<svg width="24" height="25" viewBox="0 0 24 25" fill="none" xmlns="http://www.w3.org/2000/svg">
<circle cx="12" cy="12.7443" r="5" stroke="#191C1E" stroke-width="1.5"/>
<path d="M13.7856 20.6477L12 21.9943L10.2144 20.6477C9.43429 20.0594 8.52231 19.6705 7.55772 19.5148L5.55303 19.1913L5.22948 17.1866C5.0738 16.222 4.68491 15.31 4.0966 14.5299L2.75 12.7443L4.0966 10.9587C4.68491 10.1786 5.0738 9.26663 5.22948 8.30204L5.55303 6.29735L7.55772 5.97381C8.52231 5.81812 9.43429 5.42923 10.2144 4.84092L12 3.49432L13.7856 4.84092C14.5657 5.42923 15.4777 5.81812 16.4423 5.97381L18.447 6.29735L18.7705 8.30204C18.9262 9.26663 19.3151 10.1786 19.9034 10.9587L21.25 12.7443L19.9034 14.5299C19.3151 15.31 18.9262 16.222 18.7705 17.1866L18.447 19.1913L16.4423 19.5148C15.4777 19.6705 14.5657 20.0594 13.7856 20.6477Z" stroke="#191C1E" stroke-width="1.5" stroke-linejoin="round"/>
</svg>
