<svg width="24" height="25" viewBox="0 0 24 25" fill="none" xmlns="http://www.w3.org/2000/svg">
<path d="M7.59203 7.7523C5.47012 7.7523 3.75 9.37285 3.75 11.3713C3.75 13.2836 5.32376 14.8617 7.31757 14.9943H17.3914C18.9704 14.9943 20.25 13.7347 20.25 12.1787C20.25 10.6236 18.9704 9.36397 17.3922 9.36397H16.5754C16.8988 7.94124 16.3428 6.4741 15.1152 5.51323C13.8876 4.54994 12.1749 4.24392 10.6239 4.70578C9.07207 5.16845 7.91625 6.32957 7.59203 7.7523Z" stroke="#191C1E" stroke-width="1.5" stroke-linejoin="round"/>
<path d="M12.5 17.8782L10.5 21.3423M17 17.8782L15 21.3423M8 17.8782L6 21.3423" stroke="#191C1E" stroke-width="1.5" stroke-linejoin="round"/>
</svg>
