<svg width="24" height="25" viewBox="0 0 24 25" fill="none" xmlns="http://www.w3.org/2000/svg">
<path d="M9.22855 13.0512L10.7875 11.4922L10.3272 8.6152C10.3268 8.61331 10.3258 8.61161 10.3243 8.61041C10.3228 8.6092 10.3209 8.60856 10.319 8.6086H7.89562C7.89343 8.6086 7.89134 8.60947 7.88979 8.61102C7.88824 8.61256 7.88737 8.61466 7.88737 8.61685C7.79499 11.0526 9.17989 13.9362 11.689 15.5702M11.689 15.5702C12.918 16.3703 14.4176 16.8718 16.1448 16.8734C16.1459 16.8734 16.147 16.8732 16.148 16.8728C16.149 16.8724 16.1499 16.8718 16.1506 16.871C16.1514 16.8703 16.152 16.8694 16.1524 16.8684C16.1528 16.8674 16.153 16.8663 16.153 16.8652V14.4864C16.1531 14.4844 16.1524 14.4826 16.1512 14.4811C16.15 14.4795 16.1483 14.4785 16.1464 14.4781L13.2265 13.9824L11.689 15.5702ZM12 20.9943C16.5564 20.9943 20.25 17.3007 20.25 12.7443C20.25 8.18793 16.5564 4.49432 12 4.49432C7.44361 4.49432 3.75 8.18793 3.75 12.7443C3.75 14.3024 4.10798 15.6296 4.85858 16.8726L3.7533 20.9803L3.75335 20.9847L3.75568 20.9885L3.75961 20.9905L3.76402 20.9902L7.85108 19.8923C9.09905 20.6512 10.4328 20.9943 12 20.9943Z" stroke="#191C1E" stroke-width="1.5" stroke-linejoin="round"/>
</svg>
