<svg width="24" height="25" viewBox="0 0 24 25" fill="none" xmlns="http://www.w3.org/2000/svg">
<path d="M4 21.9944H12M20 21.9944H12M12 21.9944V12.7444" stroke="#191C1E" stroke-width="1.5" stroke-linejoin="round"/>
<path d="M10.1088 5.2885C9.9232 4.36031 10.6331 3.49432 11.5797 3.49432H12.4203C13.3669 3.49432 14.0768 4.36031 13.8912 5.2885L13 9.74432H11L10.1088 5.2885Z" stroke="#191C1E" stroke-width="1.5" stroke-linejoin="round"/>
<path d="M16.1256 16.0365C16.8366 16.6613 17.9416 16.4795 18.4149 15.6598L18.8351 14.9318C19.3084 14.112 18.9134 13.0642 18.0168 12.7609L13.7123 11.3047L12.7123 13.0368L16.1256 16.0365Z" stroke="#191C1E" stroke-width="1.5" stroke-linejoin="round"/>
<path d="M7.87438 16.0365C7.16337 16.6613 6.05843 16.4795 5.58515 15.6598L5.16485 14.9318C4.69157 14.112 5.08657 13.0642 5.98322 12.7609L10.2877 11.3047L11.2877 13.0368L7.87438 16.0365Z" stroke="#191C1E" stroke-width="1.5" stroke-linejoin="round"/>
<path d="M5.25 10.7443C5.25 8.64144 6.3469 6.79462 8 5.74432" stroke="#191C1E" stroke-width="1.5" stroke-linejoin="round"/>
<path d="M18.75 10.7443C18.75 8.64144 17.6531 6.79462 16 5.74432" stroke="#191C1E" stroke-width="1.5" stroke-linejoin="round"/>
<circle cx="12" cy="11.2443" r="1.5" stroke="#191C1E" stroke-width="1.5" stroke-linejoin="round"/>
</svg>
