<svg width="24" height="24" viewBox="0 0 24 24" fill="none" xmlns="http://www.w3.org/2000/svg">
<path d="M13.2906 14.75V10H14.027C15.22 10 16.25 11.0276 16.25 12.375C16.25 13.7224 15.22 14.75 14.027 14.75H13.2906Z" fill="#191C1E"/>
<path fill-rule="evenodd" clip-rule="evenodd" d="M2.75 4C2.33579 4 2 4.33579 2 4.75V19.25C2 19.6642 2.33579 20 2.75 20H21.25C21.6642 20 22 19.6642 22 19.25V4.75C22 4.33579 21.6642 4 21.25 4H2.75ZM8.76482 10.0045C8.90689 9.9896 9.05136 10.0119 9.1865 10.0714C9.32196 10.131 9.44647 10.2274 9.54617 10.3565C9.64603 10.4858 9.71698 10.6429 9.74914 10.8147C9.78132 10.9866 9.77299 11.1644 9.72537 11.3311C9.67778 11.4978 9.59341 11.6452 9.48364 11.7618L6.45347 14.9864C6.24864 15.2044 6.19291 15.5232 6.31165 15.7977C6.43039 16.0723 6.70091 16.25 7.00002 16.25H11V14.75H8.73399L10.5761 12.7898C10.8542 12.4942 11.0561 12.134 11.1677 11.7429C11.2794 11.3518 11.2984 10.9386 11.2235 10.5387C11.1487 10.1388 10.9815 9.76094 10.7333 9.43959C10.4849 9.11803 10.1622 8.86195 9.79076 8.69847C9.41901 8.53486 9.01264 8.47034 8.6087 8.51261C8.20487 8.55487 7.82049 8.70206 7.48932 8.93718C7.15846 9.17209 6.8918 9.48673 6.70911 9.84991C6.52649 10.2129 6.43214 10.6155 6.43214 11.0225H7.93214C7.93214 10.8465 7.9731 10.6751 8.04912 10.524C8.12505 10.373 8.23237 10.2492 8.35769 10.1603C8.48271 10.0715 8.62265 10.0193 8.76482 10.0045ZM12.5406 8.5C12.1263 8.5 11.7906 8.83579 11.7906 9.25V15.5C11.7906 15.9142 12.1263 16.25 12.5406 16.25H14.027C16.118 16.25 17.75 14.4794 17.75 12.375C17.75 10.2706 16.118 8.5 14.027 8.5H12.5406Z" fill="#191C1E"/>
</svg>
