<svg width="24" height="24" viewBox="0 0 24 24" fill="none" xmlns="http://www.w3.org/2000/svg">
<path d="M12 2C6.47715 2 2 6.47715 2 12C2 17.5228 6.47715 22 12 22C12.0267 22 12.0534 21.9999 12.0801 21.9997C10.3871 21.976 9.05296 20.6145 8.18381 18.8761C7.8876 18.2837 7.63095 17.6225 7.41995 16.9076C6.576 16.6742 5.80054 16.3771 5.11666 16.0259C3.35579 15.1217 2 13.7383 2 12C2 10.2617 3.35579 8.8783 5.11666 7.97407C5.80054 7.62288 6.576 7.32579 7.41995 7.09238C7.63095 6.37746 7.8876 5.71628 8.18381 5.12385C9.05296 3.38555 10.3871 2.02401 12.0801 2.00031C12.0534 2.0001 12.0267 2 12 2Z" fill="#191C1E"/>
<path d="M12.2841 21.996C17.6756 21.8456 22 17.4278 22 12C22 6.57218 17.6756 2.15438 12.2841 2.00396C13.9229 2.08574 15.2167 3.42483 16.0662 5.12385C16.3732 5.73788 16.6377 6.42577 16.8529 7.17078C17.5916 7.39106 18.2738 7.66108 18.8833 7.97407C20.6442 8.8783 22 10.2617 22 12C22 13.7383 20.6442 15.1217 18.8833 16.0259C18.2738 16.3389 17.5916 16.6089 16.8529 16.8292C16.6377 17.5742 16.3732 18.2621 16.0662 18.8761C15.2167 20.5752 13.9229 21.9143 12.2841 21.996Z" fill="#191C1E"/>
<path d="M9.12282 6.72427C9.24657 6.39372 9.38126 6.08305 9.52545 5.79467C10.3225 4.20048 11.285 3.5 12.125 3.5C12.965 3.5 13.9275 4.20048 14.7245 5.79467C14.8753 6.09608 15.0156 6.42184 15.1439 6.76921C14.1522 6.59385 13.0943 6.5 12 6.5C11.0032 6.5 10.0367 6.57787 9.12282 6.72427Z" fill="#191C1E"/>
<path d="M5.80187 14.6916C6.17397 14.8827 6.58322 15.0575 7.02445 15.2129C6.84578 14.2014 6.75 13.1198 6.75 12C6.75 10.8802 6.84578 9.79862 7.02445 8.78715C6.58322 8.9425 6.17397 9.11734 5.80187 9.30842C4.2149 10.1233 3.5 11.1149 3.5 12C3.5 12.8851 4.2149 13.8767 5.80187 14.6916Z" fill="#191C1E"/>
<path d="M8.64485 15.6623C8.39318 14.5568 8.25 13.317 8.25 12C8.25 10.683 8.39318 9.44319 8.64485 8.33775C9.67078 8.12151 10.8034 8 12 8C13.2998 8 14.5242 8.14337 15.6182 8.39581C15.8618 9.48653 16 10.706 16 12C16 13.294 15.8618 14.5135 15.6182 15.6042C14.5242 15.8566 13.2998 16 12 16C10.8034 16 9.67078 15.8785 8.64485 15.6623Z" fill="#191C1E"/>
<path d="M9.52545 18.2053C9.38126 17.917 9.24657 17.6063 9.12282 17.2757C10.0367 17.4221 11.0032 17.5 12 17.5C13.0943 17.5 14.1522 17.4062 15.1439 17.2308C15.0156 17.5782 14.8753 17.9039 14.7245 18.2053C13.9275 19.7995 12.965 20.5 12.125 20.5C11.285 20.5 10.3225 19.7995 9.52545 18.2053Z" fill="#191C1E"/>
<path d="M17.2425 15.115C17.5828 14.9852 17.9022 14.8435 18.1981 14.6916C19.7851 13.8767 20.5 12.8851 20.5 12C20.5 11.1149 19.7851 10.1233 18.1981 9.30842C17.9022 9.15647 17.5828 9.01479 17.2425 8.88501C17.4103 9.86827 17.5 10.9162 17.5 12C17.5 13.0838 17.4103 14.1317 17.2425 15.115Z" fill="#191C1E"/>
</svg>
