<svg width="24" height="24" viewBox="0 0 24 24" fill="none" xmlns="http://www.w3.org/2000/svg">
<path d="M3.75 12C3.75 11.3546 4.31861 10.485 5.89673 9.71725C7.40696 8.98255 9.56353 8.5 12 8.5C14.4365 8.5 16.593 8.98255 18.1033 9.71725C19.6814 10.485 20.25 11.3546 20.25 12H22.25C22.25 10.1601 20.7479 8.77973 18.9782 7.91878C17.1406 7.02481 14.6722 6.5 12 6.5C9.32783 6.5 6.85941 7.02481 5.0218 7.91878C3.25208 8.77973 1.75 10.1601 1.75 12C1.75 13.8399 3.25208 15.2203 5.0218 16.0812C6.54116 16.8204 8.49176 17.3071 10.6322 17.4536L9.04291 19.0429L10.4571 20.4571L13.7071 17.2071C14.0976 16.8166 14.0976 16.1834 13.7071 15.7929L10.4571 12.5429L9.04291 13.9571L10.5258 15.44C8.69817 15.2894 7.09425 14.8653 5.89673 14.2827C4.31861 13.515 3.75 12.6454 3.75 12Z" fill="#191C1E"/>
<path d="M19.589 13.2854C19.1062 13.758 18.3655 14.2151 17.3894 14.5924L18.1106 16.4579C19.254 16.0159 20.2549 15.4323 20.988 14.7146L19.589 13.2854Z" fill="#191C1E"/>
</svg>
