<svg width="24" height="24" viewBox="0 0 24 24" fill="none" xmlns="http://www.w3.org/2000/svg">
<path d="M13.3013 14.75V10.133H14.0378C15.2456 10.133 16.2607 11.1463 16.2607 12.4415C16.2607 13.7366 15.2456 14.75 14.0378 14.75H13.3013Z" fill="#191C1E"/>
<path fill-rule="evenodd" clip-rule="evenodd" d="M12.1357 2.10048C11.9037 1.96651 11.6178 1.96651 11.3857 2.10048L3.375 6.72548C3.14295 6.85946 3 7.10705 3 7.375V16.625C3 16.8929 3.14295 17.1405 3.375 17.2745L11.3857 21.8995C11.6178 22.0335 11.9037 22.0335 12.1357 21.8995L20.1465 17.2745C20.3785 17.1405 20.5215 16.8929 20.5215 16.625V7.375C20.5215 7.10705 20.3785 6.85946 20.1465 6.72548L12.1357 2.10048ZM8.28955 10.0055C8.47851 9.98715 8.66887 10.015 8.84354 10.0862C9.01816 10.1574 9.17096 10.2693 9.28911 10.411C9.4072 10.5526 9.48718 10.7197 9.52304 10.8971C9.53739 10.9681 9.54453 11.0399 9.54453 11.1117C9.54453 11.1531 9.54076 11.1943 9.53327 11.2348C9.51445 11.3367 9.4733 11.4276 9.41767 11.5006C9.36224 11.5732 9.29536 11.6245 9.22643 11.6553C9.17137 11.6798 9.11464 11.6915 9.059 11.6915H8.13236V13.1915H9.05901C9.12586 13.1915 9.1917 13.2042 9.25253 13.2287C9.32854 13.2592 9.3931 13.3063 9.44184 13.3639C9.49046 13.4213 9.52208 13.4873 9.53612 13.5557C9.54174 13.5831 9.54453 13.6107 9.54453 13.6383C9.54453 13.7101 9.53739 13.7819 9.52304 13.8529C9.48718 14.0303 9.4072 14.1974 9.28911 14.339C9.17096 14.4807 9.01815 14.5926 8.84354 14.6638C8.66887 14.735 8.4785 14.7628 8.28955 14.7445C8.1006 14.7262 7.91997 14.6624 7.7636 14.5596C7.6073 14.4568 7.48043 14.3185 7.39319 14.1579C7.30598 13.9974 7.26074 13.8189 7.26074 13.6383H5.76074C5.76074 14.07 5.86896 14.4944 6.07508 14.8739C6.28117 15.2533 6.57843 15.5755 6.93951 15.8129C7.30052 16.0503 7.71454 16.1958 8.14485 16.2375C8.57514 16.2792 9.0095 16.2159 9.40972 16.0528C9.80999 15.8897 10.1645 15.6314 10.4411 15.2997C10.7177 14.968 10.9078 14.5732 10.9933 14.1501C11.0275 13.981 11.0445 13.8096 11.0445 13.6383C11.0445 13.5096 11.0315 13.3809 11.0055 13.254C10.9422 12.9459 10.8042 12.6591 10.6052 12.4169L10.6105 12.4101C10.8126 12.1449 10.9478 11.8345 11.0083 11.5074C11.0325 11.3765 11.0445 11.2439 11.0445 11.1117C11.0445 10.9404 11.0275 10.769 10.9933 10.5999C10.9078 10.1768 10.7177 9.78202 10.4411 9.45029C10.1645 9.11863 9.80998 8.86034 9.40972 8.69719C9.0095 8.53406 8.57514 8.47076 8.14485 8.51246C7.71454 8.55417 7.30052 8.69971 6.93951 8.93708C6.57843 9.17449 6.28117 9.49672 6.07508 9.87612C5.86896 10.2556 5.76074 10.68 5.76074 11.1117H7.26074C7.26074 10.9311 7.30598 10.7526 7.39319 10.5921C7.48043 10.4315 7.6073 10.2932 7.7636 10.1904C7.91997 10.0876 8.1006 10.0238 8.28955 10.0055ZM12.5513 8.63298C12.1371 8.63298 11.8013 8.96877 11.8013 9.38298V15.5C11.8013 15.9142 12.1371 16.25 12.5513 16.25H14.0378C16.1138 16.25 17.7607 14.5247 17.7607 12.4415C17.7607 10.3583 16.1138 8.63298 14.0378 8.63298H12.5513Z" fill="#191C1E"/>
</svg>
