<svg width="24" height="24" viewBox="0 0 24 24" fill="none" xmlns="http://www.w3.org/2000/svg">
<path d="M12.3663 3.09627C12.1381 2.96799 11.8596 2.96791 11.6314 3.09606L7.63278 5.34153L8.36724 6.64942L11.25 5.03057V6.82727L7.14638 9.31106L12 12.2097L16.8537 9.31104L12.75 6.82727V5.03294L15.6324 6.65373L16.3676 5.34627L12.3663 3.09627Z" fill="#191C1E"/>
<path d="M5.21294 17.8785L7.20832 16.7264L11.25 19.1727V13.5092L6.8658 10.8941L6.86732 10.8915L6.50003 10.6722V15.4033L4.5 16.558V13.25H3V17.8847C3 18.1499 3.14001 18.3953 3.36826 18.5303L7.36826 20.8956L8.13174 19.6044L5.21294 17.8785Z" fill="#191C1E"/>
<path d="M12.75 19.1727L16.7917 16.7264L18.7871 17.8785L15.8683 19.6044L16.6318 20.8956L20.6318 18.5303C20.86 18.3953 21.0001 18.1499 21.0001 17.8847V13.25H19.5001V16.558L17.5 15.4033V10.6722L17.1327 10.8915L17.1342 10.8941L12.75 13.5092V19.1727Z" fill="#191C1E"/>
</svg>
