<svg width="24" height="24" viewBox="0 0 24 24" fill="none" xmlns="http://www.w3.org/2000/svg">
<path fill-rule="evenodd" clip-rule="evenodd" d="M8.25 2.75C8.25 2.33579 8.58579 2 9 2H15C15.4142 2 15.75 2.33579 15.75 2.75V6.25C15.75 6.66421 15.4142 7 15 7H14.5V9.91667C14.5 10.1095 14.4257 10.295 14.2925 10.4345L12.5425 12.2679C12.4892 12.3238 12.428 12.3705 12.3616 12.4071L8.97225 14.3011L12 16.0505L15.0277 14.3011L13.7591 13.5922L14.4909 12.2828L16.6159 13.4703C16.8531 13.6028 17 13.8533 17 14.125V18.875C17 19.1467 16.8531 19.3971 16.6159 19.5297L12.3659 21.9047C12.1385 22.0317 11.8615 22.0317 11.6341 21.9047L7.38413 19.5297C7.14695 19.3971 7 19.1467 7 18.875V14.125C7 13.8533 7.14695 13.6028 7.38413 13.4703L10.789 11.5676L9.70748 10.4345C9.57431 10.295 9.5 10.1095 9.5 9.91667V7H9C8.58579 7 8.25 6.66421 8.25 6.25V2.75ZM12 10.6638L13 9.61617V7H11V9.61617L12 10.6638ZM11.25 19.9717L8.5 18.4349V15.7606L11.25 17.3495V19.9717Z" fill="#191C1E"/>
</svg>
