<svg width="24" height="25" viewBox="0 0 24 25" fill="none" xmlns="http://www.w3.org/2000/svg">
<path d="M4 12.125C4 7.70672 7.58172 4.125 12 4.125C16.4183 4.125 20 7.70672 20 12.125H22C22 6.60215 17.5228 2.125 12 2.125C6.47715 2.125 2 6.60215 2 12.125C2 17.6478 6.47715 22.125 12 22.125V20.125C7.58172 20.125 4 16.5433 4 12.125Z" fill="#191C1E"/>
<path d="M12 13.125C11.4477 13.125 11 12.6773 11 12.125V6.125H13V11.125H15.75V13.125H12Z" fill="#191C1E"/>
<path d="M17 22.125V19.125H14V17.125H17V14.125H19V17.125H22V19.125H19V22.125H17Z" fill="#191C1E"/>
</svg>
