<svg width="24" height="24" viewBox="0 0 24 24" fill="none" xmlns="http://www.w3.org/2000/svg">
<path fill-rule="evenodd" clip-rule="evenodd" d="M2 6.75C2 5.23122 3.23122 4 4.75 4H19.25C20.7688 4 22 5.23122 22 6.75V10.25H2V6.75ZM9 8.75H15V7.25H9V8.75Z" fill="#191C1E"/>
<path d="M19.25 14.75C20.7688 14.75 22 13.5188 22 12V11.75H2V12C2 13.5188 3.23122 14.75 4.75 14.75H19.25Z" fill="#191C1E"/>
<path d="M3 20C5.07107 20 6.75 18.3211 6.75 16.25H5.25C5.25 17.4926 4.24264 18.5 3 18.5V20Z" fill="#191C1E"/>
<path d="M8.25 20C9.49264 20 10.5 18.9926 10.5 17.75V16.25H9V17.75C9 18.1642 8.66421 18.5 8.25 18.5V20Z" fill="#191C1E"/>
<path d="M15 18.5C14.5858 18.5 14.25 18.1642 14.25 17.75V16.25H12.75V17.75C12.75 18.9926 13.7574 20 15 20V18.5Z" fill="#191C1E"/>
<path d="M20.25 18.5C19.0074 18.5 18 17.4926 18 16.25H16.5C16.5 18.3211 18.1789 20 20.25 20V18.5Z" fill="#191C1E"/>
</svg>
