<svg width="24" height="24" viewBox="0 0 24 24" fill="none" xmlns="http://www.w3.org/2000/svg">
<path d="M5.6 5C5.43961 5 5.28657 5.0635 5.17435 5.17529C5.06226 5.28694 5 5.43754 5 5.59375V15.1562C5 15.3125 5.06226 15.4631 5.17435 15.5747C5.28657 15.6865 5.43961 15.75 5.6 15.75H6V17.75H5.6C4.9117 17.75 4.2508 17.4777 3.76291 16.9917C3.27488 16.5056 3 15.8454 3 15.1562V5.59375C3 4.90458 3.27488 4.24443 3.76291 3.75831C4.2508 3.27232 4.9117 3 5.6 3H18.4C19.0883 3 19.7492 3.27232 20.2371 3.75831C20.7251 4.24443 21 4.90458 21 5.59375V15.1562C21 15.8454 20.7251 16.5056 20.2371 16.9917C19.7492 17.4777 19.0883 17.75 18.4 17.75H18V15.75H18.4C18.5604 15.75 18.7134 15.6865 18.8256 15.5747C18.9377 15.4631 19 15.3125 19 15.1562V5.59375C19 5.43754 18.9377 5.28694 18.8256 5.17529C18.7134 5.0635 18.5604 5 18.4 5H5.6Z" fill="#191C1E"/>
<path d="M12 12.5C11.6741 12.5 11.3528 12.5803 11.0653 12.7343C10.7778 12.8882 10.5328 13.1112 10.3532 13.3839L7.32213 17.9833C6.45735 19.2956 7.42538 21 8.969 21H15.0311C16.5747 21 17.5427 19.2956 16.6779 17.9833L13.6469 13.3839C13.4673 13.1112 13.2222 12.8882 12.9348 12.7343C12.6473 12.5803 12.326 12.5 12 12.5Z" fill="#191C1E"/>
</svg>
