<svg width="24" height="24" viewBox="0 0 24 24" fill="none" xmlns="http://www.w3.org/2000/svg">
<path fill-rule="evenodd" clip-rule="evenodd" d="M5.75 3C4.23122 3 3 4.23122 3 5.75V13.75C3 15.2688 4.23122 16.5 5.75 16.5H14.9216C15.2531 16.5 15.571 16.6317 15.8055 16.8661L19.7197 20.7803C19.9342 20.9948 20.2568 21.059 20.537 20.9429C20.8173 20.8268 21 20.5533 21 20.25V5.75C21 4.23122 19.7688 3 18.25 3H5.75ZM11.25 6V10.75H12.75V6H11.25ZM12 12C11.5858 12 11.25 12.3358 11.25 12.75C11.25 13.1642 11.5858 13.5 12 13.5H12.0025C12.4167 13.5 12.7525 13.1642 12.7525 12.75C12.7525 12.3358 12.4167 12 12.0025 12H12Z" fill="#191C1E"/>
</svg>
