<svg width="24" height="24" viewBox="0 0 24 24" fill="none" xmlns="http://www.w3.org/2000/svg">
<path d="M2.9837 20.9991L3.00001 2.99908L5 3.0009L4.9837 21.0009L2.9837 20.9991Z" fill="#191C1E"/>
<path d="M8.50001 4.75C7.94772 4.75 7.50001 5.19772 7.50001 5.75V10C7.50001 10.5523 7.94772 11 8.50001 11H14.75C15.3023 11 15.75 10.5523 15.75 10V5.75C15.75 5.19772 15.3023 4.75 14.75 4.75H8.50001Z" fill="#191C1E"/>
<path d="M8.50001 13C7.94772 13 7.50001 13.4477 7.50001 14V18.25C7.50001 18.8023 7.94772 19.25 8.50001 19.25H20C20.5523 19.25 21 18.8023 21 18.25V14C21 13.4477 20.5523 13 20 13H8.50001Z" fill="#191C1E"/>
</svg>
