<svg width="24" height="24" viewBox="0 0 24 24" fill="none" xmlns="http://www.w3.org/2000/svg">
<path d="M18.9837 3.0009L19 21.0009L21 20.9991L20.9837 2.99908L18.9837 3.0009Z" fill="#191C1E"/>
<path d="M9.2337 4.74999C8.68142 4.74999 8.2337 5.19771 8.2337 5.74999V9.99999C8.2337 10.5523 8.68142 11 9.2337 11H15.4837C16.036 11 16.4837 10.5523 16.4837 9.99999V5.74999C16.4837 5.19771 16.036 4.74999 15.4837 4.74999H9.2337Z" fill="#191C1E"/>
<path d="M3.9837 13C3.43142 13 2.9837 13.4477 2.9837 14V18.25C2.9837 18.8023 3.43142 19.25 3.9837 19.25H15.4837C16.036 19.25 16.4837 18.8023 16.4837 18.25V14C16.4837 13.4477 16.036 13 15.4837 13H3.9837Z" fill="#191C1E"/>
</svg>
