<svg width="24" height="24" viewBox="0 0 24 24" fill="none" xmlns="http://www.w3.org/2000/svg">
<path d="M5.03477 16.199C5.2223 16.3865 5.47666 16.4919 5.74187 16.4919H9.99187C10.5442 16.4919 10.9919 16.0441 10.9919 15.4919L10.9919 3.99185C10.9919 3.43957 10.5442 2.99185 9.99187 2.99185H5.74187C5.47666 2.99185 5.2223 3.09721 5.03477 3.28474C4.84723 3.47228 4.74187 3.72663 4.74187 3.99185L4.74187 15.4919C4.74187 15.7571 4.84723 16.0114 5.03477 16.199Z" fill="#191C1E"/>
<path d="M20.9928 19.0081L2.99278 18.9918L2.99097 20.9918L20.991 21.0081L20.9928 19.0081Z" fill="#191C1E"/>
<path d="M13.9919 16.4919C13.4396 16.4919 12.9919 16.0441 12.9919 15.4919V9.24185C12.9919 8.68957 13.4396 8.24185 13.9919 8.24185H18.2419C18.7942 8.24185 19.2419 8.68957 19.2419 9.24185V15.4919C19.2419 16.0441 18.7942 16.4919 18.2419 16.4919H13.9919Z" fill="#191C1E"/>
</svg>
