<svg width="24" height="24" viewBox="0 0 24 24" fill="none" xmlns="http://www.w3.org/2000/svg">
<path d="M20.9928 4.99185L2.99278 5.00815L2.99097 3.00815L20.991 2.99185L20.9928 4.99185Z" fill="#191C1E"/>
<path d="M5.03477 7.80104C5.2223 7.6135 5.47666 7.50815 5.74187 7.50815L9.99187 7.50815C10.5442 7.50815 10.9919 7.95586 10.9919 8.50815L10.9919 20.0081C10.9919 20.5604 10.5442 21.0081 9.99187 21.0081H5.74187C5.47666 21.0081 5.2223 20.9028 5.03477 20.7153C4.84723 20.5277 4.74187 20.2734 4.74187 20.0081L4.74187 8.50815C4.74187 8.24293 4.84723 7.98858 5.03477 7.80104Z" fill="#191C1E"/>
<path d="M13.9919 7.50815C13.4396 7.50815 12.9919 7.95586 12.9919 8.50815V14.7581C12.9919 15.3104 13.4396 15.7581 13.9919 15.7581H18.2419C18.7942 15.7581 19.2419 15.3104 19.2419 14.7581V8.50815C19.2419 7.95586 18.7942 7.50815 18.2419 7.50815H13.9919Z" fill="#191C1E"/>
</svg>
