<svg width="24" height="24" viewBox="0 0 24 24" fill="none" xmlns="http://www.w3.org/2000/svg">
<path d="M14.8438 2.7998C13.7661 2.7998 12.8569 3.34059 12.2363 4.08529C11.619 4.8261 11.25 5.80754 11.25 6.7998C11.25 7.21402 11.5858 7.5498 12 7.5498C13.0777 7.5498 13.9868 7.00902 14.6074 6.26432C15.2248 5.52351 15.5938 4.54207 15.5938 3.5498C15.5938 3.13559 15.258 2.7998 14.8438 2.7998Z" fill="#191C1E"/>
<path fill-rule="evenodd" clip-rule="evenodd" d="M9.47556 7.26855C8.53943 7.26855 7.36711 7.63588 6.42119 8.47234C5.45215 9.32924 4.75 10.6529 4.75 12.4873C4.75 14.5307 5.42722 16.5876 6.31357 18.1366C6.75764 18.9126 7.27025 19.5896 7.80605 20.0832C8.3191 20.5557 8.95865 20.9561 9.64781 20.9561C10.3484 20.9561 10.9609 20.6891 11.4025 20.4966L11.4501 20.4758C11.9134 20.2736 12.1752 20.1728 12.4062 20.1728C12.6373 20.1728 12.8982 20.2736 13.3632 20.4762L13.4086 20.4959C13.8506 20.6886 14.4642 20.9561 15.1655 20.9561C15.6602 20.9561 16.1092 20.7491 16.4847 20.4768C16.8637 20.202 17.2173 19.8259 17.5392 19.3966C18.1835 18.5371 18.7666 17.3763 19.2084 16.1055C19.3384 15.7315 19.1554 15.3209 18.7903 15.1676C17.7685 14.7387 17.0871 13.7207 17.0871 12.4873C17.0871 11.5029 17.5791 10.8356 18.4841 10.284C18.6585 10.1777 18.782 10.0049 18.826 9.80553C18.8701 9.60616 18.8311 9.39743 18.7178 9.22753C17.7472 7.77165 16.2876 7.26855 15.2053 7.26855C14.2059 7.26855 13.5763 7.52738 13.0943 7.726C12.9685 7.77736 12.877 7.81742 12.806 7.84853C12.6155 7.93198 12.572 7.95105 12.4062 7.95105C12.1551 7.95105 11.9608 7.8787 11.5866 7.72599C11.1046 7.52737 10.475 7.26855 9.47556 7.26855Z" fill="#191C1E"/>
</svg>
