<svg width="24" height="24" viewBox="0 0 24 24" fill="none" xmlns="http://www.w3.org/2000/svg">
<path d="M11.9998 10.5397L12.7026 12.0625H11.297L11.9998 10.5397Z" fill="#191C1E"/>
<path fill-rule="evenodd" clip-rule="evenodd" d="M3.75 3C3.33579 3 3 3.33579 3 3.75V20.25C3 20.6642 3.33579 21 3.75 21H20.25C20.6642 21 21 20.6642 21 20.25V3.75C21 3.33579 20.6642 3 20.25 3H3.75ZM12.6808 8.43571C12.5582 8.17009 12.2924 8 11.9998 8C11.7073 8 11.4414 8.17009 11.3188 8.43571L8.31885 14.9357L9.68079 15.5643L10.6047 13.5625H13.3949L14.3188 15.5643L15.6808 14.9357L12.6808 8.43571Z" fill="#191C1E"/>
</svg>
