<svg width="24" height="24" viewBox="0 0 24 24" fill="none" xmlns="http://www.w3.org/2000/svg">
<path d="M11.9998 10.5397L12.7026 12.0625H11.297L11.9998 10.5397Z" fill="#191C1E"/>
<path fill-rule="evenodd" clip-rule="evenodd" d="M12 2C6.47715 2 2 6.47715 2 12C2 17.5228 6.47715 22 12 22C17.5228 22 22 17.5228 22 12C22 6.47715 17.5228 2 12 2ZM12.6808 8.43571C12.5582 8.17009 12.2924 8 11.9998 8C11.7073 8 11.4414 8.17009 11.3188 8.43571L8.31885 14.9357L9.68079 15.5643L10.6047 13.5625H13.3949L14.3188 15.5643L15.6808 14.9357L12.6808 8.43571Z" fill="#191C1E"/>
</svg>
