<svg width="24" height="24" viewBox="0 0 24 24" fill="none" xmlns="http://www.w3.org/2000/svg">
<path d="M11.9998 10.5397L12.7026 12.0625H11.297L11.9998 10.5397Z" fill="#191C1E"/>
<path fill-rule="evenodd" clip-rule="evenodd" d="M12.4408 2.14324C12.1779 1.95225 11.822 1.95225 11.5591 2.14324L2.76185 8.53483C2.49898 8.72581 2.38899 9.06434 2.4894 9.37336L5.84965 19.7152C5.95006 20.0242 6.23803 20.2334 6.56295 20.2334H17.437C17.7619 20.2334 18.0499 20.0242 18.1503 19.7152L21.5105 9.37336C21.6109 9.06434 21.5009 8.72581 21.2381 8.53483L12.4408 2.14324ZM12.6808 8.43571C12.5582 8.17009 12.2924 8 11.9998 8C11.7073 8 11.4414 8.17009 11.3188 8.43571L8.31885 14.9357L9.68079 15.5643L10.6047 13.5625H13.3949L14.3188 15.5643L15.6808 14.9357L12.6808 8.43571Z" fill="#191C1E"/>
</svg>
