<svg width="24" height="24" viewBox="0 0 24 24" fill="none" xmlns="http://www.w3.org/2000/svg">
<path d="M14.4826 7.15554L13.4916 5.93173C16.2232 6.60058 18.25 9.06491 18.25 12.0026C18.25 14.4456 16.8485 16.5631 14.8011 17.5915L15.6989 19.3787C18.3958 18.024 20.25 15.2307 20.25 12.0026C20.25 8.07309 17.5027 4.78521 13.8241 3.95496L14.9116 3.07431L13.653 1.52L10.6207 3.97547C10.4145 4.14238 10.2832 4.38433 10.2555 4.6481C10.2277 4.91186 10.3059 5.17584 10.4728 5.38195L12.9284 8.4142L14.4826 7.15554Z" fill="#191C1E"/>
<path d="M8.34103 4.60661C5.62248 5.9538 3.75 8.75862 3.75 12.0026C3.75 15.9322 6.49729 19.22 10.1759 20.0503L9.08838 20.9309L10.347 22.4852L13.3793 20.0298C13.5854 19.8629 13.7168 19.6209 13.7445 19.3572C13.7722 19.0934 13.694 18.8294 13.5271 18.6233L11.0716 15.591L9.51733 16.8497L10.5084 18.0735C7.77682 17.4047 5.75 14.9403 5.75 12.0026C5.75 9.54762 7.16532 7.42135 9.22908 6.39864L8.34103 4.60661Z" fill="#191C1E"/>
</svg>
