<svg width="24" height="24" viewBox="0 0 24 24" fill="none" xmlns="http://www.w3.org/2000/svg">
<path fill-rule="evenodd" clip-rule="evenodd" d="M12 6C9.90764 6 8.05416 7.02869 6.91957 8.60856L8.31178 8.10183L8.99582 9.98121L5.33737 11.3128C4.8184 11.5017 4.24456 11.2341 4.05566 10.7151L2.724 7.05662L4.60337 6.37255L5.09753 7.73016C6.57123 5.48387 9.11161 4 12 4C15.8192 4 19.0298 6.59419 19.9708 10.1149L18.0386 10.6313C17.3256 7.96352 14.8909 6 12 6ZM11 13V7.5H13V13H11ZM18.5763 12.6872C19.0953 12.4983 19.6691 12.7659 19.858 13.2849L21.1897 16.9434L19.3103 17.6274L18.8162 16.2698C17.3425 18.5161 14.8021 20 11.9137 20C8.09453 20 4.88386 17.4058 3.94288 13.8851L5.87506 13.3687C6.58808 16.0365 9.02284 18 11.9137 18C14.0061 18 15.8595 16.9713 16.9941 15.3914L15.6019 15.8982L14.9179 14.0188L18.5763 12.6872ZM11 15.5C11 14.9477 11.4477 14.5 12 14.5H12.0025C12.5548 14.5 13.0025 14.9477 13.0025 15.5C13.0025 16.0523 12.5548 16.5 12.0025 16.5H12C11.4477 16.5 11 16.0523 11 15.5Z" fill="#191C1E"/>
</svg>
