<svg width="24" height="24" viewBox="0 0 24 24" fill="none" xmlns="http://www.w3.org/2000/svg">
<path fill-rule="evenodd" clip-rule="evenodd" d="M13.0071 6.825L14.7034 8.50368L13.2966 9.92526L9.7966 6.46165C9.60745 6.27448 9.50072 6.01963 9.5 5.75353C9.49929 5.48744 9.60467 5.23203 9.79281 5.04384L13.2928 1.54298L14.7072 2.95702L12.8714 4.7933C14.8112 4.9865 16.7008 5.82641 18.1872 7.31282C21.6043 10.7299 21.6043 16.2701 18.1872 19.6872C14.7701 23.1043 9.2299 23.1043 5.81282 19.6872C2.39573 16.2701 2.39573 10.7299 5.81282 7.31282L7.22703 8.72703C4.59099 11.3631 4.59099 15.6369 7.22703 18.273C9.86307 20.909 14.1369 20.909 16.773 18.273C19.409 15.6369 19.409 11.3631 16.773 8.72703C15.7116 7.66566 14.3859 7.0317 13.0071 6.825Z" fill="#191C1E"/>
</svg>
