<svg width="24" height="24" viewBox="0 0 24 24" fill="none" xmlns="http://www.w3.org/2000/svg">
<path fill-rule="evenodd" clip-rule="evenodd" d="M10.7071 1.54297L14.2072 5.04383C14.3953 5.23201 14.5007 5.48742 14.5 5.75352C14.4993 6.01963 14.3925 6.27447 14.2034 6.46165L10.7034 9.92525L9.29658 8.50366L10.9929 6.825C9.61406 7.0317 8.28839 7.66566 7.22703 8.72702C4.59099 11.3631 4.59099 15.6369 7.22703 18.273C9.86307 20.909 14.1369 20.909 16.773 18.273C19.409 15.6369 19.409 11.3631 16.773 8.72702L18.1872 7.31281C21.6043 10.7299 21.6043 16.2701 18.1872 19.6872C14.7701 23.1043 9.2299 23.1043 5.81282 19.6872C2.39573 16.2701 2.39573 10.7299 5.81282 7.31281C7.29922 5.8264 9.18879 4.9865 11.1286 4.79329L9.29276 2.95702L10.7071 1.54297Z" fill="#191C1E"/>
</svg>
