<svg width="24" height="24" viewBox="0 0 24 24" fill="none" xmlns="http://www.w3.org/2000/svg">
<path fill-rule="evenodd" clip-rule="evenodd" d="M17.8172 6.5L14.4924 3.21091L15.8989 1.78908L20.9533 6.78908C21.1432 6.97692 21.25 7.23291 21.25 7.5C21.25 7.76709 21.1432 8.02308 20.9533 8.21091L15.8989 13.2109L14.4924 11.7891L17.8172 8.5H10.5V6.5H17.8172ZM3.04673 15.7891L8.10107 10.7891L9.50762 12.2109L6.18279 15.5H13.5V17.5H6.18279L9.50762 20.7891L8.10107 22.2109L3.04673 17.2109C2.85685 17.0231 2.75 16.7671 2.75 16.5C2.75 16.2329 2.85685 15.9769 3.04673 15.7891Z" fill="#191C1E"/>
</svg>
