<svg width="24" height="24" viewBox="0 0 24 24" fill="none" xmlns="http://www.w3.org/2000/svg">
<path d="M21 7C21 7.3125 20.805 7.5925 20.5125 7.7025L19.865 7.9425H19.8625C18.95 8.28 18.7175 8.385 18.55 8.55C18.385 8.715 18.2825 8.95 17.9425 9.8625L17.705 10.51C17.595 10.805 17.315 11 17 11C16.685 11 16.4075 10.805 16.2975 10.5125L16.0575 9.865C15.72 8.95 15.615 8.715 15.45 8.55C15.285 8.385 15.05 8.28 14.1375 7.9425L13.49 7.7025C13.1975 7.595 13 7.315 13 7C13 6.685 13.195 6.4075 13.49 6.2975L14.1375 6.055C15.05 5.72 15.285 5.615 15.45 5.45C15.615 5.2825 15.72 5.05 16.0575 4.1375L16.2975 3.49C16.405 3.195 16.6875 3 17 3C17.3125 3 17.595 3.195 17.7025 3.4875L17.945 4.1375C18.2825 5.05 18.385 5.285 18.5525 5.45C18.7175 5.615 18.95 5.72 19.8625 6.0575L20.51 6.2975C20.805 6.405 21 6.685 21 7Z" fill="#191C1E"/>
<path d="M10 7C10.3138 7 10.5944 7.19536 10.7034 7.48965L11.1641 8.73429C11.7914 10.4308 12.0397 11.0558 12.4919 11.5081C12.9442 11.9603 13.569 12.2085 15.2655 12.8358L16.5104 13.2966C16.8046 13.4056 17 13.6862 17 14C17 14.3138 16.8046 14.5944 16.5104 14.7034L15.2657 15.1641C13.5687 15.7916 12.9435 16.0397 12.4923 16.4915C12.0405 16.944 11.7913 17.5696 11.1642 19.2655L10.7034 20.5104C10.5944 20.8046 10.3138 21 10 21C9.6862 21 9.40557 20.8046 9.29664 20.5104L8.83593 19.2657C8.20838 17.5687 7.96028 16.9435 7.50846 16.4923C7.05597 16.0405 6.43037 15.7913 4.73451 15.1642L3.48965 14.7034C3.19536 14.5944 3 14.3138 3 14C3 13.6862 3.19536 13.4056 3.48965 13.2966L4.73429 12.8359C6.43078 12.2086 7.05581 11.9603 7.50806 11.5081C7.96031 11.0558 8.20848 10.431 8.83584 8.73451L9.29664 7.48965C9.40557 7.19536 9.6862 7 10 7Z" fill="#191C1E"/>
</svg>
