<svg width="24" height="24" viewBox="0 0 24 24" fill="none" xmlns="http://www.w3.org/2000/svg">
<path d="M8.25 6.25C8.25 5.00736 9.25736 4 10.5 4C11.7426 4 12.75 5.00736 12.75 6.25V15.25C12.75 15.6642 12.4142 16 12 16C11.5858 16 11.25 15.6642 11.25 15.25V6H9.25V15.25C9.25 16.7688 10.4812 18 12 18C13.5188 18 14.75 16.7688 14.75 15.25V6.25C14.75 3.90279 12.8472 2 10.5 2C8.15279 2 6.25 3.90279 6.25 6.25V16.25C6.25 19.4256 8.82436 22 12 22C15.1756 22 17.75 19.4256 17.75 16.25V6H15.75V16.25C15.75 18.3211 14.0711 20 12 20C9.92893 20 8.25 18.3211 8.25 16.25V6.25Z" fill="#191C1E"/>
</svg>
