<svg width="24" height="24" viewBox="0 0 24 24" fill="none" xmlns="http://www.w3.org/2000/svg">
<path fill-rule="evenodd" clip-rule="evenodd" d="M2.75 4C2.33579 4 2 4.33579 2 4.75V19.25C2 19.6642 2.33579 20 2.75 20H21.25C21.6642 20 22 19.6642 22 19.25V4.75C22 4.33579 21.6642 4 21.25 4H2.75ZM12.625 16C10.7415 16 9.17184 14.6562 8.82253 12.875H8V11.375H8.82253C9.17184 9.59382 10.7415 8.25 12.625 8.25C13.6939 8.25 14.663 8.6838 15.3632 9.38317L14.3033 10.4445C13.8728 10.0146 13.2805 9.75 12.625 9.75C11.5754 9.75 10.6848 10.4309 10.3709 11.375H12.75V12.875H10.3709C10.6848 13.8191 11.5754 14.5 12.625 14.5C13.2805 14.5 13.8728 14.2354 14.3033 13.8055L15.3632 14.8668C14.663 15.5662 13.6939 16 12.625 16Z" fill="#191C1E"/>
</svg>
