<svg width="24" height="24" viewBox="0 0 24 24" fill="none" xmlns="http://www.w3.org/2000/svg">
<path fill-rule="evenodd" clip-rule="evenodd" d="M3.5 5.75C3.5 5.33579 3.83579 5 4.25 5H10.25C10.6642 5 11 5.33579 11 5.75V6.5H21.25C21.6642 6.5 22 6.83579 22 7.25V10.25C22 10.6642 21.6642 11 21.25 11H11V16H11.75C12.1642 16 12.5 16.3358 12.5 16.75V19C12.5 19.4142 12.1642 19.75 11.75 19.75H2.75C2.33579 19.75 2 19.4142 2 19V16.75C2 16.3358 2.33579 16 2.75 16H3.5V5.75ZM13.8107 9.5L15.3107 8H17.6893L16.1893 9.5H13.8107ZM13.1893 8L11.6893 9.5H11V8H13.1893ZM19.8107 8L18.3107 9.5H20.5V8H19.8107ZM11 18.25V17.5H3.5V18.25H11ZM7.25 8C6.83579 8 6.5 8.33579 6.5 8.75C6.5 9.16421 6.83579 9.5 7.25 9.5H7.2525C7.66671 9.5 8.0025 9.16421 8.0025 8.75C8.0025 8.33579 7.66671 8 7.2525 8H7.25ZM7.25 10.5C6.83579 10.5 6.5 10.8358 6.5 11.25C6.5 11.6642 6.83579 12 7.25 12H7.2525C7.66671 12 8.0025 11.6642 8.0025 11.25C8.0025 10.8358 7.66671 10.5 7.2525 10.5H7.25ZM7.25 13C6.83579 13 6.5 13.3358 6.5 13.75C6.5 14.1642 6.83579 14.5 7.25 14.5H7.2525C7.66671 14.5 8.0025 14.1642 8.0025 13.75C8.0025 13.3358 7.66671 13 7.2525 13H7.25Z" fill="#191C1E"/>
</svg>
