<svg width="24" height="24" viewBox="0 0 24 24" fill="none" xmlns="http://www.w3.org/2000/svg">
<path fill-rule="evenodd" clip-rule="evenodd" d="M15.8991 3.49828C16.057 3.34031 16.2445 3.215 16.4508 3.1295C16.6572 3.044 16.8783 3 17.1017 3C17.3251 3 17.5462 3.044 17.7526 3.1295C17.9589 3.215 18.1464 3.34031 18.3043 3.49828L18.8017 3.99649L19.5377 3.26054C19.6161 3.17934 19.7099 3.11457 19.8137 3.07001C19.9174 3.02545 20.0289 3.002 20.1418 3.00102C20.2547 3.00004 20.3667 3.02155 20.4712 3.0643C20.5757 3.10704 20.6706 3.17017 20.7504 3.25C20.8302 3.32983 20.8934 3.42475 20.9361 3.52924C20.9789 3.63372 21.0004 3.74568 20.9994 3.85857C20.9984 3.97145 20.975 4.08302 20.9304 4.18674C20.8859 4.29047 20.8211 4.38428 20.7399 4.46271L20.0039 5.19866L20.5021 5.69688C20.8209 6.01575 21 6.44817 21 6.89905C21 7.34993 20.8209 7.78235 20.5021 8.10122L20.4171 8.18624C20.3263 8.04546 20.2208 7.91465 20.1025 7.796L16.2043 3.89787C16.0857 3.77957 15.9549 3.67413 15.8141 3.58329L15.8991 3.49828ZM15.1254 10.0762L10.076 15.1264L11.4244 16.4739C11.5626 16.6121 11.6722 16.7761 11.747 16.9566C11.8218 17.1372 11.8602 17.3306 11.8602 17.526C11.8602 17.7214 11.8218 17.9149 11.747 18.0955C11.6722 18.276 11.5626 18.44 11.4244 18.5782L10.5011 19.5015C10.3629 19.6396 10.1989 19.7493 10.0184 19.824C9.83783 19.8988 9.64434 19.9373 9.44893 19.9373C9.25353 19.9373 9.06004 19.8988 8.87951 19.824C8.69899 19.7493 8.53496 19.6396 8.39679 19.5015L4.49856 15.6025C4.36039 15.4643 4.25078 15.3003 4.17599 15.1198C4.10121 14.9393 4.06272 14.7458 4.06272 14.5504C4.06272 14.355 4.10121 14.1615 4.17599 13.981C4.25078 13.8004 4.36039 13.6364 4.49856 13.4983L5.42105 12.5758C5.55921 12.4376 5.72324 12.328 5.90377 12.2532C6.08429 12.1785 6.27778 12.14 6.47318 12.14C6.66859 12.14 6.86208 12.1785 7.04261 12.2532C7.22313 12.328 7.38716 12.4376 7.52532 12.5758L8.87376 13.9242L13.924 8.87405L12.5756 7.52564C12.4374 7.38748 12.3278 7.22346 12.253 7.04293C12.1782 6.86241 12.1398 6.66893 12.1398 6.47353C12.1398 6.27813 12.1782 6.08465 12.253 5.90412C12.3278 5.7236 12.4374 5.55957 12.5756 5.42141L13.4981 4.49895C13.6362 4.36078 13.8003 4.25117 13.9808 4.17639C14.1613 4.10161 14.3548 4.06312 14.5502 4.06312C14.7456 4.06312 14.9391 4.10161 15.1196 4.17639C15.3002 4.25117 15.4642 4.36078 15.6024 4.49895L19.5014 8.39709C19.6396 8.53525 19.7492 8.69928 19.824 8.8798C19.8988 9.06032 19.9373 9.25381 19.9373 9.44921C19.9373 9.6446 19.8988 9.83809 19.824 10.0186C19.7492 10.1991 19.6396 10.3632 19.5014 10.5013L18.5781 11.4246C18.4399 11.5628 18.2759 11.6724 18.0954 11.7472C17.9149 11.822 17.7214 11.8605 17.526 11.8605C17.3306 11.8605 17.1371 11.822 16.9565 11.7472C16.776 11.6724 16.612 11.5628 16.4738 11.4246L15.1254 10.0762ZM5.19829 20.0039L5.69651 20.5021C6.01539 20.8209 6.44782 21 6.89872 21C7.34961 21 7.78204 20.8209 8.10092 20.5021L8.18594 20.4171C8.04515 20.3263 7.91434 20.2209 7.79569 20.1026L3.89746 16.2053C3.77916 16.0866 3.67372 15.9558 3.58288 15.815L3.49786 15.9001C3.17908 16.2189 3 16.6513 3 17.1022C3 17.5531 3.17908 17.9855 3.49786 18.3044L3.99609 18.8026L3.26054 19.5381C3.17933 19.6166 3.11456 19.7104 3.07 19.8141C3.02545 19.9178 3.00199 20.0294 3.00101 20.1423C3.00003 20.2552 3.02154 20.3671 3.06429 20.4716C3.10704 20.5761 3.17017 20.671 3.25 20.7509C3.32983 20.8307 3.42476 20.8938 3.52925 20.9366C3.63373 20.9793 3.74569 21.0008 3.85858 20.9998C3.97147 20.9989 4.08304 20.9754 4.18677 20.9308C4.29049 20.8863 4.38431 20.8215 4.46274 20.7403L5.19829 20.0039Z" fill="#191C1E"/>
</svg>
