<svg width="24" height="24" viewBox="0 0 24 24" fill="none" xmlns="http://www.w3.org/2000/svg">
<path fill-rule="evenodd" clip-rule="evenodd" d="M12 2C6.47715 2 2 6.47715 2 12C2 17.5228 6.47715 22 12 22C17.5228 22 22 17.5228 22 12C22 6.47715 17.5228 2 12 2ZM9.75 12C9.75 10.7574 10.7574 9.75 12 9.75C13.2426 9.75 14.25 10.7574 14.25 12C14.25 13.2426 13.2426 14.25 12 14.25C10.7574 14.25 9.75 13.2426 9.75 12ZM12 6.25C15.1756 6.25 17.75 8.82436 17.75 12H19.25C19.25 7.99594 16.0041 4.75 12 4.75V6.25ZM12 17.75C8.82436 17.75 6.25 15.1756 6.25 12H4.75C4.75 16.0041 7.99594 19.25 12 19.25V17.75Z" fill="#191C1E"/>
</svg>
