<svg width="24" height="24" viewBox="0 0 24 24" fill="none" xmlns="http://www.w3.org/2000/svg">
<path fill-rule="evenodd" clip-rule="evenodd" d="M8.25 2.75C8.25 2.33579 8.58579 2 9 2H15C15.4142 2 15.75 2.33579 15.75 2.75V4.25H18C18.4142 4.25 18.75 4.58579 18.75 5V21.25C18.75 21.6642 18.4142 22 18 22H6C5.58579 22 5.25 21.6642 5.25 21.25V5C5.25 4.58579 5.58579 4.25 6 4.25H8.25V2.75ZM9.75 3.5V5C9.75 5.41421 9.41421 5.75 9 5.75H6.75V20.5H17.25V5.75H15C14.5858 5.75 14.25 5.41421 14.25 5V3.5H9.75Z" fill="#191C1E"/>
<path d="M15.75 9H8.25V19H15.75V9Z" fill="#191C1E"/>
</svg>
