<svg width="24" height="24" viewBox="0 0 24 24" fill="none" xmlns="http://www.w3.org/2000/svg">
<path fill-rule="evenodd" clip-rule="evenodd" d="M5.75 6.25C5.33579 6.25 5 6.58579 5 7V17C5 17.4142 5.33579 17.75 5.75 17.75H18.25C18.6642 17.75 19 17.4142 19 17V7C19 6.58579 18.6642 6.25 18.25 6.25H5.75ZM8 10C8 9.58579 8.33579 9.25 8.75 9.25H8.7525C9.16671 9.25 9.5025 9.58579 9.5025 10C9.5025 10.4142 9.16671 10.75 8.7525 10.75H8.75C8.33579 10.75 8 10.4142 8 10ZM14.5 10C14.5 9.58579 14.8358 9.25 15.25 9.25H15.2525C15.6667 9.25 16.0025 9.58579 16.0025 10C16.0025 10.4142 15.6667 10.75 15.2525 10.75H15.25C14.8358 10.75 14.5 10.4142 14.5 10ZM15.25 13.25C14.8358 13.25 14.5 13.5858 14.5 14C14.5 14.4142 14.8358 14.75 15.25 14.75H15.2525C15.6667 14.75 16.0025 14.4142 16.0025 14C16.0025 13.5858 15.6667 13.25 15.2525 13.25H15.25ZM8 14C8 13.5858 8.33579 13.25 8.75 13.25H8.7525C9.16671 13.25 9.5025 13.5858 9.5025 14C9.5025 14.4142 9.16671 14.75 8.7525 14.75H8.75C8.33579 14.75 8 14.4142 8 14Z" fill="#191C1E"/>
<path d="M3.5 9.75H2V11.25H3.5V9.75Z" fill="#191C1E"/>
<path d="M3.5 12.75H2V14.25H3.5V12.75Z" fill="#191C1E"/>
<path d="M20.5 9.75H22V11.25H20.5V9.75Z" fill="#191C1E"/>
<path d="M22 12.75H20.5V14.25H22V12.75Z" fill="#191C1E"/>
</svg>
