<svg width="24" height="24" viewBox="0 0 24 24" fill="none" xmlns="http://www.w3.org/2000/svg">
<path fill-rule="evenodd" clip-rule="evenodd" d="M8.5 2.75C8.5 2.33579 8.83579 2 9.25 2H14.75C15.1642 2 15.5 2.33579 15.5 2.75V4.25H17.5C18.1904 4.25 18.75 4.80964 18.75 5.5V20.75C18.75 21.4404 18.1904 22 17.5 22H6.5C5.80964 22 5.25 21.4404 5.25 20.75V5.5C5.25 4.80964 5.80964 4.25 6.5 4.25H8.5V2.75ZM10 3.5V5C10 5.41421 9.66421 5.75 9.25 5.75H6.75V20.5H17.25V5.75H14.75C14.3358 5.75 14 5.41421 14 5V3.5H10Z" fill="#191C1E"/>
<path fill-rule="evenodd" clip-rule="evenodd" d="M11.25 15.75V7.75H12.75V15.75H11.25Z" fill="#191C1E"/>
<path fill-rule="evenodd" clip-rule="evenodd" d="M11 17.75C11 17.1977 11.4477 16.75 12 16.75H12.0025C12.5548 16.75 13.0025 17.1977 13.0025 17.75C13.0025 18.3023 12.5548 18.75 12.0025 18.75H12C11.4477 18.75 11 18.3023 11 17.75Z" fill="#191C1E"/>
</svg>
