<svg width="24" height="24" viewBox="0 0 24 24" fill="none" xmlns="http://www.w3.org/2000/svg">
<path d="M13.3244 4.80903C13.3512 4.64123 13.2618 4.47644 13.1065 4.40739C12.9513 4.33834 12.769 4.38229 12.6623 4.51451L6.70818 11.8923C6.63329 11.9851 6.607 12.108 6.63737 12.2233C6.66775 12.3387 6.75116 12.4327 6.86206 12.4765L9.59066 13.556L8.67574 19.1899C8.64847 19.3578 8.73765 19.5231 8.89298 19.5924C9.04831 19.6618 9.23087 19.6179 9.33771 19.4855L15.2918 12.1077C15.3643 12.0179 15.3914 11.8998 15.3653 11.7874C15.3392 11.675 15.2628 11.5808 15.1581 11.5322L12.4537 10.2746L13.3244 4.80903Z" fill="#191C1E"/>
<path d="M9.28827 6.25L2.75 6.25C2.33579 6.25 2 6.58579 2 7V17C2 17.4142 2.33579 17.75 2.75 17.75H7.39375L7.93636 14.4195L6.31136 13.7945C5.72803 13.5612 5.35303 13.1362 5.18636 12.5195C5.03636 11.9195 5.16136 11.3695 5.56136 10.8695L9.28827 6.25Z" fill="#191C1E"/>
<path d="M16.4614 12.9695L12.6045 17.75H19C19.4142 17.75 19.75 17.4142 19.75 17V15.25H21.25C21.6642 15.25 22 14.9142 22 14.5V9.5C22 9.08579 21.6642 8.75 21.25 8.75H19.75V7C19.75 6.58579 19.4142 6.25 19 6.25L14.6127 6.25L14.1364 9.31949L15.8114 10.0945C16.3614 10.3445 16.703 10.7695 16.8364 11.3695C16.9697 11.9695 16.8447 12.5028 16.4614 12.9695Z" fill="#191C1E"/>
</svg>
