<svg width="24" height="24" viewBox="0 0 24 24" fill="none" xmlns="http://www.w3.org/2000/svg">
<path d="M8.1855 13.7774C8.99534 12.7585 9.93344 12.1708 10.9824 11.9216C9.97634 11.1783 8.70527 10.7391 7.33131 10.7391C5.75256 10.7391 4.30953 11.3191 3.24832 12.274C3.09026 12.4162 3 12.6189 3 12.8315V19.0238C3 19.2196 3.07661 19.4077 3.21346 19.5478C4.02678 20.3805 5.38748 20.9185 6.78508 20.9914C8.06277 21.0581 9.46588 20.7411 10.6101 19.8043C13.2071 20.7093 16.3337 20.1762 19.6492 18.1497L19.6495 18.1496C20.2092 17.8081 20.676 17.293 20.8704 16.5886L20.8705 16.5881C21.2846 15.0832 20.6276 13.5929 20.0056 12.5028C18.9926 10.7281 18.1276 9.29043 17.195 7.74039L17.1949 7.74014L17.1947 7.73991L17.1946 7.73969L17.1944 7.7394C16.65 6.83451 16.0824 5.89124 15.4489 4.82013L15.446 4.81539C15.2762 4.53306 15.0518 4.28739 14.7862 4.09239C14.5216 3.89824 14.2213 3.75813 13.9027 3.67983C13.6508 3.61567 13.4005 3.54665 13.1474 3.47686C12.603 3.32674 12.045 3.17291 11.4279 3.05528L11.4253 3.0548C11.1765 3.00829 10.7805 2.94925 10.3706 3.07827L10.3684 3.07897C9.88202 3.23369 9.50321 3.54779 9.18477 3.86559C8.98807 4.06191 8.77108 4.30668 8.55164 4.55422L8.55112 4.55481C8.43331 4.6877 8.31477 4.82142 8.19831 4.94882C7.88931 5.28033 7.60545 5.71593 7.53529 6.21438C7.45648 6.77422 7.66402 7.3138 8.15791 7.70065C8.16661 7.70747 8.17547 7.71409 8.18446 7.72052C8.73857 8.1163 9.29145 8.357 10.0152 8.41833C10.5864 8.46674 11.2403 8.40055 12.0477 8.25832L13.1855 9.84398C13.2041 9.97322 13.2207 10.0996 13.236 10.2238C13.2223 10.6121 13.139 10.9815 13.0486 11.3821C13.0371 11.4329 13.0255 11.4843 13.0139 11.5363C12.9055 12.0228 12.7545 12.7094 13.0566 13.3709C11.7702 13.0735 10.3846 13.4214 9.35972 14.7107C9.10198 15.035 8.63018 15.0889 8.30592 14.8312C7.98167 14.5734 7.92775 14.1016 8.1855 13.7774Z" fill="#191C1E"/>
</svg>
