<svg width="24" height="25" viewBox="0 0 24 25" fill="none" xmlns="http://www.w3.org/2000/svg">
<path d="M15.8313 10.2502L17.7391 6.26109C17.8502 6.02871 17.8343 5.75555 17.697 5.53762C17.5597 5.31969 17.3201 5.1875 17.0625 5.1875H13.5V6.6875H15.8724L14.5273 9.5H9.58543L9.21043 8.00001H10.25V6.50001H6.25V8.00001H7.66426L8.20675 10.17L7.37863 11.9015C7.01923 11.8028 6.64077 11.75 6.25 11.75C3.90279 11.75 2 13.6528 2 16C2 18.3472 3.90279 20.25 6.25 20.25C8.59721 20.25 10.5 18.3472 10.5 16C10.5 14.5791 9.80266 13.321 8.73153 12.5493L9.47251 11H14.5272L15.2682 12.5495C14.1972 13.3212 13.5 14.5792 13.5 16C13.5 18.3472 15.4028 20.25 17.75 20.25C20.0972 20.25 22 18.3472 22 16C22 13.6528 20.0972 11.75 17.75 11.75C17.3591 11.75 16.9806 11.8028 16.6211 11.9016L15.8313 10.2502Z" fill="#191C1E"/>
</svg>
