<svg width="24" height="24" viewBox="0 0 24 24" fill="none" xmlns="http://www.w3.org/2000/svg">
<path fill-rule="evenodd" clip-rule="evenodd" d="M12.3401 1.94261C12.0361 1.72045 11.633 1.68789 11.2973 1.85837C10.9616 2.02885 10.7501 2.37347 10.7501 2.75L10.7501 9.78068L5.84007 6.19261L4.66003 7.8074L10.3973 12L4.66003 16.1926L5.84007 17.8074L10.7501 14.2193L10.7501 21.25C10.7501 21.6265 10.9616 21.9712 11.2973 22.1416C11.633 22.3121 12.0361 22.2796 12.3401 22.0574L18.8401 17.3074C19.0977 17.1191 19.2501 16.8191 19.2501 16.5C19.2501 16.1809 19.0977 15.8809 18.8401 15.6926L13.787 12L18.8401 8.3074C19.0977 8.1191 19.2501 7.81914 19.2501 7.50001C19.2501 7.18087 19.0977 6.88091 18.8401 6.69261L12.3401 1.94261ZM16.5552 16.5L12.7501 13.7193L12.7501 19.2807L16.5552 16.5ZM12.7501 4.71933L12.7501 10.2807L16.5552 7.50001L12.7501 4.71933Z" fill="#191C1E"/>
</svg>
