<svg width="24" height="24" viewBox="0 0 24 24" fill="none" xmlns="http://www.w3.org/2000/svg">
<path fill-rule="evenodd" clip-rule="evenodd" d="M11.25 18.5L11.25 7.65379L11.2487 7.64863C11.1949 5.62443 9.53717 4 7.5 4H5.75C5.33579 4 5 4.33579 5 4.75V7H2.75C2.33579 7 2 7.33579 2 7.75V19.25C2 19.6642 2.33579 20 2.75 20H21.25C21.6642 20 22 19.6642 22 19.25V7.75C22 7.33579 21.6642 7 21.25 7H19V4.75C19 4.33579 18.6642 4 18.25 4H16.5C14.4628 4 12.8051 5.62443 12.7513 7.64863L12.75 7.65378L12.75 18.5H11.25ZM9 17C9.97966 17 10.8131 17.6261 11.122 18.5H3.5V8.5H5V16.25C5 16.6642 5.33579 17 5.75 17H9ZM15 17C14.0203 17 13.1869 17.6261 12.878 18.5H20.5V8.5H19V16.25C19 16.6642 18.6642 17 18.25 17H15Z" fill="#191C1E"/>
</svg>
