<svg width="24" height="24" viewBox="0 0 24 24" fill="none" xmlns="http://www.w3.org/2000/svg">
<path d="M7.5 17.625C10.1715 17.625 11.921 16.7218 13.0997 15.2607C14.1874 13.9124 14.7177 12.1586 15.1793 10.6317L15.2072 10.5396C15.7031 8.90021 16.1379 7.51026 16.9569 6.49507C17.7067 5.5656 18.8501 4.875 21 4.875V2.875C18.3285 2.875 16.579 3.77815 15.4003 5.23931C14.3126 6.58755 13.7823 8.34139 13.3207 9.86835L13.2928 9.96044C12.7969 11.5998 12.3621 12.9897 11.5431 14.0049C10.7933 14.9344 9.64988 15.625 7.5 15.625V17.625Z" fill="#191C1E"/>
<path d="M3 20.125C3 20.6773 3.44772 21.125 4 21.125H21V19.125H5V12.125H10.75V10.125H5V2.875H3V20.125Z" fill="#191C1E"/>
<path d="M17 12.125H21V10.125H17V12.125Z" fill="#191C1E"/>
</svg>
