<svg width="24" height="24" viewBox="0 0 24 24" fill="none" xmlns="http://www.w3.org/2000/svg">
<path d="M12 7C9.23858 7 7 9.23858 7 12C7 14.7614 9.23858 17 12 17C14.7614 17 17 14.7614 17 12C17 9.23858 14.7614 7 12 7Z" fill="#191C1E"/>
<path d="M19.6012 5.45927L17.4799 7.5806L16.4192 6.51994L18.5406 4.39861L19.6012 5.45927Z" fill="#191C1E"/>
<path d="M7.58041 17.4801L5.4591 19.6014L4.39844 18.5407L6.51975 16.4194L7.58041 17.4801Z" fill="#191C1E"/>
<path d="M7.58043 6.51994L5.4591 4.3986L4.39844 5.45926L6.51977 7.5806L7.58043 6.51994Z" fill="#191C1E"/>
<path d="M19.6012 18.5407L17.4799 16.4194L16.4193 17.4801L18.5406 19.6014L19.6012 18.5407Z" fill="#191C1E"/>
<path d="M11.25 5V2H12.75V5H11.25Z" fill="#191C1E"/>
<path d="M11.25 19V22H12.75V19H11.25Z" fill="#191C1E"/>
<path d="M22 12.75H19V11.25H22V12.75Z" fill="#191C1E"/>
<path d="M2 12.75H5V11.25H2V12.75Z" fill="#191C1E"/>
</svg>
