<svg width="24" height="24" viewBox="0 0 24 24" fill="none" xmlns="http://www.w3.org/2000/svg">
<path d="M9.78047 14.341C8.90179 13.4623 8.90179 12.0377 9.78047 11.159L17.2051 3.73439C18.0838 2.85571 19.5084 2.85571 20.3871 3.73439C21.2657 4.61307 21.2657 6.03769 20.3871 6.91637L12.9624 14.341C12.0838 15.2197 10.6591 15.2197 9.78047 14.341Z" fill="#191C1E"/>
<path d="M3.74604 20.1479C3.61354 20.8861 3.61378 20.8862 3.61402 20.8862L3.61592 20.8865L3.61949 20.8872L3.63017 20.889C3.63884 20.8905 3.6506 20.8924 3.6653 20.8947C3.69469 20.8994 3.7359 20.9056 3.78773 20.9127C3.8913 20.9267 4.03787 20.9442 4.21794 20.959C4.57673 20.9885 5.07569 21.0084 5.63684 20.9687C6.73309 20.8912 8.19891 20.5769 9.26052 19.5153C10.4251 18.3507 10.4251 16.4626 9.26052 15.298C8.09595 14.1334 6.20781 14.1334 5.04323 15.298C4.43071 15.9105 4.25409 16.5522 4.21261 17.112C4.19761 17.3144 4.20016 17.5193 4.20212 17.6761C4.2026 17.7143 4.20304 17.7496 4.20319 17.7813C4.20404 17.9701 4.19589 18.0671 4.17939 18.1316C4.09984 18.4428 3.88282 18.8042 3.64105 19.1224C3.52632 19.2734 3.41756 19.3998 3.33803 19.4877C3.29847 19.5315 3.2667 19.5651 3.24574 19.5869C3.23527 19.5978 3.22755 19.6057 3.22295 19.6103L3.21847 19.6148L3.21814 19.6152L3.74604 20.1479Z" fill="#191C1E"/>
</svg>
