<svg width="24" height="24" viewBox="0 0 24 24" fill="none" xmlns="http://www.w3.org/2000/svg">
<path d="M7.86056 2.53149L9.99489 5.19943C10.6265 4.96222 11.3003 4.83339 12 4.83339C12.6997 4.83339 13.3734 4.96223 14.0051 5.19944L16.1394 2.5315L17.3107 3.46853L15.3557 5.91233C15.9703 6.33981 16.5182 6.87826 16.9836 7.49988C16.7593 7.86437 16.3889 8.22363 15.8548 8.54633C14.9044 9.1205 13.5434 9.5 12 9.5C10.4566 9.5 9.09556 9.1205 8.1452 8.54633C7.61105 8.22361 7.24062 7.86433 7.0164 7.49982C7.48172 6.87821 8.02968 6.33978 8.64426 5.9123L6.68925 3.46853L7.86056 2.53149Z" fill="#191C1E"/>
<path d="M16.6305 9.8302C17.0751 9.56157 17.4798 9.2412 17.8136 8.87543C17.9403 9.14023 18.0549 9.4143 18.1564 9.69649C18.4896 9.53452 18.7433 9.32504 18.9382 9.0466C19.2609 8.5855 19.4999 7.82491 19.4999 6.50001H20.9999C20.9999 7.97511 20.739 9.08952 20.1671 9.90667C19.7365 10.522 19.1725 10.9082 18.5502 11.162C18.637 11.6361 18.6893 12.1252 18.704 12.625H21V14.125H18.634C18.5297 14.9659 18.318 15.7665 18.0148 16.5049C18.6621 16.9205 19.1116 17.5693 19.4076 18.2188C19.8189 19.1212 19.9999 20.1574 19.9999 21H18.4999C18.4999 20.3426 18.3535 19.5229 18.0427 18.8409C17.8404 18.397 17.5948 18.0642 17.3184 17.8493C17.191 18.0484 17.0558 18.2407 16.9131 18.4254C15.7098 19.9932 13.9854 21.0001 12 21.0001C10.0146 21.0001 8.29012 19.9933 7.08688 18.4255C6.94415 18.2408 6.80888 18.0484 6.68154 17.8493C6.40515 18.0642 6.15955 18.397 5.95723 18.8409C5.64643 19.5229 5.5 20.3426 5.5 21H4C4 20.1574 4.18106 19.1212 4.59232 18.2188C4.88835 17.5693 5.33786 16.9205 5.98512 16.5049C5.68192 15.7665 5.4702 14.9659 5.36588 14.125H3V12.625H5.2959C5.31059 12.125 5.36289 11.636 5.44969 11.162C4.82737 10.9082 4.26343 10.522 3.83282 9.90667C3.26094 9.08952 3 7.97511 3 6.50001H4.5C4.5 7.82491 4.73906 8.5855 5.06175 9.0466C5.25662 9.32504 5.51033 9.53452 5.84349 9.69649C5.945 9.41436 6.05956 9.14026 6.18638 8.87537C6.52019 9.24117 6.92487 9.56155 7.36952 9.8302C8.41623 10.4626 9.76983 10.8703 11.25 10.9739V12.75H12.75V10.9739C14.2302 10.8703 15.5838 10.4626 16.6305 9.8302Z" fill="#191C1E"/>
</svg>
