<svg width="24" height="25" viewBox="0 0 24 25" fill="none" xmlns="http://www.w3.org/2000/svg">
<path fill-rule="evenodd" clip-rule="evenodd" d="M22 17.5C22 17.9142 21.6642 18.25 21.25 18.25H19.6465C19.32 19.4043 18.2588 20.25 17 20.25C15.7412 20.25 14.68 19.4043 14.3535 18.25H9.64648C9.32002 19.4043 8.25878 20.25 7 20.25C5.74122 20.25 4.67998 19.4043 4.35352 18.25H2.75C2.33579 18.25 2 17.9142 2 17.5V6C2 5.0335 2.7835 4.25 3.75 4.25H16.75C19.6495 4.25 22 6.60051 22 9.5V17.5ZM3.5 6C3.5 5.86193 3.61193 5.75 3.75 5.75H6.5V8.75H3.5V6ZM15.2734 5.75L15.94 8.75H12.5V5.75H15.2734ZM17.9766 11L16.8101 5.75047C18.8534 5.78256 20.5 7.44899 20.5 9.5V11H17.9766ZM5.75 17.5C5.75 16.8096 6.30964 16.25 7 16.25C7.69036 16.25 8.25 16.8096 8.25 17.5C8.25 18.1904 7.69036 18.75 7 18.75C6.30964 18.75 5.75 18.1904 5.75 17.5ZM15.75 17.5C15.75 16.8096 16.3096 16.25 17 16.25C17.6904 16.25 18.25 16.8096 18.25 17.5C18.25 18.1904 17.6904 18.75 17 18.75C16.3096 18.75 15.75 18.1904 15.75 17.5ZM8 8.75V5.75H11V8.75H8Z" fill="#191C1E"/>
</svg>
