<svg width="24" height="24" viewBox="0 0 24 24" fill="none" xmlns="http://www.w3.org/2000/svg">
<path d="M7.75 14.75C7.33579 14.75 7 15.0858 7 15.5V18.25C7 18.6642 7.33579 19 7.75 19H16.25C16.6642 19 17 18.6642 17 18.25V15.5C17 15.0858 16.6642 14.75 16.25 14.75H7.75Z" fill="#191C1E"/>
<path fill-rule="evenodd" clip-rule="evenodd" d="M4.75 2C4.33579 2 4 2.33579 4 2.75V21.25C4 21.6642 4.33579 22 4.75 22H19.25C19.6642 22 20 21.6642 20 21.25V2.75C20 2.33579 19.6642 2 19.25 2H4.75ZM5.5 20.5V3.5H18.5V20.5H5.5Z" fill="#191C1E"/>
</svg>
