<svg width="24" height="24" viewBox="0 0 24 24" fill="none" xmlns="http://www.w3.org/2000/svg">
<path d="M7.75 5C7.33579 5 7 5.33579 7 5.75V12.5C7 12.9142 7.33579 13.25 7.75 13.25H16.25C16.6642 13.25 17 12.9142 17 12.5V5.75C17 5.33579 16.6642 5 16.25 5H7.75Z" fill="#191C1E"/>
<path fill-rule="evenodd" clip-rule="evenodd" d="M4 2.75C4 2.33579 4.33579 2 4.75 2H19.25C19.6642 2 20 2.33579 20 2.75V21.25C20 21.6642 19.6642 22 19.25 22H4.75C4.33579 22 4 21.6642 4 21.25V2.75ZM5.5 3.5V20.5H18.5V3.5H5.5Z" fill="#191C1E"/>
</svg>
