<svg width="24" height="24" viewBox="0 0 24 24" fill="none" xmlns="http://www.w3.org/2000/svg">
<path fill-rule="evenodd" clip-rule="evenodd" d="M4 2.75C4 2.33579 4.33579 2 4.75 2H19.25C19.6642 2 20 2.33579 20 2.75V21.25C20 21.6642 19.6642 22 19.25 22H4.75C4.33579 22 4 21.6642 4 21.25V2.75ZM7 5.75C7 5.33579 7.33579 5 7.75 5H16.25C16.6642 5 17 5.33579 17 5.75V8.75C17 9.16421 16.6642 9.5 16.25 9.5H7.75C7.33579 9.5 7 9.16421 7 8.75V5.75ZM8.75 11C8.33579 11 8 11.3358 8 11.75C8 12.1642 8.33579 12.5 8.75 12.5H8.7525C9.16671 12.5 9.5025 12.1642 9.5025 11.75C9.5025 11.3358 9.16671 11 8.7525 11H8.75ZM8 15C8 14.5858 8.33579 14.25 8.75 14.25H8.7525C9.16671 14.25 9.5025 14.5858 9.5025 15C9.5025 15.4142 9.16671 15.75 8.7525 15.75H8.75C8.33579 15.75 8 15.4142 8 15ZM8.75 17.5C8.33579 17.5 8 17.8358 8 18.25C8 18.6642 8.33579 19 8.75 19H8.7525C9.16671 19 9.5025 18.6642 9.5025 18.25C9.5025 17.8358 9.16671 17.5 8.7525 17.5H8.75ZM11.25 11.75C11.25 11.3358 11.5858 11 12 11H12.0025C12.4167 11 12.7525 11.3358 12.7525 11.75C12.7525 12.1642 12.4167 12.5 12.0025 12.5H12C11.5858 12.5 11.25 12.1642 11.25 11.75ZM12 14.25C11.5858 14.25 11.25 14.5858 11.25 15C11.25 15.4142 11.5858 15.75 12 15.75H12.0025C12.4167 15.75 12.7525 15.4142 12.7525 15C12.7525 14.5858 12.4167 14.25 12.0025 14.25H12ZM11.25 18.25C11.25 17.8358 11.5858 17.5 12 17.5H12.0025C12.4167 17.5 12.7525 17.8358 12.7525 18.25C12.7525 18.6642 12.4167 19 12.0025 19H12C11.5858 19 11.25 18.6642 11.25 18.25ZM15.25 11C14.8358 11 14.5 11.3358 14.5 11.75C14.5 12.1642 14.8358 12.5 15.25 12.5H15.2525C15.6667 12.5 16.0025 12.1642 16.0025 11.75C16.0025 11.3358 15.6667 11 15.2525 11H15.25ZM14.5 15C14.5 14.5858 14.8358 14.25 15.25 14.25H15.2525C15.6667 14.25 16.0025 14.5858 16.0025 15C16.0025 15.4142 15.6667 15.75 15.2525 15.75H15.25C14.8358 15.75 14.5 15.4142 14.5 15ZM15.25 17.5C14.8358 17.5 14.5 17.8358 14.5 18.25C14.5 18.6642 14.8358 19 15.25 19H15.2525C15.6667 19 16.0025 18.6642 16.0025 18.25C16.0025 17.8358 15.6667 17.5 15.2525 17.5H15.25Z" fill="#191C1E"/>
</svg>
