<svg width="24" height="25" viewBox="0 0 24 25" fill="none" xmlns="http://www.w3.org/2000/svg">
<path d="M2 4.875C2 4.46079 2.33579 4.125 2.75 4.125H6.5V6.125H8V4.125H16V6.125H17.5V4.125H21.25C21.6642 4.125 22 4.46079 22 4.875V7.875H2V4.875Z" fill="#191C1E"/>
<path fill-rule="evenodd" clip-rule="evenodd" d="M2.75 21.125C2.33579 21.125 2 20.7892 2 20.375V9.375H22V20.375C22 20.7892 21.6642 21.125 21.25 21.125H2.75ZM6.5 12.125C6.5 11.7108 6.83579 11.375 7.25 11.375H7.2525C7.66671 11.375 8.0025 11.7108 8.0025 12.125C8.0025 12.5392 7.66671 12.875 7.2525 12.875H7.25C6.83579 12.875 6.5 12.5392 6.5 12.125ZM11.25 12.125C11.25 11.7108 11.5858 11.375 12 11.375H12.0025C12.4167 11.375 12.7525 11.7108 12.7525 12.125C12.7525 12.5392 12.4167 12.875 12.0025 12.875H12C11.5858 12.875 11.25 12.5392 11.25 12.125ZM16 12.125C16 11.7108 16.3358 11.375 16.75 11.375H16.7525C17.1667 11.375 17.5025 11.7108 17.5025 12.125C17.5025 12.5392 17.1667 12.875 16.7525 12.875H16.75C16.3358 12.875 16 12.5392 16 12.125ZM6.5 16.875C6.5 16.4608 6.83579 16.125 7.25 16.125H7.2525C7.66671 16.125 8.0025 16.4608 8.0025 16.875C8.0025 17.2892 7.66671 17.625 7.2525 17.625H7.25C6.83579 17.625 6.5 17.2892 6.5 16.875ZM11.25 16.875C11.25 16.4608 11.5858 16.125 12 16.125H12.0025C12.4167 16.125 12.7525 16.4608 12.7525 16.875C12.7525 17.2892 12.4167 17.625 12.0025 17.625H12C11.5858 17.625 11.25 17.2892 11.25 16.875ZM16 16.875C16 16.4608 16.3358 16.125 16.75 16.125H16.7525C17.1667 16.125 17.5025 16.4608 17.5025 16.875C17.5025 17.2892 17.1667 17.625 16.7525 17.625H16.75C16.3358 17.625 16 17.2892 16 16.875Z" fill="#191C1E"/>
</svg>
