<svg width="24" height="25" viewBox="0 0 24 25" fill="none" xmlns="http://www.w3.org/2000/svg">
<path fill-rule="evenodd" clip-rule="evenodd" d="M2 5.5C2 4.25736 3.00736 3.25 4.25 3.25H18.25C20.3211 3.25 22 4.92893 22 7V8C22 8.41421 21.6642 8.75 21.25 8.75H19.5717L21.8807 12.6154C21.9499 12.7311 21.9865 12.8634 21.9868 12.9982L22 18.4982C22.0005 18.6974 21.9217 18.8887 21.781 19.0297C21.6403 19.1707 21.4492 19.25 21.25 19.25H19.8958C19.7689 19.6975 19.5293 20.1098 19.1945 20.4445C18.6788 20.9603 17.9793 21.25 17.25 21.25C16.5207 21.25 15.8212 20.9603 15.3055 20.4445C14.9707 20.1098 14.7311 19.6975 14.6042 19.25H9.64576C9.51887 19.6975 9.27933 20.1098 8.94454 20.4445C8.42882 20.9603 7.72935 21.25 7 21.25C6.27065 21.25 5.57118 20.9603 5.05546 20.4445C4.72067 20.1098 4.48112 19.6975 4.35424 19.25H2.75C2.33579 19.25 2 18.9142 2 18.5V5.5ZM19.9152 12.25L17.8244 8.75H13V12.25H19.9152ZM7 17.25C6.66848 17.25 6.35054 17.3817 6.11612 17.6161C5.8817 17.8505 5.75 18.1685 5.75 18.5C5.75 18.8315 5.8817 19.1495 6.11612 19.3839C6.35054 19.6183 6.66848 19.75 7 19.75C7.33152 19.75 7.64946 19.6183 7.88388 19.3839C8.1183 19.1495 8.25 18.8315 8.25 18.5C8.25 18.1685 8.1183 17.8505 7.88388 17.6161C7.64946 17.3817 7.33152 17.25 7 17.25ZM17.25 17.25C16.9185 17.25 16.6005 17.3817 16.3661 17.6161C16.1317 17.8505 16 18.1685 16 18.5C16 18.8315 16.1317 19.1495 16.3661 19.3839C16.6005 19.6183 16.9185 19.75 17.25 19.75C17.5815 19.75 17.8995 19.6183 18.1339 19.3839C18.3683 19.1495 18.5 18.8315 18.5 18.5C18.5 18.1685 18.3683 17.8505 18.1339 17.6161C17.8995 17.3817 17.5815 17.25 17.25 17.25Z" fill="#191C1E"/>
</svg>
