<svg width="24" height="25" viewBox="0 0 24 25" fill="none" xmlns="http://www.w3.org/2000/svg">
<path fill-rule="evenodd" clip-rule="evenodd" d="M3.26955 6.2883C3.69107 4.92762 4.94953 4 6.374 4H12.7658C13.9766 4 15.0871 4.67314 15.6472 5.74666L17.7494 9.77594C20.138 10.0255 22 12.0453 22 14.5V17.5C22 17.9142 21.6642 18.25 21.25 18.25H19.6465C19.32 19.4043 18.2588 20.25 17 20.25C15.7412 20.25 14.68 19.4043 14.3535 18.25H9.64648C9.32002 19.4043 8.25878 20.25 7 20.25C5.74122 20.25 4.67998 19.4043 4.35352 18.25H2.75C2.33579 18.25 2 17.9142 2 17.5V10.5C2 10.4248 2.01132 10.3499 2.03359 10.2781L3.26955 6.2883ZM6.374 5.5C5.60698 5.5 4.92934 5.99949 4.70237 6.73216L3.7675 9.75H8.28125V5.5H6.374ZM16.044 9.75L14.3173 6.44051C14.0157 5.86246 13.4178 5.5 12.7658 5.5H9.78125V9.75H16.044ZM7 16.25C6.30964 16.25 5.75 16.8096 5.75 17.5C5.75 18.1904 6.30964 18.75 7 18.75C7.69036 18.75 8.25 18.1904 8.25 17.5C8.25 16.8096 7.69036 16.25 7 16.25ZM17 16.25C16.3096 16.25 15.75 16.8096 15.75 17.5C15.75 18.1904 16.3096 18.75 17 18.75C17.6904 18.75 18.25 18.1904 18.25 17.5C18.25 16.8096 17.6904 16.25 17 16.25Z" fill="#191C1E"/>
</svg>
