<svg width="24" height="24" viewBox="0 0 24 24" fill="none" xmlns="http://www.w3.org/2000/svg">
<path d="M4.92935 2C5.27791 2 5.58053 2.24014 5.65973 2.57958L6.22196 4.98913H21.25C21.4903 4.98913 21.716 5.10426 21.8571 5.29877C21.9982 5.49328 22.0375 5.74361 21.9629 5.97202L20.01 11.9503C19.9169 12.2353 19.6629 12.4375 19.3642 12.4644L7.63598 13.5186L7.00299 14.5H19.2971V16H5.62681C5.35226 16 5.09965 15.85 4.96826 15.6089C4.83688 15.3678 4.84772 15.0742 4.99653 14.8435L6.4038 12.6615L4.89562 5.90608L4.3342 3.5H2V2H4.92935Z" fill="#191C1E"/>
<path fill-rule="evenodd" clip-rule="evenodd" d="M9 17.5C7.75736 17.5 6.75 18.5074 6.75 19.75C6.75 20.9926 7.75736 22 9 22C10.2426 22 11.25 20.9926 11.25 19.75C11.25 18.5074 10.2426 17.5 9 17.5ZM8.25 19.75C8.25 19.3358 8.58579 19 9 19C9.41421 19 9.75 19.3358 9.75 19.75C9.75 20.1642 9.41421 20.5 9 20.5C8.58579 20.5 8.25 20.1642 8.25 19.75Z" fill="#191C1E"/>
<path fill-rule="evenodd" clip-rule="evenodd" d="M16 17.5C14.7574 17.5 13.75 18.5074 13.75 19.75C13.75 20.9926 14.7574 22 16 22C17.2426 22 18.25 20.9926 18.25 19.75C18.25 18.5074 17.2426 17.5 16 17.5ZM15.25 19.75C15.25 19.3358 15.5858 19 16 19C16.4142 19 16.75 19.3358 16.75 19.75C16.75 20.1642 16.4142 20.5 16 20.5C15.5858 20.5 15.25 20.1642 15.25 19.75Z" fill="#191C1E"/>
</svg>
