<svg width="24" height="24" viewBox="0 0 24 24" fill="none" xmlns="http://www.w3.org/2000/svg">
<path d="M5.14041 7.43392C4.58813 7.43392 4.14041 6.9862 4.14041 6.43392V2H6.14041V4.08649C7.74139 2.89318 9.7258 2.1859 11.875 2.1859C17.1942 2.1859 21.5 6.51301 21.5 11.8429C21.5 17.1729 17.1942 21.5 11.875 21.5C6.55577 21.5 2.25 17.1729 2.25 11.8429H4.25C4.25 16.0753 7.66732 19.5 11.875 19.5C16.0827 19.5 19.5 16.0753 19.5 11.8429C19.5 7.61058 16.0827 4.1859 11.875 4.1859C10.3345 4.1859 8.90049 4.64422 7.70077 5.43392H9.74829V7.43392H5.14041Z" fill="#191C1E"/>
<path d="M12.2227 16.25C10.227 16.25 8.56393 14.8602 8.11775 13H7.25002V11H8.11775C8.56393 9.13988 10.227 7.75003 12.2227 7.75003C13.3903 7.75003 14.4474 8.22817 15.2096 8.99585L13.7904 10.405C13.3865 9.99819 12.8335 9.75003 12.2227 9.75003C11.3543 9.75003 10.5957 10.2567 10.2308 11H12.5V13H10.2308C10.5957 13.7433 11.3543 14.25 12.2227 14.25C12.8335 14.25 13.3865 14.0019 13.7904 13.5951L15.2096 15.0042C14.4474 15.7719 13.3903 16.25 12.2227 16.25Z" fill="#191C1E"/>
</svg>
