<svg width="24" height="24" viewBox="0 0 24 24" fill="none" xmlns="http://www.w3.org/2000/svg">
<path fill-rule="evenodd" clip-rule="evenodd" d="M6.50211 11.9139L6.18796 8.72701C6.06914 7.52161 5.97415 6.55803 5.97946 5.78654C5.9849 4.9962 6.09361 4.31014 6.45519 3.70116C6.45967 3.69361 6.46429 3.68614 6.46903 3.67875C7.08188 2.7246 8.11373 2.31284 9.08704 2.12212C10.0526 1.93291 11.1129 1.93295 11.9671 1.93298L12.0305 1.93298C12.8555 1.93296 13.9152 1.93292 14.888 2.12188C15.8634 2.31133 16.9158 2.7209 17.531 3.67872C17.5358 3.68612 17.5404 3.6936 17.5449 3.70116C17.9065 4.31014 18.0152 4.9962 18.0206 5.78654C18.0259 6.55803 17.9309 7.52161 17.8121 8.72701L17.498 11.9137C17.6983 12.1214 17.8688 12.3546 18.0065 12.5924C18.3512 13.1873 18.5613 13.9294 18.4841 14.6431L18.4841 14.6437C18.442 15.0301 18.2596 15.3598 17.9707 15.5827C17.8362 15.6865 17.69 15.7587 17.5417 15.8053V21.8333H16.0417V15.875H7.95837V21.8333H6.45837V15.8052C6.31026 15.7586 6.16422 15.6865 6.0299 15.583C5.7412 15.3604 5.55805 15.0309 5.51588 14.6437L5.51582 14.6431C5.43863 13.9294 5.64878 13.1873 5.99348 12.5924C6.13121 12.3547 6.30176 12.1215 6.50211 11.9139ZM7.47942 5.79686C7.48398 5.13453 7.57598 4.75757 7.73829 4.47835C8.02718 4.03769 8.56803 3.75235 9.37549 3.59412C10.185 3.4355 11.1098 3.43299 12 3.43299C12.8574 3.43299 13.7836 3.43539 14.602 3.59436C15.4231 3.75385 15.975 4.04134 16.2618 4.47841C16.4241 4.75762 16.5161 5.13458 16.5206 5.79686C16.5253 6.47892 16.4394 7.36227 16.3156 8.61816L16.0686 11.1233C14.8626 10.7859 13.4017 10.5417 12 10.5417C10.5987 10.5417 9.13867 10.7849 7.93149 11.1238L7.6845 8.61816C7.56071 7.36227 7.47473 6.47892 7.47942 5.79686Z" fill="#191C1E"/>
</svg>
