<svg width="24" height="24" viewBox="0 0 24 24" fill="none" xmlns="http://www.w3.org/2000/svg">
<path d="M9 3.75C9 3.33579 9.33579 3 9.75 3H20.25C20.6642 3 21 3.33579 21 3.75V7.25C21 7.66421 20.6642 8 20.25 8H9.75C9.33579 8 9 7.66421 9 7.25V3.75Z" fill="#191C1E"/>
<path d="M9.75 9.5C9.33579 9.5 9 9.83579 9 10.25V13.75C9 14.1642 9.33579 14.5 9.75 14.5H20.25C20.6642 14.5 21 14.1642 21 13.75V10.25C21 9.83579 20.6642 9.5 20.25 9.5H9.75Z" fill="#191C1E"/>
<path d="M9 16.75C9 16.3358 9.33579 16 9.75 16H20.25C20.6642 16 21 16.3358 21 16.75V20.25C21 20.6642 20.6642 21 20.25 21H9.75C9.33579 21 9 20.6642 9 20.25V16.75Z" fill="#191C1E"/>
<path d="M5.22369 7.3504L7.7821 4.77897L6.71875 3.72101L4.69201 5.75806L4.0321 5.09479L2.96875 6.15275L4.16034 7.3504C4.3011 7.49188 4.49244 7.57142 4.69201 7.57142C4.89158 7.57142 5.08293 7.49188 5.22369 7.3504Z" fill="#191C1E"/>
<path d="M7.7821 11.279L5.22369 13.8504C5.08293 13.9919 4.89158 14.0714 4.69201 14.0714C4.49244 14.0714 4.3011 13.9919 4.16034 13.8504L2.96875 12.6528L4.0321 11.5948L4.69201 12.2581L6.71875 10.221L7.7821 11.279Z" fill="#191C1E"/>
<path d="M5.22369 20.3504L7.7821 17.779L6.71875 16.721L4.69201 18.7581L4.0321 18.0948L2.96875 19.1528L4.16034 20.3504C4.3011 20.4919 4.49244 20.5714 4.69201 20.5714C4.89158 20.5714 5.08293 20.4919 5.22369 20.3504Z" fill="#191C1E"/>
</svg>
