<svg width="24" height="24" viewBox="0 0 24 24" fill="none" xmlns="http://www.w3.org/2000/svg">
<path fill-rule="evenodd" clip-rule="evenodd" d="M4.5 7.25C4.5 5.73122 5.73122 4.5 7.25 4.5H7.875V3H9.375V4.5H11.25V3H12.75V4.5H14.625V3H16.125V4.5H16.75C18.2688 4.5 19.5 5.73122 19.5 7.25V7.875H21V9.375H19.5V11.25H21V12.75H19.5V14.625H21V16.125H19.5V16.75C19.5 18.2688 18.2688 19.5 16.75 19.5H16.125V21H14.625V19.5H12.75V21H11.25V19.5H9.375V21H7.875V19.5H7.25C5.73122 19.5 4.5 18.2688 4.5 16.75V16.125H3V14.625H4.5V12.75H3V11.25H4.5V9.375H3V7.875H4.5V7.25ZM9 10.25C9 9.55964 9.55964 9 10.25 9H13.75C14.4404 9 15 9.55964 15 10.25V13.75C15 14.4404 14.4404 15 13.75 15H10.25C9.55964 15 9 14.4404 9 13.75V10.25Z" fill="#191C1E"/>
</svg>
