<svg width="24" height="24" viewBox="0 0 24 24" fill="none" xmlns="http://www.w3.org/2000/svg">
<path fill-rule="evenodd" clip-rule="evenodd" d="M12 2C6.47715 2 2 6.47715 2 12C2 17.5228 6.47715 22 12 22C17.5228 22 22 17.5228 22 12C22 6.47715 17.5228 2 12 2ZM10.75 9.75C10.75 9.53668 10.8202 9.20002 11.0087 8.93823C11.1696 8.71468 11.4444 8.5 12 8.5C12.5556 8.5 12.8304 8.71468 12.9913 8.93823C13.1798 9.20002 13.25 9.53668 13.25 9.75C13.25 9.96332 13.1798 10.3 12.9913 10.5618C12.8304 10.7853 12.5556 11 12 11C11.5858 11 11.25 11.3358 11.25 11.75V13.5H12.75V12.4136C13.4019 12.2545 13.8837 11.8896 14.2087 11.4382C14.6202 10.8667 14.75 10.2034 14.75 9.75C14.75 9.29665 14.6202 8.63332 14.2087 8.06177C13.7696 7.45198 13.0444 7 12 7C10.9556 7 10.2304 7.45198 9.79135 8.06177C9.37984 8.63332 9.25 9.29665 9.25 9.75H10.75ZM12 15C11.4477 15 11 15.4477 11 16C11 16.5523 11.4477 17 12 17H12.0025C12.5548 17 13.0025 16.5523 13.0025 16C13.0025 15.4477 12.5548 15 12.0025 15H12Z" fill="#191C1E"/>
</svg>
