<svg width="24" height="24" viewBox="0 0 24 24" fill="none" xmlns="http://www.w3.org/2000/svg">
<path fill-rule="evenodd" clip-rule="evenodd" d="M12 2C6.47715 2 2 6.47715 2 12C2 17.5228 6.47715 22 12 22C17.5228 22 22 17.5228 22 12C22 6.47715 17.5228 2 12 2ZM8.9125 12C8.9125 11.7432 8.93832 11.4923 8.98751 11.25H12.5208V9.75H9.66223C10.3464 8.83916 11.4356 8.25 12.6625 8.25C13.6971 8.25 14.6326 8.66798 15.3119 9.34608L16.3716 8.28452C15.4226 7.33713 14.1104 6.75 12.6625 6.75C10.5682 6.75 8.76032 7.97629 7.91772 9.75H6V11.25H7.46567C7.43063 11.495 7.4125 11.7454 7.4125 12C7.4125 12.2546 7.43063 12.505 7.46567 12.75H6V14.25H7.91772C8.76032 16.0237 10.5682 17.25 12.6625 17.25C14.1104 17.25 15.4226 16.6629 16.3716 15.7155L15.3119 14.6539C14.6326 15.332 13.6971 15.75 12.6625 15.75C11.4356 15.75 10.3464 15.1608 9.66223 14.25H12.5208V12.75H8.98751C8.93832 12.5077 8.9125 12.2568 8.9125 12Z" fill="#191C1E"/>
</svg>
