<svg width="24" height="24" viewBox="0 0 24 24" fill="none" xmlns="http://www.w3.org/2000/svg">
<path fill-rule="evenodd" clip-rule="evenodd" d="M12 22C17.5228 22 22 17.5228 22 12C22 6.47715 17.5228 2 12 2C6.47715 2 2 6.47715 2 12C2 17.5228 6.47715 22 12 22ZM11.25 16.5C11.25 16.0858 11.5858 15.75 12 15.75H12.0025C12.4167 15.75 12.7525 16.0858 12.7525 16.5C12.7525 16.9142 12.4167 17.25 12.0025 17.25H12C11.5858 17.25 11.25 16.9142 11.25 16.5ZM11.25 6.5V14.5H12.75V6.5H11.25Z" fill="#191C1E"/>
</svg>
