<svg width="24" height="24" viewBox="0 0 24 24" fill="none" xmlns="http://www.w3.org/2000/svg">
<path fill-rule="evenodd" clip-rule="evenodd" d="M4.5 4.25C4.5 3.83579 4.83579 3.5 5.25 3.5H7.25V5.75C7.25 6.16421 7.58579 6.5 8 6.5H16C16.4142 6.5 16.75 6.16421 16.75 5.75V3.5H18.75C19.1642 3.5 19.5 3.83579 19.5 4.25V21.25C19.5 21.6642 19.1642 22 18.75 22H5.25C4.83579 22 4.5 21.6642 4.5 21.25V4.25ZM8.25 9.5C7.83579 9.5 7.5 9.83579 7.5 10.25C7.5 10.6642 7.83579 11 8.25 11H8.2525C8.66671 11 9.0025 10.6642 9.0025 10.25C9.0025 9.83579 8.66671 9.5 8.2525 9.5H8.25ZM8.25 13C7.83579 13 7.5 13.3358 7.5 13.75C7.5 14.1642 7.83579 14.5 8.25 14.5H8.2525C8.66671 14.5 9.0025 14.1642 9.0025 13.75C9.0025 13.3358 8.66671 13 8.2525 13H8.25ZM8.25 16.5C7.83579 16.5 7.5 16.8358 7.5 17.25C7.5 17.6642 7.83579 18 8.25 18H8.2525C8.66671 18 9.0025 17.6642 9.0025 17.25C9.0025 16.8358 8.66671 16.5 8.2525 16.5H8.25ZM16.5 9.5H10.5V11H16.5V9.5ZM10.5 14.5H16.5V13H10.5V14.5ZM10.5 18H16.5V16.5H10.5V18Z" fill="#191C1E"/>
<path d="M9.5 3.5C9.08579 3.5 8.75 3.83579 8.75 4.25V4.5C8.75 4.91421 9.08579 5.25 9.5 5.25H14.5C14.9142 5.25 15.25 4.91421 15.25 4.5V4.25C15.25 3.83579 14.9142 3.5 14.5 3.5H9.5Z" fill="#191C1E"/>
</svg>
