<svg width="24" height="24" viewBox="0 0 24 24" fill="none" xmlns="http://www.w3.org/2000/svg">
<path d="M11.956 6.00186C11.5689 6.0133 11.1797 6.07512 10.8005 6.19017L10.8002 6.19027C9.42636 6.6079 8.46702 7.63305 8.20306 8.81371C8.1009 9.27064 7.69536 9.59552 7.22715 9.59552C5.44337 9.59552 4.06738 10.9742 4.06738 12.5895C4.06738 13.8425 4.88663 14.9455 6.09249 15.3856L5.40678 17.2643C3.47669 16.5599 2.06738 14.7497 2.06738 12.5895C2.06738 10.0486 4.00752 8.0012 6.47148 7.64909C7.0903 6.04073 8.48608 4.80322 10.219 4.27659L10.2193 4.27649C12.2006 3.6751 14.3996 4.06609 15.9966 5.34317C17.2725 6.36131 18.018 7.83125 18.0507 9.37962C20.216 9.49074 21.932 11.287 21.932 13.4806C21.932 15.6745 20.2175 17.4698 18.0515 17.5823L17.9478 15.585C19.0497 15.5277 19.932 14.6113 19.932 13.4806C19.932 12.313 18.9907 11.3742 17.8378 11.3742H16.9535C16.6501 11.3742 16.363 11.2364 16.1732 10.9996C15.9835 10.7628 15.9114 10.4527 15.9775 10.1565C16.2387 8.98539 15.8005 7.74523 14.7488 6.90618L14.7479 6.90542C13.979 6.2904 12.9747 5.97174 11.956 6.00186Z" fill="#191C1E"/>
<path d="M12.9996 16.8137L14.4671 15.3462L15.8813 16.7604L12.6993 19.9424C12.3088 20.3329 11.6757 20.3329 11.2851 19.9424L8.10315 16.7604L9.51736 15.3462L10.9996 16.8285V12H12.9996V16.8137Z" fill="#191C1E"/>
</svg>
