<svg width="24" height="24" viewBox="0 0 24 24" fill="none" xmlns="http://www.w3.org/2000/svg">
<path d="M15.9969 5.34317C14.3999 4.06609 12.2009 3.6751 10.2196 4.27649L10.2192 4.27659C8.48632 4.80322 7.09055 6.04073 6.47173 7.64909C4.00776 8.00119 2.06763 10.0486 2.06763 12.5895C2.06763 14.7497 3.47694 16.5599 5.40702 17.2644L6.09273 15.3856C4.88687 14.9455 4.06763 13.8425 4.06763 12.5895C4.06763 10.9742 5.44361 9.59552 7.22739 9.59552C7.69561 9.59552 8.10114 9.27063 8.2033 8.8137C8.46726 7.63304 9.4266 6.60787 10.8005 6.19024C11.1741 6.07665 11.5588 6.01575 11.9421 6.00415C12.9679 5.9731 13.9835 6.29533 14.7491 6.90618C15.8007 7.74522 16.2389 8.98539 15.9777 10.1565C15.9117 10.4527 15.9837 10.7628 16.1735 10.9996C16.3633 11.2364 16.6503 11.3742 16.9538 11.3742H17.8381C18.991 11.3742 19.9322 12.313 19.9322 13.4806C19.9322 14.6114 19.05 15.5277 17.948 15.585L18.0518 17.5823C20.2177 17.4698 21.9322 15.6745 21.9322 13.4806C21.9322 11.287 20.2162 9.49073 18.051 9.37961C18.0183 7.83125 17.2727 6.36131 15.9969 5.34317Z" fill="#191C1E"/>
<path d="M9.45706 16.7071L10.9999 15.1643V20H12.9999V15.1642L14.5429 16.7071L15.9571 15.2929L12.7071 12.0429C12.3166 11.6524 11.6834 11.6524 11.2929 12.0429L8.04286 15.2929L9.45706 16.7071Z" fill="#191C1E"/>
</svg>
