<svg width="24" height="24" viewBox="0 0 24 24" fill="none" xmlns="http://www.w3.org/2000/svg">
<path fill-rule="evenodd" clip-rule="evenodd" d="M4.75 3C4.33579 3 4 3.33579 4 3.75V12C4 14.6234 6.12665 16.75 8.75 16.75H13C15.5395 16.75 17.6135 14.7571 17.7435 12.25H19.25C20.7688 12.25 22 11.0188 22 9.5V8C22 6.48122 20.7688 5.25 19.25 5.25H17.75V3.75C17.75 3.33579 17.4142 3 17 3H4.75ZM20.5 9.5C20.5 10.1904 19.9404 10.75 19.25 10.75H17.75V6.75H19.25C19.9404 6.75 20.5 7.30964 20.5 8V9.5Z" fill="#191C1E"/>
<path d="M4 20.75H19.25V19.25H4V20.75Z" fill="#191C1E"/>
</svg>
