<svg width="24" height="24" viewBox="0 0 24 24" fill="none" xmlns="http://www.w3.org/2000/svg">
<path d="M16.375 17.4357L20.7197 21.7804L21.7803 20.7197L3.28033 2.21973L2.21967 3.28039L4.76654 5.82726C3.14996 6.83486 2 8.27503 2 10C2 11.6953 3.15281 13.1956 4.95374 14.2653C5.59207 14.6445 6.31771 14.9734 7.1133 15.24C8.56207 15.7255 10.2303 16 12 16C12.94 16 13.8514 15.9226 14.7165 15.7772L15.9902 17.0509C14.966 17.2905 13.877 17.439 12.75 17.4848V19.9837C14.0369 19.9277 15.2621 19.7283 16.375 19.409V17.4357Z" fill="#191C1E"/>
<path d="M7.74039 4.55845L17.9919 14.81C18.365 14.6429 18.7172 14.4608 19.0463 14.2653C20.8472 13.1956 22 11.6953 22 10C22 8.16238 20.6949 6.64796 18.9109 5.63543C17.1048 4.6103 14.6598 4 12 4C10.4842 4 9.03817 4.19821 7.74039 4.55845Z" fill="#191C1E"/>
<path d="M19.1173 15.9354L20.4374 17.2555C21.3915 16.359 22 15.2548 22 14V13.7679C21.3877 14.4694 20.6309 15.0688 19.8123 15.555C19.5883 15.688 19.3564 15.8149 19.1173 15.9354Z" fill="#191C1E"/>
<path d="M11.25 19.9837C9.96307 19.9277 8.7379 19.7283 7.625 19.409V16.9558C8.75961 17.2514 9.98066 17.4332 11.25 17.4848V19.9837Z" fill="#191C1E"/>
<path d="M6.125 16.4799C5.43203 16.2177 4.78224 15.9081 4.18773 15.555C3.36912 15.0688 2.61227 14.4694 2 13.7679V14C2 15.8376 3.30507 17.352 5.08906 18.3646C5.41446 18.5493 5.7606 18.7205 6.125 18.8771V16.4799Z" fill="#191C1E"/>
</svg>
