<svg width="24" height="24" viewBox="0 0 24 24" fill="none" xmlns="http://www.w3.org/2000/svg">
<path d="M22 10C22 8.16238 20.6949 6.64796 18.9109 5.63543C17.1048 4.6103 14.6598 4 12 4C9.34018 4 6.89523 4.6103 5.08906 5.63542C3.30507 6.64796 2 8.16238 2 10C2 11.6953 3.15281 13.1956 4.95374 14.2653C5.59207 14.6445 6.31771 14.9734 7.1133 15.24C8.56207 15.7255 10.2303 16 12 16C13.7697 16 15.4379 15.7255 16.8867 15.24C17.6823 14.9734 18.4079 14.6445 19.0463 14.2653C20.8472 13.1956 22 11.6953 22 10Z" fill="#191C1E"/>
<path d="M22 13.7679C21.3877 14.4694 20.6309 15.0688 19.8123 15.555C19.2178 15.9081 18.568 16.2177 17.875 16.4799V18.8771C18.2394 18.7205 18.5855 18.5493 18.9109 18.3646C20.6949 17.352 22 15.8376 22 14V13.7679Z" fill="#191C1E"/>
<path d="M12.75 17.4848C14.0193 17.4332 15.2404 17.2514 16.375 16.9558V19.409C15.2621 19.7283 14.0369 19.9277 12.75 19.9837V17.4848Z" fill="#191C1E"/>
<path d="M7.625 19.409C8.7379 19.7283 9.96307 19.9277 11.25 19.9837V17.4848C9.98066 17.4332 8.75961 17.2514 7.625 16.9558V19.409Z" fill="#191C1E"/>
<path d="M4.18773 15.555C4.78223 15.9081 5.43203 16.2177 6.125 16.4799V18.8771C5.7606 18.7205 5.41446 18.5493 5.08906 18.3646C3.30507 17.352 2 15.8376 2 14V13.7679C2.61227 14.4694 3.36912 15.0688 4.18773 15.555Z" fill="#191C1E"/>
</svg>
