<svg width="24" height="24" viewBox="0 0 24 24" fill="none" xmlns="http://www.w3.org/2000/svg">
<path d="M10.0082 1.99185C8.17056 1.99185 6.65614 3.29693 5.6436 5.08091C4.61848 6.88708 4.00818 9.33203 4.00818 11.9919C4.00818 14.6517 4.61848 17.0966 5.6436 18.9028C6.65614 20.6868 8.17056 21.9919 10.0082 21.9919C11.7035 21.9919 13.2038 20.839 14.2735 19.0381C14.6526 18.3998 14.9816 17.6741 15.2482 16.8785C15.7337 15.4298 16.0082 13.7615 16.0082 11.9919C16.0082 10.2222 15.7337 8.55392 15.2482 7.10515C14.9816 6.30957 14.6526 5.58392 14.2735 4.94559C13.2038 3.14466 11.7035 1.99185 10.0082 1.99185Z" fill="#191C1E"/>
<path d="M13.776 1.99185C14.4776 2.60412 15.0769 3.36097 15.5632 4.17958C15.9163 4.77409 16.2259 5.42388 16.4881 6.11685H18.8853C18.7287 5.75246 18.5574 5.40632 18.3728 5.08091C17.3602 3.29692 15.8458 1.99185 14.0082 1.99185L13.776 1.99185Z" fill="#191C1E"/>
<path d="M19.4172 7.61685H16.964C17.2596 8.75146 17.4414 9.97251 17.493 11.2419H19.9919C19.9359 9.95493 19.7365 8.72976 19.4172 7.61685Z" fill="#191C1E"/>
<path d="M19.9919 12.7419H17.493C17.4414 14.0112 17.2596 15.2322 16.964 16.3669H19.4172C19.7365 15.2539 19.9359 14.0288 19.9919 12.7419Z" fill="#191C1E"/>
<path d="M18.8853 17.8669H16.4881C16.2259 18.5598 15.9163 19.2096 15.5632 19.8041C15.0769 20.6227 14.4776 21.3796 13.776 21.9919H14.0082C15.8458 21.9919 17.3602 20.6868 18.3728 18.9028C18.5574 18.5774 18.7287 18.2312 18.8853 17.8669Z" fill="#191C1E"/>
</svg>
