<svg width="24" height="24" viewBox="0 0 24 24" fill="none" xmlns="http://www.w3.org/2000/svg">
<path fill-rule="evenodd" clip-rule="evenodd" d="M14.3046 4.17913C14.6657 4.46365 15.0417 4.91404 15.0417 5.53125V7.69271C13.4415 7.69271 11.9031 7.90572 10.69 8.31009C10.0946 8.50856 9.45707 8.79247 8.92394 9.21263C8.64745 9.43053 8.30381 9.76498 8.04989 10.2188C7.03277 10.2103 5.67725 9.93724 4.57326 9.52523C4.01251 9.31596 3.55345 9.08425 3.24763 8.85892C3.05316 8.71564 2.97163 8.6139 2.9375 8.5596V5.53125C2.9375 4.91404 3.31355 4.46365 3.67459 4.17913C4.04538 3.88691 4.52833 3.66157 5.04806 3.48833C6.09655 3.13883 7.49002 2.9375 8.98958 2.9375C10.4891 2.9375 11.8827 3.13883 12.9311 3.48833C13.4508 3.66157 13.9338 3.88691 14.3046 4.17913ZM4.75256 5.53125C4.90821 5.65162 5.1827 5.79635 5.59487 5.93374C6.42389 6.21008 7.62416 6.39583 8.98958 6.39583C10.355 6.39583 11.5552 6.21008 12.3843 5.93374C12.7964 5.79635 13.0709 5.65162 13.2266 5.53125C13.0709 5.41088 12.7964 5.26615 12.3843 5.12876C11.5552 4.85242 10.355 4.66667 8.98958 4.66667C7.62416 4.66667 6.42389 4.85242 5.59487 5.12876C5.1827 5.26615 4.90821 5.41088 4.75256 5.53125Z" fill="#191C1E"/>
<path fill-rule="evenodd" clip-rule="evenodd" d="M20.627 14.7381C20.842 14.5669 20.9509 14.4152 20.9992 14.2838V11.5104C20.9992 10.8931 20.6232 10.4428 20.2621 10.1583C19.8913 9.86603 19.4083 9.6407 18.8886 9.46745C17.8402 9.11795 16.4466 8.91663 14.9471 8.91663C13.4476 8.91663 12.054 9.11795 11.0055 9.46745C10.4858 9.6407 10.0029 9.86603 9.6321 10.1583C9.27105 10.4428 8.895 10.8931 8.895 11.5104V14.251C8.93668 14.3884 9.04463 14.5502 9.27643 14.7351C9.59772 14.9914 10.0879 15.2316 10.7125 15.4356C11.9561 15.8415 13.5663 16.0506 14.9468 16.0506C16.3279 16.0506 17.9411 15.8433 19.1874 15.4383C19.8136 15.2347 20.3049 14.9947 20.627 14.7381ZM11.5524 11.9128C11.1402 11.7754 10.8657 11.6307 10.7101 11.5104C10.8657 11.39 11.1402 11.2453 11.5524 11.1079C12.3814 10.8316 13.5817 10.6458 14.9471 10.6458C16.3125 10.6458 17.5127 10.8316 18.3418 11.1079C18.7539 11.2453 19.0284 11.39 19.1841 11.5104C19.0284 11.6307 18.7539 11.7754 18.3418 11.9128C17.5127 12.1892 16.3125 12.375 14.9471 12.375C13.5817 12.375 12.3814 12.1892 11.5524 11.9128Z" fill="#191C1E"/>
<path d="M20.9992 16.0333C20.5826 16.2833 20.0972 16.4869 19.5883 16.6523C18.1842 17.1086 16.4307 17.3281 14.9468 17.3281C13.4623 17.3281 11.7114 17.1065 10.3101 16.6491C9.79918 16.4823 9.31214 16.277 8.895 16.025V18.4077C8.895 19.025 9.27105 19.4753 9.6321 19.7599C10.0029 20.0521 10.4858 20.2774 11.0055 20.4507C12.054 20.8001 13.4476 21.0015 14.9471 21.0015C16.4466 21.0015 17.8402 20.8001 18.8886 20.4507C19.4083 20.2774 19.8913 20.0521 20.2621 19.7599C20.6232 19.4753 20.9992 19.025 20.9992 18.4077V16.0333Z" fill="#191C1E"/>
<path d="M3.17995 12.9503C3.06138 12.8701 2.98571 12.8041 2.9375 12.7541V10.25C3.29207 10.4523 3.69721 10.6335 4.11981 10.7913C5.22342 11.2032 6.56285 11.4968 7.69377 11.5559C7.69306 11.5819 7.69271 11.608 7.69271 11.6343V14.1586C6.71633 14.1063 5.52214 13.8861 4.53002 13.56C3.95745 13.3717 3.49022 13.1604 3.17995 12.9503Z" fill="#191C1E"/>
<path d="M3.67459 17.2513C3.31355 16.9668 2.9375 16.5164 2.9375 15.8992V14.25C3.29584 14.4337 3.70275 14.5951 4.12499 14.7339C5.23731 15.0996 6.5754 15.3466 7.69271 15.3989V18.4415C6.69571 18.3608 5.78635 18.1882 5.04806 17.9421C4.52833 17.7689 4.04538 17.5435 3.67459 17.2513Z" fill="#191C1E"/>
</svg>
