<svg width="24" height="24" viewBox="0 0 24 24" fill="none" xmlns="http://www.w3.org/2000/svg">
<path fill-rule="evenodd" clip-rule="evenodd" d="M3 15.25C3 14.8358 3.33579 14.5 3.75 14.5H8.75C9.16421 14.5 9.5 14.8358 9.5 15.25V20.25C9.5 20.6642 9.16421 21 8.75 21H3.75C3.33579 21 3 20.6642 3 20.25V15.25Z" fill="#191C1E"/>
<path fill-rule="evenodd" clip-rule="evenodd" d="M14.5 11.75C14.5 11.3358 14.8358 11 15.25 11H20.25C20.6642 11 21 11.3358 21 11.75V16.75C21 17.1642 20.6642 17.5 20.25 17.5H15.25C14.8358 17.5 14.5 17.1642 14.5 16.75V11.75Z" fill="#191C1E"/>
<path fill-rule="evenodd" clip-rule="evenodd" d="M14.5 3.75C14.5 3.33579 14.8358 3 15.25 3H20.25C20.6642 3 21 3.33579 21 3.75V8.75C21 9.16421 20.6642 9.5 20.25 9.5H15.25C14.8358 9.5 14.5 9.16421 14.5 8.75V3.75Z" fill="#191C1E"/>
<path fill-rule="evenodd" clip-rule="evenodd" d="M6.5 3.75C6.5 3.33579 6.83579 3 7.25 3H12.25C12.6642 3 13 3.33579 13 3.75V8.75C13 9.16421 12.6642 9.5 12.25 9.5H7.25C6.83579 9.5 6.5 9.16421 6.5 8.75V3.75Z" fill="#191C1E"/>
</svg>
