<svg width="24" height="24" viewBox="0 0 24 24" fill="none" xmlns="http://www.w3.org/2000/svg">
<path fill-rule="evenodd" clip-rule="evenodd" d="M20.9489 4.02221C21.0569 3.74496 20.9907 3.43009 20.7804 3.21969C20.57 3.0093 20.2551 2.94317 19.9778 3.05116L8.10283 7.67616C7.90714 7.75237 7.75237 7.90714 7.67616 8.10283L3.05116 19.9778C2.94317 20.2551 3.0093 20.57 3.21969 20.7804C3.43009 20.9907 3.74496 21.0569 4.02221 20.9489L15.8972 16.3239C16.0929 16.2477 16.2477 16.0929 16.3239 15.8972L20.9489 4.02221ZM12 13.5C12.8284 13.5 13.5 12.8284 13.5 12C13.5 11.1716 12.8284 10.5 12 10.5C11.1716 10.5 10.5 11.1716 10.5 12C10.5 12.8284 11.1716 13.5 12 13.5Z" fill="#191C1E"/>
</svg>
