<svg width="24" height="24" viewBox="0 0 24 24" fill="none" xmlns="http://www.w3.org/2000/svg">
<path fill-rule="evenodd" clip-rule="evenodd" d="M11.2929 3.04289C11.6834 2.65237 12.3166 2.65237 12.7071 3.04289L15.7071 6.04289L14.2929 7.45711L13 6.16421V12.9281L18.9515 16.4289L18.5299 14.7425L20.4702 14.2575L21.4701 18.2575C21.6041 18.7933 21.2783 19.3362 20.7425 19.4701L16.7426 20.4701L16.2575 18.5299L17.8862 18.1227L12 14.6602L6.1138 18.1227L7.74258 18.5298L7.25752 20.4701L3.25747 19.4701C3.00017 19.4058 2.77896 19.2419 2.64251 19.0145C2.50606 18.7871 2.46554 18.5148 2.52986 18.2575L3.52989 14.2574L5.47017 14.7425L5.04857 16.4289L11 12.9281V6.16421L9.70711 7.45711L8.2929 6.04289L11.2929 3.04289Z" fill="#191C1E"/>
</svg>
