<svg width="24" height="24" viewBox="0 0 24 24" fill="none" xmlns="http://www.w3.org/2000/svg">
<path fill-rule="evenodd" clip-rule="evenodd" d="M2.75 4C2.33579 4 2 4.33579 2 4.75V19.25C2 19.6642 2.33579 20 2.75 20H21.25C21.6642 20 22 19.6642 22 19.25V4.75C22 4.33579 21.6642 4 21.25 4H2.75ZM8.36229 9.00621C8.56139 8.98548 8.76328 9.01672 8.95105 9.09894C9.13911 9.18128 9.30961 9.31338 9.44485 9.48758C9.58025 9.66198 9.6753 9.87231 9.71828 10.1007C9.76127 10.3292 9.75019 10.5655 9.68646 10.7876C9.62275 11.0096 9.50932 11.2076 9.35983 11.3656L5.7048 15.235C5.49916 15.4527 5.44274 15.7718 5.56127 16.0469C5.67979 16.3219 5.95055 16.5 6.25002 16.5H11.075V15H7.99016L10.4499 12.396C10.7681 12.0595 10.9999 11.6486 11.1283 11.2013C11.2566 10.7539 11.2785 10.281 11.1924 9.82335C11.1063 9.36564 10.9141 8.93409 10.6297 8.56771C10.3451 8.20113 9.97605 7.91025 9.55269 7.72488C9.12904 7.53939 8.66649 7.46643 8.20696 7.51428C7.74754 7.56211 7.30946 7.72875 6.93127 7.99587C6.55337 8.26279 6.24776 8.62106 6.038 9.03591C5.8283 9.45061 5.7197 9.91109 5.7197 10.377H7.2197C7.2197 10.1433 7.27432 9.91504 7.3766 9.71277C7.4788 9.51065 7.6243 9.34281 7.79665 9.22107C7.96873 9.09952 8.16311 9.02695 8.36229 9.00621ZM15.3162 9.0073C15.5697 8.98286 15.8251 9.02007 16.0594 9.11509C16.2937 9.21008 16.4987 9.35949 16.6573 9.54861C16.8157 9.73764 16.9231 9.96066 16.9712 10.1975C16.9904 10.2923 17 10.3883 17 10.484C17 10.5425 16.9947 10.6009 16.984 10.6584C16.9572 10.8025 16.8983 10.9333 16.8165 11.0401C16.7348 11.1467 16.6339 11.2248 16.5259 11.2727C16.4396 11.311 16.3493 11.3298 16.2597 11.3298H15.1419V12.8298H16.2597C16.3604 12.8298 16.4599 12.8489 16.552 12.8857C16.6671 12.9316 16.7657 13.003 16.8407 13.0911C16.9156 13.1791 16.9649 13.2811 16.9869 13.3874C16.9957 13.43 17 13.4731 17 13.516C17 13.6117 16.9904 13.7077 16.9712 13.8025C16.9231 14.0393 16.8157 14.2624 16.6573 14.4514C16.4987 14.6405 16.2937 14.7899 16.0594 14.8849C15.8251 14.9799 15.5697 15.0171 15.3162 14.9927C15.0628 14.9683 14.8205 14.8831 14.6107 14.7458C14.4009 14.6087 14.2307 14.4241 14.1136 14.2097C13.9966 13.9953 13.9359 13.7571 13.9359 13.516H12.4359C12.4359 14.0096 12.5603 14.4948 12.7971 14.9285C13.0338 15.3621 13.3752 15.7301 13.7895 16.0011C14.2038 16.2721 14.6788 16.4382 15.1723 16.4858C15.6658 16.5334 16.164 16.4611 16.6231 16.275C17.0823 16.0888 17.4892 15.7939 17.8068 15.415C18.1245 15.0361 18.3428 14.5849 18.4411 14.1011C18.4804 13.9078 18.5 13.7118 18.5 13.516C18.5 13.3714 18.4853 13.2267 18.4559 13.0842C18.3822 12.7272 18.2188 12.3958 17.9827 12.1186C17.9639 12.0965 17.9447 12.0748 17.9251 12.0535C17.9533 12.0207 17.9806 11.9871 18.007 11.9526C18.2361 11.6537 18.3899 11.3029 18.4588 10.9323C18.4863 10.784 18.5 10.6339 18.5 10.484C18.5 10.2882 18.4804 10.0922 18.4411 9.89886C18.3428 9.41508 18.1245 8.96392 17.8068 8.58495C17.4891 8.20608 17.0823 7.91122 16.6231 7.72503C16.164 7.53886 15.6658 7.46664 15.1723 7.51422C14.6788 7.5618 14.2038 7.72787 13.7895 7.99886C13.3752 8.2699 13.0338 8.63791 12.7971 9.07151C12.5603 9.5052 12.4359 9.99043 12.4359 10.484H13.9359C13.9359 10.2429 13.9966 10.0047 14.1136 9.79034C14.2307 9.57591 14.4009 9.39134 14.6107 9.25416C14.8205 9.11692 15.0628 9.03174 15.3162 9.0073Z" fill="#191C1E"/>
</svg>
