<svg width="24" height="24" viewBox="0 0 24 24" fill="none" xmlns="http://www.w3.org/2000/svg">
<path fill-rule="evenodd" clip-rule="evenodd" d="M2 3.75C2 3.33579 2.33579 3 2.75 3H6.5C6.91421 3 7.25 3.33579 7.25 3.75V4H16.75C16.9337 4 17.111 4.06741 17.2483 4.18944L21.7483 8.18944C21.981 8.39632 22.0617 8.72548 21.951 9.01654C21.8404 9.30759 21.5614 9.5 21.25 9.5H20.125V12.1087C21.2093 12.4314 22 13.4359 22 14.625C22 15.3497 21.7054 16.0069 21.2312 16.4812L20.1705 15.4205C20.3749 15.2161 20.5 14.9359 20.5 14.625C20.5 14.0037 19.9963 13.5 19.375 13.5C18.7537 13.5 18.25 14.0037 18.25 14.625C18.25 14.9359 18.3751 15.2161 18.5795 15.4205L17.5188 16.4812C17.0446 16.0069 16.75 15.3497 16.75 14.625C16.75 13.4359 17.5407 12.4314 18.625 12.1087V9.5H14.25V19.5H15.75V21H7.25V19.5H8.75V9.5H7.25V9.75C7.25 10.1642 6.91421 10.5 6.5 10.5H2.75C2.33579 10.5 2 10.1642 2 9.75V3.75ZM10.9393 8L8.43934 5.5H7.25V8H10.9393ZM10.5607 5.5L12.75 7.68934L14.9393 5.5H10.5607ZM16.7803 5.78038L19.2774 8H14.5607L16.7803 5.78038Z" fill="#191C1E"/>
</svg>
