<svg width="24" height="24" viewBox="0 0 24 24" fill="none" xmlns="http://www.w3.org/2000/svg">
<path d="M2.75 4C2.33579 4 2 4.33579 2 4.75V8.5H22V4.75C22 4.33579 21.6642 4 21.25 4H2.75Z" fill="#191C1E"/>
<path fill-rule="evenodd" clip-rule="evenodd" d="M22 12.9502C21.126 12.202 19.9908 11.75 18.75 11.75C16.4233 11.75 14.4678 13.3392 13.9098 15.4913H9.47499V16.9913H13.7557C13.8102 18.1377 14.2507 19.183 14.9502 20H2.75C2.33579 20 2 19.6642 2 19.25V10H22V12.9502ZM5.08124 16.9913H8.08749V15.4913H5.08124V16.9913Z" fill="#191C1E"/>
<path d="M21.7803 14.7804L19.8107 16.7501L21.7803 18.7197L20.7197 19.7804L18.75 17.8107L16.7803 19.7804L15.7197 18.7197L17.6893 16.7501L15.7197 14.7804L16.7803 13.7197L18.75 15.6894L20.7197 13.7197L21.7803 14.7804Z" fill="#191C1E"/>
</svg>
