<svg width="24" height="24" viewBox="0 0 24 24" fill="none" xmlns="http://www.w3.org/2000/svg">
<path fill-rule="evenodd" clip-rule="evenodd" d="M13.791 15.2493L13.1574 14.1519L14.8328 11.25L13.1008 10.25L12.0027 12.1519L6.57452 2.75L4.84247 3.75L10.848 14.1519L10.2144 15.2493C9.87507 14.6604 9.3809 14.1502 8.74994 13.7859C6.83677 12.6813 4.3904 13.3368 3.28583 15.25C2.18126 17.1632 2.83676 19.6095 4.74994 20.7141C6.66311 21.8187 9.10947 21.1632 10.214 19.25L12.0027 16.1519L13.7914 19.25C14.896 21.1632 17.3423 21.8187 19.2555 20.7141C21.1687 19.6095 21.8242 17.1632 20.7196 15.25C19.615 13.3368 17.1687 12.6813 15.2555 13.7859C14.6245 14.1502 14.1304 14.6604 13.791 15.2493ZM5.01788 16.25C5.57017 15.2934 6.79335 14.9657 7.74994 15.518C8.70652 16.0702 9.03427 17.2934 8.48199 18.25C7.9297 19.2066 6.70652 19.5343 5.74994 18.9821C4.79335 18.4298 4.4656 17.2066 5.01788 16.25ZM16.2555 15.518C17.2121 14.9657 18.4353 15.2934 18.9876 16.25C19.5398 17.2066 19.2121 18.4298 18.2555 18.9821C17.2989 19.5343 16.0757 19.2066 15.5235 18.25C14.9712 17.2934 15.2989 16.0702 16.2555 15.518Z" fill="#191C1E"/>
<path d="M17.4309 6.75L19.163 3.75L17.4309 2.75L15.6989 5.75L17.4309 6.75Z" fill="#191C1E"/>
<path d="M2.99994 9.5H5.99994V7.5H2.99994V9.5Z" fill="#191C1E"/>
<path d="M11.4999 9.5H20.9999V7.5H11.4999V9.5Z" fill="#191C1E"/>
</svg>
