<svg width="24" height="24" viewBox="0 0 24 24" fill="none" xmlns="http://www.w3.org/2000/svg">
<path d="M15.5 14.4393L9.56066 8.5H11.1893L15.5 12.8107V14.4393Z" fill="#191C1E"/>
<path d="M15.5 10.6893L13.3107 8.5H15.5V10.6893Z" fill="#191C1E"/>
<path d="M14.4393 15.5L8.5 9.56066V11.1893L12.8107 15.5H14.4393Z" fill="#191C1E"/>
<path d="M8.5 13.3107L10.6893 15.5H8.5V13.3107Z" fill="#191C1E"/>
<path fill-rule="evenodd" clip-rule="evenodd" d="M3 3.75C3 3.33579 3.33579 3 3.75 3H20.25C20.6642 3 21 3.33579 21 3.75V20.25C21 20.6642 20.6642 21 20.25 21H3.75C3.33579 21 3 20.6642 3 20.25V3.75ZM7 7.75C7 7.33579 7.33579 7 7.75 7H16.25C16.6642 7 17 7.33579 17 7.75V16.25C17 16.6642 16.6642 17 16.25 17H7.75C7.33579 17 7 16.6642 7 16.25V7.75Z" fill="#191C1E"/>
</svg>
