<svg width="24" height="24" viewBox="0 0 24 24" fill="none" xmlns="http://www.w3.org/2000/svg">
<path d="M11.7341 4.08825C11.9937 3.88294 12.0881 3.53175 11.9663 3.224C11.8445 2.91626 11.5354 2.72473 11.2056 2.75266C6.45013 3.15553 2.71667 7.14201 2.71667 12.0013C2.71667 17.1276 6.8724 21.2834 11.9987 21.2834C16.858 21.2834 20.8445 17.5499 21.2474 12.7944C21.2753 12.4647 21.0838 12.1555 20.776 12.0338C20.4683 11.912 20.1171 12.0063 19.9118 12.2659C18.8442 13.6157 17.1944 14.4796 15.3424 14.4796C12.127 14.4796 9.5204 11.873 9.5204 8.65763C9.5204 6.80559 10.3843 5.15578 11.7341 4.08825Z" fill="#191C1E"/>
</svg>
