<svg width="24" height="24" viewBox="0 0 24 24" fill="none" xmlns="http://www.w3.org/2000/svg">
<path fill-rule="evenodd" clip-rule="evenodd" d="M6.50178 4.629C5.08855 5.33562 4.5 6.17303 4.5 6.875C4.5 7.57697 5.08855 8.41438 6.50178 9.121C7.87015 9.80518 9.81301 10.25 12 10.25C14.187 10.25 16.1299 9.80518 17.4982 9.121C18.9114 8.41438 19.5 7.57697 19.5 6.875C19.5 6.17303 18.9114 5.33562 17.4982 4.629C16.1299 3.94482 14.187 3.5 12 3.5C9.81301 3.5 7.87015 3.94482 6.50178 4.629ZM21 6.875C21 5.29879 19.7417 4.07371 18.169 3.28736C16.5515 2.47859 14.3694 2 12 2C9.63064 2 7.4485 2.47859 5.83096 3.28736C4.25827 4.07371 3 5.29879 3 6.875V17.125C3 18.7012 4.25827 19.9263 5.83096 20.7126C7.4485 21.5214 9.63064 22 12 22C14.3694 22 16.5515 21.5214 18.169 20.7126C19.7417 19.9263 21 18.7012 21 17.125V6.875ZM19.5 13.1179C19.1041 13.4391 18.6513 13.7215 18.169 13.9626C16.5515 14.7714 14.3694 15.25 12 15.25C9.63064 15.25 7.4485 14.7714 5.83096 13.9626C5.34866 13.7215 4.89594 13.4391 4.5 13.1179V13.875C4.5 14.577 5.08855 15.4144 6.50178 16.121C7.87015 16.8052 9.81301 17.25 12 17.25C14.187 17.25 16.1299 16.8052 17.4982 16.121C18.9114 15.4144 19.5 14.577 19.5 13.875V13.1179Z" fill="#191C1E"/>
</svg>
