<svg width="24" height="25" viewBox="0 0 24 25" fill="none" xmlns="http://www.w3.org/2000/svg">
<path d="M2.75 10.25C2.33579 10.25 2 9.91421 2 9.5V5C2 4.58579 2.33579 4.25 2.75 4.25H9.5C9.91421 4.25 10.25 4.58579 10.25 5V9.5C10.25 9.91421 9.91421 10.25 9.5 10.25H2.75Z" fill="#191C1E"/>
<path d="M15.5 4.26265L12.25 4.26265V5.76265H14.9551L16.4556 10.3805C15.7399 10.6395 15.0715 11.0263 14.4847 11.5274C13.4299 12.4283 12.6987 13.6478 12.4 15H10.25V11.75C10.25 11.3358 9.91421 11 9.5 11H5.75C3.67893 11 2 12.6789 2 14.75V15.75C2 16.1642 2.33579 16.5 2.75 16.5H3.50227C3.56803 18.3061 5.05289 19.75 6.875 19.75C8.69711 19.75 10.182 18.3061 10.2477 16.5H13.0348C13.4167 16.5 13.7377 16.2129 13.7801 15.8333C13.7954 15.6965 13.8166 15.5599 13.8436 15.4239C14.0573 14.35 14.6262 13.3792 15.4589 12.668C16.2916 11.9569 17.3394 11.5468 18.4336 11.5038C19.5277 11.4608 20.6045 11.7874 21.4904 12.431L22.3721 11.2175C21.2136 10.3758 19.8055 9.9487 18.3747 10.0049C18.2229 10.0109 18.0719 10.0222 17.9218 10.0389L17.0156 7.25001L18.75 7.25001V5.75001L16.5282 5.75001L16.2133 4.78088C16.1129 4.47187 15.825 4.26265 15.5 4.26265Z" fill="#191C1E"/>
<path d="M15.25 16.375C15.25 14.511 16.761 13 18.625 13C20.489 13 22 14.511 22 16.375C22 18.239 20.489 19.75 18.625 19.75C16.761 19.75 15.25 18.239 15.25 16.375Z" fill="#191C1E"/>
</svg>
