<svg width="24" height="24" viewBox="0 0 24 24" fill="none" xmlns="http://www.w3.org/2000/svg">
<path d="M8.95837 6.04167C8.95837 4.3618 10.3202 3 12 3C13.6799 3 15.0417 4.3618 15.0417 6.04167C15.0417 7.72153 13.6799 9.08333 12 9.08333C10.3202 9.08333 8.95837 7.72153 8.95837 6.04167Z" fill="#191C1E"/>
<path d="M3 13L21 13V11L3 11V13Z" fill="#191C1E"/>
<path d="M12 14.9166C10.3202 14.9166 8.95837 16.2784 8.95837 17.9583C8.95837 19.6381 10.3202 21 12 21C13.6799 21 15.0417 19.6381 15.0417 17.9583C15.0417 16.2784 13.6799 14.9166 12 14.9166Z" fill="#191C1E"/>
</svg>
