<svg width="24" height="24" viewBox="0 0 24 24" fill="none" xmlns="http://www.w3.org/2000/svg">
<path fill-rule="evenodd" clip-rule="evenodd" d="M4 2.75C4 2.33579 4.33062 2 4.73846 2H12.6154V8.75C12.6154 9.16421 12.946 9.5 13.3538 9.5H20V21.25C20 21.6642 19.6694 22 19.2615 22H4.73846C4.33062 22 4 21.6642 4 21.25V2.75ZM8.43077 13L15.5692 13V11.5L8.43077 11.5V13ZM15.5692 14.5L8.43077 14.5V16H15.5692V14.5ZM8.43077 19H15.5692V17.5H8.43077V19Z" fill="#191C1E"/>
<path d="M14.0923 2L20 8H14.0923V2Z" fill="#191C1E"/>
</svg>
