<svg width="24" height="24" viewBox="0 0 24 24" fill="none" xmlns="http://www.w3.org/2000/svg">
<path fill-rule="evenodd" clip-rule="evenodd" d="M4 2.75C4 2.33579 4.33062 2 4.73846 2H12.6154V8.75C12.6154 9.16421 12.946 9.5 13.3538 9.5H20V21.25C20 21.6642 19.6694 22 19.2615 22H4.73846C4.33062 22 4 21.6642 4 21.25V2.75ZM11.4697 12.2197C11.7626 11.9268 12.2374 11.9268 12.5303 12.2197L15.7803 15.4697L14.7197 16.5303L12.75 14.5607V19.75H11.25L11.25 14.5607L9.28033 16.5303L8.21967 15.4697L11.4697 12.2197Z" fill="#191C1E"/>
<path d="M14.0923 2L20 8H14.0923V2Z" fill="#191C1E"/>
</svg>
