<svg width="24" height="24" viewBox="0 0 24 24" fill="none" xmlns="http://www.w3.org/2000/svg">
<path fill-rule="evenodd" clip-rule="evenodd" d="M12 2C8.19246 2 4.88312 4.12823 3.19463 7.25646C2.43236 8.6687 2 10.285 2 12C2 13.7158 2.43277 15.3328 3.19572 16.7456C4.88454 19.8727 8.19328 22 12 22C15.8067 22 19.1155 19.8727 20.8043 16.7456C21.5672 15.3328 22 13.7158 22 12C22 10.285 21.5676 8.6687 20.8054 7.25646C19.1169 4.12823 15.8075 2 12 2ZM18.5 7.5C18.9122 7.5 19.2781 7.6989 19.5069 8.00907C20.1406 9.1983 20.5 10.5561 20.5 12C20.5 13.4445 20.1403 14.8028 19.5062 15.9923C19.2774 16.3016 18.9118 16.5 18.5 16.5C17.8096 16.5 17.25 15.9404 17.25 15.25V8.75C17.25 8.05964 17.8096 7.5 18.5 7.5ZM5.5 16.5C5.08817 16.5 4.72259 16.3016 4.49385 15.9923C3.85971 14.8028 3.5 13.4445 3.5 12C3.5 10.5561 3.85942 9.1983 4.49309 8.00907C4.72186 7.6989 5.08777 7.5 5.5 7.5C6.19036 7.5 6.75 8.05964 6.75 8.75V15.25C6.75 15.9404 6.19036 16.5 5.5 16.5Z" fill="#191C1E"/>
</svg>
