<svg width="24" height="24" viewBox="0 0 24 24" fill="none" xmlns="http://www.w3.org/2000/svg">
<path d="M12.75 7.13898C12.75 7.38323 12.9275 7.58877 13.1634 7.65172C13.5491 7.75459 13.9144 7.90743 14.2519 8.10298C14.4632 8.22537 14.7339 8.20544 14.9066 8.03278L18.14 4.79939C18.3456 4.59374 18.3337 4.25568 18.1034 4.07802C16.7349 3.0221 15.0851 2.31288 13.2857 2.08191C12.9974 2.0449 12.75 2.27546 12.75 2.56617V7.13898Z" fill="#191C1E"/>
<path d="M11.25 2.56617C11.25 2.27546 11.0024 2.04492 10.7141 2.08193C5.7986 2.71295 2 6.91288 2 12C2 17.5229 6.47715 22 12 22C14.2979 22 16.4147 21.225 18.1034 19.922C18.3337 19.7444 18.3456 19.4063 18.14 19.2007L14.9066 15.9673C14.7339 15.7946 14.4632 15.7747 14.2519 15.8971C13.5896 16.2808 12.8207 16.5 12 16.5C9.51472 16.5 7.5 14.4853 7.5 12C7.5 9.91707 8.91522 8.16465 10.8366 7.65187C11.0725 7.58889 11.25 7.38336 11.25 7.13914V2.56617Z" fill="#191C1E"/>
<path d="M15.9672 9.09344C15.7946 9.2661 15.7747 9.53682 15.8971 9.74811C16.2807 10.4104 16.5 11.1793 16.5 12C16.5 12.8207 16.2807 13.5896 15.8971 14.2519C15.7747 14.4632 15.7946 14.7339 15.9672 14.9066L19.2006 18.14C19.4063 18.3456 19.7443 18.3337 19.922 18.1034C21.2249 16.4148 22 14.2979 22 12C22 9.70215 21.2249 7.58529 19.922 5.89661C19.7443 5.66636 19.4063 5.6544 19.2006 5.86005L15.9672 9.09344Z" fill="#191C1E"/>
</svg>
