<svg width="24" height="24" viewBox="0 0 24 24" fill="none" xmlns="http://www.w3.org/2000/svg">
<path d="M13.7707 3.21967C14.0636 2.92678 14.5385 2.92678 14.8314 3.21967L19.2803 7.66862C19.421 7.80927 19.5 8.00003 19.5 8.19895C19.5 8.39786 19.421 8.58863 19.2803 8.72928L11.3982 16.6114C11.2949 16.7147 11.1637 16.7856 11.0206 16.8154L5.40278 17.9843C5.15526 18.0358 4.89844 17.9591 4.71967 17.7803C4.54089 17.6016 4.46422 17.3447 4.51572 17.0972L5.68465 11.4793C5.71441 11.3363 5.78529 11.2051 5.88859 11.1018L13.7707 3.21967Z" fill="#191C1E"/>
<path d="M21 19.5H3V21H21V19.5Z" fill="#191C1E"/>
</svg>
