<svg width="24" height="24" viewBox="0 0 24 24" fill="none" xmlns="http://www.w3.org/2000/svg">
<path d="M20.7803 6.59757L17.4024 3.21967C17.2618 3.07902 17.071 3 16.8721 3C16.6732 3 16.4824 3.07902 16.3418 3.21967L10.3572 9.20425C10.2539 9.30755 10.183 9.43877 10.1532 9.5818L9.26573 13.8472C9.21422 14.0947 9.2909 14.3516 9.46967 14.5303C9.64844 14.7091 9.90526 14.7858 10.1528 14.7343L14.4182 13.8468C14.5612 13.817 14.6924 13.7461 14.7958 13.6428L20.7803 7.65823C21.0732 7.36534 21.0732 6.89047 20.7803 6.59757Z" fill="#191C1E"/>
<path d="M5.25 13.5C4.00736 13.5 3 14.5074 3 15.75C3 16.9927 4.00736 18 5.25 18H11.125C11.5392 18 11.875 18.3358 11.875 18.75C11.875 19.1642 11.5392 19.5 11.125 19.5H4V21H11.125C12.3676 21 13.375 19.9927 13.375 18.75C13.375 17.5074 12.3676 16.5 11.125 16.5H5.25C4.83579 16.5 4.5 16.1642 4.5 15.75C4.5 15.3358 4.83579 15 5.25 15H7.75V13.5H5.25Z" fill="#191C1E"/>
</svg>
