<svg width="24" height="24" viewBox="0 0 24 24" fill="none" xmlns="http://www.w3.org/2000/svg">
<path d="M7.25 14.4393L5.96967 15.7197C5.82902 15.8603 5.75 16.0511 5.75 16.25V18.75H7.25V16.5607L8.31066 15.5H15.6893L16.75 16.5607V18.75H18.25V16.25C18.25 16.0511 18.171 15.8603 18.0303 15.7197L16.75 14.4393V11.9839L19.9758 10.9652C20.2879 10.8667 20.5 10.5772 20.5 10.25V8.25C20.5 7.83579 20.1642 7.5 19.75 7.5H4.25C3.83579 7.5 3.5 7.83579 3.5 8.25V10.25C3.5 10.5772 3.71213 10.8667 4.02415 10.9652L7.25 11.9839V14.4393Z" fill="#191C1E"/>
<path d="M2 6H6.75V4.5H2V6Z" fill="#191C1E"/>
<path d="M17.25 6H22V4.5H17.25V6Z" fill="#191C1E"/>
</svg>
