<svg width="24" height="24" viewBox="0 0 24 24" fill="none" xmlns="http://www.w3.org/2000/svg">
<path d="M20.5275 7.8475L19.9875 7.3075L20.2325 7.06C20.4575 6.845 20.6325 6.59 20.7575 6.305C20.88 6.0175 20.945 5.715 20.9475 5.405C20.95 5.0925 20.8925 4.7875 20.775 4.5C20.6575 4.2125 20.485 3.955 20.265 3.735C20.045 3.5125 19.7875 3.3425 19.5 3.225C19.21 3.105 18.9075 3.05 18.595 3.0525C18.2825 3.055 17.98 3.1175 17.695 3.2425C17.4075 3.365 17.1525 3.5425 16.9475 3.755L16.6925 4.0125L16.15 3.47C15.845 3.1675 15.4425 3 15.0125 3C14.5825 3 14.1775 3.1675 13.8725 3.47L12.0775 5.265C11.7725 5.57 11.605 5.975 11.605 6.405C11.605 6.835 11.7725 7.24 12.0775 7.545L12.545 8.01C12.165 8.3425 11.7325 8.7775 11.5475 9.175C10.855 10.655 10.655 10.855 9.175 11.5475C8.78 11.7325 8.3425 12.165 8.01 12.545L7.545 12.0775C7.24 11.7725 6.835 11.605 6.405 11.605C5.975 11.605 5.57 11.7725 5.2675 12.0775L3.4725 13.8725C3.1675 14.1775 3 14.5825 3 15.0125C3 15.4425 3.1725 15.85 3.47 16.15L4.0125 16.6925L3.7675 16.9375C3.5425 17.1525 3.365 17.4075 3.2425 17.695C3.12 17.98 3.055 18.2825 3.0525 18.595C3.0475 18.905 3.1075 19.21 3.225 19.4975C3.3425 19.785 3.5125 20.045 3.735 20.265C3.955 20.485 4.2125 20.6575 4.5 20.775C4.7875 20.8925 5.0925 20.9525 5.405 20.9475C5.715 20.945 6.0175 20.88 6.305 20.7575C6.59 20.6325 6.845 20.4575 7.05 20.2425L7.3075 19.985L7.8475 20.5275C8.1525 20.8325 8.5575 21 8.9875 21C9.4175 21 9.8225 20.8325 10.125 20.5275L11.9225 18.7325C12.225 18.4275 12.3925 18.0225 12.3925 17.5925C12.3925 17.1625 12.225 16.76 11.9225 16.455L11.455 15.9875C11.835 15.655 12.265 15.22 12.45 14.8225C13.145 13.3425 13.345 13.1425 14.8225 12.45C15.22 12.265 15.655 11.835 15.9875 11.455L16.455 11.92C16.76 12.225 17.1625 12.3925 17.595 12.3925C18.0275 12.3925 18.4275 12.225 18.7325 11.92L20.5275 10.125C20.8325 9.8225 21 9.4175 21 8.9875C21 8.5575 20.8325 8.1525 20.5275 7.8475ZM5.98 19.1925C5.9025 19.2725 5.8125 19.335 5.71 19.38C5.6075 19.4225 5.5 19.445 5.39 19.4475C5.2825 19.4525 5.17 19.4275 5.0675 19.385C4.965 19.3425 4.8725 19.2825 4.795 19.205C4.7175 19.125 4.655 19.0325 4.6125 18.93C4.5725 18.8275 4.55 18.72 4.5525 18.61C4.5525 18.4975 4.575 18.39 4.62 18.2875C4.6625 18.185 4.7275 18.095 4.8175 18.0075L5.0725 17.7525L6.2475 18.925L5.98 19.1925ZM18.02 4.805C18.095 4.725 18.1875 4.6625 18.2875 4.62C18.39 4.575 18.4975 4.5525 18.61 4.5525C18.715 4.555 18.8275 4.57 18.9325 4.6125C19.035 4.655 19.125 4.715 19.205 4.795C19.2825 4.8725 19.345 4.965 19.385 5.0675C19.4275 5.17 19.4475 5.2775 19.4475 5.39C19.4475 5.5025 19.4225 5.6075 19.38 5.71C19.335 5.8125 19.2725 5.9025 19.1825 5.99L18.925 6.245L17.7525 5.0725L18.02 4.805ZM14.1875 11.0925C12.395 11.93 11.9325 12.395 11.0925 14.1875C11.0225 14.3375 10.72 14.64 10.39 14.9225L9.075 13.6075C9.36 13.2775 9.66 12.9775 9.8125 12.9075C11.605 12.0675 12.0675 11.6025 12.9075 9.81C12.9775 9.66 13.28 9.3575 13.61 9.075L14.9225 10.39C14.64 10.72 14.335 11.0225 14.1875 11.0925Z" fill="#191C1E"/>
</svg>
