<svg width="24" height="24" viewBox="0 0 24 24" fill="none" xmlns="http://www.w3.org/2000/svg">
<path fill-rule="evenodd" clip-rule="evenodd" d="M12 3C7.02943 3 3 7.02944 3 12C3 14.215 3.80094 16.244 5.12773 17.8116L2.71967 20.2197L3.78033 21.2803L6.18839 18.8723C7.75596 20.1991 9.78501 21 12 21C16.9706 21 21 16.9706 21 12V4.75C21 3.7835 20.2165 3 19.25 3H12ZM14.0052 7.11832C14.0588 6.78289 13.8802 6.45332 13.57 6.315C13.2597 6.17668 12.8953 6.26415 12.6816 6.5282L8.66699 11.4891C8.51676 11.6748 8.46393 11.9209 8.5247 12.1518C8.58548 12.3828 8.75262 12.571 8.97477 12.6586L10.4416 13.2373L9.8892 16.6295C9.83454 16.9651 10.0126 17.2956 10.323 17.4345C10.6334 17.5735 10.9985 17.4862 11.2125 17.2218L15.227 12.2609C15.3724 12.0812 15.4269 11.8446 15.3746 11.6195C15.3223 11.3943 15.1692 11.2059 14.9596 11.1087L13.4775 10.4214L14.0052 7.11832Z" fill="#191C1E"/>
</svg>
