<svg width="24" height="24" viewBox="0 0 24 24" fill="none" xmlns="http://www.w3.org/2000/svg">
<path d="M15.3427 3.21967C15.0498 2.92678 14.575 2.92678 14.2821 3.21967L4.64837 12.8534C4.54506 12.9567 4.47418 13.0879 4.44442 13.2309L3.01574 20.0972C2.96424 20.3447 3.04091 20.6016 3.21968 20.7803C3.39846 20.9591 3.65527 21.0358 3.90279 20.9843L10.7691 19.5556C10.9121 19.5258 11.0433 19.4549 11.1466 19.3516L11.5731 18.9252C10.8966 17.954 10.5 16.7733 10.5 15.5C10.5 12.1863 13.1863 9.5 16.5 9.5C17.7733 9.5 18.954 9.89663 19.9252 10.5731L20.7803 9.71793C20.921 9.57728 21 9.38651 21 9.1876C21 8.98869 20.921 8.79792 20.7803 8.65727L15.3427 3.21967Z" fill="#191C1E"/>
<path d="M16.0303 18.5303L20.7803 13.7803L19.7197 12.7197L15.5 16.9393L13.5303 14.9697L12.4697 16.0303L14.9697 18.5303C15.2626 18.8232 15.7374 18.8232 16.0303 18.5303Z" fill="#191C1E"/>
</svg>
