<svg width="24" height="24" viewBox="0 0 24 24" fill="none" xmlns="http://www.w3.org/2000/svg">
<path d="M20.8475 6.92866C21.0508 7.13206 21.0508 7.46183 20.8475 7.66523L14.1574 14.3553C14.0856 14.427 13.9945 14.4763 13.8952 14.4969L9.12694 15.4891C8.95505 15.5248 8.77671 15.4716 8.65256 15.3474C8.52841 15.2233 8.47516 15.045 8.51093 14.8731L9.50307 10.1048C9.52374 10.0055 9.57296 9.91436 9.6447 9.84262L16.3348 3.15255C16.4324 3.05487 16.5649 3 16.7031 3C16.8412 3 16.9737 3.05487 17.0713 3.15255L20.8475 6.92866Z" fill="#191C1E"/>
<path d="M3 18.5C3 19.8807 4.11929 21 5.5 21C6.61941 21 7.56698 20.2643 7.88555 19.25H19.5V17.75L7.88555 17.75C7.64135 16.9725 7.02752 16.3587 6.25 16.1145L6.25 4.5H4.75L4.75 16.1144C3.73572 16.433 3 17.3806 3 18.5Z" fill="#191C1E"/>
</svg>
