<svg width="24" height="24" viewBox="0 0 24 24" fill="none" xmlns="http://www.w3.org/2000/svg">
<path fill-rule="evenodd" clip-rule="evenodd" d="M2.21967 3.28033L8.22053 9.28119L4.64835 12.8534C4.54505 12.9567 4.47416 13.0879 4.44441 13.2309L3.01572 20.0972C2.96422 20.3447 3.04089 20.6016 3.21967 20.7803C3.39844 20.9591 3.65525 21.0358 3.90278 20.9843L10.7691 19.5556C10.9121 19.5258 11.0433 19.4549 11.1466 19.3516L14.7188 15.7795L20.7197 21.7803L21.7803 20.7197L3.28033 2.21967L2.21967 3.28033Z" fill="#191C1E"/>
<path d="M15.3427 3.21967C15.0498 2.92677 14.575 2.92677 14.2821 3.21967L10.2821 7.21967L16.7803 13.7179L20.7803 9.71793C21.0732 9.42503 21.0732 8.95016 20.7803 8.65727L15.3427 3.21967Z" fill="#191C1E"/>
</svg>
