<svg width="24" height="24" viewBox="0 0 24 24" fill="none" xmlns="http://www.w3.org/2000/svg">
<path d="M14.8229 3.21967C14.53 2.92678 14.0551 2.92678 13.7622 3.21967L7.19377 9.78811C7.09047 9.89141 7.01959 10.0226 6.98983 10.1657L6.01572 14.8472C5.96422 15.0947 6.04089 15.3516 6.21967 15.5303C6.39844 15.7091 6.65526 15.7858 6.90278 15.7343L11.5843 14.7602C11.7274 14.7304 11.8586 14.6595 11.9619 14.5562L18.5303 7.98779C18.671 7.84713 18.75 7.65637 18.75 7.45746C18.75 7.25854 18.671 7.06778 18.5303 6.92713L14.8229 3.21967Z" fill="#191C1E"/>
<path d="M16.1145 19.25C16.433 20.2643 17.3806 21 18.5 21C19.8807 21 21 19.8807 21 18.5C21 17.1193 19.8807 16 18.5 16C17.3806 16 16.433 16.7357 16.1145 17.75H4.5V19.25H16.1145Z" fill="#191C1E"/>
</svg>
