<svg width="24" height="24" viewBox="0 0 24 24" fill="none" xmlns="http://www.w3.org/2000/svg">
<path d="M5.25 3C4.00736 3 3 4.00736 3 5.25V9.5C3 9.91421 3.33579 10.25 3.75 10.25H5.25V16.25C5.25 18.3211 6.92893 20 9 20C11.0711 20 12.75 18.3211 12.75 16.25V7.75C12.75 6.50736 13.7574 5.5 15 5.5C16.2426 5.5 17.25 6.50736 17.25 7.75V13.75H15.75C15.3358 13.75 15 14.0858 15 14.5V18.75C15 19.9926 16.0074 21 17.25 21H18.75C19.9926 21 21 19.9926 21 18.75V14.5C21 14.0858 20.6642 13.75 20.25 13.75H18.75V7.75C18.75 5.67893 17.0711 4 15 4C12.9289 4 11.25 5.67893 11.25 7.75V16.25C11.25 17.4926 10.2426 18.5 9 18.5C7.75736 18.5 6.75 17.4926 6.75 16.25V10.25H8.25C8.66421 10.25 9 9.91421 9 9.5V5.25C9 4.00736 7.99264 3 6.75 3H5.25Z" fill="#191C1E"/>
</svg>
