<svg width="24" height="24" viewBox="0 0 24 24" fill="none" xmlns="http://www.w3.org/2000/svg">
<path fill-rule="evenodd" clip-rule="evenodd" d="M20.9795 15.2629C21.5305 14.8404 22 14.2515 22 13.5V10.5C22 9.74851 21.5305 9.15963 20.9795 8.73709C20.4175 8.3062 19.6515 7.95047 18.7721 7.66526C17.005 7.09215 14.6108 6.75 12 6.75C9.3892 6.75 6.99499 7.09215 5.22788 7.66526C4.34849 7.95047 3.58249 8.3062 3.02054 8.73709C2.46949 9.15963 2 9.74851 2 10.5V13.5C2 14.2515 2.46949 14.8404 3.02054 15.2629C3.58249 15.6938 4.34849 16.0495 5.22788 16.3347C6.99499 16.9079 9.3892 17.25 12 17.25C14.6108 17.25 17.005 16.9079 18.7721 16.3347C19.6515 16.0495 20.4175 15.6938 20.9795 15.2629ZM3.5 10.5C3.5 10.4231 3.54818 10.2227 3.93328 9.92743C4.30748 9.6405 4.89611 9.34978 5.69064 9.0921C7.27138 8.57942 9.50217 8.25 12 8.25C14.4978 8.25 16.7286 8.57942 18.3094 9.0921C19.1039 9.34978 19.6925 9.6405 20.0667 9.92743C20.4518 10.2227 20.5 10.4231 20.5 10.5C20.5 10.5902 20.4245 10.8244 19.9779 11.1385C18.1622 10.2728 15.2249 9.75 12 9.75C8.77514 9.75 5.83785 10.2728 4.02213 11.1385C3.57554 10.8244 3.5 10.5902 3.5 10.5ZM12 11.25C14.3678 11.25 16.472 11.5455 18.0122 12C16.472 12.4545 14.3678 12.75 12 12.75C9.63216 12.75 7.52802 12.4545 5.98781 12C7.52802 11.5455 9.63216 11.25 12 11.25Z" fill="#191C1E"/>
</svg>
