<svg width="24" height="24" viewBox="0 0 24 24" fill="none" xmlns="http://www.w3.org/2000/svg">
<path fill-rule="evenodd" clip-rule="evenodd" d="M21.25 12C21.25 17.1086 17.1086 21.25 12 21.25C6.89137 21.25 2.75 17.1086 2.75 12C2.75 6.89137 6.89137 2.75 12 2.75C17.1086 2.75 21.25 6.89137 21.25 12ZM8.5 9.5C9.05228 9.5 9.5 9.05228 9.5 8.5C9.5 7.94772 9.05228 7.5 8.5 7.5C7.94772 7.5 7.5 7.94772 7.5 8.5C7.5 9.05228 7.94772 9.5 8.5 9.5ZM15.5 9.5C16.0523 9.5 16.5 9.05228 16.5 8.5C16.5 7.94772 16.0523 7.5 15.5 7.5C14.9477 7.5 14.5 7.94772 14.5 8.5C14.5 9.05228 14.9477 9.5 15.5 9.5ZM8.5 12C8.5 13.933 10.067 15.5 12 15.5C13.933 15.5 15.5 13.933 15.5 12H17C17 14.7614 14.7614 17 12 17C9.23858 17 7 14.7614 7 12H8.5Z" fill="#191C1E"/>
</svg>
