<svg width="24" height="24" viewBox="0 0 24 24" fill="none" xmlns="http://www.w3.org/2000/svg">
<path fill-rule="evenodd" clip-rule="evenodd" d="M21.25 12C21.25 17.1086 17.1086 21.25 12 21.25C6.89137 21.25 2.75 17.1086 2.75 12C2.75 6.89137 6.89137 2.75 12 2.75C17.1086 2.75 21.25 6.89137 21.25 12ZM8.5 9.5C9.05228 9.5 9.5 9.05228 9.5 8.5C9.5 7.94772 9.05228 7.5 8.5 7.5C7.94772 7.5 7.5 7.94772 7.5 8.5C7.5 9.05228 7.94772 9.5 8.5 9.5ZM15.5 9.5C16.0523 9.5 16.5 9.05228 16.5 8.5C16.5 7.94772 16.0523 7.5 15.5 7.5C14.9477 7.5 14.5 7.94772 14.5 8.5C14.5 9.05228 14.9477 9.5 15.5 9.5ZM8.96896 13.75C9.27615 14.2821 9.71798 14.7239 10.25 15.0311C10.7821 15.3383 11.3857 15.5 12 15.5C12.6144 15.5 13.218 15.3383 13.75 15.0311C14.2821 14.7239 14.7239 14.2821 15.0311 13.75L16.3302 14.5C15.8913 15.2601 15.2601 15.8913 14.5 16.3301C13.74 16.769 12.8777 17 12 17C11.1224 17 10.2601 16.769 9.50005 16.3301C8.73995 15.8913 8.10876 15.2601 7.66992 14.5L8.96896 13.75Z" fill="#191C1E"/>
</svg>
