<svg width="24" height="24" viewBox="0 0 24 24" fill="none" xmlns="http://www.w3.org/2000/svg">
<path fill-rule="evenodd" clip-rule="evenodd" d="M14.6408 2.85413C14.3467 2.68053 13.9724 2.72757 13.7304 2.96856L11.9992 4.69243L10.2617 2.96773C10.0188 2.72661 9.64345 2.68052 9.34942 2.85573L3.11609 6.57001C2.91824 6.68791 2.78552 6.89017 2.75614 7.1186C2.72675 7.34704 2.80395 7.57631 2.96552 7.74044L4.6976 9.50002L2.96552 11.2596C2.80395 11.4237 2.72675 11.653 2.75614 11.8814C2.78552 12.1099 2.91824 12.3121 3.11609 12.43L5.00001 13.5526V16.8167C5.00001 17.0821 5.14024 17.3277 5.36878 17.4626L11.6092 21.1459C11.8444 21.2847 12.1364 21.2847 12.3716 21.1459L18.612 17.4626C18.8405 17.3277 18.9808 17.0821 18.9808 16.8167V13.5641L20.8839 12.43C21.0818 12.3121 21.2145 12.1099 21.2439 11.8814C21.2733 11.653 21.1961 11.4237 21.0345 11.2596L19.2989 9.49649L21.038 7.70588C21.1982 7.54091 21.2739 7.31154 21.2433 7.0836C21.2128 6.85567 21.0793 6.65437 20.8812 6.53747L14.6408 2.85413ZM5.87035 8.55316L10.7873 5.603L9.61769 4.44198L4.70501 7.36932L5.87035 8.55316ZM4.70501 11.6307L5.87035 10.4469L10.7873 13.397L9.61769 14.558L4.70501 11.6307ZM17.4808 16.3885L12.75 19.1808V15.0513L13.7383 16.0323C13.9812 16.2734 14.3566 16.3195 14.6506 16.1443L17.4808 14.4579V16.3885ZM13.2127 13.397L18.1297 10.4469L19.295 11.6307L14.3823 14.558L13.2127 13.397ZM13.2114 5.6022L18.1261 8.55106L19.2978 7.34467L14.3778 4.4407L13.2114 5.6022Z" fill="#191C1E"/>
</svg>
