<svg width="24" height="24" viewBox="0 0 24 24" fill="none" xmlns="http://www.w3.org/2000/svg">
<path d="M6.40583 6.52174C8.60395 4.32361 11.7746 3.68817 14.5361 4.61962L15.0155 3.19829C11.7346 2.09167 7.96172 2.84452 5.34517 5.46108C1.94315 8.86309 1.6899 14.2215 4.58541 17.9148L2.38628 17.6837L2.22949 19.1754L6.43049 19.617C6.84243 19.6603 7.21148 19.3614 7.25478 18.9495L7.69632 14.7485L6.20454 14.5917L5.93114 17.1929C3.32503 14.0844 3.48327 9.4443 6.40583 6.52174Z" fill="#191C1E"/>
<path d="M21.7924 5.03217L17.5914 4.59063C17.1794 4.54733 16.8104 4.84618 16.7671 5.25812L16.3256 9.45912L17.8173 9.61591L18.086 7.05977C20.6746 10.1682 20.5108 14.7946 17.5945 17.7109C15.4072 19.8983 12.2568 20.5382 9.5048 19.6266L9.03311 21.0505C12.3026 22.1336 16.0515 21.3753 18.6552 18.7716C22.0664 15.3604 22.3118 9.98231 19.3915 6.28809L21.6356 6.52395L21.7924 5.03217Z" fill="#191C1E"/>
<path d="M14.0053 7.36838C14.0589 7.03295 13.8803 6.70338 13.5701 6.56506C13.2598 6.42674 12.8954 6.51421 12.6817 6.77826L8.66709 11.7392C8.51686 11.9248 8.46402 12.1709 8.5248 12.4019C8.58558 12.6328 8.75271 12.821 8.97486 12.9087L10.4417 13.4873L9.8893 16.8795C9.83464 17.2152 10.0127 17.5457 10.3231 17.6846C10.6335 17.8236 10.9986 17.7362 11.2126 17.4719L15.2271 12.5109C15.3725 12.3313 15.427 12.0946 15.3747 11.8695C15.3224 11.6444 15.1693 11.456 14.9597 11.3587L13.4776 10.6714L14.0053 7.36838Z" fill="#191C1E"/>
</svg>
