<svg width="24" height="24" viewBox="0 0 24 24" fill="none" xmlns="http://www.w3.org/2000/svg">
<path d="M15.2406 2.8683C15.2942 2.53287 15.1156 2.2033 14.8054 2.06498C14.4951 1.92666 14.1307 2.01413 13.917 2.27819L6.29956 11.6912C6.14933 11.8769 6.09649 12.123 6.15727 12.3539C6.21805 12.5849 6.38519 12.7731 6.60733 12.8607L9.89499 14.1577L8.75973 21.1294C8.70507 21.4651 8.88313 21.7956 9.19356 21.9345C9.50398 22.0735 9.86905 21.9862 10.083 21.7218L17.7004 12.3087C17.8458 12.1291 17.9002 11.8924 17.848 11.6673C17.7957 11.4422 17.6426 11.2538 17.4329 11.1565L14.159 9.63829L15.2406 2.8683Z" fill="#191C1E"/>
</svg>
