<svg width="24" height="24" viewBox="0 0 24 24" fill="none" xmlns="http://www.w3.org/2000/svg">
<path d="M8.25 3.75C8.25 3.33579 8.58579 3 9 3H15C15.4142 3 15.75 3.33579 15.75 3.75V8.25C15.75 8.66421 15.4142 9 15 9H12.75V11.25H21V12.75H18V15H20.25C20.6642 15 21 15.3358 21 15.75V20.25C21 20.6642 20.6642 21 20.25 21H14.25C13.8358 21 13.5 20.6642 13.5 20.25V15.75C13.5 15.3358 13.8358 15 14.25 15H16.5V12.75H7.5V15H9.75C10.1642 15 10.5 15.3358 10.5 15.75V20.25C10.5 20.6642 10.1642 21 9.75 21H3.75C3.33579 21 3 20.6642 3 20.25V15.75C3 15.3358 3.33579 15 3.75 15H6V12.75H3V11.25H11.25V9H9C8.58579 9 8.25 8.66421 8.25 8.25V3.75Z" fill="#191C1E"/>
</svg>
