<svg width="24" height="24" viewBox="0 0 24 24" fill="none" xmlns="http://www.w3.org/2000/svg">
<path fill-rule="evenodd" clip-rule="evenodd" d="M12.5009 2.19182C12.2159 1.93606 11.7841 1.93606 11.4991 2.19182L8.69389 4.70928H5.45928C5.04507 4.70928 4.70928 5.04507 4.70928 5.45928V8.69389L2.19182 11.4991C1.93606 11.7841 1.93606 12.2159 2.19182 12.5009L4.70928 15.3061V18.5408C4.70928 18.955 5.04507 19.2908 5.45928 19.2908H8.69394L11.4991 21.8082C11.7841 22.0639 12.2159 22.0639 12.5009 21.8082L15.3061 19.2908H18.5408C18.955 19.2908 19.2908 18.955 19.2908 18.5408V15.3061L21.8082 12.5009C22.0639 12.2159 22.0639 11.7841 21.8082 11.4991L19.2908 8.69394V5.45928C19.2908 5.04507 18.955 4.70928 18.5408 4.70928H15.3061L12.5009 2.19182ZM12.375 15.75C10.4915 15.75 8.92184 14.4062 8.57253 12.625H7.75V11.125H8.57253C8.92184 9.34382 10.4915 8 12.375 8C13.4439 8 14.413 8.4338 15.1132 9.13317L14.0533 10.1945C13.6228 9.76456 13.0305 9.5 12.375 9.5C11.3254 9.5 10.4348 10.1809 10.1209 11.125H12.5V12.625H10.1209C10.4348 13.5691 11.3254 14.25 12.375 14.25C13.0305 14.25 13.6228 13.9854 14.0533 13.5555L15.1132 14.6168C14.413 15.3162 13.4439 15.75 12.375 15.75Z" fill="#191C1E"/>
</svg>
