<svg width="24" height="24" viewBox="0 0 24 24" fill="none" xmlns="http://www.w3.org/2000/svg">
<path d="M7.62343 10.75C7.5425 11.1537 7.5 11.5717 7.5 12C7.5 12.4283 7.5425 12.8463 7.62343 13.25H13.5V15.25H8.39964C9.48592 17.0512 11.4473 18.25 13.6784 18.25C15.3797 18.25 16.9203 17.5556 18.04 16.4267L19.46 17.8351C17.9823 19.325 15.9373 20.25 13.6784 20.25C10.3002 20.25 7.40872 18.1871 6.1594 15.25H3V13.25H5.59337C5.53188 12.8423 5.5 12.4248 5.5 12C5.5 11.5752 5.53188 11.1577 5.59337 10.75H3V8.75H6.1594C7.40872 5.81295 10.3002 3.75 13.6784 3.75C15.9373 3.75 17.9823 4.67499 19.46 6.16489L18.04 7.57328C16.9203 6.44436 15.3797 5.75 13.6784 5.75C11.4473 5.75 9.48592 6.94884 8.39964 8.75H13.5V10.75H7.62343Z" fill="#191C1E"/>
</svg>
