<svg width="24" height="24" viewBox="0 0 24 24" fill="none" xmlns="http://www.w3.org/2000/svg">
<path fill-rule="evenodd" clip-rule="evenodd" d="M4.25 4C3.83579 4 3.5 4.33579 3.5 4.75V18.5H2V20H14.25V18.5H12.75V13.25H14.75V16.25C14.75 16.6642 15.0858 17 15.5 17H19C19.4142 17 19.75 16.6642 19.75 16.25V11.9055C21.0439 11.5725 22 10.3979 22 9V7C22 6.58579 21.6642 6.25 21.25 6.25H21V4.5H19.5V6.25H18.5V4.5H17V6.25H16.75C16.3358 6.25 16 6.58579 16 7V9C16 10.3979 16.9561 11.5725 18.25 11.9055V15.5H16.25V12.5C16.25 12.0858 15.9142 11.75 15.5 11.75H12.75V4.75C12.75 4.33579 12.4142 4 12 4H4.25ZM8.68162 7.56702L6.43162 11.067C6.29993 11.2719 6.2759 11.5279 6.36717 11.7537C6.45845 11.9795 6.65367 12.1469 6.89072 12.2026L8.0266 12.4699L6.41548 15.2183L7.70953 15.9769L9.83453 12.3519C9.95493 12.1465 9.97066 11.8961 9.8769 11.6772C9.78315 11.4584 9.59105 11.2971 9.35928 11.2425L8.2672 10.9856L9.94339 8.37815L8.68162 7.56702Z" fill="#191C1E"/>
</svg>
