<svg width="24" height="24" viewBox="0 0 24 24" fill="none" xmlns="http://www.w3.org/2000/svg">
<path d="M12.0001 9.5C10.6194 9.5 9.50012 10.6193 9.50012 12C9.50012 13.3807 10.6194 14.5 12.0001 14.5C13.3808 14.5 14.5001 13.3807 14.5001 12C14.5001 10.6193 13.3808 9.5 12.0001 9.5Z" fill="#191C1E"/>
<path fill-rule="evenodd" clip-rule="evenodd" d="M12 4.59772C7.36548 4.59772 3.43385 7.5989 2.03887 11.7617C1.98704 11.9163 1.98704 12.0837 2.03887 12.2383C3.43385 16.4011 7.36548 19.4023 12 19.4023C16.6346 19.4023 20.5662 16.4011 21.9612 12.2383C22.013 12.0837 22.013 11.9163 21.9612 11.7617C20.5662 7.5989 16.6346 4.59772 12 4.59772ZM8.00012 12C8.00012 9.79086 9.79098 8 12.0001 8C14.2093 8 16.0001 9.79086 16.0001 12C16.0001 14.2091 14.2093 16 12.0001 16C9.79098 16 8.00012 14.2091 8.00012 12Z" fill="#191C1E"/>
</svg>
