<svg width="24" height="24" viewBox="0 0 24 24" fill="none" xmlns="http://www.w3.org/2000/svg">
<path fill-rule="evenodd" clip-rule="evenodd" d="M2.21985 3.28033L3.28051 2.21967L21.7805 20.7197L20.7198 21.7803L17.0502 18.1107C15.5519 18.934 13.8308 19.4023 12 19.4023C7.36548 19.4023 3.43385 16.4011 2.03887 12.2383C1.98704 12.0837 1.98704 11.9163 2.03887 11.7617C2.71733 9.73709 3.99581 7.98726 5.66335 6.72383L2.21985 3.28033ZM8.69127 9.75175C8.25508 10.3925 8.00012 11.1665 8.00012 12C8.00012 14.2091 9.79098 16 12.0001 16C12.8337 16 13.6077 15.745 14.2484 15.3088L13.1565 14.217C12.8107 14.3978 12.4174 14.5 12.0001 14.5C10.6194 14.5 9.50012 13.3807 9.50012 12C9.50012 11.5828 9.60234 11.1894 9.78309 10.8436L8.69127 9.75175Z" fill="#191C1E"/>
<path d="M11.252 8.06983L8.40956 5.22739C9.52969 4.81996 10.7388 4.59771 12 4.59771C16.6346 4.59771 20.5662 7.59889 21.9612 11.7617C22.013 11.9163 22.013 12.0837 21.9612 12.2383C21.4456 13.7769 20.5834 15.1568 19.4674 16.2852L15.9303 12.7481C15.9761 12.5058 16.0001 12.2557 16.0001 12C16.0001 9.79085 14.2093 7.99999 12.0001 7.99999C11.7444 7.99999 11.4944 8.02398 11.252 8.06983Z" fill="#191C1E"/>
</svg>
