<svg width="24" height="24" viewBox="0 0 24 24" fill="none" xmlns="http://www.w3.org/2000/svg">
<path d="M13.8573 2C12.4503 2 11.1746 2.43148 10.2467 3.32917C9.31429 4.23121 8.81255 5.5271 8.81255 7.0975V8.9375H5.86255C5.44834 8.9375 5.11255 9.27329 5.11255 9.6875V13.3875C5.11255 13.8017 5.44834 14.1375 5.86255 14.1375H8.81255V21.25C8.81255 21.6642 9.14833 22 9.56255 22H13.2625C13.6768 22 14.0125 21.6642 14.0125 21.25V14.1375H16.9625C17.3067 14.1375 17.6067 13.9033 17.6902 13.5694L18.6152 9.8694C18.6712 9.64535 18.6208 9.40798 18.4787 9.22594C18.3366 9.0439 18.1185 8.9375 17.8875 8.9375H14.0125V7.8375C14.0125 7.5884 14.0137 7.40508 14.035 7.24504C14.0553 7.09133 14.0883 7.01512 14.1159 6.97414C14.1379 6.94139 14.2786 6.7375 15.1125 6.7375H17.8875C18.3018 6.7375 18.6375 6.40171 18.6375 5.9875V2.75C18.6375 2.33579 18.3018 2 17.8875 2H13.8573Z" fill="#191C1E"/>
</svg>
