<svg width="24" height="24" viewBox="0 0 24 24" fill="none" xmlns="http://www.w3.org/2000/svg">
<path d="M15.6957 8.29102C16.4289 6.87172 16.4289 5.12826 15.6957 3.70896L17.4726 2.79102C18.5033 4.78613 18.5033 7.21385 17.4726 9.20896L15.6957 8.29102Z" fill="#191C1E"/>
<path d="M6.80442 3.70896C6.07122 5.12826 6.07122 6.87172 6.80442 8.29102L5.02752 9.20896C3.99685 7.21385 3.99685 4.78613 5.02752 2.79102L6.80442 3.70896Z" fill="#191C1E"/>
<path d="M13.6406 14.1477C13.572 14.0791 13.5335 13.9861 13.5335 13.8892L13.5254 7.04286C13.5252 6.90574 13.498 6.77001 13.4454 6.64339C13.3928 6.51678 13.3158 6.40177 13.2187 6.30493C13.1217 6.20809 13.0065 6.13132 12.8798 6.079C12.7531 6.02667 12.6173 5.99983 12.4802 5.99999C12.3431 6.00015 12.2074 6.02731 12.0808 6.07993C11.9542 6.13255 11.8392 6.20959 11.7424 6.30665C11.6455 6.40372 11.5688 6.51891 11.5165 6.64564C11.4641 6.77238 11.4373 6.90818 11.4375 7.04529L11.444 13.1481C11.444 13.2451 11.4054 13.3381 11.3369 13.4067C11.2683 13.4752 11.1753 13.5138 11.0784 13.5138C10.9814 13.5138 10.8884 13.4752 10.8199 13.4067C10.7513 13.3381 10.7128 13.2451 10.7128 13.1481L10.7095 8.47939C10.7095 8.25269 10.6195 8.03528 10.4592 7.87498C10.2989 7.71468 10.0816 7.62462 9.85488 7.62462C9.62821 7.62462 9.41083 7.71468 9.25055 7.87498C9.09027 8.03528 9.00023 8.25269 9.00023 8.47939L9.00347 15.4947C9.00347 15.5917 8.96496 15.6847 8.8964 15.7532C8.82784 15.8218 8.73485 15.8603 8.63789 15.8603C8.54093 15.8603 8.44794 15.8218 8.37938 15.7532C8.31082 15.6847 8.2723 15.5917 8.2723 15.4947V12.3242L6.64016 13.7518C6.1504 14.1806 5.83867 14.7771 5.76622 15.424C5.69376 16.0709 5.86582 16.7216 6.24858 17.2481L9.00023 21.0312V21.4375C9.00023 21.653 9.08582 21.8596 9.23818 22.012C9.39053 22.1644 9.59717 22.25 9.81264 22.25H16.3119C16.5274 22.25 16.7341 22.1644 16.8864 22.012C17.0388 21.8596 17.1244 21.653 17.1244 21.4375V21.0312L18.0383 19.8904C18.4992 19.314 18.7502 18.5979 18.75 17.8599V13.8892C18.75 13.6629 18.6601 13.4459 18.5002 13.2859C18.3402 13.1259 18.1232 13.036 17.897 13.036C17.6707 13.036 17.4538 13.1259 17.2938 13.2859C17.1338 13.4459 17.0439 13.6629 17.0439 13.8892V14.7098C17.0439 14.8068 17.0054 14.8998 16.9369 14.9683C16.8683 15.0369 16.7753 15.0754 16.6783 15.0754C16.5814 15.0754 16.4884 15.0369 16.4198 14.9683C16.3513 14.8998 16.3128 14.8068 16.3128 14.7098V12.9198C16.3128 12.6482 16.2049 12.3877 16.0128 12.1956C15.8208 12.0035 15.5603 11.8956 15.2887 11.8956C15.0171 11.8956 14.7566 12.0035 14.5646 12.1956C14.3726 12.3877 14.2647 12.6482 14.2647 12.9198V13.8892C14.2647 13.9861 14.2261 14.0791 14.1576 14.1477C14.089 14.2163 13.996 14.2548 13.8991 14.2548C13.8021 14.2548 13.7091 14.2163 13.6406 14.1477Z" fill="#191C1E"/>
</svg>
