<svg width="24" height="24" viewBox="0 0 24 24" fill="none" xmlns="http://www.w3.org/2000/svg">
<path d="M11.2769 2.053C10.9831 1.93627 10.6477 2.01631 10.4382 2.25312C10.2288 2.48993 10.1903 2.83266 10.3421 3.11C11.8586 5.8817 12.1618 7.9144 11.9622 9.18295C11.7591 10.4746 11.1094 10.8154 10.75 10.8154C10.4818 10.8154 10.3194 10.7344 10.213 10.635C10.0984 10.5281 9.99153 10.3451 9.9424 10.0578C9.8419 9.46986 10.0136 8.57299 10.6284 7.62917C10.7786 7.39861 10.7905 7.10432 10.6594 6.8624C10.5282 6.62048 10.2752 6.4698 10 6.4698C9.36567 6.4698 8.7369 6.72411 8.18008 7.09732C7.61613 7.47532 7.07892 8.00578 6.61433 8.63817C5.68636 9.9013 5 11.6374 5 13.552C5 17.3715 7.31393 20.746 10.5707 21.7189C10.2096 21.4958 9.90274 21.216 9.65083 20.9066C9.05074 20.1694 8.75 19.2503 8.75 18.5001C8.75 17.2391 9.31915 16.0558 9.97488 15.1331C10.6358 14.203 11.4528 13.4412 12.098 13.0153L12.5 12.75L12.902 13.0153C13.5472 13.4412 14.3642 14.203 15.0251 15.1331C15.6809 16.0558 16.25 17.2391 16.25 18.5001C16.25 19.2503 15.9493 20.1694 15.3492 20.9066C15.0969 21.2164 14.7896 21.4965 14.4279 21.7198C17.6852 20.7489 20 17.3784 20 13.552C20 8.99286 17.1574 4.3894 11.2769 2.053Z" fill="#191C1E"/>
</svg>
