<svg width="24" height="24" viewBox="0 0 24 24" fill="none" xmlns="http://www.w3.org/2000/svg">
<path fill-rule="evenodd" clip-rule="evenodd" d="M12 4.45L7.72415 8.93965L6.27588 7.56034L11.2759 2.31034C11.4646 2.11216 11.7263 2 12 2C12.2737 2 12.5354 2.11216 12.7242 2.31034L17.7242 7.56034L16.2759 8.93965L12 4.45Z" fill="#191C1E"/>
<path fill-rule="evenodd" clip-rule="evenodd" d="M7.39311 10.5659C7.7804 10.4179 8.21882 10.5242 8.49526 10.8332L15.25 18.3826V10.5H17.25V21C17.25 21.4146 16.9942 21.7862 16.6069 21.9341C16.2196 22.0821 15.7812 21.9758 15.5048 21.6668L8.75002 14.1174V22H6.75002V11.5C6.75002 11.0854 7.00583 10.7138 7.39311 10.5659Z" fill="#191C1E"/>
</svg>
