<svg width="24" height="24" viewBox="0 0 24 24" fill="none" xmlns="http://www.w3.org/2000/svg">
<path d="M8.36301 8.93668C9.56069 6.86224 11.1207 5.31504 12.6277 4.46764C14.1569 3.60777 15.4524 3.54964 16.3286 4.05549C17.221 4.5707 17.8245 5.75694 17.8226 7.56309L19.8226 7.56521C19.8249 5.39731 19.0954 3.3435 17.3286 2.32344C15.5943 1.32215 13.4957 1.68509 11.6475 2.72434C9.7771 3.77607 7.97656 5.60604 6.63096 7.93668C5.28536 10.2673 4.60083 12.7416 4.6252 14.8873C4.64928 17.0075 5.38429 19.0064 7.11856 20.0077C8.85284 21.009 10.9515 20.6461 12.7997 19.6068C14.6701 18.5551 16.4706 16.7251 17.8162 14.3945L17.8174 14.3924L17.8531 14.3298L18.6116 16.408L20.4904 15.7223L18.9152 11.4065C18.7261 10.8882 18.1528 10.621 17.6343 10.8095L13.3184 12.3782L14.0016 14.2579L16.0051 13.5297C14.8183 15.5362 13.2935 17.0346 11.8194 17.8635C10.2902 18.7234 8.99471 18.7815 8.11856 18.2757C7.24241 17.7698 6.64499 16.6188 6.62507 14.8646C6.60544 13.1358 7.16533 11.0111 8.36301 8.93668Z" fill="#191C1E"/>
</svg>
