<svg width="24" height="24" viewBox="0 0 24 24" fill="none" xmlns="http://www.w3.org/2000/svg">
<path d="M2.41225 7.08036C2.66505 6.95285 2.9681 6.97858 3.19579 7.14687L8.94579 11.3969C9.13712 11.5383 9.25 11.7621 9.25 12C9.25 12.2379 9.13712 12.4617 8.94579 12.6031L3.19579 16.8531C2.9681 17.0214 2.66505 17.0472 2.41225 16.9196C2.15945 16.7921 2 16.5331 2 16.25V7.75C2 7.46687 2.15945 7.20787 2.41225 7.08036Z" fill="#191C1E"/>
<path d="M20.8042 7.14687C21.0319 6.97858 21.335 6.95285 21.5878 7.08036C21.8406 7.20787 22 7.46687 22 7.75V16.25C22 16.5331 21.8406 16.7921 21.5878 16.9196C21.335 17.0472 21.0319 17.0214 20.8042 16.8531L15.0542 12.6031C14.8629 12.4617 14.75 12.2379 14.75 12C14.75 11.7621 14.8629 11.5383 15.0542 11.3969L20.8042 7.14687Z" fill="#191C1E"/>
<path d="M11 4V7.5H13V4H11Z" fill="#191C1E"/>
<path d="M11 13.75V10.25H13V13.75H11Z" fill="#191C1E"/>
<path d="M11 20V16.5H13V20H11Z" fill="#191C1E"/>
</svg>
