<svg width="24" height="24" viewBox="0 0 24 24" fill="none" xmlns="http://www.w3.org/2000/svg">
<path d="M9 3C8.58579 3 8.25 3.33579 8.25 3.75V7.75C8.25 8.16421 8.58579 8.5 9 8.5H11.25V11.25H6.75C6.33579 11.25 6 11.5858 6 12V15.5H3.75C3.33579 15.5 3 15.8358 3 16.25V20.25C3 20.6642 3.33579 21 3.75 21H9.75C10.1642 21 10.5 20.6642 10.5 20.25V16.25C10.5 15.8358 10.1642 15.5 9.75 15.5H7.5V12.75H16.5V15.5H14.25C13.8358 15.5 13.5 15.8358 13.5 16.25V20.25C13.5 20.6642 13.8358 21 14.25 21H20.25C20.6642 21 21 20.6642 21 20.25V16.25C21 15.8358 20.6642 15.5 20.25 15.5H18V12C18 11.5858 17.6642 11.25 17.25 11.25H12.75V8.5H15C15.4142 8.5 15.75 8.16421 15.75 7.75V3.75C15.75 3.33579 15.4142 3 15 3H9Z" fill="#191C1E"/>
</svg>
