<svg width="24" height="24" viewBox="0 0 24 24" fill="none" xmlns="http://www.w3.org/2000/svg">
<path d="M11 8.31253C9.97566 7.9125 9.25 6.91599 9.25 5.75C9.25 4.23122 10.4812 3 12 3C13.5188 3 14.75 4.23122 14.75 5.75C14.75 6.91599 14.0243 7.9125 13 8.31253V11H18.25C18.8023 11 19.25 11.4477 19.25 12V15.6875C20.2743 16.0875 21 17.084 21 18.25C21 19.7688 19.7688 21 18.25 21C16.7312 21 15.5 19.7688 15.5 18.25C15.5 17.084 16.2257 16.0875 17.25 15.6875V13H6.75V15.6875C7.77434 16.0875 8.5 17.084 8.5 18.25C8.5 19.7688 7.26878 21 5.75 21C4.23122 21 3 19.7688 3 18.25C3 17.084 3.72566 16.0875 4.75 15.6875V12C4.75 11.4477 5.19772 11 5.75 11H11V8.31253Z" fill="#191C1E"/>
</svg>
