<svg width="24" height="24" viewBox="0 0 24 24" fill="none" xmlns="http://www.w3.org/2000/svg">
<path d="M16.5 5.25C16.5 6.4925 15.4925 7.5 14.25 7.5C13.0075 7.5 12 6.4925 12 5.25C12 4.0075 13.01 3 14.25 3C15.49 3 16.5 4.01 16.5 5.25Z" fill="#1A1D1E"/>
<path d="M17.5 9.0275C17.5125 9.605 17.415 13.375 12.825 15.6725C11.315 18.965 8.8425 20.805 5.6525 21L5.5625 19.5025C7.6875 19.3725 9.3875 18.375 10.6375 16.53C10.06 16.7025 9.45 16.85 8.81 16.97C7.3075 17.255 5.605 17.4 3.75 17.4V15.9C5.5125 15.9 7.12 15.765 8.53 15.4975C9.7025 15.275 10.7575 14.96 11.6725 14.5575C12.33 12.9375 12.5925 11.3325 12.6925 10.4825C12.335 10.56 11.9875 10.64 11.655 10.7275C9.98 11.1675 8.7025 11.78 7.9225 13.3375L6.58 12.665C7.6775 10.4775 9.57 9.725 11.275 9.2775C11.9175 9.1075 12.5875 8.97 13.2975 8.825L13.365 8.81C13.7425 8.735 14.125 8.655 14.5175 8.5675C15.2125 8.415 15.8425 8.1975 16.39 7.9225C18.4425 6.895 19.1075 5.2225 19.5225 3.5675L20.98 3.9325C20.5275 5.7275 19.7575 7.7125 17.5 9.0275Z" fill="#1A1D1E"/>
</svg>
