<svg width="24" height="24" viewBox="0 0 24 24" fill="none" xmlns="http://www.w3.org/2000/svg">
<path fill-rule="evenodd" clip-rule="evenodd" d="M2.75 4C2.33579 4 2 4.33579 2 4.75V19.25C2 19.6642 2.33579 20 2.75 20H18.25C18.6642 20 19 19.6642 19 19.25V7.75C19 7.33579 18.6642 7 18.25 7H10.625L8.6 4.3C8.45836 4.11115 8.23607 4 8 4H2.75ZM9.75 13V10.75H11.25V13H13.5V14.5H11.25V16.75H9.75V14.5H7.5V13H9.75Z" fill="#191C1E"/>
<path d="M22 4.75C22 4.33579 21.6642 4 21.25 4H11.25V5.5H20.5V15.75H22V4.75Z" fill="#191C1E"/>
</svg>
