<svg width="24" height="25" viewBox="0 0 24 25" fill="none" xmlns="http://www.w3.org/2000/svg">
<path d="M4 12.125C4 7.70672 7.58172 4.125 12 4.125C12.2121 4.125 12.422 4.13323 12.6295 4.14936L12.7845 2.15537C12.5255 2.13524 12.2638 2.125 12 2.125C6.47715 2.125 2 6.60215 2 12.125C2 17.6478 6.47715 22.125 12 22.125C14.7588 22.125 17.2583 21.0065 19.0665 19.2006C20.8777 17.3917 22 14.8885 22 12.125C22 11.8615 21.9898 11.6001 21.9697 11.3413L19.9757 11.4961C19.9918 11.7034 20 11.9132 20 12.125C20 14.3363 19.1042 16.3364 17.6532 17.7855C16.2047 19.2322 14.2076 20.125 12 20.125C7.58172 20.125 4 16.5433 4 12.125Z" fill="#191C1E"/>
<path d="M13.8691 4.34429C14.2801 4.44261 14.6787 4.57267 15.0623 4.73175L15.8285 2.88433C15.3482 2.68516 14.849 2.52229 14.3344 2.39918L13.8691 4.34429Z" fill="#191C1E"/>
<path d="M16.1801 5.30245C16.5378 5.52211 16.877 5.76919 17.1947 6.0408L18.4942 4.52047C18.0975 4.1814 17.6738 3.87276 17.2268 3.5982L16.1801 5.30245Z" fill="#191C1E"/>
<path d="M18.0837 6.92971C18.3556 7.24776 18.6029 7.58727 18.8228 7.94528L20.5271 6.89869C20.2523 6.45122 19.9434 6.02715 19.6039 5.63011L18.0837 6.92971Z" fill="#191C1E"/>
<path d="M12 13.125C11.4477 13.125 11 12.6773 11 12.125V6.125H13V11.125H15.75V13.125H12Z" fill="#191C1E"/>
<path d="M19.3936 9.06356C19.5524 9.44663 19.6823 9.84468 19.7805 10.255L21.7256 9.78948C21.6026 9.27564 21.4399 8.77719 21.2411 8.2976L19.3936 9.06356Z" fill="#191C1E"/>
</svg>
