<svg width="24" height="24" viewBox="0 0 24 24" fill="none" xmlns="http://www.w3.org/2000/svg">
<path fill-rule="evenodd" clip-rule="evenodd" d="M2 5.5C2 5.08579 2.33579 4.75 2.75 4.75H21.25C21.6642 4.75 22 5.08579 22 5.5V18.5C22 18.9142 21.6642 19.25 21.25 19.25H2.75C2.33579 19.25 2 18.9142 2 18.5V5.5ZM17.5 9.875C17.9142 9.875 18.25 10.2108 18.25 10.625V10.6337C18.25 11.0479 17.9142 11.3837 17.5 11.3837C17.0858 11.3837 16.75 11.0479 16.75 10.6337V10.625C16.75 10.2108 17.0858 9.875 17.5 9.875ZM14.75 12.625C15.1642 12.625 15.5 12.9608 15.5 13.375V13.3837C15.5 13.7979 15.1642 14.1337 14.75 14.1337C14.3358 14.1337 14 13.7979 14 13.3837V13.375C14 12.9608 14.3358 12.625 14.75 12.625ZM7.5 15.25V12.75H5V11.25H7.5V8.75H9V11.25H11.5V12.75H9V15.25H7.5Z" fill="#191C1E"/>
</svg>
