<svg width="24" height="24" viewBox="0 0 24 24" fill="none" xmlns="http://www.w3.org/2000/svg">
<path d="M8.5 2.75C8.5 2.33579 8.16421 2 7.75 2H4.75C4.55109 2 4.36032 2.07902 4.21967 2.21967C4.07902 2.36032 4 2.55109 4 2.75V12C4 12.4142 4.33579 12.75 4.75 12.75H7.75C7.94891 12.75 8.13968 12.671 8.28033 12.5303C8.42098 12.3897 8.5 12.1989 8.5 12L8.5 2.75Z" fill="#191C1E"/>
<path d="M10.5 6.5C10.3011 6.5 10.1103 6.57902 9.96967 6.71967C9.82902 6.86032 9.75 7.05109 9.75 7.25L9.75 16.5C9.75 16.9142 10.0858 17.25 10.5 17.25H13.5C13.6989 17.25 13.8897 17.171 14.0303 17.0303C14.171 16.8897 14.25 16.6989 14.25 16.5L14.25 7.25C14.25 6.83579 13.9142 6.5 13.5 6.5H10.5Z" fill="#191C1E"/>
<path d="M16.25 11.25C16.0511 11.25 15.8603 11.329 15.7197 11.4697C15.579 11.6103 15.5 11.8011 15.5 12L15.5 21.25C15.5 21.6642 15.8358 22 16.25 22H19.25C19.4489 22 19.6397 21.921 19.7803 21.7803C19.921 21.6397 20 21.4489 20 21.25V12C20 11.5858 19.6642 11.25 19.25 11.25H16.25Z" fill="#191C1E"/>
</svg>
