<svg width="24" height="24" viewBox="0 0 24 24" fill="none" xmlns="http://www.w3.org/2000/svg">
<path d="M2.75 4C2.33579 4 2 4.33579 2 4.75V7.75C2 8.16421 2.33579 8.5 2.75 8.5H12C12.4142 8.5 12.75 8.16421 12.75 7.75V4.75C12.75 4.33579 12.4142 4 12 4H2.75Z" fill="#191C1E"/>
<path d="M7.25 9.75C6.83579 9.75 6.5 10.0858 6.5 10.5V13.5C6.5 13.9142 6.83579 14.25 7.25 14.25H16.5C16.9142 14.25 17.25 13.9142 17.25 13.5V10.5C17.25 10.0858 16.9142 9.75 16.5 9.75H7.25Z" fill="#191C1E"/>
<path d="M12 15.5C11.5858 15.5 11.25 15.8358 11.25 16.25V19.25C11.25 19.6642 11.5858 20 12 20H21.25C21.6642 20 22 19.6642 22 19.25V16.25C22 15.8358 21.6642 15.5 21.25 15.5H12Z" fill="#191C1E"/>
</svg>
