<svg width="24" height="24" viewBox="0 0 24 24" fill="none" xmlns="http://www.w3.org/2000/svg">
<path fill-rule="evenodd" clip-rule="evenodd" d="M6.24353 5.16192C6.24353 5.89456 6.476 6.59441 6.87504 7.17383H3.75C3.33579 7.17383 3 7.50961 3 7.92383V10.9238H21V7.92383C21 7.50961 20.6642 7.17383 20.25 7.17383H17.1007C17.4997 6.59441 17.7322 5.89456 17.7322 5.16192C17.7322 3.92746 16.7333 2.92383 15.4975 2.92383H15.2005C13.8664 2.92383 12.7019 3.60977 11.9879 4.62883C11.2738 3.60977 10.1094 2.92383 8.77521 2.92383H8.47826C7.24245 2.92383 6.24353 3.92746 6.24353 5.16192ZM8.47826 4.42383C8.07408 4.42383 7.74353 4.75268 7.74353 5.16192C7.74353 6.25873 8.63526 7.17383 9.66605 7.17383H11.2322V6.97145C11.2322 5.58373 10.1059 4.42383 8.77521 4.42383H8.47826ZM15.2005 4.42383C13.8698 4.42383 12.7435 5.58373 12.7435 6.97145V7.17383H14.3097C15.3404 7.17383 16.2322 6.25873 16.2322 5.16192C16.2322 4.75268 15.9016 4.42383 15.4975 4.42383H15.2005Z" fill="#191C1E"/>
<path d="M4.75 20.9238C4.33579 20.9238 4 20.588 4 20.1738V12.4238H11.2338V20.9238H4.75Z" fill="#191C1E"/>
<path d="M19.25 20.9238C19.6642 20.9238 20 20.588 20 20.1738V12.4238H12.7338V20.9238H19.25Z" fill="#191C1E"/>
</svg>
