<svg width="24" height="24" viewBox="0 0 24 24" fill="none" xmlns="http://www.w3.org/2000/svg">
<path d="M3 5.75C3 4.23122 4.23122 3 5.75 3C7.26878 3 8.5 4.23122 8.5 5.75C8.5 6.91599 7.77434 7.9125 6.75 8.31253V11H17.25V8.31253C16.2257 7.9125 15.5 6.91599 15.5 5.75C15.5 4.23122 16.7312 3 18.25 3C19.7688 3 21 4.23122 21 5.75C21 6.91599 20.2743 7.9125 19.25 8.31253V12C19.25 12.5523 18.8023 13 18.25 13H13V15.6875C14.0243 16.0875 14.75 17.084 14.75 18.25C14.75 19.7688 13.5188 21 12 21C10.4812 21 9.25 19.7688 9.25 18.25C9.25 17.084 9.97566 16.0875 11 15.6875V13H5.75C5.19772 13 4.75 12.5523 4.75 12V8.31253C3.72566 7.9125 3 6.91599 3 5.75Z" fill="#191C1E"/>
</svg>
