<svg width="24" height="24" viewBox="0 0 24 24" fill="none" xmlns="http://www.w3.org/2000/svg">
<path fill-rule="evenodd" clip-rule="evenodd" d="M12 22C17.5228 22 22 17.5228 22 12C22 6.47715 17.5228 2 12 2C6.47715 2 2 6.47715 2 12C2 17.5228 6.47715 22 12 22ZM12 4C11.7731 4 11.4816 4.0993 11.1324 4.43166C10.778 4.76892 10.4134 5.30422 10.0854 6.04218C9.92293 6.4077 9.77428 6.81214 9.64258 7.25L14.3574 7.25C14.2257 6.81214 14.0771 6.4077 13.9146 6.04218C13.5866 5.30422 13.222 4.76892 12.8676 4.43166C12.5184 4.0993 12.2269 4 12 4ZM9.20087 9.25C9.07162 10.105 9 11.0298 9 12C9 12.9702 9.07162 13.895 9.20087 14.75L14.7991 14.75C14.9284 13.895 15 12.9702 15 12C15 11.0298 14.9284 10.105 14.7991 9.25L9.20087 9.25ZM16.8194 14.75C16.9375 13.8734 17 12.95 17 12C17 11.05 16.9375 10.1266 16.8194 9.25L19.5148 9.25C19.8287 10.1075 20 11.0338 20 12C20 12.9662 19.8287 13.8925 19.5148 14.75H16.8194ZM9.64258 16.75C9.77428 17.1879 9.92293 17.5923 10.0854 17.9578C10.4134 18.6958 10.778 19.2311 11.1324 19.5683C11.4816 19.9007 11.7731 20 12 20C12.2269 20 12.5184 19.9007 12.8676 19.5683C13.222 19.2311 13.5866 18.6958 13.9146 17.9578C14.0771 17.5923 14.2257 17.1879 14.3574 16.75L9.64258 16.75ZM15.5544 19.169C15.6194 19.0388 15.682 18.9057 15.7422 18.7701C16.0124 18.1622 16.2445 17.4834 16.4331 16.75H18.4378C17.6855 17.768 16.6975 18.6012 15.5544 19.169ZM15.5544 4.83099C16.6975 5.39884 17.6855 6.23203 18.4378 7.25H16.4331C16.2445 6.51664 16.0124 5.83783 15.7422 5.2299C15.682 5.09431 15.6194 4.96122 15.5544 4.83099ZM8.44561 19.169C8.38064 19.0388 8.31802 18.9057 8.25776 18.7701C7.98757 18.1622 7.75547 17.4834 7.56687 16.75H5.56216C6.31449 17.768 7.3025 18.6012 8.44561 19.169ZM7.18063 14.75C7.06246 13.8734 7 12.95 7 12C7 11.05 7.06246 10.1266 7.18063 9.25L4.48519 9.25C4.1713 10.1075 4 11.0338 4 12C4 12.9662 4.1713 13.8925 4.48519 14.75H7.18063ZM7.56687 7.25C7.75547 6.51664 7.98757 5.83783 8.25776 5.2299C8.31802 5.09431 8.38064 4.96122 8.44561 4.83099C7.3025 5.39884 6.31449 6.23203 5.56216 7.25H7.56687Z" fill="#191C1E"/>
</svg>
