<svg width="24" height="24" viewBox="0 0 24 24" fill="none" xmlns="http://www.w3.org/2000/svg">
<path fill-rule="evenodd" clip-rule="evenodd" d="M16.4435 13.7528C16.4435 13.7528 16.4435 13.7528 16.5294 13.6753L16.4437 13.753C16.5859 13.9103 16.788 14 17 14C17.212 14 17.4141 13.9103 17.5563 13.753L17.4687 13.6736C17.5565 13.7528 17.5565 13.7528 17.5565 13.7528L17.5568 13.7525L17.56 13.7489L17.5684 13.7396C17.5754 13.7317 17.5855 13.7204 17.5984 13.7058C17.6241 13.6767 17.6611 13.6346 17.7076 13.5806C17.8007 13.4726 17.9324 13.317 18.09 13.1231C18.4043 12.7361 18.8247 12.1924 19.2466 11.5674C19.6671 10.9447 20.0983 10.2276 20.4266 9.4947C20.7506 8.77163 21 7.97772 21 7.21622C21 5.79241 20.4616 4.718 19.6603 4.0073C18.8773 3.31285 17.8828 3 17 3C16.1172 3 15.1227 3.31285 14.3397 4.0073C13.5384 4.718 13 5.79241 13 7.21622C13 7.97772 13.2494 8.77163 13.5734 9.4947C13.9017 10.2276 14.3329 10.9447 14.7534 11.5674C15.1753 12.1924 15.5957 12.7361 15.91 13.1231C16.0676 13.317 16.1993 13.4726 16.2924 13.5806C16.3389 13.6346 16.3759 13.6767 16.4016 13.7058C16.4145 13.7204 16.4246 13.7317 16.4316 13.7396L16.44 13.7489L16.4432 13.7525L16.4435 13.7528ZM17.4409 6.64329C17.1058 6.39982 16.6367 6.47411 16.3933 6.80921C16.1498 7.14432 16.2241 7.61335 16.5592 7.85682L16.5612 7.85828C16.8963 8.10175 17.3653 8.02747 17.6088 7.69236C17.8523 7.35726 17.778 6.88823 17.4429 6.64476L17.4409 6.64329Z" fill="#191C1E"/>
<path fill-rule="evenodd" clip-rule="evenodd" d="M5 9.75C5 7.95507 6.45508 6.5 8.25 6.5C10.0449 6.5 11.5 7.95508 11.5 9.75V17.125C11.5 18.4367 12.5633 19.5 13.875 19.5C15.1867 19.5 16.25 18.4367 16.25 17.125V15.5H17.75V17.125C17.75 19.2651 16.0151 21 13.875 21C11.7349 21 10 19.2651 10 17.125L10 9.75C10 8.7835 9.2165 8 8.25 8C7.2835 8 6.5 8.7835 6.5 9.75V15.6035C7.65425 15.93 8.5 16.9912 8.5 18.25C8.5 19.7688 7.26878 21 5.75 21C4.23122 21 3 19.7688 3 18.25C3 16.9912 3.84575 15.93 5 15.6035V9.75ZM5.75 17C5.05964 17 4.5 17.5596 4.5 18.25C4.5 18.9404 5.05964 19.5 5.75 19.5C6.44036 19.5 7 18.9404 7 18.25C7 17.5596 6.44036 17 5.75 17Z" fill="#191C1E"/>
</svg>
