<svg width="24" height="24" viewBox="0 0 24 24" fill="none" xmlns="http://www.w3.org/2000/svg">
<path fill-rule="evenodd" clip-rule="evenodd" d="M12 16.75C11.7972 16.75 11.6031 16.6679 11.4619 16.5224L11.4572 16.5176L11.4461 16.5061L11.4055 16.4636C11.3706 16.4267 11.3201 16.3731 11.2563 16.3043C11.1289 16.1666 10.9481 15.9677 10.7317 15.7196C10.2996 15.2242 9.72203 14.5286 9.14276 13.7295C8.56517 12.9327 7.97534 12.0186 7.52728 11.0874C7.08447 10.167 6.75 9.16876 6.75 8.21959C6.75 6.42331 7.4785 5.09383 8.5279 4.22707C9.5555 3.3783 10.8555 3 12 3C13.1445 3 14.4445 3.3783 15.4721 4.22707C16.5215 5.09383 17.25 6.42331 17.25 8.21959C17.25 9.16876 16.9155 10.167 16.4727 11.0874C16.0247 12.0186 15.4348 12.9327 14.8572 13.7295C14.278 14.5286 13.7004 15.2242 13.2683 15.7196C13.0519 15.9677 12.8711 16.1666 12.7437 16.3043C12.6799 16.3731 12.6294 16.4267 12.5945 16.4636L12.5539 16.5061L12.5381 16.5224C12.3969 16.6679 12.2028 16.75 12 16.75ZM12 6.125C10.9645 6.125 10.125 6.96447 10.125 8C10.125 9.03553 10.9645 9.875 12 9.875C13.0355 9.875 13.875 9.03553 13.875 8C13.875 6.96447 13.0355 6.125 12 6.125Z" fill="#191C1E"/>
<path d="M20.5604 15.8173L16.8104 14.1128L16.1896 15.4783L18.4376 16.5001L12 19.4263L5.56246 16.5002L7.81035 15.4784L7.18965 14.1128L3.43965 15.8174C3.1719 15.9391 3 16.206 3 16.5002C3 16.7943 3.1719 17.0612 3.43965 17.1829L11.6896 20.9329C11.8868 21.0226 12.1132 21.0226 12.3104 20.9329L20.5604 17.1829C20.8281 17.0612 21 16.7942 21 16.5001C21 16.206 20.8281 15.939 20.5604 15.8173Z" fill="#191C1E"/>
</svg>
