<svg width="24" height="24" viewBox="0 0 24 24" fill="none" xmlns="http://www.w3.org/2000/svg">
<path fill-rule="evenodd" clip-rule="evenodd" d="M12.5418 21.7686L12.5462 21.7641L12.5621 21.7474C12.5758 21.733 12.5957 21.7121 12.6215 21.6848C12.6729 21.6302 12.7476 21.5504 12.8421 21.4476C13.031 21.2422 13.2997 20.9446 13.6216 20.5731C14.2645 19.8309 15.1232 18.7895 15.9837 17.5945C16.8424 16.4018 17.7133 15.0417 18.372 13.6632C19.0256 12.2955 19.5 10.8493 19.5 9.5C19.5 6.90326 18.4587 5.00405 16.9713 3.76709C15.5053 2.548 13.6421 2 12 2C10.3579 2 8.49471 2.548 7.02874 3.76709C5.54127 5.00405 4.5 6.90326 4.5 9.5C4.5 10.8493 4.97439 12.2955 5.62799 13.6632C6.28674 15.0417 7.15759 16.4018 8.01635 17.5945C8.87676 18.7895 9.7355 19.8309 10.3784 20.5731C10.7003 20.9446 10.969 21.2422 11.1579 21.4476C11.2524 21.5504 11.3271 21.6302 11.3785 21.6848L11.3834 21.69L11.4137 21.722L11.4379 21.7474L11.4538 21.7641L11.4599 21.7703L11.4601 21.7706C11.6015 21.9172 11.7964 22 12 22C12.2036 22 12.3985 21.9172 12.5399 21.7706L12.5418 21.7686ZM14.5 9.25C14.5 10.6307 13.3807 11.75 12 11.75C10.6193 11.75 9.5 10.6307 9.5 9.25C9.5 7.86929 10.6193 6.75 12 6.75C13.3807 6.75 14.5 7.86929 14.5 9.25Z" fill="#191C1E"/>
</svg>
