<svg width="24" height="24" viewBox="0 0 24 24" fill="none" xmlns="http://www.w3.org/2000/svg">
<path d="M8.25 7.5C7.83579 7.5 7.5 7.83579 7.5 8.25V10.75C7.5 11.1642 7.83579 11.5 8.25 11.5H15.75C16.1642 11.5 16.5 11.1642 16.5 10.75V8.25C16.5 7.83579 16.1642 7.5 15.75 7.5H8.25Z" fill="#191C1E"/>
<path d="M8.25 12.5C7.83579 12.5 7.5 12.8358 7.5 13.25V15.75C7.5 16.1642 7.83579 16.5 8.25 16.5H15.75C16.1642 16.5 16.5 16.1642 16.5 15.75V13.25C16.5 12.8358 16.1642 12.5 15.75 12.5H8.25Z" fill="#191C1E"/>
<path fill-rule="evenodd" clip-rule="evenodd" d="M3.70294 3.70294C4.15303 3.25286 4.76348 3 5.4 3C6.03652 3 6.64697 3.25286 7.09706 3.70294C7.36527 3.97116 7.56344 4.29631 7.6798 4.65H16.3202C16.4366 4.29631 16.6347 3.97116 16.9029 3.70294C17.353 3.25286 17.9635 3 18.6 3C19.2365 3 19.847 3.25286 20.2971 3.70294C20.7471 4.15303 21 4.76348 21 5.4C21 6.03652 20.7471 6.64697 20.2971 7.09706C20.0288 7.36527 19.7037 7.56344 19.35 7.6798V16.3202C19.7037 16.4366 20.0288 16.6347 20.2971 16.9029C20.7471 17.353 21 17.9635 21 18.6C21 19.2365 20.7471 19.847 20.2971 20.2971C19.847 20.7471 19.2365 21 18.6 21C17.9635 21 17.353 20.7471 16.9029 20.2971C16.6347 20.0288 16.4366 19.7037 16.3202 19.35H7.6798C7.56344 19.7037 7.36527 20.0288 7.09706 20.2971C6.64697 20.7471 6.03652 21 5.4 21C4.76348 21 4.15303 20.7471 3.70294 20.2971C3.25286 19.847 3 19.2365 3 18.6C3 17.9635 3.25286 17.353 3.70294 16.9029C3.97116 16.6347 4.29631 16.4366 4.65 16.3202V7.6798C4.29631 7.56344 3.97116 7.36527 3.70294 7.09706C3.25286 6.64697 3 6.03652 3 5.4C3 4.76348 3.25286 4.15303 3.70294 3.70294ZM7.09706 7.09706C6.82884 7.36527 6.50369 7.56344 6.15 7.6798V16.3202C6.50369 16.4366 6.82884 16.6347 7.09706 16.9029C7.36527 17.1712 7.56344 17.4963 7.6798 17.85H16.3202C16.4366 17.4963 16.6347 17.1712 16.9029 16.9029C17.1712 16.6347 17.4963 16.4366 17.85 16.3202V7.6798C17.4963 7.56344 17.1712 7.36527 16.9029 7.09706C16.6347 6.82884 16.4366 6.50369 16.3202 6.15H7.6798C7.56344 6.50369 7.36527 6.82884 7.09706 7.09706Z" fill="#191C1E"/>
</svg>
