<svg width="24" height="24" viewBox="0 0 24 24" fill="none" xmlns="http://www.w3.org/2000/svg">
<path fill-rule="evenodd" clip-rule="evenodd" d="M13.4031 4.75001C14.2989 4.74842 15.1785 4.98872 15.9491 5.44555C16.7201 5.90265 17.3533 6.55956 17.7818 7.34685C18.0063 7.7606 18.1335 8.13755 18.1956 8.58886C18.3271 9.54388 17.8166 10.3804 17.1689 10.875L15.3681 12.25H21.25C21.5734 12.25 21.8604 12.4573 21.962 12.7644C22.0636 13.0714 21.957 13.409 21.6974 13.6019L14.5444 18.9186C14.2545 19.1341 13.9027 19.25 13.542 19.25H6.9125C5.6118 19.25 4.36303 18.738 3.44124 17.8245C2.51923 16.9108 2 15.6701 2 14.375C2 13.0799 2.51923 11.8392 3.44124 10.9255C3.66706 10.7017 3.91255 10.502 4.17361 10.328L10.6165 5.59835C10.6263 5.59118 10.6362 5.58425 10.6463 5.57757C11.4359 5.05481 12.3853 4.75001 13.4031 4.75001ZM10.5967 15.8699C10.1298 16.2494 9.50986 16.5 8.7625 16.5C7.90286 16.5 7.12485 16.2164 6.55893 15.6575C5.99197 15.0976 5.7 14.3226 5.7 13.4583H7.2C7.2 13.9801 7.37053 14.3509 7.61295 14.5903C7.8564 14.8307 8.23464 15 8.7625 15C9.16176 15 9.45094 14.8702 9.65649 14.7011C10.0733 14.3581 10.2564 13.6315 9.92089 12.8318C9.42817 11.6569 8.38931 11 6.9125 11C6.23223 11 5.57337 11.2009 5.01663 11.5688C4.83111 11.6914 4.65696 11.8325 4.49709 11.9909C3.85787 12.6244 3.5 13.4821 3.5 14.375C3.5 15.2679 3.85787 16.1256 4.49709 16.7591C5.13655 17.3928 6.00527 17.75 6.9125 17.75H13.542C13.5815 17.75 13.6193 17.7372 13.6496 17.7147L18.9837 13.75H13.4016L10.5967 15.8699Z" fill="#191C1E"/>
</svg>
