<svg width="24" height="24" viewBox="0 0 24 24" fill="none" xmlns="http://www.w3.org/2000/svg">
<path d="M4.22366 9.44685C4.77802 7.40869 6.1457 5.68983 7.97108 4.652L7.2297 3.34802C5.06866 4.5767 3.43882 6.61715 2.77625 9.05317L4.22366 9.44685Z" fill="#191C1E"/>
<path d="M16.0288 4.652C17.8542 5.68983 19.2219 7.40868 19.7762 9.44684L21.2237 9.05316C20.5611 6.61714 18.9313 4.5767 16.7702 3.34802L16.0288 4.652Z" fill="#191C1E"/>
<path d="M12.6405 12.8977C12.572 12.8291 12.5334 12.7361 12.5334 12.6392L12.5253 5.79287C12.5252 5.65576 12.498 5.52002 12.4454 5.39341C12.3928 5.26679 12.3157 5.15178 12.2187 5.05495C12.1216 4.95811 12.0065 4.88133 11.8797 4.82901C11.753 4.77669 11.6172 4.74984 11.4802 4.75C11.3431 4.75016 11.2073 4.77733 11.0807 4.82994C10.9541 4.88256 10.8392 4.9596 10.7423 5.05667C10.6455 5.15373 10.5687 5.26892 10.5164 5.39566C10.4641 5.5224 10.4373 5.6582 10.4374 5.79531L10.4439 11.8981C10.4439 11.9951 10.4054 12.0881 10.3368 12.1567C10.2683 12.2253 10.1753 12.2638 10.0783 12.2638C9.98137 12.2638 9.88839 12.2253 9.81983 12.1567C9.75126 12.0881 9.71275 11.9951 9.71275 11.8981L9.7095 7.22941C9.7095 7.00271 9.61945 6.78529 9.45917 6.62499C9.29889 6.46469 9.08151 6.37463 8.85484 6.37463C8.62817 6.37463 8.41078 6.46469 8.2505 6.62499C8.09022 6.78529 8.00018 7.00271 8.00018 7.22941L8.00343 14.2447C8.00343 14.3417 7.96491 14.4347 7.89635 14.5032C7.82779 14.5718 7.7348 14.6103 7.63784 14.6103C7.54088 14.6103 7.4479 14.5718 7.37934 14.5032C7.31077 14.4347 7.27226 14.3417 7.27226 14.2447V11.0743L5.64012 12.5019C5.15036 12.9306 4.83863 13.5271 4.76617 14.174C4.69371 14.8209 4.86577 15.4716 5.24854 15.9981L8.00018 19.7812V20.1875C8.00018 20.403 8.08577 20.6096 8.23813 20.762C8.39049 20.9144 8.59713 21 8.81259 21H15.3119C15.5274 21 15.734 20.9144 15.8864 20.762C16.0387 20.6096 16.1243 20.403 16.1243 20.1875V19.7812L17.0383 18.6404C17.4991 18.0641 17.7501 17.348 17.75 16.61V8.36775C17.75 8.14148 17.6601 7.92448 17.5001 7.76448C17.3401 7.60449 17.1232 7.5146 16.8969 7.5146C16.6707 7.5146 16.4537 7.60449 16.2937 7.76448C16.1338 7.92448 16.0439 8.14148 16.0439 8.36775V13.4598C16.0439 13.5568 16.0054 13.6498 15.9368 13.7184C15.8682 13.7869 15.7753 13.8254 15.6783 13.8254C15.5813 13.8254 15.4884 13.7869 15.4198 13.7184C15.3512 13.6498 15.3127 13.5568 15.3127 13.4598V7.39841C15.3127 7.12678 15.2048 6.86628 15.0128 6.6742C14.8207 6.48213 14.5603 6.37423 14.2887 6.37423C14.0171 6.37423 13.7566 6.48213 13.5646 6.6742C13.3725 6.86628 13.2646 7.12678 13.2646 7.39841V12.6392C13.2646 12.7361 13.2261 12.8291 13.1575 12.8977C13.089 12.9663 12.996 13.0048 12.899 13.0048C12.8021 13.0048 12.7091 12.9663 12.6405 12.8977Z" fill="#191C1E"/>
</svg>
