<svg width="24" height="24" viewBox="0 0 24 24" fill="none" xmlns="http://www.w3.org/2000/svg">
<path d="M12 2C9.23304 2 6.62529 2.69126 4.34223 3.91112C4.09812 4.04156 3.94568 4.29584 3.94568 4.57262V4.57609C3.94568 4.6982 3.9755 4.81847 4.03254 4.92644L8.08686 12.6004L8.87304 14.1122L9.87723 11.2542C10.1938 10.353 11.0449 9.75 12 9.75C12.9551 9.75 13.8062 10.353 14.1228 11.2542L15.127 14.1122L15.9131 12.6004L19.9675 4.92644C20.0246 4.81847 20.0544 4.6982 20.0544 4.57609V4.57262C20.0544 4.29584 19.9019 4.04156 19.6578 3.91112C17.3748 2.69126 14.767 2 12 2Z" fill="#191C1E"/>
<path d="M12.7076 11.7514C12.6021 11.451 12.3184 11.25 12 11.25C11.6817 11.25 11.398 11.451 11.2924 11.7514L8.04243 21.0014C7.94355 21.2828 8.02084 21.5961 8.23927 21.7992C8.45769 22.0023 8.77573 22.0567 9.04925 21.9377C9.9558 21.5433 10.9524 21.3251 12 21.3251C13.0477 21.3251 14.0443 21.5433 14.9508 21.9377C15.2243 22.0567 15.5424 22.0023 15.7608 21.7992C15.9792 21.5961 16.0565 21.2828 15.9576 21.0014L12.7076 11.7514Z" fill="#191C1E"/>
</svg>
