<svg width="24" height="24" viewBox="0 0 24 24" fill="none" xmlns="http://www.w3.org/2000/svg">
<path d="M4.60412 10.7475C5.25336 10.2771 6.05364 10 6.91667 10H8.5C8.91421 10 9.25 10.3358 9.25 10.75V17C9.25 17.4142 8.91421 17.75 8.5 17.75H6.91667C4.76294 17.75 3 16.0244 3 13.875V12C3 7.02944 7.02944 3 12 3C16.9706 3 21 7.02944 21 12V20.25C21 20.6642 20.6642 21 20.25 21H12V19.5H19.5V16.9244C18.8331 17.4421 17.9931 17.75 17.0833 17.75H15.5C15.0858 17.75 14.75 17.4142 14.75 17V10.75C14.75 10.3358 15.0858 10 15.5 10H17.0833C17.9464 10 18.7466 10.2771 19.3959 10.7475C18.7997 7.20158 15.7154 4.5 12 4.5C8.28463 4.5 5.20025 7.20158 4.60412 10.7475Z" fill="#191C1E"/>
</svg>
