<svg width="24" height="24" viewBox="0 0 24 24" fill="none" xmlns="http://www.w3.org/2000/svg">
<path d="M4.5 12C4.5 7.85786 7.85786 4.5 12 4.5C16.1421 4.5 19.5 7.85786 19.5 12V13.0756C18.8331 12.5579 17.9931 12.25 17.0833 12.25H15.5C15.0858 12.25 14.75 12.5858 14.75 13V19.25C14.75 19.6642 15.0858 20 15.5 20H17.0833C19.2371 20 21 18.2744 21 16.125V12C21 7.02944 16.9706 3 12 3C7.02944 3 3 7.02944 3 12V16.125C3 18.2744 4.76294 20 6.91667 20H8.5C8.91421 20 9.25 19.6642 9.25 19.25V13C9.25 12.5858 8.91421 12.25 8.5 12.25H6.91667C6.00691 12.25 5.16688 12.5579 4.5 13.0756V12Z" fill="#191C1E"/>
</svg>
