<svg width="24" height="25" viewBox="0 0 24 25" fill="none" xmlns="http://www.w3.org/2000/svg">
<path d="M11.25 4.625C7.10786 4.625 3.75 7.98286 3.75 12.125C3.75 16.2671 7.10786 19.625 11.25 19.625C13.3196 19.625 15.1918 18.788 16.5499 17.4317C17.009 16.9732 17.4089 16.4556 17.7371 15.8918C17.9012 15.6098 18.0474 15.3162 18.1742 15.0127L20.0197 15.7834C19.8589 16.1685 19.6735 16.5406 19.4656 16.8979C19.0498 17.6122 18.5438 18.267 17.9632 18.8468C16.2455 20.5624 13.8709 21.625 11.25 21.625C6.00329 21.625 1.75 17.3717 1.75 12.125C1.75 6.87829 6.00329 2.625 11.25 2.625C11.5628 2.625 11.8723 2.64015 12.1779 2.66981L11.9847 4.66046C11.7432 4.63702 11.4982 4.625 11.25 4.625Z" fill="#191C1E"/>
<path d="M14.7828 5.50727C14.3532 5.2774 13.8989 5.08827 13.4248 4.94489L14.0038 3.03053C14.6055 3.21252 15.1819 3.4525 15.7264 3.74386L14.7828 5.50727Z" fill="#191C1E"/>
<path d="M17.0521 7.37223C16.7376 6.98878 16.3858 6.63701 16.0024 6.32252L17.2706 4.77607C17.7557 5.1739 18.2007 5.6188 18.5985 6.10386L17.0521 7.37223Z" fill="#191C1E"/>
<path d="M18.4291 9.947C18.2861 9.47471 18.0976 9.022 17.8686 8.59391L19.6323 7.65076C19.9225 8.1934 20.1616 8.76769 20.3432 9.36717L18.4291 9.947Z" fill="#191C1E"/>
<path d="M15.0186 13.27L12.25 11.5909V6.125H10.25V12.154C10.25 12.5036 10.4325 12.8278 10.7314 13.009L13.9814 14.98L15.0186 13.27Z" fill="#191C1E"/>
<path d="M19.0429 14.0821L16.2929 11.3321L17.7071 9.91791L19.75 11.9608L21.7929 9.91791L23.2071 11.3321L20.4571 14.0821C20.0666 14.4726 19.4334 14.4726 19.0429 14.0821Z" fill="#191C1E"/>
</svg>
