<svg width="24" height="24" viewBox="0 0 24 24" fill="none" xmlns="http://www.w3.org/2000/svg">
<path fill-rule="evenodd" clip-rule="evenodd" d="M11.5103 3.43194C11.7917 3.18935 12.2083 3.18935 12.4897 3.43194L19.7397 9.68194C19.905 9.82442 20 10.0318 20 10.25V20.25C20 20.6642 19.6642 21 19.25 21H4.75C4.33579 21 4 20.6642 4 20.25V10.25C4 10.0318 4.09503 9.82442 4.2603 9.68194L11.5103 3.43194ZM9.54211 12.7522L11.2921 7.75224L12.7079 8.24776L11.3071 12.25H13.75C13.9893 12.25 14.2142 12.3642 14.3554 12.5573C14.4966 12.7505 14.5372 12.9994 14.4647 13.2274L12.7147 18.7274L11.2853 18.2726L12.7243 13.75H10.25C10.0069 13.75 9.77896 13.6322 9.63832 13.434C9.49768 13.2357 9.46182 12.9816 9.54211 12.7522Z" fill="#191C1E"/>
</svg>
