<svg width="24" height="24" viewBox="0 0 24 24" fill="none" xmlns="http://www.w3.org/2000/svg">
<path fill-rule="evenodd" clip-rule="evenodd" d="M11.5103 3.43194C11.7917 3.18935 12.2083 3.18935 12.4897 3.43194L19.7397 9.68194C19.905 9.82442 20 10.0318 20 10.25V20.25C20 20.6642 19.6642 21 19.25 21H4.75C4.33579 21 4 20.6642 4 20.25V10.25C4 10.0318 4.09503 9.82442 4.2603 9.68194L11.5103 3.43194ZM11 17C11 16.4477 11.4477 16 12 16H12.0014C12.5537 16 13.0014 16.4477 13.0014 17C13.0014 17.5523 12.5537 18 12.0014 18H12C11.4477 18 11 17.5523 11 17ZM11.25 14.5V9.25H12.75V14.5H11.25Z" fill="#191C1E"/>
</svg>
