<svg width="24" height="24" viewBox="0 0 24 24" fill="none" xmlns="http://www.w3.org/2000/svg">
<path d="M12.4897 3.43194C12.2083 3.18935 11.7917 3.18935 11.5103 3.43194L4.2603 9.68194C4.09503 9.82442 4 10.0318 4 10.25V20.25C4 20.6642 4.33579 21 4.75 21H11.25V17.4638C9.52745 17.1083 8.25 15.5519 8.25 13.715V11.75C8.25 11.3358 8.58579 11 9 11H9.65V9H11.15V11H12.85V9H14.35V11H15C15.4142 11 15.75 11.3358 15.75 11.75V13.715C15.75 15.5519 14.4725 17.1083 12.75 17.4638V21H19.25C19.6642 21 20 20.6642 20 20.25V10.25C20 10.0318 19.905 9.82442 19.7397 9.68194L12.4897 3.43194Z" fill="#191C1E"/>
</svg>
