<svg width="24" height="24" viewBox="0 0 24 24" fill="none" xmlns="http://www.w3.org/2000/svg">
<path fill-rule="evenodd" clip-rule="evenodd" d="M11.5103 3.43194C11.7917 3.18935 12.2083 3.18935 12.4897 3.43194L19.7397 9.68194C19.905 9.82442 20 10.0318 20 10.25V20.25C20 20.6642 19.6642 21 19.25 21H4.75C4.33579 21 4 20.6642 4 20.25V10.25C4 10.0318 4.09503 9.82442 4.2603 9.68194L11.5103 3.43194ZM10.9394 13.75L8.46973 11.2803L9.53039 10.2197L12.0001 12.6893L14.4697 10.2197L15.5304 11.2803L13.0607 13.75L15.5304 16.2197L14.4697 17.2803L12.0001 14.8107L9.53039 17.2803L8.46973 16.2197L10.9394 13.75Z" fill="#191C1E"/>
</svg>
