<svg width="24" height="25" viewBox="0 0 24 25" fill="none" xmlns="http://www.w3.org/2000/svg">
<path fill-rule="evenodd" clip-rule="evenodd" d="M4 22.125L20 22.125V20.625H18.5V17.862L18.5001 17.7374C18.5012 17.1331 18.5022 16.5959 18.2659 16.1193C18.0297 15.6426 17.6016 15.3181 17.12 14.953L17.0207 14.8777L13.2386 12L18.2041 8.22187C18.3906 8.08003 18.5 7.85924 18.5 7.625L18.5 3.625L20 3.625V2.125H4V3.625L5.5 3.625L5.5 7.625C5.5 7.85924 5.60944 8.08003 5.79586 8.22187L10.7614 12L6.97929 14.8777L6.88003 14.953C6.39844 15.3181 5.97034 15.6426 5.73407 16.1193C5.4978 16.5959 5.49876 17.1331 5.49985 17.7374L5.5 17.862L5.5 20.625H4V22.125ZM16.922 16.7854C16.9817 16.9059 17 17.0576 17 17.862V20.625L7 20.625L7 17.862C7 17.0576 7.01832 16.9059 7.07802 16.7854C7.13773 16.665 7.24734 16.5586 7.88758 16.0714L12 12.9424L16.1124 16.0714C16.7527 16.5586 16.8623 16.665 16.922 16.7854ZM17 6.875L7 6.875L7 3.625L17 3.625L17 6.875Z" fill="#191C1E"/>
</svg>
