<svg width="24" height="25" viewBox="0 0 24 25" fill="none" xmlns="http://www.w3.org/2000/svg">
<path fill-rule="evenodd" clip-rule="evenodd" d="M4 22.125L20 22.125V20.625H18.5V17.862L18.5001 17.7374C18.5012 17.1331 18.5022 16.5959 18.2659 16.1193C18.0297 15.6426 17.6016 15.3181 17.12 14.953L17.0207 14.8777L13.2386 12L17.0207 9.12231L17.12 9.04697C17.6016 8.68191 18.0297 8.3574 18.2659 7.88074C18.5022 7.40408 18.5012 6.86689 18.5002 6.26257L18.5 6.13795L18.5 3.625L20 3.625V2.125H4V3.625L5.5 3.625L5.5 6.13795L5.49985 6.26257C5.49877 6.86689 5.4978 7.40408 5.73407 7.88074C5.97034 8.3574 6.39844 8.68191 6.88003 9.04697L6.97929 9.12231L10.7614 12L6.97929 14.8777L6.88003 14.953C6.39844 15.3181 5.97034 15.6426 5.73407 16.1193C5.4978 16.5959 5.49876 17.1331 5.49985 17.7374L5.5 17.862L5.5 20.625H4V22.125ZM16.922 16.7854C16.9753 16.893 16.9956 17.0254 16.9993 17.625H7.00066C7.0044 17.0254 7.02472 16.893 7.07802 16.7854C7.13773 16.665 7.24734 16.5586 7.88758 16.0714L12 12.9424L16.1124 16.0714C16.7527 16.5586 16.8623 16.665 16.922 16.7854ZM15.8543 8.125L8.14575 8.125L7.88758 7.92857C7.24734 7.44143 7.13773 7.33501 7.07802 7.21456C7.01832 7.09412 7 6.94244 7 6.13795L7 3.625L17 3.625L17 6.13795C17 6.94244 16.9817 7.09412 16.922 7.21456C16.8623 7.33501 16.7527 7.44143 16.1124 7.92857L15.8543 8.125Z" fill="#191C1E"/>
</svg>
