<svg width="24" height="25" viewBox="0 0 24 25" fill="none" xmlns="http://www.w3.org/2000/svg">
<path fill-rule="evenodd" clip-rule="evenodd" d="M18.5001 6.51257C18.5001 6.47134 18.5 6.42981 18.5 6.38795V3.625H20V2.125H4V3.625H5.5V6.38795C5.5 6.42975 5.49993 6.47123 5.49985 6.5124C5.49876 7.11672 5.4978 7.65408 5.73407 8.13074C5.97034 8.6074 6.39844 8.93191 6.88003 9.29697L6.88038 9.29723C6.91312 9.32205 6.9461 9.34706 6.97929 9.37231L10.7614 12.25L5.79586 16.0281C5.60944 16.17 5.5 16.3908 5.5 16.625V20.625H4V22.125H20V20.625H18.5V16.625C18.5 16.3908 18.3906 16.17 18.2041 16.0281L13.2386 12.25L17.0207 9.37231C17.054 9.34697 17.0871 9.32188 17.12 9.29697C17.6016 8.93191 18.0297 8.60739 18.2659 8.13074C18.5022 7.65408 18.5012 7.11689 18.5001 6.51257ZM7.07802 7.46456C7.01832 7.34412 7 7.19244 7 6.38795V3.625H17V6.38795C17 7.19244 16.9817 7.34412 16.922 7.46456C16.8623 7.58501 16.7527 7.69143 16.1124 8.17857L12 11.3076L7.88758 8.17857C7.24734 7.69143 7.13773 7.58501 7.07802 7.46456ZM8.47432 15.875L12 13.1924L15.5257 15.875H8.47432Z" fill="#191C1E"/>
</svg>
