<svg width="24" height="24" viewBox="0 0 24 24" fill="none" xmlns="http://www.w3.org/2000/svg">
<path d="M12 2C10.7574 2 9.75 3.00736 9.75 4.25C9.75 5.49264 10.7574 6.5 12 6.5C13.2426 6.5 14.25 5.49264 14.25 4.25C14.25 3.00736 13.2426 2 12 2Z" fill="#191C1E"/>
<path d="M9.30005 8.10577C9.41145 7.81612 9.68973 7.625 10.0001 7.625H14.0001C14.3104 7.625 14.5887 7.81612 14.7001 8.10577L17.2001 14.6058L15.8 15.1442L14.4608 11.6622L14.2522 14.0091L14.7646 21.9517L13.2677 22.0483L12.7969 14.75H11.2032L10.7324 22.0483L9.23549 21.9517L9.74791 14.0091L9.5393 11.6622L8.20007 15.1442L6.80005 14.6058L9.30005 8.10577Z" fill="#191C1E"/>
</svg>
