<svg width="24" height="24" viewBox="0 0 24 24" fill="none" xmlns="http://www.w3.org/2000/svg">
<path d="M20.25 3C20.6642 3 21 3.33579 21 3.75V10.5H19.5V4.5L4.5 4.5L4.5 11.6893L8.09467 8.09467C8.38756 7.80178 8.86243 7.80178 9.15533 8.09467L12 10.9393L13.7197 9.21967C14.0126 8.92678 14.4874 8.92678 14.7803 9.21967L16.8454 11.2847L12.6801 15.45C12.3134 15.8333 12.0717 16.2833 11.9551 16.8L11.3301 19.775C11.2833 19.9974 11.2606 20.2125 11.2622 20.4202V21H3.75C3.33579 21 3 20.6642 3 20.25L3 3.75C3 3.33579 3.33579 3 3.75 3L20.25 3Z" fill="#191C1E"/>
<path d="M16.5 6.75C16.5 6.33579 16.8358 6 17.25 6H17.2525C17.6667 6 18.0025 6.33579 18.0025 6.75C18.0025 7.16421 17.6667 7.5 17.2525 7.5H17.25C16.8358 7.5 16.5 7.16421 16.5 6.75Z" fill="#191C1E"/>
<path d="M18.4956 12.6965C18.7576 12.4345 19.1825 12.4345 19.4446 12.6965L21.8035 15.0554C22.0655 15.3175 22.0655 15.7424 21.8035 16.0044L17.6242 20.1837C17.5318 20.2761 17.4144 20.3395 17.2864 20.3661L14.3078 20.9859C14.0863 21.032 13.8565 20.9634 13.6966 20.8034C13.5366 20.6435 13.468 20.4137 13.5141 20.1922L14.1339 17.2136C14.1605 17.0856 14.2239 16.9682 14.3163 16.8758L18.4956 12.6965Z" fill="#191C1E"/>
</svg>
