<svg width="24" height="24" viewBox="0 0 24 24" fill="none" xmlns="http://www.w3.org/2000/svg">
<path fill-rule="evenodd" clip-rule="evenodd" d="M20.25 3C20.6642 3 21 3.33579 21 3.75V20.25C21 20.4489 20.921 20.6397 20.7803 20.7803C20.6397 20.921 20.4489 21 20.25 21H3.75C3.33579 21 3 20.6642 3 20.25L3 3.75C3 3.33579 3.33579 3 3.75 3L20.25 3ZM19.5 4.5L4.5 4.5L4.5 11.6893L8.09467 8.09467C8.38756 7.80178 8.86243 7.80178 9.15533 8.09467L12 10.9393L13.7197 9.21967C14.0126 8.92678 14.4874 8.92678 14.7803 9.21967L19.5 13.9393V4.5Z" fill="#191C1E"/>
<path fill-rule="evenodd" clip-rule="evenodd" d="M16.5 6.75C16.5 6.33579 16.8358 6 17.25 6H17.2525C17.6667 6 18.0025 6.33579 18.0025 6.75C18.0025 7.16421 17.6667 7.5 17.2525 7.5H17.25C16.8358 7.5 16.5 7.16421 16.5 6.75Z" fill="#191C1E"/>
</svg>
