<svg width="24" height="24" viewBox="0 0 24 24" fill="none" xmlns="http://www.w3.org/2000/svg">
<path fill-rule="evenodd" clip-rule="evenodd" d="M4 3C3.44772 3 3 3.44772 3 4V20C3 20.5523 3.44772 21 4 21H20C20.5523 21 21 20.5523 21 20V4C21 3.44772 20.5523 3 20 3H4ZM13.6667 13.7778C13.6667 13.2255 14.1144 12.7778 14.6667 12.7778H19V5H5V12.7778H9.33333C9.88562 12.7778 10.3333 13.2255 10.3333 13.7778C10.3333 14.6983 11.0795 15.4444 12 15.4444C12.9205 15.4444 13.6667 14.6983 13.6667 13.7778Z" fill="#191C1E"/>
</svg>
