<svg width="24" height="24" viewBox="0 0 24 24" fill="none" xmlns="http://www.w3.org/2000/svg">
<path fill-rule="evenodd" clip-rule="evenodd" d="M2 12C2 6.47715 6.47715 2 12 2C17.5228 2 22 6.47715 22 12C22 17.5228 17.5228 22 12 22C6.47715 22 2 17.5228 2 12ZM12.75 11C12.75 10.5858 12.4142 10.25 12 10.25H9.75V11.75H11.25V15.25H9.75V16.75H14.25V15.25H12.75V11ZM11.25 8C11.25 7.58579 11.5858 7.25 12 7.25H12.0025C12.4167 7.25 12.7525 7.58579 12.7525 8C12.7525 8.41421 12.4167 8.75 12.0025 8.75H12C11.5858 8.75 11.25 8.41421 11.25 8Z" fill="#191C1E"/>
</svg>
