<svg width="24" height="24" viewBox="0 0 24 24" fill="none" xmlns="http://www.w3.org/2000/svg">
<path d="M20.25 3C20.6642 3 21 3.33579 21 3.75V11.8762C20.5448 11.5203 20.0409 11.2237 19.5 10.9982V4.5L4.5 4.5L4.5 11.6893L8.09467 8.09467C8.38756 7.80178 8.86243 7.80178 9.15533 8.09467C10.5835 9.52285 11.7743 10.7226 12.9536 11.9128C11.4584 13.1037 10.5 14.9399 10.5 17C10.5 18.5085 11.0139 19.897 11.8762 21H3.75C3.33579 21 3 20.6642 3 20.25L3 3.75C3 3.33579 3.33579 3 3.75 3L20.25 3Z" fill="#191C1E"/>
<path d="M16.5 6.75C16.5 6.33579 16.8358 6 17.25 6H17.2525C17.6667 6 18.0025 6.33579 18.0025 6.75C18.0025 7.16421 17.6667 7.5 17.2525 7.5H17.25C16.8358 7.5 16.5 7.16421 16.5 6.75Z" fill="#191C1E"/>
<path fill-rule="evenodd" clip-rule="evenodd" d="M16.3587 12.25C14.0928 12.25 12.25 14.0794 12.25 16.3433C12.25 18.6072 14.0928 20.4366 16.3587 20.4366C17.2527 20.4366 18.081 20.1515 18.7557 19.6681L20.6278 21.5315L21.686 20.4685L19.7957 18.5868C20.22 17.9428 20.4674 17.1715 20.4674 16.3433C20.4674 14.0794 18.6246 12.25 16.3587 12.25ZM13.75 16.3433C13.75 14.9143 14.9147 13.75 16.3587 13.75C17.8027 13.75 18.9674 14.9143 18.9674 16.3433C18.9674 17.0351 18.6959 17.6627 18.2506 18.1288C17.7747 18.6269 17.104 18.9366 16.3587 18.9366C14.9147 18.9366 13.75 17.7723 13.75 16.3433Z" fill="#191C1E"/>
</svg>
