<svg width="24" height="24" viewBox="0 0 24 24" fill="none" xmlns="http://www.w3.org/2000/svg">
<path fill-rule="evenodd" clip-rule="evenodd" d="M9 12.25C9 11.8358 9.33579 11.5 9.75 11.5H14.25C14.6642 11.5 15 11.8358 15 12.25V16.75C15 17.1642 14.6642 17.5 14.25 17.5H9.75C9.33579 17.5 9 17.1642 9 16.75V12.25Z" fill="#191C1E"/>
<path fill-rule="evenodd" clip-rule="evenodd" d="M9 5.25C9 4.83579 9.33579 4.5 9.75 4.5H14.25C14.6642 4.5 15 4.83579 15 5.25V9.75C15 10.1642 14.6642 10.5 14.25 10.5H9.75C9.33579 10.5 9 10.1642 9 9.75V5.25Z" fill="#191C1E"/>
<path fill-rule="evenodd" clip-rule="evenodd" d="M2 12.25C2 11.8358 2.33579 11.5 2.75 11.5H7.25C7.66421 11.5 8 11.8358 8 12.25V16.75C8 17.1642 7.66421 17.5 7.25 17.5H2.75C2.33579 17.5 2 17.1642 2 16.75V12.25Z" fill="#191C1E"/>
<path fill-rule="evenodd" clip-rule="evenodd" d="M16 12.25C16 11.8358 16.3358 11.5 16.75 11.5H21.25C21.6642 11.5 22 11.8358 22 12.25V16.75C22 17.1642 21.6642 17.5 21.25 17.5H16.75C16.3358 17.5 16 17.1642 16 16.75V12.25Z" fill="#191C1E"/>
</svg>
