<svg width="24" height="24" viewBox="0 0 24 24" fill="none" xmlns="http://www.w3.org/2000/svg">
<path fill-rule="evenodd" clip-rule="evenodd" d="M12 3C9.92893 3 8.25 4.67893 8.25 6.75C8.25 7.97686 8.83916 9.06612 9.75 9.75027V13.5C9.75 13.8973 9.99226 14.1565 10.1536 14.2837C10.3235 14.4175 10.5228 14.5053 10.7022 14.5651C11.0688 14.6873 11.5276 14.75 12 14.75C12.4724 14.75 12.9312 14.6873 13.2978 14.5651C13.4772 14.5053 13.6765 14.4175 13.8464 14.2837C14.0077 14.1565 14.25 13.8973 14.25 13.5V9.75027C15.1608 9.06612 15.75 7.97686 15.75 6.75C15.75 4.67893 14.0711 3 12 3ZM12.75 10.425C12.5077 10.4742 12.2568 10.5 12 10.5C11.7432 10.5 11.4923 10.4742 11.25 10.425V13.1641C11.4286 13.2126 11.6897 13.25 12 13.25C12.3103 13.25 12.5714 13.2126 12.75 13.1641V10.425Z" fill="#191C1E"/>
<path d="M16.3813 11.7952L15.8687 13.2048L18.0554 14L12 16.202L5.94462 14L8.13131 13.2048L7.61869 11.7952L3.49483 13.2947C3.48797 13.2972 3.48115 13.2998 3.47436 13.3025C3.35215 13.3508 3.24767 13.4289 3.16813 13.5268C3.06178 13.6576 3 13.8235 3 14V17.25C3 17.5654 3.1973 17.8471 3.49369 17.9548L11.7437 20.9548C11.9093 21.015 12.0907 21.015 12.2563 20.9548L20.5063 17.9548C20.8027 17.8471 21 17.5654 21 17.25V14C21 13.9803 20.9992 13.9607 20.9977 13.9413C20.9897 13.8384 20.9606 13.7401 20.9142 13.6516C20.8818 13.5899 20.8409 13.5329 20.7928 13.4824C20.7303 13.4169 20.6557 13.3623 20.5715 13.3224C20.5504 13.3124 20.5286 13.3033 20.5063 13.2952L16.3813 11.7952Z" fill="#191C1E"/>
</svg>
