<svg width="24" height="24" viewBox="0 0 24 24" fill="none" xmlns="http://www.w3.org/2000/svg">
<path fill-rule="evenodd" clip-rule="evenodd" d="M3 5.41463C3 4.77423 3.2544 4.16006 3.70723 3.70723C4.16006 3.2544 4.77423 3 5.41463 3H18.5854C18.9025 3 19.2164 3.06246 19.5094 3.1838C19.8024 3.30515 20.0686 3.48301 20.2928 3.70723C20.517 3.93145 20.6948 4.19764 20.8162 4.49059C20.9375 4.78355 21 5.09754 21 5.41463V18.5854C21 18.9025 20.9375 19.2164 20.8162 19.5094C20.6948 19.8024 20.517 20.0686 20.2928 20.2928C20.0686 20.517 19.8024 20.6948 19.5094 20.8162C19.2164 20.9375 18.9025 21 18.5854 21H5.41463C5.09754 21 4.78355 20.9375 4.49059 20.8162C4.19764 20.6948 3.93145 20.517 3.70723 20.2928C3.48301 20.0686 3.30515 19.8024 3.1838 19.5094C3.06246 19.2164 3 18.9025 3 18.5854V5.41463ZM15.9512 12C15.9512 13.0479 15.5349 14.0529 14.7939 14.7939C14.0529 15.5349 13.0479 15.9512 12 15.9512C10.9521 15.9512 9.94706 15.5349 9.20607 14.7939C8.46507 14.0529 8.04878 13.0479 8.04878 12C8.04878 10.9521 8.46507 9.94706 9.20607 9.20607C9.94706 8.46507 10.9521 8.04878 12 8.04878C13.0479 8.04878 14.0529 8.46507 14.7939 9.20607C15.5349 9.94706 15.9512 10.9521 15.9512 12ZM16.8363 8.04878C17.0692 8.04878 17.2925 7.95627 17.4572 7.79161C17.6218 7.62694 17.7143 7.4036 17.7143 7.17073C17.7143 6.93786 17.6218 6.71452 17.4572 6.54986C17.2925 6.38519 17.0692 6.29268 16.8363 6.29268H16.8275C16.5946 6.29268 16.3713 6.38519 16.2066 6.54986C16.042 6.71452 15.9495 6.93786 15.9495 7.17073C15.9495 7.4036 16.042 7.62694 16.2066 7.79161C16.3713 7.95627 16.5946 8.04878 16.8275 8.04878H16.8363Z" fill="#191C1E"/>
</svg>
