<svg width="24" height="24" viewBox="0 0 24 24" fill="none" xmlns="http://www.w3.org/2000/svg">
<path d="M13.57 6.31498C13.8802 6.4533 14.0588 6.78287 14.0052 7.1183L13.4775 10.4214L14.9596 11.1087C15.1692 11.2059 15.3223 11.3943 15.3746 11.6194C15.4269 11.8446 15.3724 12.0812 15.227 12.2608L11.2125 17.2218C10.9985 17.4862 10.6334 17.5735 10.323 17.4345C10.0126 17.2956 9.83454 16.9651 9.8892 16.6294L10.4416 13.2373L8.97477 12.6586C8.75262 12.5709 8.58548 12.3827 8.5247 12.1518C8.46393 11.9209 8.51676 11.6748 8.66699 11.4891L12.6816 6.52819C12.8953 6.26413 13.2597 6.17666 13.57 6.31498Z" fill="#191C1E"/>
<path fill-rule="evenodd" clip-rule="evenodd" d="M12.375 2.10048C12.1429 1.96651 11.857 1.96651 11.625 2.10048L3.61426 6.72548C3.38221 6.85946 3.23926 7.10705 3.23926 7.375V16.625C3.23926 16.8929 3.38221 17.1405 3.61426 17.2745L11.625 21.8995C11.857 22.0335 12.1429 22.0335 12.375 21.8995L20.3857 17.2745C20.6178 17.1405 20.7607 16.8929 20.7607 16.625V7.375C20.7607 7.10705 20.6178 6.85946 20.3857 6.72548L12.375 2.10048ZM7.62717 10.4424L4.73926 8.78791V16.192L11.25 19.951V18.5H12.75V19.951L19.2607 16.192V8.78792L16.3728 10.4424L15.6272 9.14091L18.6097 7.43215L12 3.61603L5.39027 7.43215L8.37284 9.14091L7.62717 10.4424Z" fill="#191C1E"/>
</svg>
