<svg width="24" height="24" viewBox="0 0 24 24" fill="none" xmlns="http://www.w3.org/2000/svg">
<path fill-rule="evenodd" clip-rule="evenodd" d="M3.32953 3.12895C3.53561 2.98943 3.79747 2.96122 4.02854 3.05365L6.875 4.19223L9.72146 3.05365C9.90026 2.98212 10.0997 2.98212 10.2785 3.05365L13.125 4.19223L15.9715 3.05365C16.2025 2.96122 16.4644 2.98943 16.6705 3.12895C16.8766 3.26848 17 3.50114 17 3.75V15.5H20.25C20.6642 15.5 21 15.8358 21 16.25V18.25C21 19.7688 19.7688 21 18.25 21H5.75C4.23122 21 3 19.7688 3 18.25V3.75C3 3.50114 3.12345 3.26848 3.32953 3.12895ZM18.25 19.5C18.9404 19.5 19.5 18.9404 19.5 18.25V17H17V18.25C17 18.9404 17.5596 19.5 18.25 19.5ZM10.625 15C8.74149 15 7.17184 13.6562 6.82253 11.875H6V10.375H6.82253C7.17184 8.59382 8.74149 7.25 10.625 7.25C11.6939 7.25 12.663 7.6838 13.3632 8.38317L12.3033 9.44452C11.8728 9.01456 11.2805 8.75 10.625 8.75C9.57541 8.75 8.68483 9.43086 8.37085 10.375H10.75V11.875H8.37085C8.68483 12.8191 9.57541 13.5 10.625 13.5C11.2805 13.5 11.8728 13.2354 12.3033 12.8055L13.3632 13.8668C12.663 14.5662 11.6939 15 10.625 15ZM5.75 18H14V16.5H5.75V18Z" fill="#191C1E"/>
</svg>
