<svg width="24" height="24" viewBox="0 0 24 24" fill="none" xmlns="http://www.w3.org/2000/svg">
<path fill-rule="evenodd" clip-rule="evenodd" d="M4.02854 3.05365C3.79747 2.96122 3.53561 2.98943 3.32953 3.12895C3.12345 3.26848 3 3.50114 3 3.75V18.25C3 19.7688 4.23122 21 5.75 21H18.25C19.7688 21 21 19.7688 21 18.25V16.25C21 15.8358 20.6642 15.5 20.25 15.5H17V3.75C17 3.50114 16.8766 3.26848 16.6705 3.12895C16.4644 2.98943 16.2025 2.96122 15.9715 3.05365L13.125 4.19223L10.2785 3.05365C10.0997 2.98212 9.90026 2.98212 9.72146 3.05365L6.875 4.19223L4.02854 3.05365ZM19.5 18.25C19.5 18.9404 18.9404 19.5 18.25 19.5C17.5596 19.5 17 18.9404 17 18.25V17H19.5V18.25ZM8.11989 7.83613C8.44508 7.61503 8.83203 7.45709 9.25 7.37106V6.5H10.75V7.37105C11.168 7.45709 11.5549 7.61502 11.8801 7.83613C12.3893 8.18235 12.8125 8.73881 12.8125 9.44796H11.3125C11.3125 9.38262 11.274 9.2379 11.0367 9.07657C10.8034 8.91793 10.4391 8.79561 10 8.79561C9.56088 8.79561 9.19661 8.91793 8.96329 9.07656C8.72601 9.2379 8.6875 9.38262 8.6875 9.44796C8.6875 9.55115 8.70602 9.6004 8.71662 9.62113C8.72488 9.63729 8.74245 9.66537 8.80182 9.70222C8.94897 9.79358 9.29183 9.90001 10 9.90001C10.7864 9.90001 11.5191 9.99932 12.0739 10.3327C12.7042 10.7116 13 11.3249 13 12.0524C13 12.8658 12.5631 13.4483 11.9542 13.7853C11.596 13.9836 11.1803 14.0991 10.75 14.157V15H9.25V14.1394C8.79229 14.058 8.36795 13.9021 8.01231 13.6805C7.47917 13.3482 7 12.7925 7 12.0524H8.5C8.5 12.0867 8.52452 12.2322 8.80571 12.4075C9.07607 12.576 9.49637 12.7047 10 12.7047C10.5603 12.7047 10.978 12.6112 11.2278 12.473C11.4333 12.3592 11.5 12.2406 11.5 12.0524C11.5 11.7781 11.4208 11.6903 11.3012 11.6184C11.1059 11.501 10.7136 11.4 10 11.4C9.20816 11.4 8.51977 11.2927 8.01068 10.9766C7.4292 10.6156 7.1875 10.0533 7.1875 9.44796C7.1875 8.7388 7.61069 8.18235 8.11989 7.83613ZM5.75 18H14V16.5H5.75V18Z" fill="#191C1E"/>
</svg>
