<svg width="24" height="24" viewBox="0 0 24 24" fill="none" xmlns="http://www.w3.org/2000/svg">
<path fill-rule="evenodd" clip-rule="evenodd" d="M12.4897 3.43194C12.2083 3.18935 11.7917 3.18935 11.5103 3.43194L4.2603 9.68194C4.09503 9.82442 4 10.0318 4 10.25V20.25C4 20.6642 4.33579 21 4.75 21H19.25C19.6642 21 20 20.6642 20 20.25V10.25C20 10.0318 19.905 9.82442 19.7397 9.68194L12.4897 3.43194ZM7 12.5C10.0376 12.5 12.5 14.9624 12.5 18H14C14 14.134 10.866 11 7 11V12.5ZM7 15.5C8.38071 15.5 9.5 16.6193 9.5 18H11C11 15.7909 9.20914 14 7 14V15.5Z" fill="#191C1E"/>
</svg>
