<svg width="24" height="24" viewBox="0 0 24 24" fill="none" xmlns="http://www.w3.org/2000/svg">
<path d="M17.125 8.625C17.125 5.79454 14.8305 3.5 12 3.5V2C15.6589 2 18.625 4.96611 18.625 8.625H17.125Z" fill="#191C1E"/>
<path d="M11.8529 6.4854C12.6975 6.65431 13.157 6.91472 13.4517 7.23045C13.756 7.55647 13.9677 8.02894 14.1442 8.79361L15.6058 8.45632C15.4072 7.59599 15.119 6.81845 14.5483 6.20697C13.968 5.58521 13.1775 5.22061 12.1471 5.01453L11.8529 6.4854Z" fill="#191C1E"/>
<path d="M4 8C4 7.58579 4.33579 7.25 4.75 7.25H9.125C11.0852 7.25 12.682 8.80585 12.7479 10.75H12.75V12.6878C13.3471 12.2551 14.0812 12 14.875 12H19.25C19.6642 12 20 12.3358 20 12.75V14.875C20 16.877 18.377 18.5 16.375 18.5H12.75V22H11.25V13.75H7.625C5.62297 13.75 4 12.127 4 10.125V8Z" fill="#191C1E"/>
</svg>
