<svg width="24" height="24" viewBox="0 0 24 24" fill="none" xmlns="http://www.w3.org/2000/svg">
<path fill-rule="evenodd" clip-rule="evenodd" d="M8.25002 6.75C8.25002 4.67893 9.92896 3 12 3C14.0711 3 15.75 4.67893 15.75 6.75C15.75 8.82107 14.0711 10.5 12 10.5C9.92896 10.5 8.25002 8.82107 8.25002 6.75Z" fill="#191C1E"/>
<path fill-rule="evenodd" clip-rule="evenodd" d="M15.5377 19.3726C13.7441 18.3371 13.1295 16.0436 14.1651 14.25C15.2006 12.4564 17.4941 11.8419 19.2877 12.8774C21.0813 13.9129 21.6958 16.2064 20.6603 18C19.6247 19.7936 17.3313 20.4081 15.5377 19.3726Z" fill="#191C1E"/>
<path fill-rule="evenodd" clip-rule="evenodd" d="M8.46236 19.3726C6.66876 20.4081 4.3753 19.7936 3.33976 18C2.30423 16.2064 2.91876 13.9129 4.71236 12.8774C6.50595 11.8419 8.79942 12.4564 9.83495 14.25C10.8705 16.0436 10.256 18.3371 8.46236 19.3726Z" fill="#191C1E"/>
</svg>
