<svg width="24" height="24" viewBox="0 0 24 24" fill="none" xmlns="http://www.w3.org/2000/svg">
<path d="M3.80002 2.85002L5.80002 4.35002L6.70002 3.15002L4.70002 1.65002L3.80002 2.85002Z" fill="#191C1E"/>
<path d="M9.49994 9.50564L6.2811 5.33308L7.46878 4.41687L10.6186 8.49997H13.1313L16.2811 4.41687L17.4688 5.33308L14.2499 9.50564V14.319L15.3666 21.7637L13.8832 21.9862L12.854 15.125H10.8958L9.86664 21.9862L8.38324 21.7637L9.49994 14.319V9.50564Z" fill="#191C1E"/>
<path d="M4.69993 12.85L6.69993 11.35L5.79993 10.15L3.79993 11.65L4.69993 12.85Z" fill="#191C1E"/>
<path d="M19.9499 2.85002L17.9499 4.35002L17.0499 3.15002L19.0499 1.65002L19.9499 2.85002Z" fill="#191C1E"/>
<path d="M19.05 12.85L17.05 11.35L17.95 10.15L19.95 11.65L19.05 12.85Z" fill="#191C1E"/>
<path d="M12 2C10.7573 2 9.74998 3.00736 9.74998 4.25C9.74998 5.49264 10.7573 6.5 12 6.5C13.2426 6.5 14.25 5.49264 14.25 4.25C14.25 3.00736 13.2426 2 12 2Z" fill="#191C1E"/>
<path d="M5.99998 8H3.99998V6.5H5.99998V8Z" fill="#191C1E"/>
<path d="M18 8H20V6.5H18V8Z" fill="#191C1E"/>
</svg>
