<svg width="24" height="24" viewBox="0 0 24 24" fill="none" xmlns="http://www.w3.org/2000/svg">
<path d="M2 5.75L22 5.75V3.75H2V5.75Z" fill="#191C1E"/>
<path d="M2.75 6.75C2.19772 6.75 1.75 7.19772 1.75 7.75V19.25C1.75 19.5152 1.85536 19.7696 2.04289 19.9571C2.23043 20.1446 2.48478 20.25 2.75 20.25H6.75C7.30228 20.25 7.75 19.8023 7.75 19.25L7.75 7.75C7.75 7.48478 7.64464 7.23043 7.45711 7.04289C7.26957 6.85536 7.01522 6.75 6.75 6.75H2.75Z" fill="#191C1E"/>
<path d="M10 6.75C9.44772 6.75 9 7.19772 9 7.75L9 19.25C9 19.5152 9.10536 19.7696 9.29289 19.9571C9.48043 20.1446 9.73478 20.25 10 20.25H14C14.5523 20.25 15 19.8023 15 19.25L15 7.75C15 7.48478 14.8946 7.23043 14.7071 7.04289C14.5196 6.85536 14.2652 6.75 14 6.75H10Z" fill="#191C1E"/>
<path d="M17.25 6.75C16.6977 6.75 16.25 7.19772 16.25 7.75L16.25 19.25C16.25 19.5152 16.3554 19.7696 16.5429 19.9571C16.7304 20.1446 16.9848 20.25 17.25 20.25H21.25C21.8023 20.25 22.25 19.8023 22.25 19.25L22.25 7.75C22.25 7.48478 22.1446 7.23043 21.9571 7.04289C21.7696 6.85536 21.5152 6.75 21.25 6.75H17.25Z" fill="#191C1E"/>
</svg>
