<svg width="24" height="24" viewBox="0 0 24 24" fill="none" xmlns="http://www.w3.org/2000/svg">
<path fill-rule="evenodd" clip-rule="evenodd" d="M2 4.75C2 4.33579 2.33579 4 2.75 4H21.25C21.6642 4 22 4.33579 22 4.75V19.25C22 19.6642 21.6642 20 21.25 20H2.75C2.33579 20 2 19.6642 2 19.25V4.75ZM5.25 8C5.25 7.58579 5.58579 7.25 6 7.25H6.0025C6.41671 7.25 6.7525 7.58579 6.7525 8C6.7525 8.41421 6.41671 8.75 6.0025 8.75H6C5.58579 8.75 5.25 8.41421 5.25 8ZM9.25 8C9.25 7.58579 9.58579 7.25 10 7.25H10.0025C10.4167 7.25 10.7525 7.58579 10.7525 8C10.7525 8.41421 10.4167 8.75 10.0025 8.75H10C9.58579 8.75 9.25 8.41421 9.25 8ZM13.25 8C13.25 7.58579 13.5858 7.25 14 7.25H14.0025C14.4167 7.25 14.7525 7.58579 14.7525 8C14.7525 8.41421 14.4167 8.75 14.0025 8.75H14C13.5858 8.75 13.25 8.41421 13.25 8ZM17.25 8C17.25 7.58579 17.5858 7.25 18 7.25H18.0025C18.4167 7.25 18.7525 7.58579 18.7525 8C18.7525 8.41421 18.4167 8.75 18.0025 8.75H18C17.5858 8.75 17.25 8.41421 17.25 8ZM5.25 12C5.25 11.5858 5.58579 11.25 6 11.25H6.0025C6.41671 11.25 6.7525 11.5858 6.7525 12C6.7525 12.4142 6.41671 12.75 6.0025 12.75H6C5.58579 12.75 5.25 12.4142 5.25 12ZM9.25 12C9.25 11.5858 9.58579 11.25 10 11.25H10.0025C10.4167 11.25 10.7525 11.5858 10.7525 12C10.7525 12.4142 10.4167 12.75 10.0025 12.75H10C9.58579 12.75 9.25 12.4142 9.25 12ZM13.25 12C13.25 11.5858 13.5858 11.25 14 11.25H14.0025C14.4167 11.25 14.7525 11.5858 14.7525 12C14.7525 12.4142 14.4167 12.75 14.0025 12.75H14C13.5858 12.75 13.25 12.4142 13.25 12ZM17.25 12C17.25 11.5858 17.5858 11.25 18 11.25H18.0025C18.4167 11.25 18.7525 11.5858 18.7525 12C18.7525 12.4142 18.4167 12.75 18.0025 12.75H18C17.5858 12.75 17.25 12.4142 17.25 12ZM15 16.5H9V15H15V16.5Z" fill="#191C1E"/>
</svg>
