<svg width="24" height="24" viewBox="0 0 24 24" fill="none" xmlns="http://www.w3.org/2000/svg">
<path fill-rule="evenodd" clip-rule="evenodd" d="M8.11141 6.47656C8.14504 6.54021 8.18261 6.60245 8.22382 6.66291L10.027 13.1994C10.0891 13.4246 10.2526 13.608 10.4692 13.6954L16.6948 16.2096C16.7518 16.2559 16.8112 16.2985 16.8727 16.3373C17.1396 16.5056 17.4706 16.6148 17.83 16.5899C18.2 16.5644 18.5426 16.4001 18.8153 16.1193C20.1667 14.7281 21 12.8352 21 10.75C21 6.46142 17.4843 3 13.1663 3C11.4406 3 9.84254 3.55296 8.54672 4.49041C8.21085 4.7334 7.99348 5.07179 7.92984 5.46083C7.86869 5.83461 7.95948 6.18903 8.11141 6.47656ZM14.9095 11.1908C15.4922 12.1881 15.8229 13.2465 15.9235 14.2804L11.3745 12.4433L10.0478 7.63428C11.9281 7.98726 13.7644 9.23081 14.9095 11.1908Z" fill="#191C1E"/>
<path d="M5.25 9C4.00736 9 3 10.0074 3 11.25C3 12.3541 3.79531 13.2725 4.84432 13.4635L5.38254 17.2311C5.43225 17.5791 5.71699 17.8458 6.06748 17.8728L8.73601 18.0781L8.98331 19.5H6V21H13.5V19.5H10.5058L10.1139 17.2465C10.0551 16.9085 9.77455 16.6535 9.43252 16.6272L6.78238 16.4234L6.5756 14.9759L7.20554 15.6408C7.45342 15.9025 7.85238 15.9508 8.15557 15.7559L9.90557 14.6309L9.09443 13.3691L7.86712 14.1581L6.72323 12.9507C7.19905 12.5381 7.5 11.9292 7.5 11.25C7.5 10.0074 6.49264 9 5.25 9Z" fill="#191C1E"/>
</svg>
