<svg width="24" height="24" viewBox="0 0 24 24" fill="none" xmlns="http://www.w3.org/2000/svg">
<path d="M12.3742 3.10003C12.1426 2.96666 11.8574 2.96666 11.6258 3.10003L3.37578 7.85003C3.14329 7.98389 3 8.23173 3 8.5C3 8.76827 3.14329 9.01611 3.37578 9.14997L11.6258 13.9C11.8574 14.0333 12.1426 14.0333 12.3742 13.9L20.6242 9.14997C20.8567 9.01611 21 8.76827 21 8.5C21 8.23173 20.8567 7.98389 20.6242 7.85003L12.3742 3.10003Z" fill="#191C1E"/>
<path d="M12 15.8846L4.12418 11.35L3.37573 12.65L11.6257 17.4C11.8574 17.5333 12.1425 17.5333 12.3742 17.4L20.6242 12.65L19.8757 11.35L12 15.8846Z" fill="#191C1E"/>
<path d="M4.12418 14.85L12 19.3846L19.8757 14.85L20.6242 16.15L12.3742 20.9C12.1425 21.0333 11.8574 21.0333 11.6257 20.9L3.37573 16.15L4.12418 14.85Z" fill="#191C1E"/>
</svg>
