<svg width="24" height="24" viewBox="0 0 24 24" fill="none" xmlns="http://www.w3.org/2000/svg">
<path fill-rule="evenodd" clip-rule="evenodd" d="M11.6434 4.09022C11.8659 3.96993 12.1341 3.96993 12.3566 4.09022L21.6066 9.09022C21.849 9.22122 22 9.47452 22 9.75C22 10.0255 21.849 10.2788 21.6066 10.4098L18.25 12.2242V15.75C18.25 16.9411 17.3944 18.0144 16.307 18.7441C15.1861 19.4963 13.6652 20 12 20C10.3348 20 8.81386 19.4963 7.693 18.7441C6.60557 18.0144 5.75 16.9411 5.75 15.75V12.2242L2.39336 10.4098C2.15102 10.2788 2 10.0255 2 9.75C2 9.47452 2.15102 9.22122 2.39336 9.09022L11.6434 4.09022ZM4.32723 9.75L12 13.8974L15.0478 12.25L11.6434 10.4098L12.3566 9.09022L16.625 11.3974L19.6728 9.75L12 5.60256L4.32723 9.75Z" fill="#191C1E"/>
</svg>
