<svg width="24" height="24" viewBox="0 0 24 24" fill="none" xmlns="http://www.w3.org/2000/svg">
<path fill-rule="evenodd" clip-rule="evenodd" d="M21 8.25L10.5 8.25V6.75L21 6.75V8.25Z" fill="#191C1E"/>
<path fill-rule="evenodd" clip-rule="evenodd" d="M2.00002 7.5C2.00002 5.567 3.56703 4 5.50002 4C7.43302 4 9.00002 5.567 9.00002 7.5C9.00002 9.433 7.43302 11 5.50002 11C3.56703 11 2.00002 9.433 2.00002 7.5Z" fill="#191C1E"/>
<path fill-rule="evenodd" clip-rule="evenodd" d="M5.50002 12.75C5.76797 12.75 6.01557 12.8929 6.14954 13.125L9.18063 18.375C9.3146 18.6071 9.3146 18.8929 9.18063 19.125C9.04666 19.3571 8.79906 19.5 8.53111 19.5H2.46893C2.20098 19.5 1.95339 19.3571 1.81941 19.125C1.68544 18.8929 1.68544 18.6071 1.81941 18.375L4.8505 13.125C4.98448 12.8929 5.23207 12.75 5.50002 12.75Z" fill="#191C1E"/>
<path fill-rule="evenodd" clip-rule="evenodd" d="M21 17.25H10.5V15.75H21V17.25Z" fill="#191C1E"/>
</svg>
