<svg width="24" height="24" viewBox="0 0 24 24" fill="none" xmlns="http://www.w3.org/2000/svg">
<path d="M14.1746 5.66945L15.5889 4.25524L14.5282 3.19458L13.114 4.60879L14.1746 5.66945Z" fill="#191C1E"/>
<path fill-rule="evenodd" clip-rule="evenodd" d="M6.75 7.25005C4.12665 7.25005 2 9.37669 2 12C2 14.6234 4.12665 16.75 6.75 16.75C9.37335 16.75 11.5 14.6234 11.5 12C11.5 9.37669 9.37335 7.25005 6.75 7.25005ZM5.75 12C5.75 11.4477 6.19772 11 6.75 11H6.7525C7.30478 11 7.7525 11.4477 7.7525 12C7.7525 12.5523 7.30478 13 6.7525 13H6.75C6.19772 13 5.75 12.5523 5.75 12Z" fill="#191C1E"/>
<path d="M21.2863 16.7049L19.3544 16.1872L19.7426 14.7383L21.6745 15.256L21.2863 16.7049Z" fill="#191C1E"/>
<path d="M17.9055 15.799L15.9737 15.2814L16.3619 13.8325L18.2938 14.3501L17.9055 15.799Z" fill="#191C1E"/>
<path d="M14.5248 14.8931L12.5929 14.3755L12.9812 12.9266L14.913 13.4442L14.5248 14.8931Z" fill="#191C1E"/>
<path d="M21.6745 8.81089L19.7426 9.32853L19.3544 7.87964L21.2863 7.362L21.6745 8.81089Z" fill="#191C1E"/>
<path d="M18.2938 9.71676L16.3619 10.2344L15.9737 8.78551L17.9055 8.26787L18.2938 9.71676Z" fill="#191C1E"/>
<path d="M14.913 10.6226L12.9812 11.1403L12.5929 9.69137L14.5248 9.17373L14.913 10.6226Z" fill="#191C1E"/>
<path d="M11.6998 8.14433L13.114 6.73011L12.0533 5.66945L10.6391 7.08367L11.6998 8.14433Z" fill="#191C1E"/>
<path d="M13.114 19.4581L14.5282 20.8723L15.5889 19.8116L14.1746 18.3974L13.114 19.4581Z" fill="#191C1E"/>
<path d="M10.6391 16.9832L12.0533 18.3974L13.114 17.3367L11.6998 15.9225L10.6391 16.9832Z" fill="#191C1E"/>
</svg>
