<svg width="24" height="24" viewBox="0 0 24 24" fill="none" xmlns="http://www.w3.org/2000/svg">
<path d="M12 2C8.43638 2 5.5 4.79148 5.5 8.29245C5.5 9.58991 5.90636 10.796 6.59994 11.7961C7.40801 12.9613 8 14.0659 8 15.25C8 15.6642 8.33579 16 8.75 16H15.25C15.6642 16 16 15.6642 16 15.25C16 14.0659 16.592 12.9613 17.4001 11.7961C18.0936 10.796 18.5 9.58991 18.5 8.29245C18.5 4.79148 15.5636 2 12 2Z" fill="#191C1E"/>
<path d="M9 17.5C8.58579 17.5 8.25 17.8358 8.25 18.25V19.25C8.25 20.7688 9.48122 22 11 22H13C14.5188 22 15.75 20.7688 15.75 19.25V18.25C15.75 17.8358 15.4142 17.5 15 17.5H9Z" fill="#191C1E"/>
</svg>
