<svg width="24" height="24" viewBox="0 0 24 24" fill="none" xmlns="http://www.w3.org/2000/svg">
<path d="M5.31563 3C4.70148 3 4.11249 3.24397 3.67823 3.67823C3.24397 4.11249 3 4.70148 3 5.31563C3 5.92977 3.24397 6.51876 3.67823 6.95302C4.11249 7.38728 4.70148 7.63125 5.31563 7.63125C5.92977 7.63125 6.51876 7.38728 6.95302 6.95302C7.38728 6.51876 7.63125 5.92977 7.63125 5.31563C7.63125 4.70148 7.38728 4.11249 6.95302 3.67823C6.51876 3.24397 5.92977 3 5.31563 3Z" fill="#191C1E"/>
<path d="M3.375 9.46875C3.16789 9.46875 3 9.63664 3 9.84375V20.625C3 20.8321 3.16789 21 3.375 21H7.25625C7.46336 21 7.63125 20.8321 7.63125 20.625V9.84375C7.63125 9.63664 7.46336 9.46875 7.25625 9.46875H3.375Z" fill="#191C1E"/>
<path d="M9.84375 9.46875C9.63664 9.46875 9.46875 9.63664 9.46875 9.84375V20.625C9.46875 20.8321 9.63664 21 9.84375 21H13.725C13.9321 21 14.1 20.8321 14.1 20.625V15.2344C14.1 14.9335 14.2195 14.645 14.4323 14.4323C14.645 14.2195 14.9335 14.1 15.2344 14.1C15.5352 14.1 15.8238 14.2195 16.0365 14.4323C16.2492 14.645 16.3688 14.9335 16.3688 15.2344V20.625C16.3688 20.8321 16.5366 21 16.7438 21H20.6241C20.8312 21 20.9991 20.8321 20.9991 20.625L21 13.725C21 11.3464 18.7639 9.46875 16.5687 9.46875C15.6355 9.46875 14.7798 9.80363 14.1 10.3611V9.84375C14.1 9.63664 13.9321 9.46875 13.725 9.46875H9.84375Z" fill="#191C1E"/>
</svg>
