<svg width="24" height="24" viewBox="0 0 24 24" fill="none" xmlns="http://www.w3.org/2000/svg">
<path fill-rule="evenodd" clip-rule="evenodd" d="M3 6C3 4.34315 4.34315 3 6 3C7.65685 3 9 4.34315 9 6C9 6.55636 8.84855 7.07734 8.58464 7.52398L16.476 15.4154C16.9227 15.1514 17.4436 15 18 15C19.6569 15 21 16.3431 21 18C21 19.6569 19.6569 21 18 21C16.3431 21 15 19.6569 15 18C15 17.4436 15.1514 16.9227 15.4154 16.476L7.52398 8.58464C7.07734 8.84855 6.55636 9 6 9C4.34315 9 3 7.65685 3 6Z" fill="#191C1E"/>
</svg>
