<svg width="24" height="24" viewBox="0 0 24 24" fill="none" xmlns="http://www.w3.org/2000/svg">
<path d="M4.75 3.25C3.92157 3.25 3.25 3.92157 3.25 4.75C3.25 5.57843 3.92157 6.25 4.75 6.25H4.7525C5.58093 6.25 6.2525 5.57843 6.2525 4.75C6.2525 3.92157 5.58093 3.25 4.7525 3.25H4.75Z" fill="#191C1E"/>
<path d="M7.5 6C6.67157 6 6 6.67157 6 7.5C6 8.32843 6.67157 9 7.5 9H7.5025C8.33093 9 9.0025 8.32843 9.0025 7.5C9.0025 6.67157 8.33093 6 7.5025 6H7.5Z" fill="#191C1E"/>
<path d="M8.75 10.25C8.75 9.42157 9.42157 8.75 10.25 8.75H10.2525C11.0809 8.75 11.7525 9.42157 11.7525 10.25C11.7525 11.0784 11.0809 11.75 10.2525 11.75H10.25C9.42157 11.75 8.75 11.0784 8.75 10.25Z" fill="#191C1E"/>
<path d="M13 11.5C12.1716 11.5 11.5 12.1716 11.5 13C11.5 13.8284 12.1716 14.5 13 14.5H13.0025C13.8309 14.5 14.5025 13.8284 14.5025 13C14.5025 12.1716 13.8309 11.5 13.0025 11.5H13Z" fill="#191C1E"/>
<path d="M14.25 15.75C14.25 14.9216 14.9216 14.25 15.75 14.25H15.7525C16.5809 14.25 17.2525 14.9216 17.2525 15.75C17.2525 16.5784 16.5809 17.25 15.7525 17.25H15.75C14.9216 17.25 14.25 16.5784 14.25 15.75Z" fill="#191C1E"/>
<path d="M18.5 17C17.6716 17 17 17.6716 17 18.5C17 19.3284 17.6716 20 18.5 20H18.5025C19.3309 20 20.0025 19.3284 20.0025 18.5C20.0025 17.6716 19.3309 17 18.5025 17H18.5Z" fill="#191C1E"/>
</svg>
