<svg width="24" height="24" viewBox="0 0 24 24" fill="none" xmlns="http://www.w3.org/2000/svg">
<path d="M17.9383 6.06174C16.5226 4.64609 14.2274 4.64609 12.8117 6.06174L9.95711 8.91637L8.54289 7.50216L11.3975 4.64752C13.5942 2.45083 17.1558 2.45083 19.3525 4.64752C21.5492 6.84422 21.5492 10.4058 19.3525 12.6025L16.4978 15.4571L15.0836 14.0429L17.9383 11.1883C19.3539 9.77261 19.3539 7.47739 17.9383 6.06174Z" fill="#191C1E"/>
<path d="M5.97775 17.9383C7.3934 19.3539 9.68863 19.3539 11.1043 17.9383L13.9589 15.0836L15.3731 16.4979L12.5185 19.3525C10.3218 21.5492 6.76024 21.5492 4.56354 19.3525C2.36684 17.1558 2.36684 13.5942 4.56354 11.3975L7.41817 8.5429L8.83239 9.95711L5.97775 12.8117C4.5621 14.2274 4.5621 16.5226 5.97775 17.9383Z" fill="#191C1E"/>
<path d="M9.70718 15.7071L15.7072 9.70713L14.293 8.29291L8.29297 14.2929L9.70718 15.7071Z" fill="#191C1E"/>
</svg>
