<svg width="24" height="24" viewBox="0 0 24 24" fill="none" xmlns="http://www.w3.org/2000/svg">
<path d="M5.5 3C4.11929 3 3 4.11929 3 5.5C3 6.88071 4.11929 8 5.5 8C6.88071 8 8 6.88071 8 5.5C8 4.11929 6.88071 3 5.5 3Z" fill="#191C1E"/>
<path d="M10 4.75L21 4.75V6.25L10 6.25V4.75Z" fill="#191C1E"/>
<path d="M21 11.5L10 11.5V13L21 13V11.5Z" fill="#191C1E"/>
<path d="M10 17.75L21 17.75V19.25L10 19.25V17.75Z" fill="#191C1E"/>
<path d="M3 12.25C3 10.8693 4.11929 9.75 5.5 9.75C6.88071 9.75 8 10.8693 8 12.25C8 13.6307 6.88071 14.75 5.5 14.75C4.11929 14.75 3 13.6307 3 12.25Z" fill="#191C1E"/>
<path d="M5.5 16C4.11929 16 3 17.1193 3 18.5C3 19.8807 4.11929 21 5.5 21C6.88071 21 8 19.8807 8 18.5C8 17.1193 6.88071 16 5.5 16Z" fill="#191C1E"/>
</svg>
