<svg width="24" height="24" viewBox="0 0 24 24" fill="none" xmlns="http://www.w3.org/2000/svg">
<path d="M3.75 3C3.33579 3 3 3.33579 3 3.75V7.25C3 7.66421 3.33579 8 3.75 8H20.25C20.6642 8 21 7.66421 21 7.25V3.75C21 3.33579 20.6642 3 20.25 3H3.75Z" fill="#191C1E"/>
<path d="M3.75 9.5C3.33579 9.5 3 9.83579 3 10.25V13.75C3 14.1642 3.33579 14.5 3.75 14.5H20.25C20.6642 14.5 21 14.1642 21 13.75V10.25C21 9.83579 20.6642 9.5 20.25 9.5H3.75Z" fill="#191C1E"/>
<path d="M3.75 16C3.33579 16 3 16.3358 3 16.75V20.25C3 20.6642 3.33579 21 3.75 21H20.25C20.6642 21 21 20.6642 21 20.25V16.75C21 16.3358 20.6642 16 20.25 16H3.75Z" fill="#191C1E"/>
</svg>
