<svg width="24" height="24" viewBox="0 0 24 24" fill="none" xmlns="http://www.w3.org/2000/svg">
<path d="M20 12C20 7.58172 16.4183 4 12 4V2C17.5228 2 22 6.47715 22 12C22 14.185 21.2981 16.209 20.1076 17.855L18.487 16.6828C19.4391 15.3666 20 13.7503 20 12Z" fill="#191C1E"/>
<path d="M7.35199 5.48792C6.59698 6.0279 5.93963 6.69597 5.41191 7.46014L3.7662 6.32365C4.42523 5.36932 5.24579 4.5354 6.18855 3.86115L7.35199 5.48792Z" fill="#191C1E"/>
<path d="M4.39375 9.51325C4.13845 10.2947 4 11.1302 4 12C4 12.3302 4.01995 12.6553 4.05862 12.9742L2.07316 13.215C2.02483 12.8163 2 12.4108 2 12C2 10.9167 2.17263 9.87167 2.49264 8.89216L4.39375 9.51325Z" fill="#191C1E"/>
<path d="M4.54887 14.9188C5.19775 16.5738 6.38362 17.9619 7.89263 18.8667L6.86413 20.582C4.98017 19.4523 3.49883 17.7198 2.68686 15.6488L4.54887 14.9188Z" fill="#191C1E"/>
<path d="M12 20C14.116 20 16.0383 19.1798 17.4698 17.838L18.8376 19.2972C17.0501 20.9726 14.644 22 12 22C11.1139 22 10.2534 21.8845 9.43312 21.6672L9.94526 19.7339C10.5999 19.9073 11.2883 20 12 20Z" fill="#191C1E"/>
<path d="M14.2065 6.61674C14.2594 6.28054 14.0793 5.95083 13.7679 5.81366C13.4564 5.67649 13.0916 5.76625 12.8793 6.03229L8.41374 11.6292C8.26577 11.8147 8.21428 12.0592 8.2749 12.2886C8.33552 12.518 8.5011 12.7052 8.72138 12.7933L10.4213 13.4735L9.7939 17.3812C9.73989 17.7176 9.91947 18.0482 10.2311 18.186C10.5428 18.3238 10.9082 18.2342 11.1207 17.9678L15.5863 12.3709C15.7294 12.1915 15.7825 11.9564 15.7305 11.7329C15.6784 11.5095 15.5269 11.3221 15.3192 11.2244L13.6075 10.4193L14.2065 6.61674Z" fill="#191C1E"/>
</svg>
