<svg width="24" height="24" viewBox="0 0 24 24" fill="none" xmlns="http://www.w3.org/2000/svg">
<path fill-rule="evenodd" clip-rule="evenodd" d="M5.34463 11C5.77904 8.08411 8.08411 5.77904 11 5.34463V3H13V5.34463C15.9159 5.77904 18.221 8.08411 18.6554 11H21V13H18.6554C18.221 15.9159 15.9159 18.221 13 18.6554V21H11V18.6554C8.08411 18.221 5.77904 15.9159 5.34463 13H3V11H5.34463ZM7.27083 12C7.27083 9.38815 9.38815 7.27083 12 7.27083C14.6118 7.27083 16.7292 9.38815 16.7292 12C16.7292 14.6118 14.6118 16.7292 12 16.7292C9.38815 16.7292 7.27083 14.6118 7.27083 12Z" fill="#191C1E"/>
</svg>
