<svg width="24" height="24" viewBox="0 0 24 24" fill="none" xmlns="http://www.w3.org/2000/svg">
<path d="M12 8.75C10.2051 8.75 8.75 10.2051 8.75 12C8.75 13.7949 10.2051 15.25 12 15.25C13.7949 15.25 15.25 13.7949 15.25 12C15.25 10.2051 13.7949 8.75 12 8.75Z" fill="#191C1E"/>
<path fill-rule="evenodd" clip-rule="evenodd" d="M11 5.34463C8.08411 5.77904 5.77904 8.08411 5.34463 11H3V13H5.34463C5.77904 15.9159 8.08411 18.221 11 18.6554V21H13V18.6554C15.9159 18.221 18.221 15.9159 18.6554 13H21V11H18.6554C18.221 8.08411 15.9159 5.77904 13 5.34463V3H11V5.34463ZM12 7.27083C9.38815 7.27083 7.27083 9.38815 7.27083 12C7.27083 14.6118 9.38815 16.7292 12 16.7292C14.6118 16.7292 16.7292 14.6118 16.7292 12C16.7292 9.38815 14.6118 7.27083 12 7.27083Z" fill="#191C1E"/>
</svg>
