<svg width="24" height="24" viewBox="0 0 24 24" fill="none" xmlns="http://www.w3.org/2000/svg">
<path fill-rule="evenodd" clip-rule="evenodd" d="M12.3833 2.10535C12.1471 1.96488 11.8529 1.96488 11.6167 2.10535L2.36867 7.60418C2.14046 7.73891 2 7.98438 2 8.25V20.25C2 20.6642 2.33579 21 2.75 21H21.25C21.6642 21 22 20.6642 22 20.25V8.25C22 7.98515 21.8604 7.74033 21.6333 7.60535L12.3833 2.10535ZM19.7825 8.25L12 3.62256L4.2175 8.25L11.966 12.8572L3.04993 19.1226L3.91234 20.3499L12.0001 14.6667L20.0878 20.3499L20.9502 19.1226L12.034 12.8572L19.7825 8.25Z" fill="#191C1E"/>
</svg>
