<svg width="24" height="24" viewBox="0 0 24 24" fill="none" xmlns="http://www.w3.org/2000/svg">
<path fill-rule="evenodd" clip-rule="evenodd" d="M12 2C9.1005 2 6.75 4.3505 6.75 7.25V7.75H5.5V9.25H8.0702C8.42125 11.1006 10.0472 12.5 12 12.5C13.9528 12.5 15.5787 11.1006 15.9298 9.25H18.5V7.75H17.25V7.25C17.25 4.3505 14.8995 2 12 2ZM12 11C13.1194 11 14.067 10.2643 14.3855 9.25H9.61445C9.93302 10.2643 10.8806 11 12 11ZM12.75 7.75V7H11.25V7.75H12.75Z" fill="#191C1E"/>
<path d="M12 15.5C10.2051 15.5 8.75 16.9551 8.75 18.75V22H7.25V18.75C7.25 16.1266 9.37665 14 12 14C14.6234 14 16.75 16.1266 16.75 18.75V22H15.25V18.75C15.25 16.9551 13.7949 15.5 12 15.5Z" fill="#191C1E"/>
</svg>
