<svg width="24" height="24" viewBox="0 0 24 24" fill="none" xmlns="http://www.w3.org/2000/svg">
<path d="M18.4773 2.24149C18.8893 2.38162 18.9197 2.88358 18.612 3.1913L15.8419 5.96145C15.2389 6.56447 15.2389 7.54215 15.8419 8.14516C16.4449 8.74817 17.4226 8.74817 18.0256 8.14516L18.0298 8.1409L20.8103 5.36043C21.1129 5.05785 21.6059 5.08184 21.7483 5.48536C21.9496 6.0557 22 6.74556 22 7.25C22 10.1495 19.6495 12.5 16.75 12.5C16.3538 12.5 15.9672 12.456 15.5951 12.3724L12.3724 15.5951C12.456 15.9672 12.5 16.3538 12.5 16.75C12.5 19.6495 10.1495 22 7.25 22C6.74555 22 6.05566 21.9496 5.48531 21.7483C5.0818 21.6059 5.05782 21.1129 5.3604 20.8103L8.13707 18.0336L8.14519 18.0256C8.7482 17.4226 8.7482 16.4449 8.14519 15.8419C7.54217 15.2388 6.56443 15.2388 5.96141 15.8419L3.1913 18.612C2.88358 18.9197 2.3816 18.8893 2.24148 18.4772C2.05058 17.9159 2 17.2498 2 16.75C2 13.8505 4.3505 11.5 7.25 11.5C7.69137 11.5 8.12082 11.5546 8.53159 11.6577L11.6577 8.53159C11.5546 8.12082 11.5 7.69137 11.5 7.25C11.5 4.3505 13.8505 2 16.75 2C17.2498 2 17.916 2.05058 18.4773 2.24149Z" fill="#191C1E"/>
</svg>
