<svg width="24" height="25" viewBox="0 0 24 25" fill="none" xmlns="http://www.w3.org/2000/svg">
<path d="M9 5.125C9 3.46815 10.3431 2.125 12 2.125C13.6569 2.125 15 3.46815 15 5.125C15 6.78185 13.6569 8.125 12 8.125C10.3431 8.125 9 6.78185 9 5.125Z" fill="#191C1E"/>
<path d="M12.6996 21.6453C12.5879 21.9344 12.3099 22.125 12 22.125C11.6901 22.125 11.4121 21.9344 11.3004 21.6453L7.05041 10.6453C6.96128 10.4146 6.9916 10.1548 7.13145 9.95087C7.2713 9.74691 7.5027 9.625 7.75 9.625H16.25C16.4973 9.625 16.7287 9.74691 16.8686 9.95087C17.0084 10.1548 17.0387 10.4146 16.9496 10.6453L12.6996 21.6453Z" fill="#191C1E"/>
</svg>
