<svg width="24" height="24" viewBox="0 0 24 24" fill="none" xmlns="http://www.w3.org/2000/svg">
<path fill-rule="evenodd" clip-rule="evenodd" d="M20.6756 3.13245C20.8787 3.27243 21 3.50333 21 3.75V18.25C21 18.5612 20.8078 18.8401 20.517 18.9509L15.267 20.9509C15.1021 21.0137 14.9203 21.0164 14.7536 20.9584L9.25559 19.046L4.00631 20.9548C3.77638 21.0385 3.52012 21.0047 3.31973 20.8643C3.11933 20.7239 3 20.4947 3 20.25V5.75C3 5.43462 3.1973 5.15294 3.49369 5.04516L8.99369 3.04516C9.15586 2.98619 9.33341 2.98494 9.49639 3.04163L14.9883 4.95187L19.983 3.04914C20.2135 2.96132 20.4725 2.99247 20.6756 3.13245ZM14.25 6.28321L10 4.80495V17.7168L14.25 19.1951V6.28321Z" fill="#191C1E"/>
</svg>
