<svg width="24" height="24" viewBox="0 0 24 24" fill="none" xmlns="http://www.w3.org/2000/svg">
<path d="M8.87316 10.0314C9.02623 7.63157 10.2119 5.51246 11.9908 4.11365C13.7714 5.51395 14.9576 7.63599 15.1087 10.0389C14.0351 10.4798 13.0292 11.1362 12.1572 12.0083C12.104 12.0614 12.0516 12.1151 12 12.1693C11.9484 12.1151 11.896 12.0614 11.8428 12.0083C10.9659 11.1313 9.9535 10.4724 8.87316 10.0314Z" fill="#191C1E"/>
<path d="M3.73075 11.0635C3.49773 13.4454 4.29344 15.9091 6.11788 17.7335C7.13008 18.7457 8.33901 19.435 9.62159 19.8118C9.27261 17.5988 9.74823 15.2791 11.0497 13.3503C10.9634 13.2548 10.8743 13.161 10.7822 13.0689C8.94046 11.2272 6.38272 10.5374 4.00234 11.0021L3.73075 11.0635Z" fill="#191C1E"/>
<path d="M11.2115 20.1206C13.5936 20.3538 16.0575 19.5581 17.8821 17.7335C19.7103 15.9053 20.5055 13.4352 20.2677 11.0486L20.0266 11.0076C20.0203 11.0065 20.014 11.0053 20.0077 11.0041C17.6245 10.5354 15.0621 11.2246 13.2178 13.0689C11.3757 14.911 10.686 17.4695 11.1513 19.8503L11.2115 20.1206Z" fill="#191C1E"/>
</svg>
