<svg width="24" height="24" viewBox="0 0 24 24" fill="none" xmlns="http://www.w3.org/2000/svg">
<path d="M6.03033 4.21967C5.73743 3.92678 5.26256 3.92678 4.96967 4.21967L1.96967 7.21967L3.03033 8.28033L4.75 6.56066V17.4393L3.03033 15.7197L1.96967 16.7803L4.96967 19.7803C5.26256 20.0732 5.73743 20.0732 6.03033 19.7803L9.03033 16.7803L7.96967 15.7197L6.25 17.4393V6.56066L7.96967 8.28033L9.03033 7.21967L6.03033 4.21967Z" fill="#191C1E"/>
<path d="M13.5 4C11.8431 4 10.5 5.34315 10.5 7C10.5 8.65685 11.8431 10 13.5 10C13.7565 10 14.0054 9.96782 14.2431 9.90727L16.943 14.8162C16.3624 15.3633 16 16.1393 16 17C16 18.6569 17.3431 20 19 20C20.6569 20 22 18.6569 22 17C22 15.3431 20.6569 14 19 14C18.7435 14 18.4946 14.0322 18.257 14.0927L15.557 9.18374C16.1376 8.63667 16.5 7.86066 16.5 7C16.5 5.34315 15.1569 4 13.5 4Z" fill="#191C1E"/>
</svg>
