<svg width="24" height="24" viewBox="0 0 24 24" fill="none" xmlns="http://www.w3.org/2000/svg">
<path fill-rule="evenodd" clip-rule="evenodd" d="M8.49998 3C8.20708 2.70711 7.73221 2.70711 7.43931 3L2.48957 7.94975C2.19667 8.24265 2.19667 8.71752 2.48957 9.01041L15.2175 21.7383C15.5104 22.0312 15.9853 22.0312 16.2781 21.7383L21.2279 16.7886C21.5208 16.4957 21.5208 16.0208 21.2279 15.7279L19.6369 14.1369L16.4549 17.3189L15.3943 16.2583L18.5763 13.0763L17.5156 12.0156L15.571 13.9602L14.5104 12.8995L16.4549 10.955L15.3943 9.8943L12.2123 13.0763L11.1516 12.0156L14.3336 8.83364L13.2729 7.77298L11.3284 9.71752L10.2677 8.65686L12.2123 6.71231L8.49998 3ZM7.9696 8.83364L11.1516 5.65165L10.0909 4.59099L6.90894 7.77298L7.9696 8.83364Z" fill="#191C1E"/>
</svg>
