<svg width="24" height="24" viewBox="0 0 24 24" fill="none" xmlns="http://www.w3.org/2000/svg">
<path fill-rule="evenodd" clip-rule="evenodd" d="M10.25 12C10.25 11.0335 11.0335 10.25 12 10.25H12.0025C12.969 10.25 13.7525 11.0335 13.7525 12C13.7525 12.9665 12.969 13.75 12.0025 13.75H12C11.0335 13.75 10.25 12.9665 10.25 12Z" fill="#191C1E"/>
<path fill-rule="evenodd" clip-rule="evenodd" d="M10.25 5C10.25 4.0335 11.0335 3.25 12 3.25H12.0025C12.969 3.25 13.7525 4.0335 13.7525 5C13.7525 5.9665 12.969 6.75 12.0025 6.75H12C11.0335 6.75 10.25 5.9665 10.25 5Z" fill="#191C1E"/>
<path fill-rule="evenodd" clip-rule="evenodd" d="M10.25 19C10.25 18.0335 11.0335 17.25 12 17.25H12.0025C12.969 17.25 13.7525 18.0335 13.7525 19C13.7525 19.9665 12.969 20.75 12.0025 20.75H12C11.0335 20.75 10.25 19.9665 10.25 19Z" fill="#191C1E"/>
</svg>
