<svg width="24" height="24" viewBox="0 0 24 24" fill="none" xmlns="http://www.w3.org/2000/svg">
<path d="M7.99798 4.81605L15.892 12.71C16.1222 12.1868 16.25 11.6083 16.25 11V6.25C16.25 3.90279 14.3472 2 12 2C10.156 2 8.58627 3.17439 7.99798 4.81605Z" fill="#191C1E"/>
<path d="M12 15.25C9.65279 15.25 7.75 13.3472 7.75 11V8.81072L2.21967 3.28039L3.28033 2.21973L21.7803 20.7197L20.7197 21.7804L15.9921 17.0529C15.0438 17.6796 13.9395 18.0894 12.75 18.2117V22H11.25V18.2117C7.59833 17.8364 4.75 14.7508 4.75 11H6.25C6.25 14.1756 8.82436 16.75 12 16.75C13.0591 16.75 14.0513 16.4637 14.9035 15.9642L13.7935 14.8542C13.2485 15.1082 12.6408 15.25 12 15.25Z" fill="#191C1E"/>
</svg>
