<svg width="24" height="24" viewBox="0 0 24 24" fill="none" xmlns="http://www.w3.org/2000/svg">
<path d="M12 2C9.65279 2 7.75 3.90279 7.75 6.25V11C7.75 13.3472 9.65279 15.25 12 15.25C14.3472 15.25 16.25 13.3472 16.25 11V6.25C16.25 3.90279 14.3472 2 12 2Z" fill="#191C1E"/>
<path d="M12.75 18.2117C16.4017 17.8364 19.25 14.7508 19.25 11H17.75C17.75 14.1756 15.1756 16.75 12 16.75C8.82436 16.75 6.25 14.1756 6.25 11H4.75C4.75 14.7508 7.59833 17.8364 11.25 18.2117V22H12.75V18.2117Z" fill="#191C1E"/>
</svg>
