<svg width="24" height="24" viewBox="0 0 24 24" fill="none" xmlns="http://www.w3.org/2000/svg">
<path fill-rule="evenodd" clip-rule="evenodd" d="M6.25 2C5.83579 2 5.5 2.33579 5.5 2.75V21.25C5.5 21.6642 5.83579 22 6.25 22H18C18.4142 22 18.75 21.6642 18.75 21.25V2.75C18.75 2.33579 18.4142 2 18 2H6.25ZM11.25 18.25C11.25 17.8358 11.5858 17.5 12 17.5H12.0025C12.4167 17.5 12.7525 17.8358 12.7525 18.25C12.7525 18.6642 12.4167 19 12.0025 19H12C11.5858 19 11.25 18.6642 11.25 18.25Z" fill="#191C1E"/>
</svg>
