<svg width="24" height="24" viewBox="0 0 24 24" fill="none" xmlns="http://www.w3.org/2000/svg">
<path fill-rule="evenodd" clip-rule="evenodd" d="M11.9999 3C12.2026 3 12.3967 3.08203 12.5379 3.22741L13.5555 4.27494C13.6524 4.37473 13.7694 4.44767 13.8957 4.48937C14.0218 4.53101 14.1551 4.54092 14.2851 4.51869L15.8731 4.24611C16.1599 4.19687 16.4493 4.31801 16.6155 4.55688C16.7818 4.79575 16.7948 5.10923 16.649 5.36108L15.3505 7.60394C15.4954 7.71165 15.6319 7.8337 15.7575 7.97002L15.758 7.9705C16.5594 8.84145 17.5346 10.0397 18.3735 11.3914C19.2082 12.7362 19.9351 14.276 20.1926 15.8236C20.1947 15.8364 20.1965 15.8492 20.198 15.8619C20.4327 17.3506 19.8549 18.6559 18.8744 19.5661C17.8969 20.4735 16.515 21 15.0769 21H8.9235C7.48539 21 6.10365 20.4734 5.12624 19.5661C4.13726 18.6481 3.55786 17.3283 3.80776 15.8238C4.06522 14.2767 4.79192 12.7367 5.62651 11.3917C6.4653 10.04 7.44047 8.84162 8.24238 7.97054C8.36797 7.83405 8.50446 7.71187 8.6495 7.60406L7.35088 5.36108C7.20509 5.10929 7.2181 4.79589 7.38423 4.55703C7.55037 4.31818 7.83967 4.19696 8.12645 4.24604L9.71495 4.51789C9.84491 4.54022 9.97826 4.53038 10.1044 4.4888C10.2307 4.4472 10.3475 4.37455 10.4444 4.27494L11.462 3.22741C11.6032 3.08203 11.7973 3 11.9999 3ZM12.6367 17.75C10.993 17.75 9.65847 16.5546 9.32842 15H8.24994V13.5H9.32842C9.65847 11.9454 10.993 10.75 12.6367 10.75C13.5815 10.75 14.4318 11.1503 15.041 11.7848L13.9589 12.8236C13.6139 12.4643 13.1469 12.25 12.6367 12.25C11.8629 12.25 11.1699 12.7553 10.8861 13.5H12.7499V15H10.8861C11.1699 15.7447 11.8629 16.25 12.6367 16.25C13.1469 16.25 13.6139 16.0357 13.9589 15.6764L15.041 16.7152C14.4318 17.3497 13.5815 17.75 12.6367 17.75Z" fill="#191C1E"/>
</svg>
