<svg width="24" height="24" viewBox="0 0 24 24" fill="none" xmlns="http://www.w3.org/2000/svg">
<path d="M2.75 4C2.33579 4 2 4.33579 2 4.75V10H3.5V5.5H20.5V10H22V4.75C22 4.33579 21.6642 4 21.25 4H2.75Z" fill="#191C1E"/>
<path fill-rule="evenodd" clip-rule="evenodd" d="M6.25 20C5.83579 20 5.5 19.6642 5.5 19.25V7H18.5V19.25C18.5 19.6642 18.1642 20 17.75 20H6.25ZM12 10.5C10.7248 10.5 9.5 11.3063 9.5 12.5C9.5 13.6937 10.7248 14.5 12 14.5C13.2752 14.5 14.5 13.6937 14.5 12.5C14.5 11.3063 13.2752 10.5 12 10.5Z" fill="#191C1E"/>
</svg>
