<svg width="24" height="25" viewBox="0 0 24 25" fill="none" xmlns="http://www.w3.org/2000/svg">
<path fill-rule="evenodd" clip-rule="evenodd" d="M16.2133 4.78087C16.1129 4.47185 15.8249 4.26263 15.5 4.26263H12.25V5.76263H14.9551L16.4555 10.3805C15.7399 10.6395 15.0715 11.0263 14.4848 11.5274C13.4299 12.4283 12.6987 13.6478 12.4 15H10.25V9.99999H5.75C3.67893 9.99999 2 11.6789 2 13.75V16.5H3.50227C3.56803 18.306 5.05289 19.75 6.875 19.75C8.69711 19.75 10.182 18.306 10.2477 16.5H13.0348C13.4168 16.5 13.7377 16.2129 13.7802 15.8333C13.7955 15.6965 13.8166 15.5599 13.8437 15.4239C14.0573 14.3499 14.6263 13.3792 15.4589 12.668C16.2916 11.9569 17.3394 11.5467 18.4336 11.5037C19.5278 11.4608 20.6046 11.7874 21.4904 12.431L22.3721 11.2175C21.2137 10.3758 19.8055 9.94869 18.3747 10.0049C18.2229 10.0109 18.0719 10.0222 17.9217 10.0389L17.0156 7.25L18.75 7.25V5.75L16.5282 5.75L16.2133 4.78087ZM8.7459 16.5C8.68158 17.4772 7.86853 18.25 6.875 18.25C5.88147 18.25 5.06842 17.4772 5.0041 16.5H8.7459Z" fill="#191C1E"/>
<path fill-rule="evenodd" clip-rule="evenodd" d="M18.625 13C16.761 13 15.25 14.511 15.25 16.375C15.25 18.2389 16.761 19.75 18.625 19.75C20.489 19.75 22 18.2389 22 16.375C22 14.511 20.489 13 18.625 13ZM16.75 16.375C16.75 15.3395 17.5895 14.5 18.625 14.5C19.6605 14.5 20.5 15.3395 20.5 16.375C20.5 17.4105 19.6605 18.25 18.625 18.25C17.5895 18.25 16.75 17.4105 16.75 16.375Z" fill="#191C1E"/>
<path d="M5.125 6.99999H10.25V8.49999H5.125V6.99999Z" fill="#191C1E"/>
</svg>
