<svg width="24" height="25" viewBox="0 0 24 25" fill="none" xmlns="http://www.w3.org/2000/svg">
<path fill-rule="evenodd" clip-rule="evenodd" d="M15.0126 6.46952C14.8892 6.20589 14.6244 6.03748 14.3333 6.03748H12V7.53748H13.8563L14.9875 9.95414H4.5V11.4541H8.87222L6.86319 14.1974C6.38077 13.9163 5.82674 13.7557 5.25 13.7557C4.38805 13.7557 3.5614 14.0981 2.9519 14.7076C2.34241 15.3171 2 16.1437 2 17.0057C2 17.8676 2.34241 18.6943 2.9519 19.3038C3.5614 19.9133 4.38805 20.2557 5.25 20.2557C6.11195 20.2557 6.9386 19.9133 7.5481 19.3038C8.15759 18.6943 8.5 17.8676 8.5 17.0057C8.5 16.6598 8.44493 16.3234 8.34033 16.0057H13.5274C13.8505 16.0057 14.1372 15.7988 14.2391 15.4922C14.4588 14.8314 14.8339 14.2239 15.3803 13.6678C15.6937 13.3599 16.0231 13.1067 16.3687 12.905L17.0049 14.2639C16.8064 14.3902 16.6208 14.5386 16.4519 14.7076C15.8424 15.3171 15.5 16.1437 15.5 17.0057C15.5 17.8676 15.8424 18.6943 16.4519 19.3038C17.0614 19.9133 17.888 20.2557 18.75 20.2557C19.612 20.2557 20.4386 19.9133 21.0481 19.3038C21.6576 18.6943 22 17.8676 22 17.0057C22 16.1437 21.6576 15.3171 21.0481 14.7076C20.4386 14.0981 19.612 13.7557 18.75 13.7557C18.6428 13.7557 18.5362 13.761 18.4305 13.7714L15.0126 6.46952ZM17.5126 15.7682C17.8408 15.44 18.2859 15.2557 18.75 15.2557C19.2141 15.2557 19.6592 15.44 19.9874 15.7682C20.3156 16.0964 20.5 16.5415 20.5 17.0057C20.5 17.4698 20.3156 17.9149 19.9874 18.2431C19.6592 18.5713 19.2141 18.7557 18.75 18.7557C18.2859 18.7557 17.8408 18.5713 17.5126 18.2431C17.1844 17.9149 17 17.4698 17 17.0057C17 16.5415 17.1844 16.0964 17.5126 15.7682ZM4.01256 15.7682C4.34075 15.4401 4.78587 15.2557 5.25 15.2557C5.70075 15.2557 6.14949 15.4481 6.48744 15.786C6.8197 16.1183 7 16.5472 7 17.0057C7 17.4698 6.81563 17.9149 6.48744 18.2431C6.15925 18.5713 5.71413 18.7557 5.25 18.7557C4.78587 18.7557 4.34075 18.5713 4.01256 18.2431C3.68437 17.9149 3.5 17.4698 3.5 17.0057C3.5 16.5416 3.68437 16.0964 4.01256 15.7682Z" fill="#191C1E"/>
</svg>
