<svg width="24" height="24" viewBox="0 0 24 24" fill="none" xmlns="http://www.w3.org/2000/svg">
<path d="M12.9571 3.29289C12.5666 2.90237 11.9334 2.90237 11.5429 3.29289L8.54289 6.29289L9.95711 7.70711L11.25 6.41421V11.25H6.41421L7.70711 9.95711L6.29289 8.54289L3.29289 11.5429C2.90237 11.9334 2.90237 12.5666 3.29289 12.9571L6.29289 15.9571L7.70711 14.5429L6.41421 13.25H11.25V18.0858L9.95711 16.7929L8.54289 18.2071L11.5429 21.2071C11.9334 21.5976 12.5666 21.5976 12.9571 21.2071L15.9571 18.2071L14.5429 16.7929L13.25 18.0858V13.25H18.0858L16.7929 14.5429L18.2071 15.9571L21.2071 12.9571C21.5976 12.5666 21.5976 11.9334 21.2071 11.5429L18.2071 8.54289L16.7929 9.95711L18.0858 11.25H13.25V6.41421L14.5429 7.70711L15.9571 6.29289L12.9571 3.29289Z" fill="#191C1E"/>
</svg>
