<svg width="24" height="25" viewBox="0 0 24 25" fill="none" xmlns="http://www.w3.org/2000/svg">
<path d="M4 3.125C3.73478 3.125 3.48043 3.23036 3.29289 3.41789C3.10536 3.60543 3 3.85978 3 4.125V18.625H5V5.125H18.5V3.125H4Z" fill="#191C1E"/>
<path fill-rule="evenodd" clip-rule="evenodd" d="M6.5 7.375C6.5 6.96079 6.83579 6.625 7.25 6.625H20.25C20.6642 6.625 21 6.96079 21 7.375V20.375C21 20.7892 20.6642 21.125 20.25 21.125H7.25C6.83579 21.125 6.5 20.7892 6.5 20.375V7.375ZM12.9423 16.6599L17.7756 11.9099L16.7242 10.8401L12.4166 15.0735L10.5256 13.2151L9.47424 14.2849L11.8909 16.6599C12.1827 16.9467 12.6505 16.9467 12.9423 16.6599Z" fill="#191C1E"/>
</svg>
