<svg width="24" height="24" viewBox="0 0 24 24" fill="none" xmlns="http://www.w3.org/2000/svg">
<path d="M9.58339 6.4013L14.0991 10.917L18.7501 9.64857V12.5942C18.2449 12.2708 17.6444 12.0833 17.0001 12.0833C16.4938 12.0833 16.0147 12.199 15.5875 12.4055L19.9279 16.7458C20.1343 16.3187 20.2501 15.8395 20.2501 15.3333V3.66663C20.2501 3.43288 20.1411 3.21249 19.9553 3.0706C19.7695 2.92872 19.5282 2.88155 19.3027 2.94306L10.136 5.44306C9.80975 5.53205 9.58339 5.82842 9.58339 6.16663V6.4013Z" fill="#191C1E"/>
<path d="M21.7804 20.7196L20.7197 21.7803L17.4866 18.5471C17.3279 18.571 17.1654 18.5833 17.0001 18.5833C15.2051 18.5833 13.7501 17.1283 13.7501 15.3333C13.7501 15.168 13.7624 15.0055 13.7862 14.8468L11.0834 12.144V17.4166C11.0834 19.4417 9.44177 21.0833 7.41672 21.0833C5.39167 21.0833 3.75005 19.4417 3.75005 17.4166C3.75005 15.3916 5.39167 13.75 7.41672 13.75C8.22726 13.75 8.97638 14.013 9.58339 14.4583V10.644L3.46973 4.5303L4.53039 3.46964L21.7804 20.7196Z" fill="#191C1E"/>
</svg>
