<svg width="24" height="24" viewBox="0 0 24 24" fill="none" xmlns="http://www.w3.org/2000/svg">
<path fill-rule="evenodd" clip-rule="evenodd" d="M20.25 3.66675C20.25 3.433 20.141 3.21261 19.9553 3.07072C19.7695 2.92884 19.5282 2.88168 19.3027 2.94318L10.136 5.44318C9.8097 5.53217 9.58333 5.82854 9.58333 6.16675V14.4584C8.97633 14.0131 8.22721 13.7501 7.41667 13.7501C5.39162 13.7501 3.75 15.3917 3.75 17.4168C3.75 19.4418 5.39162 21.0834 7.41667 21.0834C9.44171 21.0834 11.0833 19.4418 11.0833 17.4168V11.7396L18.75 9.64869V12.5943C18.2449 12.2709 17.6443 12.0834 17 12.0834C15.205 12.0834 13.75 13.5385 13.75 15.3334C13.75 17.1284 15.205 18.5834 17 18.5834C18.795 18.5834 20.25 17.1284 20.25 15.3334V3.66675Z" fill="#191C1E"/>
</svg>
