<svg width="24" height="24" viewBox="0 0 24 24" fill="none" xmlns="http://www.w3.org/2000/svg">
<path fill-rule="evenodd" clip-rule="evenodd" d="M16.75 18.25V22H18.25V18.25H22V16.75H18.25V13H16.75V16.75H13V18.25H16.75Z" fill="#191C1E"/>
<path fill-rule="evenodd" clip-rule="evenodd" d="M3 3.75C3 3.33579 3.33579 3 3.75 3H17.5C17.9142 3 18.25 3.33579 18.25 3.75V11C17.75 11 17.75 11 17.5 11C13.9101 11 11 13.9101 11 17.5C11 17.75 11 18 11 18.25H3.75C3.33579 18.25 3 17.9142 3 17.5V3.75ZM10.5 7.5H6V6H10.5V7.5ZM6 10.5H13.75V9H6V10.5ZM6 13.5H9V12H6L6 13.5Z" fill="#191C1E"/>
</svg>
