<svg width="24" height="24" viewBox="0 0 24 24" fill="none" xmlns="http://www.w3.org/2000/svg">
<path d="M6.05329 2.85169C6.39639 3.0195 6.61394 3.36807 6.61394 3.75001V11.25H4.61394V5.79465L3.97788 6.28936L2.75 4.71066L5 2.96066C5.30148 2.72617 5.7102 2.68389 6.05329 2.85169Z" fill="#191C1E"/>
<path d="M11.1139 8.5C10.4236 8.5 9.86392 9.05964 9.86392 9.75H7.86392C7.86392 7.95507 9.319 6.5 11.1139 6.5C12.9088 6.5 14.3639 7.95507 14.3639 9.75C14.3639 10.5377 14.0255 11.1704 13.7449 11.5653C13.6 11.7692 13.4559 11.9305 13.3465 12.0425C13.2913 12.099 13.2437 12.1442 13.2074 12.1773C13.194 12.1896 13.1821 12.2002 13.1719 12.2092L11.3285 14H14.1139V16H8.86392C8.45682 16 8.09036 15.7532 7.9373 15.376C7.78423 14.9988 7.87513 14.5664 8.16713 14.2827L11.7988 10.7548C11.8152 10.7389 11.8322 10.7234 11.8497 10.7086L11.8534 10.7053L11.8583 10.7009C11.8695 10.6907 11.8897 10.6716 11.916 10.6448C11.9694 10.5901 12.0424 10.5084 12.1146 10.4068C12.2681 10.1907 12.3639 9.96228 12.3639 9.75C12.3639 9.05964 11.8043 8.5 11.1139 8.5Z" fill="#191C1E"/>
<path d="M17.114 14.875C17.114 14.8033 17.1495 14.6689 17.3438 14.5203C17.539 14.371 17.8522 14.25 18.239 14.25C18.6607 14.25 18.949 14.3633 19.1109 14.4948C19.2459 14.6045 19.364 14.78 19.364 15.125C19.364 15.2597 19.3131 15.3849 19.1802 15.4947C19.0382 15.6119 18.7489 15.75 18.239 15.75H17.114V17.75H18.114C18.6772 17.75 19.006 17.895 19.1698 18.0228C19.3212 18.1409 19.364 18.2627 19.364 18.375C19.364 18.6979 19.2498 18.87 19.0961 18.988C18.9104 19.1305 18.5824 19.25 18.114 19.25C17.6795 19.25 17.3272 19.1213 17.1085 18.9634C16.8884 18.8044 16.864 18.6719 16.864 18.625L16.864 18.375L14.864 18.375L14.864 18.625C14.864 19.4756 15.3432 20.1555 15.9375 20.5847C16.5331 21.0149 17.3058 21.25 18.114 21.25C18.8882 21.25 19.6852 21.057 20.3138 20.5745C20.9745 20.0675 21.364 19.3021 21.364 18.375C21.364 17.7675 21.1392 17.2057 20.7397 16.7618C21.1442 16.3081 21.364 15.7345 21.364 15.125C21.364 14.22 21.0063 13.458 20.3722 12.9427C19.765 12.4492 18.9909 12.25 18.239 12.25C17.4521 12.25 16.7028 12.4928 16.1289 12.9316C15.5541 13.3711 15.114 14.0493 15.114 14.875V15H17.114V14.875Z" fill="#191C1E"/>
</svg>
