<svg width="24" height="24" viewBox="0 0 24 24" fill="none" xmlns="http://www.w3.org/2000/svg">
<path d="M12.5005 1.88427C12.1908 1.70524 11.8092 1.70524 11.4995 1.88427L10.3489 2.54948L11.3499 4.28095L12 3.90509L12.6501 4.28095L13.6511 2.54948L12.5005 1.88427Z" fill="#191C1E"/>
<path d="M7.35032 6.59318L9.64808 5.26479L8.64707 3.53332L6.34931 4.86171L7.35032 6.59318Z" fill="#191C1E"/>
<path d="M14.3519 5.26479L16.6497 6.59318L17.6507 4.86171L15.3529 3.53332L14.3519 5.26479Z" fill="#191C1E"/>
<path d="M5.65914 7.5709L5 7.95196V8.70703H3V7.375C3 7.01794 3.19038 6.68797 3.4995 6.50927L4.65813 5.83943L5.65914 7.5709Z" fill="#191C1E"/>
<path d="M18.3409 7.5709L19 7.95196V8.70703H21V7.375C21 7.01794 20.8096 6.68797 20.5005 6.50927L19.3419 5.83943L18.3409 7.5709Z" fill="#191C1E"/>
<path d="M6.35281 10.0005L8.65789 11.3211L9.65211 9.5857L7.34703 8.26508L6.35281 10.0005Z" fill="#191C1E"/>
<path d="M16.653 8.26508L14.3479 9.5857L15.3421 11.3211L17.6472 10.0005L16.653 8.26508Z" fill="#191C1E"/>
<path d="M12.6524 10.5571L12 10.9308L11.3476 10.5571L10.3534 12.2924L11 12.6629V13.4102H13V12.6629L13.6466 12.2924L12.6524 10.5571Z" fill="#191C1E"/>
<path d="M3.4995 17.4907C3.19038 17.312 3 16.9821 3 16.625V15.3364H5V16.048L5.65407 16.4262L4.65307 18.1576L3.4995 17.4907Z" fill="#191C1E"/>
<path d="M20.5005 17.4907C20.8096 17.312 21 16.9821 21 16.625V15.3364H19V16.048L18.3459 16.4262L19.3469 18.1576L20.5005 17.4907Z" fill="#191C1E"/>
<path d="M9.65192 18.7374L7.34739 17.4051L6.34639 19.1366L8.65091 20.4689L9.65192 18.7374Z" fill="#191C1E"/>
<path d="M16.6526 17.4051L14.3481 18.7374L15.3491 20.4689L17.6536 19.1366L16.6526 17.4051Z" fill="#191C1E"/>
<path d="M11.3537 19.7213L12 20.0949L12.6463 19.7213L13.6473 21.4527L12.5005 22.1157C12.1908 22.2948 11.8092 22.2948 11.4995 22.1157L10.3527 21.4527L11.3537 19.7213Z" fill="#191C1E"/>
<path d="M5 13.4102V10.668H3V13.4102H5Z" fill="#191C1E"/>
<path d="M19 10.668V13.4102H21V10.668H19Z" fill="#191C1E"/>
<path d="M11 15.3364V18H13V15.3364H11Z" fill="#191C1E"/>
</svg>
