<svg width="24" height="24" viewBox="0 0 24 24" fill="none" xmlns="http://www.w3.org/2000/svg">
<path d="M7.39412 6.1119C7.15255 5.9627 6.84745 5.9627 6.60588 6.1119L2.56054 8.61049L6.87496 11.1864L11.3165 8.53457L7.39412 6.1119Z" fill="#191C1E"/>
<path d="M2.35588 15.2631C2.13467 15.1265 2 14.885 2 14.625V10.0228L6.12496 12.4857V17.5911L2.35588 15.2631Z" fill="#191C1E"/>
<path d="M7.62496 17.7455L11.6441 15.2631C11.8653 15.1265 12 14.885 12 14.625V9.87352L7.62496 12.4857V17.7455Z" fill="#191C1E"/>
<path d="M15 11.25L22 11.25V12.75L15 12.75V11.25Z" fill="#191C1E"/>
<path d="M22 6H13V7.5H22V6Z" fill="#191C1E"/>
<path d="M22 16.5H13V18H22V16.5Z" fill="#191C1E"/>
</svg>
