<svg width="24" height="24" viewBox="0 0 24 24" fill="none" xmlns="http://www.w3.org/2000/svg">
<path fill-rule="evenodd" clip-rule="evenodd" d="M8.3959 7.33523L5.03032 3.96967L3.96967 5.03033L7.41842 8.47908C7.26101 8.73556 7.12846 9.00712 7.02389 9.2914C4.788 9.55604 3 11.3617 3 13.627C3 15.9712 4.91797 17.8421 7.26781 17.9983C7.28437 17.9994 7.30097 18 7.31757 18H16.9394L18.9697 20.0303L20.0303 18.9697L18.7849 17.7242C20.0821 17.1873 21 15.9227 21 14.4344C21 12.4622 19.3867 10.8823 17.4159 10.8697C17.4338 9.45599 16.7601 8.10412 15.5778 7.1786C14.1497 6.05818 12.1826 5.71476 10.4099 6.24265C9.65089 6.46893 8.96415 6.84478 8.3959 7.33523ZM8.3959 7.33523L18.7849 17.7242C18.3554 17.902 17.8844 18 17.3914 18H16.9394L7.41842 8.47908C7.68026 8.05244 8.01088 7.66753 8.3959 7.33523Z" fill="#191C1E"/>
</svg>
