<svg width="24" height="24" viewBox="0 0 24 24" fill="none" xmlns="http://www.w3.org/2000/svg">
<path d="M4.75 2C4.33579 2 4 2.33579 4 2.75V7.25C4 7.66421 4.33579 8 4.75 8H16.25C16.6642 8 17 7.66421 17 7.25V5.75H18.5V8.97288L12.746 11.0443C12.4484 11.1515 12.25 11.4337 12.25 11.75V13.878C11.3761 14.1869 10.75 15.0203 10.75 16V19.75C10.75 20.9926 11.7574 22 13 22C14.2426 22 15.25 20.9926 15.25 19.75V16C15.25 15.0203 14.6239 14.1869 13.75 13.878V12.2771L19.504 10.2057C19.8016 10.0985 20 9.81626 20 9.5V5C20 4.58579 19.6642 4.25 19.25 4.25H17V2.75C17 2.33579 16.6642 2 16.25 2H4.75Z" fill="#191C1E"/>
</svg>
