<svg width="24" height="24" viewBox="0 0 24 24" fill="none" xmlns="http://www.w3.org/2000/svg">
<path d="M12.0001 5.93935L17.4372 11.3765C17.7301 11.6694 17.7301 12.1443 17.4372 12.4372L10.0126 19.8618C9.71973 20.1547 9.24486 20.1547 8.95196 19.8618L3.29511 14.205C3.00222 13.9121 3.00222 13.4372 3.29511 13.1443L10.5001 5.93935V3H12.0001V5.93935Z" fill="#191C1E"/>
<path d="M19.4384 15.2021C19.3196 14.9277 19.0491 14.75 18.7501 14.75C18.451 14.75 18.1805 14.9277 18.0617 15.2021C17.9041 15.5664 17.7014 15.881 17.4697 16.2404C17.3753 16.3869 17.2761 16.5409 17.1732 16.7086C16.85 17.2356 16.5001 17.894 16.5001 18.6774C16.5001 19.3035 16.7853 19.8747 17.1727 20.2806C17.5583 20.6846 18.1184 21 18.7501 21C19.3817 21 19.9419 20.6846 20.3274 20.2806C20.7148 19.8747 21.0001 19.3035 21.0001 18.6774C21.0001 17.894 20.6501 17.2356 20.3269 16.7086C20.224 16.5408 20.1248 16.3869 20.0304 16.2404C19.7988 15.881 19.596 15.5664 19.4384 15.2021Z" fill="#191C1E"/>
</svg>
