<svg width="24" height="24" viewBox="0 0 24 24" fill="none" xmlns="http://www.w3.org/2000/svg">
<path d="M13.25 4.25C13.25 3.00736 14.2574 2 15.5 2C16.7426 2 17.75 3.00736 17.75 4.25C17.75 5.49264 16.7426 6.5 15.5 6.5C14.2574 6.5 13.25 5.49264 13.25 4.25Z" fill="#191C1E"/>
<path d="M7.62738 4.88591C7.42833 4.85159 7.22385 4.89901 7.06022 5.01744C6.89659 5.13586 6.78765 5.31528 6.75804 5.51509L6.25804 8.89009L7.74185 9.10991L8.12931 6.49458L9.92956 6.80497L7.10314 11.6204C7.00792 11.7826 6.97713 11.9747 7.01689 12.1585L7.96301 16.5343L5.82214 21.0539L7.17775 21.6961L9.42775 16.9461C9.49852 16.7967 9.51794 16.6281 9.48301 16.4665L8.77476 13.1909L10.7531 13.9413L11.6133 17.0593L11.1298 21.2898L12.6201 21.4602L13.1201 17.0852C13.131 16.9898 13.1235 16.8931 13.0979 16.8006L12.1877 13.5008L14.1186 10.5301L14.2549 11.711C14.2751 11.886 14.3562 12.0483 14.4841 12.1695L16.8591 14.4195L17.8908 13.3305L15.7137 11.2681L15.37 8.28904C15.3435 8.05898 15.2121 7.8541 15.0142 7.73391L11.5142 5.60891C11.4338 5.56013 11.345 5.52688 11.2524 5.51091L7.62738 4.88591Z" fill="#191C1E"/>
</svg>
