<svg width="24" height="24" viewBox="0 0 24 24" fill="none" xmlns="http://www.w3.org/2000/svg">
<path d="M18.25 8.5C17.8358 8.5 17.5 8.83579 17.5 9.25C17.5 9.66421 17.8358 10 18.25 10H18.2525C18.6667 10 19.0025 9.66421 19.0025 9.25C19.0025 8.83579 18.6667 8.5 18.2525 8.5H18.25Z" fill="#191C1E"/>
<path fill-rule="evenodd" clip-rule="evenodd" d="M2.94279 4.02521C2.7177 3.96534 2.47757 4.01344 2.29291 4.15539C2.10823 4.29736 2 4.51707 2 4.75001V19.25C2 19.4989 2.12345 19.7315 2.32953 19.8711C2.53552 20.0105 2.79725 20.0388 3.02824 19.9465L3.03389 19.9443C3.03927 19.9422 3.04823 19.9387 3.0607 19.9339C3.08564 19.9244 3.12464 19.9098 3.17721 19.8907C3.28234 19.8527 3.4417 19.797 3.65138 19.7296C4.07084 19.5948 4.69111 19.4131 5.48114 19.2308C7.0621 18.866 9.31726 18.5 12 18.5C14.6827 18.5 16.9379 18.866 18.5189 19.2308C19.3089 19.4131 19.9292 19.5948 20.3486 19.7296C20.5583 19.797 20.7177 19.8527 20.8228 19.8907C20.8754 19.9098 20.9144 19.9244 20.9393 19.9339L20.9546 19.9398L20.9661 19.9443L20.9715 19.9464L20.9718 19.9465C21.2028 20.0388 21.4645 20.0105 21.6705 19.871C21.8766 19.7315 22 19.4989 22 19.25V4.75C22 4.50114 21.8766 4.26848 21.6705 4.12895C21.4645 3.98949 21.2028 3.96124 20.9718 4.05353L20.9715 4.05365L20.9661 4.05574C20.9607 4.05785 20.9518 4.06132 20.9393 4.06608C20.9144 4.07559 20.8754 4.09023 20.8228 4.10926C20.7177 4.14732 20.5583 4.20296 20.3486 4.27036C19.9292 4.40518 19.3089 4.58689 18.5189 4.76921C16.9379 5.13405 14.6827 5.50001 12 5.50001C10.2729 5.50001 8.02179 5.13824 6.16852 4.76479C5.24915 4.57952 4.44084 4.39416 3.86263 4.25516C3.57367 4.18569 3.34256 4.1279 3.18422 4.08762C3.10507 4.06748 3.04412 4.05172 3.00326 4.04107C2.98283 4.03575 2.96743 4.03171 2.95728 4.02904L2.94603 4.02607L2.94279 4.02521ZM7.69058 8.46833L3.5 12.6377V5.71072L3.51202 5.71361C4.10375 5.85586 4.93063 6.04549 5.87221 6.23523C7.74086 6.61178 10.1148 7.00001 12 7.00001C14.8173 7.00001 17.1871 6.61596 18.8561 6.2308C19.519 6.07783 20.0722 5.92449 20.5 5.79451V15.2324L15.0439 9.96064C14.7532 9.67979 14.2923 9.67979 14.0016 9.96064L12.0975 11.8004L8.74855 8.46833C8.45597 8.17722 7.98316 8.17722 7.69058 8.46833Z" fill="#191C1E"/>
</svg>
