<svg width="24" height="25" viewBox="0 0 24 25" fill="none" xmlns="http://www.w3.org/2000/svg">
<path d="M14.3929 10.1875C14.3929 11.0504 13.6934 11.75 12.8304 11.75H10.6072V8.625H12.8304C13.6934 8.625 14.3929 9.32455 14.3929 10.1875Z" fill="#191C1E"/>
<path fill-rule="evenodd" clip-rule="evenodd" d="M3.75 3.125C3.33579 3.125 3 3.46079 3 3.875V20.375C3 20.7892 3.33579 21.125 3.75 21.125H20.25C20.6642 21.125 21 20.7892 21 20.375V3.875C21 3.46079 20.6642 3.125 20.25 3.125H3.75ZM9.85719 7.125C9.44298 7.125 9.10719 7.46079 9.10719 7.875V17.125H10.6072V13.25H12.8304C14.5218 13.25 15.8929 11.8789 15.8929 10.1875C15.8929 8.49613 14.5218 7.125 12.8304 7.125H9.85719Z" fill="#191C1E"/>
</svg>
