<svg width="24" height="25" viewBox="0 0 24 25" fill="none" xmlns="http://www.w3.org/2000/svg">
<path d="M12.75 9.875C12.75 10.4273 12.3023 10.875 11.75 10.875H10.25V8.875H11.75C12.3023 8.875 12.75 9.32272 12.75 9.875Z" fill="#191C1E"/>
<path fill-rule="evenodd" clip-rule="evenodd" d="M11 3.125C6.58172 3.125 3 6.70672 3 11.125C3 15.5433 6.58172 19.125 11 19.125C12.9388 19.125 14.7174 18.4346 16.1017 17.2874L20.2197 21.4053L21.2803 20.3447L17.1624 16.2267C18.3096 14.8424 19 13.0638 19 11.125C19 6.70672 15.4183 3.125 11 3.125ZM9.5 7.375C9.08579 7.375 8.75 7.71079 8.75 8.125V15.125H10.25V12.375H11.75C13.1307 12.375 14.25 11.2557 14.25 9.875C14.25 8.49429 13.1307 7.375 11.75 7.375H9.5Z" fill="#191C1E"/>
</svg>
