<svg width="24" height="25" viewBox="0 0 24 25" fill="none" xmlns="http://www.w3.org/2000/svg">
<path d="M14.3929 10.3125C14.3929 11.1754 13.6933 11.875 12.8304 11.875H10.6071V8.75H12.8304C13.6933 8.75 14.3929 9.44955 14.3929 10.3125Z" fill="#191C1E"/>
<path fill-rule="evenodd" clip-rule="evenodd" d="M12 2.25C6.47715 2.25 2 6.72715 2 12.25C2 17.7728 6.47715 22.25 12 22.25C17.5228 22.25 22 17.7728 22 12.25C22 6.72715 17.5228 2.25 12 2.25ZM9.85715 7.25C9.44293 7.25 9.10715 7.58579 9.10715 8V17.25H10.6071V13.375H12.8304C14.5217 13.375 15.8929 12.0039 15.8929 10.3125C15.8929 8.62113 14.5217 7.25 12.8304 7.25H9.85715Z" fill="#191C1E"/>
</svg>
