<svg width="24" height="25" viewBox="0 0 24 25" fill="none" xmlns="http://www.w3.org/2000/svg">
<path d="M5.67127 4.50705C7.39514 3.09637 9.59873 2.25 12 2.25C17.5228 2.25 22 6.72715 22 12.25C22 14.6513 21.1536 16.8549 19.7429 18.5787L14.3614 13.1971C15.5455 12.7739 16.3929 11.6421 16.3929 10.3125C16.3929 8.62113 15.0218 7.25 13.3304 7.25H10.3572C9.94296 7.25 9.60718 7.58579 9.60718 8V8.44296L5.67127 4.50705Z" fill="#191C1E"/>
<path d="M4.25705 5.92127C2.84637 7.64514 2 9.84873 2 12.25C2 17.7728 6.47715 22.25 12 22.25C14.4013 22.25 16.6049 21.4036 18.3287 19.9929L11.7108 13.375H11.1072V17.25H9.60718V11.2714L4.25705 5.92127Z" fill="#191C1E"/>
<path d="M11.1072 9.94296L13.0392 11.875H13.3304C14.1933 11.875 14.8929 11.1754 14.8929 10.3125C14.8929 9.44955 14.1933 8.75 13.3304 8.75H11.1072V9.94296Z" fill="#191C1E"/>
</svg>
