<svg width="24" height="24" viewBox="0 0 24 24" fill="none" xmlns="http://www.w3.org/2000/svg">
<path d="M6.75 2.75C6.75 2.33579 7.08579 2 7.5 2H15.5C15.9142 2 16.25 2.33579 16.25 2.75V3.5H18.25C18.6642 3.5 19 3.83579 19 4.25V7.5H17.5V5H16.25V5.75C16.25 6.16421 15.9142 6.5 15.5 6.5H7.5C7.08579 6.5 6.75 6.16421 6.75 5.75V5H5.5V20.5H8.5V22H4.75C4.33579 22 4 21.6642 4 21.25V4.25C4 3.83579 4.33579 3.5 4.75 3.5H6.75V2.75Z" fill="#191C1E"/>
<path d="M10.75 9C10.3358 9 10 9.33579 10 9.75V21.25C10 21.6642 10.3358 22 10.75 22H19.25C19.6642 22 20 21.6642 20 21.25V9.75C20 9.33579 19.6642 9 19.25 9H10.75Z" fill="#191C1E"/>
</svg>
