<svg width="24" height="25" viewBox="0 0 24 25" fill="none" xmlns="http://www.w3.org/2000/svg">
<path d="M3.75 12.125C3.75 7.56865 7.44365 3.875 12 3.875C16.5563 3.875 20.25 7.56865 20.25 12.125H22.25C22.25 6.46408 17.6609 1.875 12 1.875C6.33908 1.875 1.75 6.46408 1.75 12.125C1.75 17.7859 6.33908 22.375 12 22.375V20.375C7.44365 20.375 3.75 16.6813 3.75 12.125Z" fill="#191C1E"/>
<path d="M12 13.125C11.4477 13.125 11 12.6773 11 12.125V5.625H13V11.125H16.25V13.125H12Z" fill="#191C1E"/>
<path d="M18 21.375V15.125H16V21.375H18Z" fill="#191C1E"/>
<path d="M20.25 15.125V21.375H22.25V15.125H20.25Z" fill="#191C1E"/>
</svg>
