<svg width="24" height="24" viewBox="0 0 24 24" fill="none" xmlns="http://www.w3.org/2000/svg">
<path d="M12.8162 8.15087C13.1435 8.7934 13.7162 9.33983 14.5036 9.4505C15.291 9.56116 15.9922 9.19376 16.4839 8.66633C16.9775 8.13679 17.3167 7.39739 17.4316 6.58006C17.5464 5.76273 17.4242 4.95849 17.0956 4.31338C16.7684 3.67085 16.1956 3.12442 15.4082 3.01376C14.6208 2.90309 13.9197 3.27049 13.428 3.79792C12.9343 4.32747 12.5951 5.06686 12.4802 5.88419C12.3654 6.70153 12.4876 7.50577 12.8162 8.15087Z" fill="#191C1E"/>
<path d="M6.94119 4.31338C7.26846 3.67085 7.84118 3.12442 8.6286 3.01376C9.41601 2.90309 10.1172 3.2705 10.6089 3.79792C11.1025 4.32747 11.4417 5.06686 11.5566 5.8842C11.6714 6.70153 11.5492 7.50577 11.2206 8.15087C10.8934 8.7934 10.3206 9.33984 9.53322 9.4505C8.74581 9.56116 8.04465 9.19376 7.55295 8.66633C7.05928 8.13679 6.72011 7.39739 6.60524 6.58006C6.49037 5.76273 6.6126 4.95849 6.94119 4.31338Z" fill="#191C1E"/>
<path d="M3.06581 9.64144C3.16984 8.98186 3.51054 8.27929 4.23482 7.98666C4.9591 7.69404 5.69222 7.96276 6.22524 8.36494C6.77216 8.77762 7.23768 9.41269 7.53845 10.1571C7.83923 10.9016 7.94553 11.6818 7.83877 12.3586C7.73474 13.0182 7.39404 13.7207 6.66976 14.0134C5.94548 14.306 5.21236 14.0373 4.67934 13.6351C4.13242 13.2224 3.6669 12.5873 3.36613 11.8429C3.06535 11.0984 2.95905 10.3182 3.06581 9.64144Z" fill="#191C1E"/>
<path d="M17.3598 14.0134C16.6355 13.7207 16.2948 13.0182 16.1908 12.3586C16.0841 11.6818 16.1903 10.9016 16.4911 10.1571C16.7919 9.41269 17.2574 8.77762 17.8043 8.36494C18.3374 7.96276 19.0705 7.69404 19.7948 7.98666C20.519 8.27929 20.8597 8.98186 20.9638 9.64144C21.0705 10.3182 20.9642 11.0984 20.6635 11.8429C20.3627 12.5873 19.8972 13.2224 19.3502 13.6351C18.8172 14.0373 18.0841 14.306 17.3598 14.0134Z" fill="#191C1E"/>
<path d="M16.55 21C15.8381 21 15.0871 20.7605 14.2898 20.5062L14.2625 20.4975C13.5025 20.2525 12.715 20 12.05 20C11.385 20 10.5975 20.2525 9.8375 20.4975C9.0325 20.7575 8.27 21 7.55 21C6.0975 21 5 19.8175 5 18.25C5 17.9375 5.045 17.4325 5.185 17.0425C5.51 16.07 6.295 15.5525 6.99 15.0975C7.6025 14.695 8.1825 14.3125 8.56 13.635C9.6 11.7475 10.2875 10.5 12.05 10.5C13.8125 10.5 14.35 11.465 15.4075 13.3875C15.7875 14.075 16.4 14.5125 17.05 14.975L17.0568 14.9798C17.8122 15.5208 18.5935 16.0804 18.915 17.0425C19.0525 17.4275 19.1025 17.9325 19.1025 18.25C19.1025 19.8175 18.0075 21 16.5525 21H16.55Z" fill="#191C1E"/>
</svg>
