<svg width="24" height="24" viewBox="0 0 24 24" fill="none" xmlns="http://www.w3.org/2000/svg">
<path fill-rule="evenodd" clip-rule="evenodd" d="M12.6836 1.88226L4.75 1.88228C4.33579 1.88228 4 2.21806 4 2.63228V12.9354C4 13.3496 4.33579 13.6854 4.75 13.6854H19.2427C19.6563 13.6854 19.9919 13.3505 19.9927 12.9369L20 9.18408C20.0004 8.98435 19.9211 8.79271 19.7797 8.65164L13.2132 2.10128C13.0726 1.96103 12.8822 1.88226 12.6836 1.88226ZM12.4336 3.44227L18.439 9.43297L12.6837 9.43542C12.6174 9.43544 12.5538 9.40912 12.5069 9.36223C12.4599 9.31534 12.4336 9.25174 12.4336 9.18542V3.44227Z" fill="#191C1E"/>
<path fill-rule="evenodd" clip-rule="evenodd" d="M4.75 15C4.33579 15 4 15.3358 4 15.75V22H5.5V19.5H6.25C7.49264 19.5 8.5 18.4926 8.5 17.25C8.5 16.0074 7.49264 15 6.25 15H4.75ZM7 17.25C7 17.6642 6.66421 18 6.25 18H5.5V16.5H6.25C6.66421 16.5 7 16.8358 7 17.25Z" fill="#191C1E"/>
<path fill-rule="evenodd" clip-rule="evenodd" d="M9.5 15.75C9.5 15.3358 9.83579 15 10.25 15H11.75C13.2688 15 14.5 16.2312 14.5 17.75V19.5C14.5 21.0188 13.2688 22.25 11.75 22.25H10.25C9.83579 22.25 9.5 21.9142 9.5 21.5V15.75ZM13 17.75C13 17.0596 12.4404 16.5 11.75 16.5H11V20.75H11.75C12.4404 20.75 13 20.1904 13 19.5V17.75Z" fill="#191C1E"/>
<path d="M16.5 15C16.0858 15 15.75 15.3358 15.75 15.75V22H17.25V19.375H19.5V17.875H17.25V16.5H20V15H16.5Z" fill="#191C1E"/>
</svg>
