<svg width="24" height="24" viewBox="0 0 24 24" fill="none" xmlns="http://www.w3.org/2000/svg">
<path d="M3.75 6.625C3.75 5.03718 5.03718 3.75 6.625 3.75C8.21282 3.75 9.5 5.03718 9.5 6.625C9.5 8.21282 8.21282 9.5 6.625 9.5C5.03718 9.5 3.75 8.21282 3.75 6.625Z" fill="#191C1E"/>
<path d="M4.0979 18.2379L18.2378 4.09793L19.6521 5.51214L5.51211 19.6521L4.0979 18.2379Z" fill="#191C1E"/>
<path d="M17.125 14.25C15.5372 14.25 14.25 15.5372 14.25 17.125C14.25 18.7128 15.5372 20 17.125 20C18.7128 20 20 18.7128 20 17.125C20 15.5372 18.7128 14.25 17.125 14.25Z" fill="#191C1E"/>
</svg>
