<svg width="24" height="24" viewBox="0 0 24 24" fill="none" xmlns="http://www.w3.org/2000/svg">
<path d="M20.4106 10.2988C15.437 6.57477 8.53373 6.55825 3.57417 10.3021C2.48744 11.1225 2 12.4249 2 13.6823V14.9986C2 15.9651 2.7835 16.7486 3.75 16.7486H7.75C8.7165 16.7486 9.5 15.9651 9.5 14.9986V13.2347C9.5 12.7278 9.77561 12.366 10.1107 12.2675C11.3311 11.909 12.6689 11.909 13.8893 12.2675C14.2244 12.366 14.5 12.7278 14.5 13.2347V14.9986C14.5 15.9651 15.2835 16.7486 16.25 16.7486H20.25C21.2165 16.7486 22 15.9651 22 14.9986V13.6931C22 12.428 21.5063 11.1192 20.4106 10.2988Z" fill="#191C1E"/>
</svg>
