<svg width="24" height="24" viewBox="0 0 24 24" fill="none" xmlns="http://www.w3.org/2000/svg">
<path fill-rule="evenodd" clip-rule="evenodd" d="M15.9458 20.0225C9.79154 19.1628 4.92188 14.2698 4.03831 8.11964C3.84366 6.76477 4.42001 5.49021 5.31453 4.59569L6.23768 3.67254C6.88477 3.02544 7.91255 2.99105 8.60011 3.56936C8.95259 3.65084 9.28726 3.82892 9.56193 4.10358L10.9761 5.5178C11.2477 5.78931 11.4248 6.11948 11.5075 6.46751L11.541 6.50096C12.2244 7.18438 12.2244 8.29242 11.541 8.97584L10.2937 10.2231C10.1293 10.3875 10.0274 10.5714 9.98155 10.7518C10.7178 12.1748 11.9385 13.3588 13.385 14.0452C13.5378 13.9916 13.6904 13.8975 13.8292 13.7587L15.0765 12.5114C15.7236 11.8643 16.7514 11.8299 17.4389 12.4082C17.7914 12.4897 18.1261 12.6678 18.4008 12.9424L19.815 14.3566C20.0865 14.6281 20.2636 14.9583 20.3464 15.3063L20.3798 15.3398C21.0632 16.0232 21.0632 17.1313 20.3798 17.8147L19.449 18.7455C18.5599 19.6346 17.2943 20.2108 15.9458 20.0225Z" fill="#191C1E"/>
</svg>
