<svg width="24" height="24" viewBox="0 0 24 24" fill="none" xmlns="http://www.w3.org/2000/svg">
<path fill-rule="evenodd" clip-rule="evenodd" d="M9.75 4C9.52082 4 9.30422 4.10479 9.16197 4.28447L7.01217 7H2.75C2.33579 7 2 7.33579 2 7.75V19.25C2 19.6642 2.33579 20 2.75 20H21.25C21.6642 20 22 19.6642 22 19.25V7.75C22 7.33579 21.6642 7 21.25 7H16.9878L14.838 4.28447C14.6958 4.10479 14.4792 4 14.25 4H9.75ZM12 10.375C10.2741 10.375 8.875 11.7741 8.875 13.5C8.875 15.2259 10.2741 16.625 12 16.625C13.7259 16.625 15.125 15.2259 15.125 13.5C15.125 11.7741 13.7259 10.375 12 10.375Z" fill="#191C1E"/>
</svg>
