<svg width="24" height="24" viewBox="0 0 24 24" fill="none" xmlns="http://www.w3.org/2000/svg">
<path d="M2 12C2 6.72945 6.07745 2.41124 11.25 2.02771V12C11.25 12.1989 11.329 12.3897 11.4697 12.5303L18.5209 19.5816C16.7701 21.0889 14.4915 22 12 22C6.47715 22 2 17.5229 2 12Z" fill="#191C1E"/>
<path d="M18.5209 4.4184C16.9474 3.06378 14.9475 2.19065 12.75 2.02771V10.1893L18.5209 4.4184Z" fill="#191C1E"/>
<path d="M13.0607 12L19.5816 5.47906C21.0889 7.22988 22 9.50854 22 12C22 14.4915 21.0889 16.7701 19.5816 18.521L13.0607 12Z" fill="#191C1E"/>
</svg>
