<svg width="24" height="24" viewBox="0 0 24 24" fill="none" xmlns="http://www.w3.org/2000/svg">
<path d="M21.2804 3.78033L19.6454 5.41531C20.8978 7.17271 20.7357 9.62828 19.1591 11.2049L17.5681 12.7959C17.2752 13.0888 16.8003 13.0888 16.5074 12.7959L11.2041 7.49264C11.0635 7.35198 10.9844 7.16122 10.9844 6.96231C10.9844 6.76339 11.0635 6.57263 11.2041 6.43198L12.7951 4.84099C14.3718 3.26432 16.8273 3.10221 18.5847 4.35465L20.2197 2.71967L21.2804 3.78033Z" fill="#191C1E"/>
<path d="M11.2019 11.0304L9.25735 12.975L11.0251 14.7427L12.9697 12.7982L14.0303 13.8589L12.0858 15.8034L12.7929 16.5105C12.9335 16.6512 13.0126 16.8419 13.0126 17.0408C13.0126 17.2397 12.9335 17.4305 12.7929 17.5712L11.2019 19.1622C9.62523 20.7388 7.16966 20.9009 5.41226 19.6485L3.77727 21.2835L2.71661 20.2228L4.3516 18.5878C3.09915 16.8304 3.26126 14.3749 4.83793 12.7982L6.42892 11.2072C6.72182 10.9143 7.19669 10.9143 7.48958 11.2072L8.19669 11.9143L10.1412 9.96977L11.2019 11.0304Z" fill="#191C1E"/>
</svg>
