<svg width="24" height="25" viewBox="0 0 24 25" fill="none" xmlns="http://www.w3.org/2000/svg">
<path fill-rule="evenodd" clip-rule="evenodd" d="M11.6945 4.33205C11.8919 4.24218 12.1186 4.24218 12.316 4.33205L12.3187 4.33302C12.3334 4.33846 12.4103 4.36674 12.5786 4.423C12.7481 4.47963 12.9743 4.553 13.2393 4.63766C13.7687 4.80679 14.4438 5.0181 15.1098 5.22502C15.7755 5.43183 16.4306 5.63379 16.9193 5.78407C17.1894 5.86712 17.4595 5.94998 17.7297 6.03273C17.8549 6.07103 17.9681 6.14151 18.0577 6.23704L21.8077 10.237C21.9458 10.3844 22.0187 10.5812 22.0098 10.7829C22.0009 10.9846 21.9111 11.1743 21.7606 11.3089L19.3856 13.4339C19.2481 13.557 19.0701 13.625 18.8855 13.625H5.125C4.94047 13.625 4.76242 13.557 4.6249 13.4339L2.2499 11.3089C2.09941 11.1743 2.00958 10.9846 2.00072 10.7829C1.99187 10.5812 2.06474 10.3844 2.20285 10.237L5.95285 6.23704C6.04241 6.14151 6.15542 6.07109 6.28064 6.0328C6.55088 5.95002 6.82108 5.86714 7.09122 5.78407C7.57997 5.63379 8.23503 5.43183 8.90068 5.22502C9.56669 5.0181 10.2418 4.80679 10.7712 4.63766C11.0362 4.553 11.2624 4.47963 11.4319 4.423C11.6002 4.36674 11.6771 4.33844 11.6919 4.333L11.6945 4.33205ZM11.8332 7.25038C11.9388 7.19754 12.0632 7.19755 12.1688 7.25039L13.8356 8.0844C13.9626 8.14794 14.0428 8.27776 14.0428 8.41976C14.0428 9.81329 13.3105 10.884 12.1187 11.2778C12.0422 11.303 11.9598 11.303 11.8833 11.2778C10.6915 10.884 9.95917 9.81314 9.95917 8.41963C9.95917 8.27762 10.0394 8.14779 10.1664 8.08426L11.8332 7.25038Z" fill="#191C1E"/>
<path d="M4.80833 15.585C4.92516 15.3064 5.19783 15.125 5.50001 15.125H18.5017C18.8041 15.125 19.0769 15.3066 19.1936 15.5856L19.9419 17.3747C20.026 17.5757 20.0185 17.8033 19.9214 17.9983C19.8244 18.1933 19.6473 18.3365 19.4363 18.3906L18.4555 18.6419C17.8603 18.7943 17.0555 19.0004 16.2168 19.2148C14.5417 19.6429 12.7252 20.106 12.1803 20.2403C12.0624 20.2694 11.9393 20.2694 11.8214 20.2403C11.2766 20.106 9.45961 19.6429 7.78411 19.2148C6.9452 19.0004 6.14013 18.7944 5.54479 18.6419L4.56377 18.3906C4.35263 18.3365 4.17549 18.1932 4.07844 17.998C3.9814 17.8029 3.97405 17.5751 4.05832 17.3741L4.80833 15.585Z" fill="#191C1E"/>
</svg>
