<svg width="24" height="24" viewBox="0 0 24 24" fill="none" xmlns="http://www.w3.org/2000/svg">
<path fill-rule="evenodd" clip-rule="evenodd" d="M2.5 6.25C2.5 4.59315 3.84315 3.25 5.5 3.25C6.89788 3.25 8.07245 4.20608 8.40549 5.5H15.5945C15.9275 4.20608 17.1021 3.25 18.5 3.25C20.1569 3.25 21.5 4.59315 21.5 6.25C21.5 7.90685 20.1569 9.25 18.5 9.25C18.2314 9.25 17.971 9.21469 17.7232 9.14847L14.0822 15.5903C14.648 16.1359 15 16.9019 15 17.75C15 19.4069 13.6569 20.75 12 20.75C10.3431 20.75 9 19.4069 9 17.75C9 16.9019 9.35195 16.1359 9.91778 15.5903L6.27675 9.14847C6.02901 9.21469 5.76863 9.25 5.5 9.25C3.84315 9.25 2.5 7.90685 2.5 6.25ZM7.58222 8.40972L11.2232 14.8515C11.471 14.7853 11.7314 14.75 12 14.75C12.2686 14.75 12.529 14.7853 12.7768 14.8515L16.4178 8.40972C16.0247 8.03068 15.7349 7.54535 15.5945 7H8.40549C8.26512 7.54535 7.97527 8.03068 7.58222 8.40972Z" fill="#191C1E"/>
</svg>
