<svg width="24" height="24" viewBox="0 0 24 24" fill="none" xmlns="http://www.w3.org/2000/svg">
<path d="M3 6C3 4.34315 4.34315 3 6 3C7.65685 3 9 4.34315 9 6C9 6.14015 8.99039 6.27806 8.97179 6.4131L15.7768 9.98571C16.3256 9.38026 17.1184 9 18 9C19.6569 9 21 10.3431 21 12C21 13.6569 19.6569 15 18 15C17.1184 15 16.3256 14.6197 15.7767 14.0143L8.97179 17.5869C8.99039 17.7219 9 17.8598 9 18C9 19.6569 7.65685 21 6 21C4.34315 21 3 19.6569 3 18C3 16.3431 4.34315 15 6 15C6.97917 15 7.84878 15.4691 8.39633 16.1948L15.0789 12.6865C15.0273 12.466 15 12.2362 15 12C15 11.7638 15.0273 11.534 15.0789 11.3135L8.39635 7.80514C7.84879 8.53088 6.97918 9 6 9C4.34315 9 3 7.65685 3 6Z" fill="#191C1E"/>
</svg>
