<svg width="24" height="24" viewBox="0 0 24 24" fill="none" xmlns="http://www.w3.org/2000/svg">
<path d="M4.25 12.333C4.25 9.28122 6.05324 6.63883 8.67576 5.40482L7.82424 3.59515C4.53439 5.14317 2.25 8.4699 2.25 12.333C2.25 17.6809 6.62423 22 12 22C17.3758 22 21.75 17.6809 21.75 12.333C21.75 8.4699 19.4656 5.14317 16.1758 3.59515L15.3242 5.40482C17.9468 6.63883 19.75 9.28122 19.75 12.333C19.75 16.5584 16.2892 20 12 20C7.71079 20 4.25 16.5584 4.25 12.333Z" fill="#191C1E"/>
<path d="M13 12V2H11V12H13Z" fill="#191C1E"/>
</svg>
