<svg width="24" height="24" viewBox="0 0 24 24" fill="none" xmlns="http://www.w3.org/2000/svg">
<path fill-rule="evenodd" clip-rule="evenodd" d="M5.75 2C5.55109 2 5.36032 2.07902 5.21967 2.21967C5.07902 2.36032 5 2.55109 5 2.75V16.6858C5 16.9185 5.10799 17.138 5.29233 17.28L11.5423 22.0942C11.8121 22.3019 12.1879 22.3019 12.4577 22.0942L18.7077 17.28C18.892 17.138 19 16.9185 19 16.6858L19 2.75C19 2.55109 18.921 2.36032 18.7803 2.21967C18.6397 2.07902 18.4489 2 18.25 2H5.75ZM10.1199 7.83613C10.4451 7.61503 10.832 7.45709 11.25 7.37106V6.5H12.75V7.37105C13.168 7.45709 13.5549 7.61502 13.8801 7.83613C14.3893 8.18235 14.8125 8.73881 14.8125 9.44796H13.3125C13.3125 9.38262 13.274 9.2379 13.0367 9.07657C12.8034 8.91793 12.4391 8.79561 12 8.79561C11.5609 8.79561 11.1966 8.91793 10.9633 9.07656C10.726 9.2379 10.6875 9.38262 10.6875 9.44796C10.6875 9.55115 10.706 9.6004 10.7166 9.62113C10.7249 9.63729 10.7424 9.66537 10.8018 9.70222C10.949 9.79358 11.2918 9.90001 12 9.90001C12.7864 9.90001 13.5191 9.99932 14.0739 10.3327C14.7042 10.7116 15 11.3249 15 12.0524C15 12.8658 14.5631 13.4483 13.9542 13.7853C13.596 13.9836 13.1803 14.0991 12.75 14.157V15H11.25V14.1394C10.7923 14.058 10.368 13.9021 10.0123 13.6805C9.47917 13.3482 9 12.7925 9 12.0524H10.5C10.5 12.0867 10.5245 12.2322 10.8057 12.4075C11.0761 12.576 11.4964 12.7047 12 12.7047C12.5603 12.7047 12.978 12.6112 13.2278 12.473C13.4333 12.3592 13.5 12.2406 13.5 12.0524C13.5 11.7781 13.4208 11.6903 13.3012 11.6184C13.1059 11.501 12.7136 11.4 12 11.4C11.2082 11.4 10.5198 11.2927 10.0107 10.9766C9.4292 10.6156 9.1875 10.0533 9.1875 9.44796C9.1875 8.7388 9.61069 8.18235 10.1199 7.83613Z" fill="#191C1E"/>
</svg>
