<svg width="24" height="24" viewBox="0 0 24 24" fill="none" xmlns="http://www.w3.org/2000/svg">
<path fill-rule="evenodd" clip-rule="evenodd" d="M5.75 2C5.55109 2 5.36032 2.07902 5.21967 2.21967C5.07902 2.36032 5 2.55109 5 2.75V16.6858C5 16.9185 5.10799 17.138 5.29233 17.28L11.5423 22.0942C11.8121 22.3019 12.1879 22.3019 12.4577 22.0942L18.7077 17.28C18.892 17.138 19 16.9185 19 16.6858L19 2.75C19 2.55109 18.921 2.36032 18.7803 2.21967C18.6397 2.07902 18.4489 2 18.25 2H5.75ZM10.3709 10.375C10.6848 9.43086 11.5754 8.75 12.625 8.75C13.2805 8.75 13.8728 9.01456 14.3033 9.44452L15.3632 8.38317C14.663 7.6838 13.6939 7.25 12.625 7.25C10.7415 7.25 9.17184 8.59382 8.82253 10.375H8V11.875H8.82253C9.17184 13.6562 10.7415 15 12.625 15C13.6939 15 14.663 14.5662 15.3632 13.8668L14.3033 12.8055C13.8728 13.2354 13.2805 13.5 12.625 13.5C11.5754 13.5 10.6848 12.8191 10.3709 11.875H12.75V10.375H10.3709Z" fill="#191C1E"/>
</svg>
