<svg width="24" height="24" viewBox="0 0 24 24" fill="none" xmlns="http://www.w3.org/2000/svg">
<path fill-rule="evenodd" clip-rule="evenodd" d="M3 16.75C3 18.5449 4.45507 20 6.25 20H20.25C20.6642 20 21 19.6642 21 19.25V5.25C21 4.83579 20.6642 4.5 20.25 4.5H8.25V2.75C8.25 2.33579 7.91421 2 7.5 2H6.25C4.45507 2 3 3.45507 3 5.25V16.75ZM6.25 3.5C5.2835 3.5 4.5 4.2835 4.5 5.25V14.0109C5.00515 13.6875 5.60568 13.5 6.25 13.5H6.75V3.5H6.25ZM14 7.5C13.5858 7.5 13.25 7.83579 13.25 8.25V11.5H10.5C10.0858 11.5 9.75 11.8358 9.75 12.25V16.25C9.75 16.6642 10.0858 17 10.5 17H17.25C17.6642 17 18 16.6642 18 16.25V8.25C18 7.83579 17.6642 7.5 17.25 7.5H14Z" fill="#191C1E"/>
</svg>
