<svg width="24" height="24" viewBox="0 0 24 24" fill="none" xmlns="http://www.w3.org/2000/svg">
<path fill-rule="evenodd" clip-rule="evenodd" d="M12.5297 3.48816C14.0672 2.91689 15.7643 2.65034 17.4292 3.81207C17.5643 3.90637 17.6647 4.04255 17.7147 4.19956L20.2147 12.05C20.3093 12.3471 20.2102 12.6718 19.9658 12.8654C19.7214 13.0591 19.3827 13.0813 19.1151 12.9212C17.7507 12.1053 16.5826 11.9408 15.5372 12.081C14.2046 12.2597 13.0288 12.9264 11.7943 13.6264C11.6285 13.7204 11.4617 13.815 11.2933 13.9091C10.2475 14.4934 9.05748 15.1104 7.79175 15.0534L9.38928 20.7991L7.9441 21.2009L3.77744 6.21504C3.70057 5.9386 3.78817 5.64252 4.00308 5.4524C4.21799 5.26228 4.52254 5.21144 4.78755 5.32144C5.92168 5.79219 7.03049 5.70082 8.19191 5.33581C8.89594 5.11455 9.59749 4.79967 10.3253 4.45978C10.4194 4.41583 10.5141 4.37135 10.6095 4.3266C11.236 4.03252 11.8868 3.72701 12.5297 3.48816ZM6.56044 10.6248C7.55746 10.862 8.5923 10.5631 9.68322 10.0644L8.54429 6.79688C7.61061 7.08017 6.61474 7.23446 5.57598 7.08415L6.56044 10.6248ZM10.7873 12.4724C10.8704 12.4253 10.9548 12.3772 11.0403 12.3284C12.176 11.6807 13.5229 10.9126 15.0459 10.64L14.1507 8.22301C13.4445 8.44525 12.7463 8.77533 12.0531 9.13222C11.8147 9.25497 11.5762 9.38128 11.3383 9.5073L11.338 9.50745C10.8865 9.74656 10.4369 9.98467 9.99365 10.1954L10.7873 12.4724ZM17.3329 7.94399L16.3667 4.91014C15.392 4.32843 14.3818 4.41778 13.1688 4.85168L14.3038 7.91656C15.2881 7.64007 16.2999 7.57798 17.3329 7.94399Z" fill="#191C1E"/>
</svg>
