<svg width="24" height="24" viewBox="0 0 24 24" fill="none" xmlns="http://www.w3.org/2000/svg">
<path d="M12.4887 4.88735C12.278 4.5326 11.8203 4.41467 11.4644 4.62344L5.7455 7.97808C5.48279 8.13219 5.33937 8.42986 5.38256 8.73136L6.27793 14.9813C6.31994 15.2746 6.53062 15.5156 6.81559 15.5965L11.6523 16.9691C11.7482 16.9963 11.8486 17.0042 11.9476 16.9921L18.0906 16.2445C18.3437 16.2137 18.5638 16.0565 18.6749 15.827C18.7861 15.5976 18.7731 15.3274 18.6404 15.1097L15.4875 9.93605L12.4887 4.88735Z" fill="#191C1E"/>
<path fill-rule="evenodd" clip-rule="evenodd" d="M12.375 2.10048C12.1429 1.96651 11.857 1.96651 11.625 2.10048L3.61426 6.72548C3.38221 6.85946 3.23926 7.10705 3.23926 7.375V16.625C3.23926 16.8929 3.38221 17.1405 3.61426 17.2745L11.625 21.8995C11.857 22.0335 12.1429 22.0335 12.375 21.8995L20.3857 17.2745C20.6178 17.1405 20.7607 16.8929 20.7607 16.625V7.375C20.7607 7.10705 20.6178 6.85946 20.3857 6.72548L12.375 2.10048ZM12 20.384L4.73926 16.192V7.80801L12 3.61603L19.2607 7.80801V16.192L12 20.384Z" fill="#191C1E"/>
</svg>
