<svg width="24" height="24" viewBox="0 0 24 24" fill="none" xmlns="http://www.w3.org/2000/svg">
<path fill-rule="evenodd" clip-rule="evenodd" d="M5.08579 2.0657C4.85329 1.94929 4.5771 1.9616 4.35588 2.09823C4.13467 2.23486 4 2.47632 4 2.73633V21.25C4 21.5099 4.13459 21.7513 4.3557 21.888C4.57681 22.0246 4.85292 22.0371 5.08541 21.9208L7.2412 20.8429L9.27544 21.9137C9.494 22.0287 9.75518 22.0288 9.97379 21.9138L12.002 20.8475L14.0256 21.9136C14.2444 22.0288 14.5059 22.0288 14.7246 21.9136L16.758 20.8429L18.9147 21.9209C19.1472 22.0371 19.4233 22.0246 19.6443 21.888C19.8654 21.7513 20 21.5099 20 21.25V2.73633C20 2.47634 19.8654 2.2349 19.6442 2.09826C19.423 1.96162 19.1468 1.94928 18.9143 2.06564L16.758 3.14492L14.725 2.07291C14.506 1.95745 14.2442 1.95747 14.0252 2.07298L12.002 3.14031L9.97417 2.07269C9.75536 1.95748 9.49382 1.95755 9.27506 2.07286L7.24119 3.14492L5.08579 2.0657ZM16.5 9H7.5V7.5H16.5V9ZM7.5 12.75H16.5V11.25H7.5V12.75ZM16.5 16.5H7.5V15H16.5V16.5Z" fill="#191C1E"/>
</svg>
