<svg width="24" height="24" viewBox="0 0 24 24" fill="none" xmlns="http://www.w3.org/2000/svg">
<path fill-rule="evenodd" clip-rule="evenodd" d="M4.35588 2.1119C4.5771 1.97527 4.85329 1.96296 5.08579 2.07937L7.24119 3.15859L9.27506 2.08653C9.49382 1.97122 9.75536 1.97115 9.97417 2.08636L12.002 3.15398L14.0252 2.08665C14.2442 1.97114 14.506 1.97112 14.725 2.08659L16.758 3.15859L18.9143 2.07932C19.1468 1.96295 19.423 1.97529 19.6442 2.11193C19.8654 2.24857 20 2.49001 20 2.75V11.4982C19.2304 11.1772 18.3859 11 17.5 11C16.8615 11 16.2444 11.0921 15.6614 11.2637H7.5V12.7637H13.0483C12.3821 13.3901 11.848 14.1556 11.4925 15.0137H7.5V16.5137H11.0744C11.0254 16.8353 11 17.1647 11 17.5C11 18.7412 11.3479 19.9012 11.9515 20.8877L9.97379 21.9275C9.75518 22.0424 9.494 22.0424 9.27544 21.9273L7.2412 20.8566L5.08541 21.9345C4.85292 22.0507 4.57681 22.0383 4.3557 21.9017C4.13459 21.765 4 21.5236 4 21.2637V2.75C4 2.48999 4.13467 2.24853 4.35588 2.1119ZM7.5 9.01367H16.5V7.51367H7.5V9.01367Z" fill="#191C1E"/>
<path d="M21.2123 14.8483L18.5607 17.5L21.2123 20.1516L20.1517 21.2123L17.5 18.5606L14.8484 21.2123L13.7877 20.1516L16.4393 17.5L13.7877 14.8483L14.8484 13.7877L17.5 16.4393L20.1517 13.7877L21.2123 14.8483Z" fill="#191C1E"/>
</svg>
