<svg width="24" height="24" viewBox="0 0 24 24" fill="none" xmlns="http://www.w3.org/2000/svg">
<path fill-rule="evenodd" clip-rule="evenodd" d="M12.287 2.48104C12.1032 2.40492 11.8968 2.40492 11.713 2.48104L5.17225 5.1903C4.98848 5.26642 4.84247 5.41243 4.76635 5.5962L2.05709 12.1369C1.98097 12.3207 1.98097 12.5272 2.05709 12.711L4.76635 19.2517C4.84247 19.4355 4.98848 19.5815 5.17225 19.6576L11.713 22.3669C11.8968 22.443 12.1032 22.443 12.287 22.3669L18.8277 19.6576C19.0115 19.5815 19.1575 19.4355 19.2336 19.2517L21.9429 12.711C22.019 12.5272 22.019 12.3207 21.9429 12.1369L19.2336 5.5962C19.1575 5.41243 19.0115 5.26642 18.8277 5.1903L12.287 2.48104ZM12 16.174C11.5858 16.174 11.25 16.5097 11.25 16.924C11.25 17.3382 11.5858 17.674 12 17.674H12.0025C12.4167 17.674 12.7525 17.3382 12.7525 16.924C12.7525 16.5097 12.4167 16.174 12.0025 16.174H12ZM12.75 14.924V6.92395H11.25V14.924H12.75Z" fill="#191C1E"/>
</svg>
