<svg width="24" height="25" viewBox="0 0 24 25" fill="none" xmlns="http://www.w3.org/2000/svg">
<path d="M2 5C2 4.58579 2.33579 4.25 2.75 4.25H6.5V6.25H8V4.25H16V6.25H17.5V4.25H21.25C21.6642 4.25 22 4.58579 22 5V8H2V5Z" fill="#191C1E"/>
<path fill-rule="evenodd" clip-rule="evenodd" d="M2.75 21.25C2.33579 21.25 2 20.9142 2 20.5V9.5H22V13.5278C20.9385 12.5777 19.5367 12 18 12C17.8206 12 17.643 12.0079 17.4676 12.0233C17.3715 11.7199 17.0877 11.5 16.7525 11.5H16.75C16.3358 11.5 16 11.8358 16 12.25C16 12.2803 16.0018 12.3102 16.0053 12.3395C14.2021 12.975 12.7937 14.4476 12.247 16.2907C12.1703 16.2643 12.0881 16.25 12.0025 16.25H12C11.5858 16.25 11.25 16.5858 11.25 17C11.25 17.4142 11.5858 17.75 12 17.75H12.0025L12.0051 17.75C12.0017 17.8329 12 17.9163 12 18C12 19.1977 12.3509 20.3134 12.9556 21.25H2.75ZM6.5 12.25C6.5 11.8358 6.83579 11.5 7.25 11.5H7.2525C7.66671 11.5 8.0025 11.8358 8.0025 12.25C8.0025 12.6642 7.66671 13 7.2525 13H7.25C6.83579 13 6.5 12.6642 6.5 12.25ZM11.25 12.25C11.25 11.8358 11.5858 11.5 12 11.5H12.0025C12.4167 11.5 12.7525 11.8358 12.7525 12.25C12.7525 12.6642 12.4167 13 12.0025 13H12C11.5858 13 11.25 12.6642 11.25 12.25ZM6.5 17C6.5 16.5858 6.83579 16.25 7.25 16.25H7.2525C7.66671 16.25 8.0025 16.5858 8.0025 17C8.0025 17.4142 7.66671 17.75 7.2525 17.75H7.25C6.83579 17.75 6.5 17.4142 6.5 17Z" fill="#191C1E"/>
<path d="M17.2803 21.0303L22.0303 16.2803L20.9697 15.2197L16.75 19.4393L14.7803 17.4697L13.7197 18.5303L16.2197 21.0303C16.5126 21.3232 16.9874 21.3232 17.2803 21.0303Z" fill="#191C1E"/>
</svg>
