<svg width="24" height="24" viewBox="0 0 24 24" fill="none" xmlns="http://www.w3.org/2000/svg">
<path fill-rule="evenodd" clip-rule="evenodd" d="M14.6923 1.79851C15.105 1.66506 15.5567 1.81289 15.8107 2.16452L16.5048 3.12567C18.2895 5.59668 19.25 8.56722 19.25 11.6153V11.75C19.25 12.0152 19.1446 12.2696 18.9571 12.4571L16 15.4142V22H14V2.75001C14 2.31626 14.2796 1.93197 14.6923 1.79851ZM6.75 2.00001V7.00001C6.75 7.74029 7.1522 8.38663 7.75 8.73244V2.00001H9.75V8.73244C10.3478 8.38663 10.75 7.74029 10.75 7.00001V2.00001H12.75V7.00001C12.75 8.86385 11.4752 10.4299 9.75 10.874V22H7.75V10.874C6.02477 10.4299 4.75 8.86385 4.75 7.00001V2.00001H6.75Z" fill="#191C1E"/>
</svg>
