<svg width="24" height="24" viewBox="0 0 24 24" fill="none" xmlns="http://www.w3.org/2000/svg">
<path d="M12.25 2C11.0074 2 10 3.00736 10 4.25C10 5.49264 11.0074 6.5 12.25 6.5C13.4926 6.5 14.5 5.49264 14.5 4.25C14.5 3.00736 13.4926 2 12.25 2Z" fill="#191C1E"/>
<path d="M7.125 8.75C6.71079 8.75 6.375 8.41421 6.375 8V4H7.875V7.25H17.125C17.5392 7.25 17.875 7.58579 17.875 8V12H16.375V8.75H14.5V22H13V14.625H8.5V18.375H7V13.875C7 13.4608 7.33579 13.125 7.75 13.125H9.5V8.75H7.125Z" fill="#191C1E"/>
</svg>
