<svg width="24" height="24" viewBox="0 0 24 24" fill="none" xmlns="http://www.w3.org/2000/svg">
<path fill-rule="evenodd" clip-rule="evenodd" d="M12.25 2C11.5672 2 10.9555 2.30412 10.5428 2.78429L10.5393 2.78149L4.77937 9.98169C3.92883 10.917 3.73467 12.3279 4.39263 13.4838L8.5837 21.5943C8.71247 21.8435 8.96952 22 9.25 22H16.5C16.7822 22 17.0404 21.8417 17.1684 21.5902C17.2964 21.3388 17.2724 21.0368 17.1064 20.8086L10.5003 11.7324L12.91 7.55647L14.0213 8.39076C14.0072 8.50855 14 8.62843 14 8.75C14 10.4069 15.3431 11.75 17 11.75V10.25C16.1716 10.25 15.5 9.57843 15.5 8.75C15.5 7.92157 16.1716 7.25 17 7.25C17.8284 7.25 18.5 7.92157 18.5 8.75H20C20 7.09315 18.6569 5.75 17 5.75C16.7966 5.75 16.5979 5.77025 16.4058 5.80883L13.9585 2.77877L13.9549 2.78166C13.5423 2.30301 12.9315 2 12.25 2ZM11.5 4.25C11.5 3.83579 11.8358 3.5 12.25 3.5C12.6642 3.5 13 3.83579 13 4.25C13 4.66421 12.6642 5 12.25 5C11.8358 5 11.5 4.66421 11.5 4.25ZM5.91086 10.9685L5.91061 10.9683C5.46563 11.4378 5.36104 12.1612 5.70097 12.75C6.11519 13.4674 7.03257 13.7133 7.75001 13.299C8.46745 12.8848 8.71326 11.9674 8.29905 11.25C7.88484 10.5326 6.96745 10.2868 6.25001 10.701C6.12246 10.7746 6.00982 10.8642 5.91314 10.9657L5.91086 10.9685Z" fill="#191C1E"/>
</svg>
