<svg width="24" height="24" viewBox="0 0 24 24" fill="none" xmlns="http://www.w3.org/2000/svg">
<path fill-rule="evenodd" clip-rule="evenodd" d="M5.25 4C5.05109 4 4.86032 4.07902 4.71967 4.21967L2.21967 6.71967C2.07902 6.86032 2 7.05109 2 7.25V10C2 10.4142 2.33579 10.75 2.75 10.75H3.56801L2.65901 11.659C1.78033 12.5377 1.78033 13.9623 2.65901 14.841C3.3187 15.5007 4.28611 15.6651 5.09919 15.3342L6.27983 16.6624C6.10151 16.9848 6 17.3555 6 17.75C6 18.9926 7.00736 20 8.25 20C9.49264 20 10.5 18.9926 10.5 17.75C10.5 16.5074 9.49264 15.5 8.25 15.5C7.94955 15.5 7.66286 15.5589 7.40083 15.6658L6.27866 14.4033L9.84099 10.841C9.87071 10.8113 9.89942 10.7809 9.92713 10.75H11.818L10.909 11.659C10.0303 12.5377 10.0303 13.9623 10.909 14.841C11.5687 15.5007 12.5361 15.6651 13.3492 15.3342L14.5298 16.6624C14.3515 16.9848 14.25 17.3555 14.25 17.75C14.25 18.9926 15.2574 20 16.5 20C17.7426 20 18.75 18.9926 18.75 17.75C18.75 16.5074 17.7426 15.5 16.5 15.5C16.1996 15.5 15.9129 15.5589 15.6508 15.6658L14.5287 14.4033L18.091 10.841C18.1207 10.8113 18.1494 10.7809 18.1771 10.75H19.75C20.0848 10.75 20.3791 10.528 20.4711 10.206L21.9711 4.95604C22.0358 4.72975 21.9905 4.48624 21.8487 4.29835C21.707 4.11047 21.4853 4 21.25 4H5.25ZM8.78033 8.71967C8.48744 8.42678 8.01256 8.42678 7.71967 8.71967L3.71967 12.7197C3.42678 13.0125 3.42678 13.4874 3.71967 13.7803C4.01256 14.0732 4.48744 14.0732 4.78033 13.7803L8.78033 9.78033C9.07322 9.48744 9.07322 9.01256 8.78033 8.71967ZM15.9697 8.71967C16.2626 8.42678 16.7374 8.42678 17.0303 8.71967C17.3232 9.01256 17.3232 9.48744 17.0303 9.78033L13.0303 13.7803C12.7374 14.0732 12.2626 14.0732 11.9697 13.7803C11.6768 13.4874 11.6768 13.0125 11.9697 12.7197L15.9697 8.71967Z" fill="#191C1E"/>
</svg>
