<svg width="24" height="24" viewBox="0 0 24 24" fill="none" xmlns="http://www.w3.org/2000/svg">
<path fill-rule="evenodd" clip-rule="evenodd" d="M12 2C10.7574 2 9.75 3.00736 9.75 4.25C9.75 5.49264 10.7574 6.5 12 6.5C13.2426 6.5 14.25 5.49264 14.25 4.25C14.25 3.00736 13.2426 2 12 2Z" fill="#191C1E"/>
<path fill-rule="evenodd" clip-rule="evenodd" d="M7 8.75C7 8.33579 7.33579 8 7.75 8H16.25C16.6642 8 17 8.33579 17 8.75V15.5H15.5V9.59864C15.0455 10.7773 14.0133 11.6686 12.75 11.925V13.6145C13.7643 13.933 14.5 14.8806 14.5 16V22H13V16C13 15.4477 12.5523 15 12 15C11.4477 15 11 15.4477 11 16V22H9.5V16C9.5 14.8806 10.2357 13.933 11.25 13.6145V11.9249C9.98665 11.6685 8.95445 10.7771 8.5 9.5983V15.5H7V8.75Z" fill="#191C1E"/>
</svg>
