<svg width="24" height="24" viewBox="0 0 24 24" fill="none" xmlns="http://www.w3.org/2000/svg">
<path d="M17.5418 6.46795C17.0751 6.00976 16.5431 5.60192 15.9488 5.25885C12.3693 3.19222 7.8462 4.24047 5.51816 7.56258L8.10188 7.15336L8.33653 8.63489L4.1644 9.29569C3.75529 9.36049 3.37111 9.08137 3.30631 8.67225L2.64551 4.50012L4.12704 4.26547L4.4729 6.44912C7.29094 2.69644 12.5323 1.55424 16.6988 3.95981C17.4035 4.36666 18.0365 4.85156 18.5927 5.39761L17.5418 6.46795Z" fill="#191C1E"/>
<path d="M12.5304 7.21965C12.2375 6.92675 11.7626 6.92675 11.4697 7.21965L7.22706 11.4623C6.93416 11.7552 6.93416 12.2301 7.22706 12.5229L11.4697 16.7656C11.7626 17.0585 12.2375 17.0585 12.5304 16.7656L16.773 12.5229C17.0659 12.2301 17.0659 11.7552 16.773 11.4623L12.5304 7.21965Z" fill="#191C1E"/>
<path d="M20.7092 15.5635L21.37 19.7356L19.8885 19.9702L19.5356 17.7422C16.7231 21.5191 11.4647 22.674 7.28692 20.2619C6.53409 19.8272 5.86311 19.3035 5.28025 18.7114L6.34926 17.6592C6.83827 18.156 7.40215 18.5964 8.03692 18.9629C11.6089 21.0251 16.1204 19.9857 18.4528 16.6802L15.9136 17.0824L15.679 15.6008L19.8511 14.94C20.2602 14.8752 20.6444 15.1543 20.7092 15.5635Z" fill="#191C1E"/>
</svg>
