<svg width="24" height="24" viewBox="0 0 24 24" fill="none" xmlns="http://www.w3.org/2000/svg">
<path fill-rule="evenodd" clip-rule="evenodd" d="M16.75 2.25C16.9489 2.25 17.1397 2.32902 17.2803 2.46967L20.2803 5.46967C20.421 5.61033 20.5 5.80109 20.5 6C20.5 6.19892 20.421 6.38968 20.2803 6.53033L17.0303 9.78033C16.8897 9.92098 16.6989 10 16.5 10C16.3011 10 16.1103 9.92098 15.9697 9.78032L15 8.81065L13.9356 9.875L16.0303 11.9697C16.171 12.1103 16.25 12.3011 16.25 12.5V15.1893L18.2803 17.2197L17.2196 18.2803L15.1893 16.25H12.5C12.3011 16.25 12.1103 16.171 11.9696 16.0303L9.87499 13.9357L8.81065 15L9.78032 15.9697C10.0732 16.2626 10.0732 16.7374 9.78032 17.0303L6.53033 20.2803C6.38968 20.421 6.19891 20.5 6 20.5C5.80109 20.5 5.61032 20.421 5.46967 20.2803L2.46967 17.2803C2.17678 16.9874 2.17678 16.5125 2.46967 16.2197L5.71966 12.9697C6.01256 12.6768 6.48743 12.6768 6.78032 12.9697L7.74999 13.9393L8.81432 12.875L5.71964 9.78032C5.57899 9.63967 5.49997 9.44891 5.49997 9.24999C5.49997 9.05108 5.57899 8.86032 5.71964 8.71966L8.71964 5.71966C9.01253 5.42677 9.48741 5.42677 9.7803 5.71966L12.875 8.81434L13.9393 7.74998L12.9697 6.78031C12.6768 6.48742 12.6768 6.01255 12.9697 5.71966L16.2197 2.46967C16.3603 2.32902 16.5511 2.25 16.75 2.25ZM19.1599 19.1599C19.8433 18.4765 19.8433 17.3684 19.1599 16.685L20.2206 15.6244C21.4898 16.8936 21.4898 18.9513 20.2206 20.2206C18.9514 21.4898 16.8936 21.4898 15.6244 20.2206L16.685 19.1599C17.3685 19.8433 18.4765 19.8433 19.1599 19.1599Z" fill="#191C1E"/>
</svg>
