<svg width="24" height="24" viewBox="0 0 24 24" fill="none" xmlns="http://www.w3.org/2000/svg">
<path d="M20 2.75C20 2.33579 19.6642 2 19.25 2H10.5V3.5H18.5V18.25H20V2.75Z" fill="#191C1E"/>
<path d="M4 5.75C4 5.33579 4.33579 5 4.75 5H16.25C16.6642 5 17 5.33579 17 5.75V21.25C17 21.5167 16.8583 21.7634 16.628 21.8978C16.3976 22.0322 16.1132 22.0342 15.881 21.9029L10.5 18.8615L5.11904 21.9029C4.88684 22.0342 4.60241 22.0322 4.37203 21.8978C4.14166 21.7634 4 21.5167 4 21.25V5.75Z" fill="#191C1E"/>
</svg>
