<svg width="24" height="24" viewBox="0 0 24 24" fill="none" xmlns="http://www.w3.org/2000/svg">
<path d="M3.75 3C3.33579 3 3 3.33579 3 3.75V9.10135H4.5V4.5H9.10135V3H3.75Z" fill="#191C1E"/>
<path d="M21 3.75C21 3.33579 20.6642 3 20.25 3H14.8986V4.5H19.5V9.10135H21V3.75Z" fill="#191C1E"/>
<path d="M3.75 21C3.33579 21 3 20.6642 3 20.25V14.8986H4.5V19.5H9.10135V21H3.75Z" fill="#191C1E"/>
<path d="M20.25 21C20.6642 21 21 20.6642 21 20.25V14.8986H19.5V19.5H14.8986V21H20.25Z" fill="#191C1E"/>
<path d="M7 7.75C7 7.33579 7.33579 7 7.75 7H16.25C16.6642 7 17 7.33579 17 7.75V16.25C17 16.6642 16.6642 17 16.25 17H7.75C7.33579 17 7 16.6642 7 16.25V7.75Z" fill="#191C1E"/>
</svg>
