<svg width="24" height="24" viewBox="0 0 24 24" fill="none" xmlns="http://www.w3.org/2000/svg">
<path d="M16.1737 3.13117C16.3779 3.27098 16.5 3.50253 16.5 3.75V8.65664L11.25 9.35664V5.74055L8.5 4.79939V14.2955C8.5 14.6108 8.3027 14.8925 8.00631 15.0003L4.00631 16.4548C3.77638 16.5385 3.52012 16.5047 3.31973 16.3643C3.11933 16.2239 3 15.9947 3 15.75V5.20455C3 4.88917 3.1973 4.60748 3.49369 4.4997L7.49369 3.04516C7.65466 2.98663 7.8308 2.98495 7.99285 3.04041L11.9839 4.40632L15.4788 3.05076C15.7095 2.96127 15.9695 2.99135 16.1737 3.13117Z" fill="#191C1E"/>
<path fill-rule="evenodd" clip-rule="evenodd" d="M14.7647 10.25C12.1411 10.25 10 12.3554 10 14.9701C10 17.5849 12.1411 19.6903 14.7647 19.6903C15.8457 19.6903 16.8442 19.333 17.6444 18.7309L19.9726 21.0333L21.0274 19.9667L18.6863 17.6516C19.2173 16.8907 19.5294 15.9664 19.5294 14.9701C19.5294 12.3554 17.3883 10.25 14.7647 10.25ZM11.5 14.9701C11.5 13.1996 12.9537 11.75 14.7647 11.75C16.5757 11.75 18.0294 13.1996 18.0294 14.9701C18.0294 15.8278 17.6904 16.607 17.1337 17.1858C16.5388 17.8044 15.6988 18.1903 14.7647 18.1903C12.9537 18.1903 11.5 16.7407 11.5 14.9701Z" fill="#191C1E"/>
</svg>
