<svg width="24" height="24" viewBox="0 0 24 24" fill="none" xmlns="http://www.w3.org/2000/svg">
<path fill-rule="evenodd" clip-rule="evenodd" d="M10.5 2.75C6.08172 2.75 2.5 6.33172 2.5 10.75C2.5 15.1683 6.08172 18.75 10.5 18.75C12.4124 18.75 14.169 18.0781 15.5449 16.9591L19.7929 21.2071L21.2071 19.7929L16.9277 15.5135C17.9151 14.183 18.5 12.5341 18.5 10.75C18.5 6.33172 14.9183 2.75 10.5 2.75ZM4.5 10.75C4.5 7.43629 7.18629 4.75 10.5 4.75C13.8137 4.75 16.5 7.43629 16.5 10.75C16.5 12.3528 15.8729 13.807 14.8485 14.884C13.7542 16.0347 12.2115 16.75 10.5 16.75C7.18629 16.75 4.5 14.0637 4.5 10.75Z" fill="#191C1E"/>
</svg>
