<svg width="24" height="24" viewBox="0 0 24 24" fill="none" xmlns="http://www.w3.org/2000/svg">
<path fill-rule="evenodd" clip-rule="evenodd" d="M9.81062 2.64222C10.0729 2.45259 10.4272 2.45259 10.6895 2.64222L17.6895 7.70327C17.9536 7.89425 18.0642 8.23398 17.963 8.54384L16.6793 12.4753L20.5122 13.9055C20.8044 14.0146 20.9987 14.293 21 14.6049C21.0014 14.9167 20.8097 15.1969 20.5185 15.3085L16.7972 16.735L15.3062 20.5246C15.1924 20.8137 14.9123 21.0027 14.6016 21C14.291 20.9972 14.0142 20.8032 13.9056 20.5122L12.6883 17.25H5.92381C5.59929 17.25 5.31158 17.0413 5.21086 16.7328L2.53709 8.54384C2.43592 8.23398 2.54647 7.89425 2.81062 7.70327L9.81062 2.64222ZM15.2728 11.9505L11.5122 10.5473C11.2371 10.4447 10.9274 10.512 10.7197 10.7197C10.5121 10.9273 10.4447 11.2371 10.5474 11.5122L12.1286 15.75H6.4679L4.13281 8.5983L10.2501 4.17549L16.3673 8.5983L15.2728 11.9505Z" fill="#191C1E"/>
</svg>
