<svg width="24" height="24" viewBox="0 0 24 24" fill="none" xmlns="http://www.w3.org/2000/svg">
<path fill-rule="evenodd" clip-rule="evenodd" d="M9.81056 2.64222C10.0728 2.45259 10.4272 2.45259 10.6894 2.64222L13.3144 4.54011L12.4356 5.75568L10.25 4.17549L8.06442 5.75568L7.18556 4.54011L9.81056 2.64222ZM4.13275 8.5983L6.31442 7.02094L5.43556 5.80537L2.81056 7.70327C2.54641 7.89425 2.43586 8.23398 2.53703 8.54384L3.53969 11.6147L4.96561 11.1491L4.13275 8.5983ZM16.3672 8.5983L14.1856 7.02094L15.0644 5.80537L17.6894 7.70327C17.9536 7.89425 18.0641 8.23398 17.9629 8.54384L17.2945 10.5911L15.8686 10.1255L16.3672 8.5983ZM10.7197 10.7197C10.9273 10.512 11.2371 10.4447 11.5122 10.5473L20.5122 13.9055C20.8044 14.0146 20.9986 14.293 21 14.6049C21.0014 14.9167 20.8096 15.1969 20.5184 15.3085L16.7971 16.735L15.3061 20.5246C15.1924 20.8137 14.9122 21.0027 14.6016 21C14.2909 20.9972 14.0141 20.8032 13.9055 20.5122L10.5473 11.5122C10.4447 11.2371 10.512 10.9273 10.7197 10.7197ZM6.46784 15.75L5.63405 13.1964L4.20813 13.6619L5.21079 16.7328C5.31152 17.0413 5.59923 17.25 5.92375 17.25H9.74999V15.75H6.46784Z" fill="#191C1E"/>
</svg>
