<svg width="24" height="24" viewBox="0 0 24 24" fill="none" xmlns="http://www.w3.org/2000/svg">
<path d="M3 3.75C3 3.33579 3.33579 3 3.75 3H5.5V4.5H4.5V5.5H3V3.75Z" fill="#191C1E"/>
<path d="M10.7197 10.7197C10.9273 10.512 11.2371 10.4447 11.5122 10.5473L20.5122 13.9056C20.8044 14.0146 20.9986 14.293 21 14.6049C21.0014 14.9167 20.8097 15.1969 20.5185 15.3085L16.7971 16.7351L15.3062 20.5246C15.1924 20.8137 14.9122 21.0027 14.6016 21C14.2909 20.9972 14.0142 20.8033 13.9056 20.5122L10.5473 11.5122C10.4447 11.2371 10.512 10.9273 10.7197 10.7197Z" fill="#191C1E"/>
<path d="M3 15.75C3 16.1642 3.33579 16.5 3.75 16.5H5.5V15H4.5V14H3V15.75Z" fill="#191C1E"/>
<path d="M15.75 3C16.1642 3 16.5 3.33579 16.5 3.75V5.5L15 5.5V4.5L14 4.5V3H15.75Z" fill="#191C1E"/>
<path d="M11.5 4.5L8 4.5V3H11.5V4.5Z" fill="#191C1E"/>
<path d="M3 8V11.5H4.5V8H3Z" fill="#191C1E"/>
<path d="M11 15H8V16.5H11V15Z" fill="#191C1E"/>
<path d="M15 8V11H16.5V8H15Z" fill="#191C1E"/>
</svg>
