<svg width="24" height="24" viewBox="0 0 24 24" fill="none" xmlns="http://www.w3.org/2000/svg">
<path fill-rule="evenodd" clip-rule="evenodd" d="M8 12C8 9.79086 9.79086 8 12 8C14.2091 8 16 9.79086 16 12C16 14.2091 14.2091 16 12 16C9.79086 16 8 14.2091 8 12Z" fill="#191C1E"/>
<path fill-rule="evenodd" clip-rule="evenodd" d="M4.63595 7.75032C3.10914 10.3919 3.12148 13.6817 4.67278 16.3128L3.38067 17.0746C1.55433 13.9771 1.53992 10.1093 3.33728 6.99968L4.63595 7.75032ZM16.3233 4.67902C13.6989 3.12647 10.4163 3.10719 7.77553 4.62144L7.02938 3.32018C10.138 1.53766 13.9973 1.56018 17.0871 3.38801L16.3233 4.67902ZM7.78731 19.3853C10.4014 20.8786 13.6416 20.8715 16.2497 19.364L17.0003 20.6627C13.93 22.4374 10.1205 22.4457 7.04326 20.6878L7.78731 19.3853ZM19.3518 16.2709C20.8641 13.6718 20.8826 10.4398 19.4069 7.82528L20.7132 7.08799C22.4503 10.1657 22.4287 13.9654 20.6482 17.0253L19.3518 16.2709Z" fill="#191C1E"/>
<path fill-rule="evenodd" clip-rule="evenodd" d="M7.26614 9.26812C6.28463 10.9662 6.29258 13.082 7.28981 14.7733L5.99769 15.5351C4.72543 13.3774 4.71541 10.6837 5.96747 8.51748L7.26614 9.26812ZM14.7808 7.2931C13.0937 6.29508 10.9827 6.28266 9.28504 7.25609L8.53889 5.95484C10.7044 4.71313 13.3921 4.72879 15.5445 6.00209L14.7808 7.2931ZM9.29261 16.7491C10.9731 17.7091 13.0569 17.7045 14.7334 16.7354L15.4841 18.0341C13.3452 19.2703 10.6922 19.2761 8.54856 18.0515L9.29261 16.7491ZM16.7282 14.7463C17.7004 13.0756 17.7123 10.9971 16.7636 9.3163L18.0699 8.57901C19.28 10.723 19.265 13.3692 18.0247 15.5007L16.7282 14.7463Z" fill="#191C1E"/>
</svg>
