<svg width="24" height="24" viewBox="0 0 24 24" fill="none" xmlns="http://www.w3.org/2000/svg">
<path fill-rule="evenodd" clip-rule="evenodd" d="M4 2.75C4 2.33579 4.33579 2 4.75 2H19.25C19.6642 2 20 2.33579 20 2.75V7.75H4V2.75ZM15.5 5C15.5 4.58579 15.8358 4.25 16.25 4.25H16.2525C16.6667 4.25 17.0025 4.58579 17.0025 5C17.0025 5.41421 16.6667 5.75 16.2525 5.75H16.25C15.8358 5.75 15.5 5.41421 15.5 5ZM12.5 5C12.5 4.58579 12.8358 4.25 13.25 4.25H13.2525C13.6667 4.25 14.0025 4.58579 14.0025 5C14.0025 5.41421 13.6667 5.75 13.2525 5.75H13.25C12.8358 5.75 12.5 5.41421 12.5 5ZM9.5 5C9.5 4.58579 9.83579 4.25 10.25 4.25H10.2525C10.6667 4.25 11.0025 4.58579 11.0025 5C11.0025 5.41421 10.6667 5.75 10.2525 5.75H10.25C9.83579 5.75 9.5 5.41421 9.5 5Z" fill="#191C1E"/>
<path fill-rule="evenodd" clip-rule="evenodd" d="M4.75 22C4.33579 22 4 21.6642 4 21.25V16.5H20V21.25C20 21.6642 19.6642 22 19.25 22H4.75ZM10.25 18.5C9.83579 18.5 9.5 18.8358 9.5 19.25C9.5 19.6642 9.83579 20 10.25 20H10.2525C10.6667 20 11.0025 19.6642 11.0025 19.25C11.0025 18.8358 10.6667 18.5 10.2525 18.5H10.25ZM13.25 18.5C12.8358 18.5 12.5 18.8358 12.5 19.25C12.5 19.6642 12.8358 20 13.25 20H13.2525C13.6667 20 14.0025 19.6642 14.0025 19.25C14.0025 18.8358 13.6667 18.5 13.2525 18.5H13.25ZM16.25 18.5C15.8358 18.5 15.5 18.8358 15.5 19.25C15.5 19.6642 15.8358 20 16.25 20H16.2525C16.6667 20 17.0025 19.6642 17.0025 19.25C17.0025 18.8358 16.6667 18.5 16.2525 18.5H16.25Z" fill="#191C1E"/>
<path fill-rule="evenodd" clip-rule="evenodd" d="M4 9.25V15H20V9.25H4ZM15.5 12C15.5 11.5858 15.8358 11.25 16.25 11.25H16.2525C16.6667 11.25 17.0025 11.5858 17.0025 12C17.0025 12.4142 16.6667 12.75 16.2525 12.75H16.25C15.8358 12.75 15.5 12.4142 15.5 12ZM12.5 12C12.5 11.5858 12.8358 11.25 13.25 11.25H13.2525C13.6667 11.25 14.0025 11.5858 14.0025 12C14.0025 12.4142 13.6667 12.75 13.2525 12.75H13.25C12.8358 12.75 12.5 12.4142 12.5 12ZM9.5 12C9.5 11.5858 9.83579 11.25 10.25 11.25H10.2525C10.6667 11.25 11.0025 11.5858 11.0025 12C11.0025 12.4142 10.6667 12.75 10.2525 12.75H10.25C9.83579 12.75 9.5 12.4142 9.5 12Z" fill="#191C1E"/>
</svg>
