<svg width="24" height="24" viewBox="0 0 24 24" fill="none" xmlns="http://www.w3.org/2000/svg">
<path fill-rule="evenodd" clip-rule="evenodd" d="M9.81256 2.24015C10.5173 2.08283 11.2494 2 12 2C12.7506 2 13.4827 2.08282 14.1874 2.24011C14.5009 2.3101 14.7351 2.57205 14.7696 2.89148L15.0427 5.41766C15.4423 5.60263 15.822 5.82283 16.178 6.0742L18.5015 5.04796C18.7951 4.91829 19.1386 4.98979 19.3561 5.22583C19.8133 5.72208 20.221 6.26484 20.5713 6.84631C20.5738 6.85031 20.5761 6.85432 20.5784 6.85835L20.7507 7.15663L20.7542 7.1629L20.7575 7.1688C21.0793 7.75098 21.3449 8.36882 21.5467 9.01493C21.6424 9.32129 21.5326 9.65459 21.2735 9.84401L19.2208 11.3447C19.2402 11.5607 19.25 11.7793 19.25 12C19.25 12.2207 19.2402 12.4393 19.2208 12.6553L21.2735 14.156C21.5326 14.3454 21.6424 14.6787 21.5467 14.9851C21.3449 15.6312 21.0793 16.2491 20.7575 16.8313L20.7537 16.838L20.7506 16.8434L20.5785 17.1416C20.578 17.1424 20.5776 17.1431 20.5772 17.1439C20.5753 17.1471 20.5733 17.1504 20.5714 17.1536C20.2211 17.7351 19.8133 18.2779 19.3561 18.7742C19.1386 19.0102 18.7951 19.0817 18.5015 18.952L16.178 17.9258C15.822 18.1772 15.4423 18.3974 15.0427 18.5823L14.7696 21.1085C14.7351 21.4279 14.5009 21.6899 14.1874 21.7599C13.4827 21.9172 12.7506 22 12 22C11.2494 22 10.5173 21.9172 9.81256 21.7599C9.49899 21.6899 9.26483 21.4279 9.2303 21.1085L8.95719 18.5823C8.55767 18.3973 8.17797 18.1771 7.82206 17.9258L5.49855 18.952C5.20496 19.0817 4.86141 19.0102 4.64394 18.7741C4.18514 18.2761 3.77618 17.7313 3.42505 17.1476C3.42274 17.1437 3.42047 17.1399 3.41823 17.136L3.25264 16.8492C3.25114 16.8466 3.24966 16.844 3.24819 16.8414C3.24746 16.8401 3.24674 16.8388 3.24602 16.8375C2.92264 16.2534 2.65591 15.6334 2.45335 14.985C2.35765 14.6786 2.4675 14.3453 2.7266 14.1559L4.7793 12.6552C4.75993 12.4392 4.75005 12.2207 4.75005 12C4.75005 11.7793 4.75993 11.5608 4.7793 11.3448L2.7266 9.8441C2.4675 9.65467 2.35765 9.32138 2.45335 9.01502C2.65591 8.36657 2.92263 7.74659 3.246 7.16257C3.24817 7.15865 3.25038 7.15474 3.25262 7.15086L3.41824 6.864C3.4188 6.86303 3.41936 6.86206 3.41993 6.86109C3.42106 6.85916 3.42219 6.85723 3.42334 6.8553C3.42391 6.85434 3.42449 6.85338 3.42507 6.85242C3.7762 6.26866 4.18515 5.72385 4.64394 5.22588C4.86141 4.98984 5.20496 4.91833 5.49855 5.048L7.82206 6.07424C8.17797 5.82289 8.55767 5.60271 8.95719 5.41773L9.2303 2.89152C9.26483 2.57209 9.49899 2.31014 9.81256 2.24015ZM15 12C15 13.6569 13.6569 15 12 15C10.3431 15 9 13.6569 9 12C9 10.3431 10.3431 9 12 9C13.6569 9 15 10.3431 15 12Z" fill="#191C1E"/>
</svg>
