<svg width="24" height="24" viewBox="0 0 24 24" fill="none" xmlns="http://www.w3.org/2000/svg">
<path d="M11.75 16.424C11.75 14.6097 10.4617 13.0964 8.75 12.749V2.42395H7.25V12.749C5.53832 13.0964 4.25 14.6097 4.25 16.424C4.25 18.2382 5.53832 19.7515 7.25 20.0989L7.25 22.424H8.75V20.0989C10.4617 19.7515 11.75 18.2382 11.75 16.424Z" fill="#191C1E"/>
<path d="M20.25 8.42395C20.25 6.60973 18.9617 5.09642 17.25 4.74896V2.42395H15.75V4.74896C14.0383 5.09642 12.75 6.60973 12.75 8.42395C12.75 10.2382 14.0383 11.7515 15.75 12.0989L15.75 22.424H17.25L17.25 12.0989C18.9617 11.7515 20.25 10.2382 20.25 8.42395Z" fill="#191C1E"/>
</svg>
