<svg width="24" height="24" viewBox="0 0 24 24" fill="none" xmlns="http://www.w3.org/2000/svg">
<path d="M9.57235 4.96201L9.57153 4.96154L6.19653 10.8072L6.19735 10.8077L5.44735 12.1067C3.11567 10.7605 2.31678 7.77902 3.66297 5.44735C5.00917 3.11567 7.99067 2.31678 10.3223 3.66297L9.57235 4.96201Z" fill="#191C1E"/>
<path d="M7 15.25C6.74007 15.25 6.49867 15.1154 6.36201 14.8943C6.22536 14.6732 6.21293 14.3971 6.32918 14.1646L11.3292 4.16459C11.4562 3.9105 11.7159 3.75 12 3.75C12.2841 3.75 12.5438 3.9105 12.6708 4.16459L15.6708 10.1646L14.3292 10.8354L12 6.17705L8.21353 13.75H10.5V15.25H7Z" fill="#191C1E"/>
<path d="M12 20.25C12 20.6642 12.3358 21 12.75 21H20.25C20.6642 21 21 20.6642 21 20.25V12.75C21 12.3358 20.6642 12 20.25 12H12.75C12.3358 12 12 12.3358 12 12.75V20.25Z" fill="#191C1E"/>
</svg>
