<svg width="24" height="24" viewBox="0 0 24 24" fill="none" xmlns="http://www.w3.org/2000/svg">
<path d="M12.6017 8.75C12.6017 9.16421 12.9375 9.5 13.3517 9.5H20V21.25C20 21.6642 19.6642 22 19.25 22H9.75C10.1642 22 10.5 21.6642 10.5 21.25V16.5C10.5 16.0858 10.1642 15.75 9.75 15.75H4.75C4.33579 15.75 4 16.0858 4 16.5V14H10.5C10.7721 14 11.0228 13.8527 11.1552 13.615C11.2876 13.3773 11.2809 13.0866 11.1377 12.8552L7.8877 7.60523C7.75099 7.38439 7.50974 7.25 7.25 7.25C6.99026 7.25 6.74902 7.38439 6.6123 7.60523L4 11.8251V2.75C4 2.33579 4.33579 2 4.75 2H12.6017V8.75Z" fill="#191C1E"/>
<path d="M14.1017 2.44308L19.5644 8H14.1017V2.44308Z" fill="#191C1E"/>
<path d="M5.34636 12.5L7.25 9.4249L9.15364 12.5H5.34636Z" fill="#191C1E"/>
<path d="M5.5 20.5V17.25H9V20.5H5.5Z" fill="#191C1E"/>
</svg>
