<svg width="24" height="24" viewBox="0 0 24 24" fill="none" xmlns="http://www.w3.org/2000/svg">
<path d="M14 2.2L13.7 3.67C13.155 3.5575 12.5825 3.5 12 3.5H11.985C10.56 3.5 9.17248 3.855 7.92998 4.5325C8.07498 4.8825 8.14248 5.265 8.12248 5.6525C8.08748 6.3475 7.78498 6.985 7.26998 7.4525C6.78748 7.8875 6.17498 8.125 5.52748 8.125C5.48498 8.125 5.43998 8.125 5.39498 8.12C4.70248 8.085 4.06498 7.7825 3.59748 7.2675C3.36748 7.015 3.19248 6.7225 3.07748 6.3975C2.96248 6.075 2.91248 5.7375 2.92998 5.395C2.94498 5.05 3.02998 4.72 3.17498 4.41C3.32248 4.1 3.52748 3.8275 3.77998 3.595C4.03498 3.365 4.32748 3.19 4.65248 3.075C4.97498 2.96 5.31248 2.91 5.65498 2.9275C5.99748 2.945 6.32998 3.0275 6.63998 3.175C6.75248 3.2275 6.85998 3.29 6.96498 3.3575C8.48748 2.4675 10.21 2 11.985 2H12.0025C12.685 2 13.3575 2.0675 14 2.2Z" fill="#1A1D1E"/>
<path d="M22 12C22 12.6825 21.9325 13.355 21.8 14L20.33 13.7C20.4425 13.1525 20.5 12.58 20.5 11.9975C20.5025 10.5675 20.1475 9.175 19.465 7.93C19.155 8.0575 18.82 8.125 18.475 8.125C17.78 8.125 17.1275 7.8525 16.6375 7.3625C16.1475 6.8725 15.875 6.2175 15.875 5.525C15.875 4.8325 16.145 4.1775 16.6375 3.685C17.13 3.1925 17.78 2.925 18.475 2.925C19.17 2.925 19.8225 3.195 20.315 3.685C20.805 4.1775 21.075 4.83 21.075 5.525C21.075 6.0425 20.925 6.54 20.6425 6.9625C21.535 8.49 22.0025 10.22 22 12Z" fill="#1A1D1E"/>
<path d="M20.825 19.5875C20.9725 19.2775 21.055 18.945 21.0725 18.6025C21.09 18.26 21.04 17.9225 20.925 17.6C20.81 17.2775 20.635 16.985 20.4025 16.73C19.9375 16.215 19.3 15.9125 18.605 15.8775C17.9125 15.84 17.245 16.08 16.73 16.545C16.215 17.0125 15.9125 17.65 15.8775 18.345C15.86 18.735 15.925 19.115 16.07 19.465C14.83 20.1425 13.4425 20.5 12.0175 20.5H12.0025C11.42 20.4975 10.8475 20.44 10.3 20.33L10 21.8C10.645 21.93 11.3175 22 12 22H12.0175C13.79 22 15.515 21.53 17.0375 20.64C17.14 20.71 17.25 20.77 17.3625 20.8225C17.6725 20.97 18.0025 21.0525 18.345 21.07C18.69 21.0875 19.0275 21.0375 19.35 20.9225C19.6725 20.8075 19.965 20.6325 20.22 20.4025C20.475 20.1725 20.6775 19.8975 20.825 19.5875Z" fill="#1A1D1E"/>
<path d="M8.1225 18.6025C8.105 18.945 8.0225 19.2775 7.875 19.5875C7.7275 19.8975 7.525 20.1725 7.27 20.4025C6.7875 20.8375 6.175 21.075 5.53 21.075C5.485 21.075 5.44 21.0725 5.395 21.07C4.7025 21.035 4.065 20.7325 3.5975 20.2175C3.1325 19.7025 2.895 19.0375 2.93 18.345C2.9525 17.87 3.1025 17.42 3.36 17.035C2.465 15.5075 2 13.7775 2 11.9975C2.0025 11.315 2.07 10.6425 2.2 10L3.67 10.3C3.56 10.845 3.5025 11.4175 3.5 12C3.4975 13.43 3.855 14.8225 4.535 16.0675C4.885 15.925 5.2675 15.8575 5.655 15.8775C5.9975 15.895 6.3275 15.9775 6.64 16.125C6.95 16.27 7.2225 16.475 7.4525 16.73C7.685 16.985 7.86 17.2775 7.975 17.6C8.09 17.9225 8.14 18.26 8.1225 18.6025Z" fill="#1A1D1E"/>
<path d="M10.2625 16.74L11.9875 17.755V17.7575L14.6125 13.295C14.755 13.05 14.7875 12.755 14.7025 12.485C14.6175 12.215 14.42 11.995 14.16 11.8775L11.6775 10.76L13.7375 7.2575L12.0125 6.2425L9.38752 10.705C9.24502 10.95 9.21252 11.245 9.29752 11.515C9.38252 11.785 9.58002 12.005 9.84002 12.1225L12.3225 13.24L10.2625 16.74Z" fill="#1A1D1E"/>
</svg>
