<svg width="24" height="25" viewBox="0 0 24 25" fill="none" xmlns="http://www.w3.org/2000/svg">
<path d="M17.5 3.58337C15.567 3.58337 14 5.15039 14 7.08337C14 7.13693 14.0012 7.1902 14.0036 7.24316L8.91479 9.59144C8.28672 8.99264 7.43629 8.625 6.5 8.625C4.56702 8.625 3 10.192 3 12.125C3 14.058 4.56702 15.625 6.5 15.625C7.5939 15.625 8.5706 15.1232 9.21242 14.3372L14.0507 16.5698C14.0174 16.7638 14 16.9632 14 17.1666C14 19.0997 15.567 20.6666 17.5 20.6666C19.433 20.6666 21 19.0997 21 17.1666C21 15.2336 19.433 13.6666 17.5 13.6666C16.4902 13.6666 15.5803 14.0942 14.9415 14.7782L9.98127 12.4893C9.99365 12.3695 10 12.248 10 12.125C10 11.8532 9.96902 11.5887 9.91041 11.3347L14.6673 9.13954C15.3036 10.0145 16.3353 10.5834 17.5 10.5834C19.433 10.5834 21 9.01636 21 7.08337C21 5.15039 19.433 3.58337 17.5 3.58337Z" fill="#191C1E"/>
</svg>
