<svg width="24" height="24" viewBox="0 0 24 24" fill="none" xmlns="http://www.w3.org/2000/svg">
<path fill-rule="evenodd" clip-rule="evenodd" d="M21 5.99751C21 11.34 18.8475 15.3125 16.7075 17.94C15.6375 19.255 14.5675 20.235 13.7625 20.89C13.36 21.2175 13.0225 21.4625 12.7825 21.63C12.6625 21.7125 12.5675 21.7775 12.5 21.82C12.171 22.0272 11.8219 22.0227 11.5 21.82C11.4325 21.7775 11.3375 21.7125 11.2175 21.63C10.98 21.4625 10.6425 21.2175 10.2375 20.89C9.435 20.235 8.365 19.255 7.295 17.94C5.1525 15.3125 3 11.34 3 5.99751C3 5.69001 3.19 5.41501 3.475 5.30001L11.725 2.05001C11.9025 1.98251 12.1 1.98251 12.275 2.05001L20.525 5.30001C20.8125 5.41501 21 5.69001 21 5.99751ZM10.3709 10.125C10.6848 9.18086 11.5754 8.5 12.625 8.5C13.2805 8.5 13.8728 8.76456 14.3033 9.19452L15.3632 8.13317C14.663 7.4338 13.6939 7 12.625 7C10.7415 7 9.17184 8.34382 8.82253 10.125H8V11.625H8.82253C9.17184 13.4062 10.7415 14.75 12.625 14.75C13.6939 14.75 14.663 14.3162 15.3632 13.6168L14.3033 12.5555C13.8728 12.9854 13.2805 13.25 12.625 13.25C11.5754 13.25 10.6848 12.5691 10.3709 11.625H12.75V10.125H10.3709Z" fill="#191C1E"/>
</svg>
