<svg width="24" height="24" viewBox="0 0 24 24" fill="none" xmlns="http://www.w3.org/2000/svg">
<path fill-rule="evenodd" clip-rule="evenodd" d="M21 5.99751C21 11.34 18.8475 15.3125 16.7075 17.94C15.6375 19.255 14.5675 20.235 13.7625 20.89C13.36 21.2175 13.0225 21.4625 12.7825 21.63C12.6625 21.7125 12.5675 21.7775 12.5 21.82C12.171 22.0272 11.8219 22.0227 11.5 21.82C11.4325 21.7775 11.3375 21.7125 11.2175 21.63C10.98 21.4625 10.6425 21.2175 10.2375 20.89C9.435 20.235 8.365 19.255 7.295 17.94C5.1525 15.3125 3 11.34 3 5.99751C3 5.69001 3.19 5.41501 3.475 5.30001L11.725 2.05001C11.9025 1.98251 12.1 1.98251 12.275 2.05001L20.525 5.30001C20.8125 5.41501 21 5.69001 21 5.99751ZM11.8875 14.0303L16.8875 9.03033L15.8268 7.96967L11.3571 12.4393L9.03033 10.1125L7.96967 11.1732L10.8268 14.0303C11.1197 14.3232 11.5946 14.3232 11.8875 14.0303Z" fill="#191C1E"/>
</svg>
