<svg width="24" height="24" viewBox="0 0 24 24" fill="none" xmlns="http://www.w3.org/2000/svg">
<path d="M10.75 12C10.75 11.3096 11.3096 10.75 12 10.75C12.6904 10.75 13.25 11.3096 13.25 12C13.25 12.6904 12.6904 13.25 12 13.25C11.3096 13.25 10.75 12.6904 10.75 12Z" fill="#191C1E"/>
<path fill-rule="evenodd" clip-rule="evenodd" d="M5.7269 11.7616C6.6053 9.14039 9.08089 7.25 12 7.25C14.919 7.25 17.3946 9.14039 18.273 11.7616C18.3249 11.9163 18.3249 12.0836 18.273 12.2382C17.3946 14.8595 14.919 16.7499 12 16.7499C9.08089 16.7499 6.6053 14.8595 5.7269 12.2382C5.67508 12.0836 5.67508 11.9163 5.7269 11.7616ZM12 9.25C10.4812 9.25 9.25 10.4812 9.25 12C9.25 13.5188 10.4812 14.75 12 14.75C13.5188 14.75 14.75 13.5188 14.75 12C14.75 10.4812 13.5188 9.25 12 9.25Z" fill="#191C1E"/>
<path fill-rule="evenodd" clip-rule="evenodd" d="M21 3.75001C21 3.50892 20.8841 3.28254 20.6885 3.14157C20.493 3.00061 20.2415 2.96226 20.0128 3.03849L14.8895 4.74627L9.32192 3.03317C9.17251 2.9872 9.01248 2.98906 8.86418 3.03849L3.51283 4.82228C3.20657 4.92436 3 5.21097 3 5.53379V20.25C3 20.4936 3.11826 20.7219 3.31715 20.8625C3.51605 21.0031 3.77081 21.0383 4.00039 20.957L9.11102 19.147L14.6656 20.9629C14.823 21.0143 14.993 21.0123 15.149 20.957L20.5004 19.0617C20.7998 18.9556 21 18.6724 21 18.3547V3.75001ZM9.85135 4.76547L14.1486 6.08772V6.72742H15.6486V6.07436L19.5 4.79058V17.8247L15.6486 19.1887V17.25H14.1486V19.2157L9.85135 17.8109V17.1804H8.35135V17.8247L4.5 19.1887V6.07436L8.35135 4.79057V6.75001H9.85135V4.76547Z" fill="#191C1E"/>
</svg>
