<svg width="24" height="25" viewBox="0 0 24 25" fill="none" xmlns="http://www.w3.org/2000/svg">
<path d="M16.5306 4.21243L17.8945 5.625H17.4069C16.0808 5.625 14.809 6.15178 13.8713 7.08947L5.21447 15.7463C4.65186 16.3089 3.88879 16.625 3.09315 16.625H3V18.625H3.09315C4.41923 18.625 5.691 18.0982 6.62868 17.1605L15.2855 8.50368C15.8481 7.94107 16.6112 7.625 17.4069 7.625H17.8944L16.5306 9.03753L17.9694 10.4267L20.9694 7.31957C21.3435 6.93208 21.3435 6.31788 20.9694 5.93039L17.9694 2.82324L16.5306 4.21243Z" fill="#191C1E"/>
<path d="M16.7104 20.2111L18.2419 18.625H17.9069C16.5808 18.625 15.309 18.0982 14.3713 17.1605L11.4179 14.2071L12.8321 12.7929L15.7855 15.7463C16.3481 16.3089 17.1112 16.625 17.9069 16.625H18.242L16.7104 15.0387L17.7896 13.9968L20.7896 17.104C21.0701 17.3946 21.0701 17.8552 20.7896 18.1459L17.7896 21.253L16.7104 20.2111Z" fill="#191C1E"/>
<path d="M8.16789 10.9571L5.71447 8.50368C5.15186 7.94107 4.3888 7.625 3.59315 7.625H3V5.625H3.59315C4.91923 5.625 6.191 6.15178 7.12868 7.08947L9.58211 9.54289L8.16789 10.9571Z" fill="#191C1E"/>
</svg>
