<svg width="24" height="24" viewBox="0 0 24 24" fill="none" xmlns="http://www.w3.org/2000/svg">
<path d="M3.5 12C3.5 9.65261 4.45057 7.52863 5.98959 5.98962L4.92893 4.92896C3.12011 6.73778 2 9.23881 2 12C2 14.7612 3.12011 17.2623 4.92893 19.0711L5.98959 18.0104C4.45057 16.4714 3.5 14.3474 3.5 12Z" fill="#191C1E"/>
<path d="M18.0104 5.98962C19.5494 7.52863 20.5 9.65261 20.5 12C20.5 14.3474 19.5494 16.4714 18.0104 18.0104L19.0711 19.0711C20.8799 17.2623 22 14.7612 22 12C22 9.23881 20.8799 6.73778 19.0711 4.92896L18.0104 5.98962Z" fill="#191C1E"/>
<path d="M6.5 12C6.5 10.481 7.11479 9.10706 8.11091 8.11094L7.05025 7.05028C5.78432 8.31621 5 10.0672 5 12C5 13.9328 5.78432 15.6838 7.05025 16.9498L8.11091 15.8891C7.11479 14.893 6.5 13.519 6.5 12Z" fill="#191C1E"/>
<path d="M15.8891 8.11094C16.8852 9.10706 17.5 10.481 17.5 12C17.5 13.519 16.8852 14.893 15.8891 15.8891L16.9497 16.9498C18.2157 15.6838 19 13.9328 19 12C19 10.0672 18.2157 8.31621 16.9497 7.05028L15.8891 8.11094Z" fill="#191C1E"/>
<path d="M12 8.00002C9.79086 8.00002 8 9.79088 8 12C8 14.2092 9.79086 16 12 16C14.2091 16 16 14.2092 16 12C16 9.79088 14.2091 8.00002 12 8.00002Z" fill="#191C1E"/>
</svg>
