<svg width="24" height="24" viewBox="0 0 24 24" fill="none" xmlns="http://www.w3.org/2000/svg">
<path fill-rule="evenodd" clip-rule="evenodd" d="M20.537 3.05711C20.8173 3.1732 21 3.44668 21 3.75002V20.25C21 20.6642 20.6642 21 20.25 21H3.75002C3.44668 21 3.1732 20.8173 3.05711 20.537C2.94103 20.2568 3.00519 19.9342 3.21969 19.7197L8.34469 14.5947L9.40535 15.6554L5.56068 19.5H19.5V5.56068L15.6554 9.40535L14.5947 8.34469L19.7197 3.21969C19.9342 3.00519 20.2568 2.94103 20.537 3.05711Z" fill="#191C1E"/>
<path fill-rule="evenodd" clip-rule="evenodd" d="M11.25 15V7.00002H12.75V15H11.25Z" fill="#191C1E"/>
<path fill-rule="evenodd" clip-rule="evenodd" d="M11.25 16.75C11.25 16.3358 11.5854 16 11.9991 16H12.001C12.4147 16 12.75 16.3358 12.75 16.75C12.75 17.1642 12.4147 17.5 12.001 17.5H11.9991C11.5854 17.5 11.25 17.1642 11.25 16.75Z" fill="#191C1E"/>
</svg>
