<svg width="24" height="24" viewBox="0 0 24 24" fill="none" xmlns="http://www.w3.org/2000/svg">
<path fill-rule="evenodd" clip-rule="evenodd" d="M18.6732 4.83876C15.5639 1.72943 10.5348 1.70223 7.44045 4.79655L3.21967 9.01733C2.92678 9.31022 2.92678 9.7851 3.21967 10.078L5.98604 12.8444C6.12669 12.985 6.31746 13.064 6.51637 13.064C6.71528 13.064 6.90605 12.985 7.0467 12.8444L11.2675 8.62358C12.2525 7.63852 13.865 7.63889 14.869 8.64292C15.8731 9.64696 15.8734 11.2594 14.8884 12.2445L10.6676 16.4652C10.3747 16.7581 10.3747 17.233 10.6676 17.5259L13.434 20.2923C13.5746 20.4329 13.7654 20.5119 13.9643 20.5119C14.1632 20.5119 14.354 20.4329 14.4946 20.2923L18.7154 16.0715C21.8097 12.9772 21.7825 7.94809 18.6732 4.83876ZM14.3467 14.9074L16.0524 16.6131L13.9643 18.7013L12.2586 16.9956L14.3467 14.9074ZM6.89882 7.4595L8.60453 9.16521L6.51637 11.2534L4.81066 9.54766L6.89882 7.4595Z" fill="#191C1E"/>
<path d="M8.04777 17.1813C8.63262 16.7243 9 16.0554 9 15.1071V14.25H7.5V15.1071C7.5 15.6053 7.33613 15.8338 7.12411 15.9995C6.84893 16.2145 6.45453 16.3528 5.89143 16.5373L5.83858 16.5546C5.34561 16.7159 4.70573 16.9252 4.20223 17.3187C3.61738 17.7757 3.25 18.4446 3.25 19.3929V20.25H4.75V19.3929C4.75 18.8947 4.91387 18.6662 5.12589 18.5005C5.40107 18.2855 5.79547 18.1472 6.35857 17.9627L6.41142 17.9454C6.90439 17.7841 7.54427 17.5748 8.04777 17.1813Z" fill="#191C1E"/>
</svg>
