<svg width="24" height="24" viewBox="0 0 24 24" fill="none" xmlns="http://www.w3.org/2000/svg">
<path fill-rule="evenodd" clip-rule="evenodd" d="M21.7197 20.2803L3.21973 1.78033L2.21973 2.78033L5.8382 6.39881L3.21967 9.01734C2.92678 9.31023 2.92678 9.7851 3.21967 10.078L5.98604 12.8444C6.12669 12.985 6.31746 13.064 6.51637 13.064C6.71528 13.064 6.90605 12.985 7.0467 12.8444L9.66523 10.2258L13.2861 13.8467L10.6676 16.4653C10.3747 16.7581 10.3747 17.233 10.6676 17.5259L13.434 20.2923C13.5746 20.4329 13.7654 20.512 13.9643 20.512C14.1632 20.512 14.354 20.4329 14.4946 20.2923L17.1131 17.6738L20.7197 21.2803L21.7197 20.2803ZM14.3467 14.9074L16.0524 16.6131L13.9643 18.7013L12.2586 16.9956L14.3467 14.9074ZM6.89882 7.45951L8.60453 9.16522L6.51637 11.2534L4.81066 9.54767L6.89882 7.45951Z" fill="#191C1E"/>
<path d="M11.7858 8.22512L7.91749 4.35678C11.0317 1.71262 15.719 1.88454 18.6732 4.83877C21.6274 7.79299 21.7993 12.4802 19.1552 15.5945L15.2868 11.7261C15.8474 10.7569 15.7117 9.48563 14.869 8.64293C14.0263 7.80024 12.755 7.66457 11.7858 8.22512Z" fill="#191C1E"/>
</svg>
