<svg width="24" height="24" viewBox="0 0 24 24" fill="none" xmlns="http://www.w3.org/2000/svg">
<path d="M16 4C17.7949 4 19.25 5.45507 19.25 7.25V8.32191C17.7766 8.60534 16.5 9.70578 16.5 11.25V13H7.5V11.25C7.5 9.70578 6.22342 8.60534 4.75 8.32191V7.25C4.75 5.45507 6.20507 4 8 4H16Z" fill="#191C1E"/>
<path d="M20 9.75C21.2388 9.75 22 10.5522 22 11.25V16.75C22 17.7165 21.2165 18.5 20.25 18.5H19V19.9583H17.5V18.5H6.5V19.9583H5V18.5H3.75C2.7835 18.5 2 17.7165 2 16.75V11.25C2 10.5522 2.76119 9.75 4 9.75C5.23881 9.75 6 10.5522 6 11.25V13.75C6 14.1642 6.33579 14.5 6.75 14.5H17.25C17.6642 14.5 18 14.1642 18 13.75V11.25C18 10.5522 18.7612 9.75 20 9.75Z" fill="#191C1E"/>
</svg>
