<svg width="24" height="24" viewBox="0 0 24 24" fill="none" xmlns="http://www.w3.org/2000/svg">
<path d="M8.90533 7.15533L7.28033 8.78033L6.21967 7.71967L7.84467 6.09467L8.90533 7.15533Z" fill="#191C1E"/>
<path d="M16.1553 6.09467L17.7803 7.71967L16.7197 8.78033L15.0947 7.15533L16.1553 6.09467Z" fill="#191C1E"/>
<path d="M4.51457 12.6029C4.58468 12.2523 4.8925 12 5.25001 12H11.25V15.75H3.88515L4.51457 12.6029Z" fill="#191C1E"/>
<path d="M19.4854 12.6029C19.4153 12.2523 19.1075 12 18.75 12H12.75V15.75H20.1149L19.4854 12.6029Z" fill="#191C1E"/>
<path d="M20.25 21C20.4747 21 20.6876 20.8993 20.83 20.7255C20.9725 20.5517 21.0295 20.3232 20.9854 20.1029L20.4149 17.25H12.75V21H20.25Z" fill="#191C1E"/>
<path d="M3.17 20.7255C3.31245 20.8993 3.52531 21 3.75001 21H11.25V17.25H3.58515L3.01457 20.1029C2.9705 20.3232 3.02755 20.5517 3.17 20.7255Z" fill="#191C1E"/>
<path d="M7.84781 3.90998C7.78365 3.61614 7.75 3.31157 7.75 3H16.25C16.25 3.31157 16.2163 3.61614 16.1522 3.90998C15.7352 5.81974 14.0355 7.25 12 7.25C9.96447 7.25 8.26475 5.81974 7.84781 3.90998Z" fill="#191C1E"/>
<path d="M4.5 3H6.75V4.5H4.5V3Z" fill="#191C1E"/>
<path d="M19.5 4.5H17.25V3H19.5V4.5Z" fill="#191C1E"/>
<path d="M11.25 10.5V8.25H12.75V10.5H11.25Z" fill="#191C1E"/>
</svg>
