<svg width="24" height="24" viewBox="0 0 24 24" fill="none" xmlns="http://www.w3.org/2000/svg">
<path d="M6.07793 2C5.71455 2 5.40174 2.2605 5.33072 2.62226L4.79488 5.35156H11.2381V2H6.07793Z" fill="#191C1E"/>
<path d="M4.0147 9.32539L4.49118 6.89844H11.2381V10.25H4.76191C4.53374 10.25 4.31758 10.1462 4.17286 9.96711C4.02814 9.78804 3.9701 9.55255 4.0147 9.32539Z" fill="#191C1E"/>
<path d="M19.5088 6.89844L19.9853 9.32539C20.0299 9.55255 19.9719 9.78804 19.8271 9.96711C19.6824 10.1462 19.4663 10.25 19.2381 10.25H12.7619V6.89844H19.5088Z" fill="#191C1E"/>
<path d="M18.6693 2.62226C18.5983 2.2605 18.2854 2 17.9221 2H12.7619V5.35156H19.2051L18.6693 2.62226Z" fill="#191C1E"/>
<path d="M12.3388 14.0808C12.1258 13.9729 11.8741 13.9729 11.6611 14.0808L3.66113 18.132L4.33879 19.4702L5.49997 18.8821V21.25C5.49997 21.6642 5.83575 22 6.24997 22H17.75C18.1642 22 18.5 21.6642 18.5 21.25V18.8822L19.6611 19.4702L20.3388 18.132L12.3388 14.0808Z" fill="#191C1E"/>
<path d="M7.125 12.5462L6.0259 11.4653L4.97412 12.5348L6.59911 14.1329C6.89096 14.4199 7.35904 14.4199 7.65089 14.1329L9.27588 12.5348L8.22409 11.4653L7.125 12.5462Z" fill="#191C1E"/>
<path d="M16.0259 11.4653L17.125 12.5462L18.2241 11.4653L19.2759 12.5348L17.6509 14.1329C17.359 14.4199 16.891 14.4199 16.5991 14.1329L14.9741 12.5348L16.0259 11.4653Z" fill="#191C1E"/>
</svg>
