<svg width="24" height="24" viewBox="0 0 24 24" fill="none" xmlns="http://www.w3.org/2000/svg">
<path d="M8.10733 8.87505L8.52779 4H4.43182C4.0668 4 3.75479 4.2628 3.69274 4.62251L2.9592 8.87505H8.10733Z" fill="#191C1E"/>
<path d="M13.9666 4L14.387 8.87505H9.6129L10.0334 4H13.9666Z" fill="#191C1E"/>
<path d="M15.4722 4L15.8926 8.87505H21.0408L20.3073 4.62251C20.2452 4.2628 19.9332 4 19.5682 4H15.4722Z" fill="#191C1E"/>
<path d="M2.70046 10.375L2.01092 14.3725C1.97332 14.5905 2.03387 14.814 2.17637 14.9832C2.31887 15.1523 2.5288 15.25 2.75001 15.25H7.55751L7.97796 10.375H2.70046Z" fill="#191C1E"/>
<path d="M14.5164 10.375L14.9369 15.25H12.75V18.5H15.75V20H8.25V18.5H11.25V15.25H9.06308L9.48353 10.375H14.5164Z" fill="#191C1E"/>
<path d="M16.022 10.375L16.4424 15.25H21.25C21.4712 15.25 21.6811 15.1523 21.8236 14.9832C21.9661 14.814 22.0267 14.5905 21.9891 14.3725L21.2996 10.375H16.022Z" fill="#191C1E"/>
</svg>
