<svg width="24" height="25" viewBox="0 0 24 25" fill="none" xmlns="http://www.w3.org/2000/svg">
<path d="M11.3206 16.7214C10.92 16.3413 10.9035 15.7083 11.2836 15.3077C11.6638 14.9071 12.2967 14.8905 12.6974 15.2707C13.098 15.6508 13.1145 16.2838 12.7344 16.6844C12.3542 17.085 11.7213 17.1016 11.3206 16.7214Z" fill="#191C1E"/>
<path fill-rule="evenodd" clip-rule="evenodd" d="M12 2.25C6.47715 2.25 2 6.72715 2 12.25C2 16.3708 4.49234 19.9077 8.0488 21.4389L8.19079 21.5H15.8092L15.9512 21.4389C19.5077 19.9077 22 16.3708 22 12.25C22 6.72715 17.5228 2.25 12 2.25ZM4.97974 10.3595L9.76231 14.898C9.29521 15.853 9.47612 17.0389 10.2881 17.8095C11.2896 18.7599 12.872 18.7185 13.8224 17.7169C14.7729 16.7154 14.7314 15.133 13.7299 14.1826C12.9179 13.4121 11.7241 13.2935 10.7948 13.8099L6.01227 9.27142L4.97974 10.3595ZM12 5.25C11.5858 5.25 11.25 5.58579 11.25 6C11.25 6.41421 11.5858 6.75 12 6.75H12.0025C12.4167 6.75 12.7525 6.41421 12.7525 6C12.7525 5.58579 12.4167 5.25 12.0025 5.25H12ZM7.88551 6.58681C7.5504 6.83028 7.47612 7.29931 7.71958 7.63441C7.96305 7.96952 8.43208 8.0438 8.76719 7.80034L8.76921 7.79887C9.10431 7.5554 9.1786 7.08637 8.93513 6.75126C8.69166 6.41616 8.22264 6.34187 7.88753 6.58534L7.88551 6.58681ZM18.6574 10.0869C18.5294 9.69295 18.1062 9.47736 17.7123 9.60536C17.3184 9.73336 17.1028 10.1565 17.2308 10.5504L17.2315 10.5528C17.3595 10.9467 17.7827 11.1623 18.1766 11.0343C18.5705 10.9063 18.7861 10.4832 18.6581 10.0893L18.6574 10.0869ZM16.1145 6.5869C15.7794 6.34343 15.3104 6.41771 15.0669 6.75282C14.8234 7.08793 14.8977 7.55695 15.2328 7.80042L15.2349 7.80189C15.57 8.04536 16.039 7.97107 16.2825 7.63597C16.5259 7.30086 16.4516 6.83183 16.1165 6.58837L16.1145 6.5869Z" fill="#191C1E"/>
</svg>
