<svg width="24" height="25" viewBox="0 0 24 25" fill="none" xmlns="http://www.w3.org/2000/svg">
<path d="M11.3026 15.2707C11.7032 14.8905 12.3361 14.9071 12.7163 15.3077C13.0965 15.7083 13.0799 16.3413 12.6793 16.7214C12.2787 17.1016 11.6457 17.085 11.2655 16.6844C10.8854 16.2838 10.9019 15.6509 11.3026 15.2707Z" fill="#191C1E"/>
<path fill-rule="evenodd" clip-rule="evenodd" d="M12 2.25C6.47715 2.25 2 6.72715 2 12.25C2 16.3708 4.49234 19.9077 8.0488 21.4389L8.19079 21.5H15.8092L15.9512 21.4389C19.5077 19.9077 22 16.3708 22 12.25C22 6.72715 17.5228 2.25 12 2.25ZM17.9837 9.27515L13.2051 13.8099C12.2758 13.2935 11.082 13.4121 10.27 14.1826C9.26849 15.1331 9.22706 16.7154 10.1775 17.717C11.1279 18.7185 12.7103 18.7599 13.7118 17.8095C14.5238 17.039 14.7047 15.853 14.2376 14.898L19.0163 10.3632L17.9837 9.27515ZM12 5.25C11.5858 5.25 11.25 5.58579 11.25 6C11.25 6.41421 11.5858 6.75 12 6.75H12.0025C12.4167 6.75 12.7525 6.41421 12.7525 6C12.7525 5.58579 12.4167 5.25 12.0025 5.25H12ZM7.88548 6.58681C7.55038 6.83028 7.47609 7.29931 7.71956 7.63441C7.96303 7.96952 8.43205 8.0438 8.76716 7.80034L8.76918 7.79887C9.10429 7.5554 9.17857 7.08637 8.93511 6.75126C8.69164 6.41616 8.22261 6.34187 7.8875 6.58534L7.88548 6.58681ZM5.34251 10.0868C5.21451 10.4808 5.4301 10.9039 5.82404 11.0319C6.21798 11.1599 6.6411 10.9443 6.7691 10.5503L6.76987 10.548C6.89787 10.154 6.68228 9.73091 6.28834 9.60291C5.8944 9.47491 5.47128 9.6905 5.34329 10.0844L5.34251 10.0868ZM16.1145 6.5869C15.7794 6.34343 15.3104 6.41771 15.0669 6.75282C14.8234 7.08793 14.8977 7.55695 15.2328 7.80042L15.2348 7.80189C15.5699 8.04536 16.039 7.97107 16.2824 7.63597C16.5259 7.30086 16.4516 6.83183 16.1165 6.58837L16.1145 6.5869Z" fill="#191C1E"/>
</svg>
