<svg width="24" height="25" viewBox="0 0 24 25" fill="none" xmlns="http://www.w3.org/2000/svg">
<path d="M11.0727 15.6131C11.2858 15.1036 11.8716 14.8633 12.3811 15.0765C12.8906 15.2896 13.1309 15.8754 12.9178 16.3849C12.7046 16.8944 12.1188 17.1347 11.6093 16.9215C11.0998 16.7084 10.8596 16.1226 11.0727 15.6131Z" fill="#191C1E"/>
<path fill-rule="evenodd" clip-rule="evenodd" d="M12 2.25C6.47715 2.25 2 6.72715 2 12.25C2 16.3708 4.49234 19.9077 8.0488 21.4389L8.19079 21.5H15.8092L15.9512 21.4389C19.5077 19.9077 22 16.3708 22 12.25C22 6.72715 17.5228 2.25 12 2.25ZM15.2743 6.21252L12.2238 13.5088C11.1652 13.4113 10.1208 14.0016 9.68887 15.0342C9.15605 16.308 9.75669 17.7725 11.0305 18.3053C12.3042 18.8382 13.7687 18.2375 14.3016 16.9638C14.7336 15.931 14.4205 14.7729 13.6076 14.0876L16.6582 6.79112L15.2743 6.21252ZM12 5.25C11.5858 5.25 11.25 5.58579 11.25 6C11.25 6.41421 11.5858 6.75 12 6.75H12.0025C12.4167 6.75 12.7525 6.41421 12.7525 6C12.7525 5.58579 12.4167 5.25 12.0025 5.25H12ZM7.88548 6.58681C7.55038 6.83028 7.47609 7.29931 7.71956 7.63441C7.96303 7.96952 8.43205 8.0438 8.76716 7.80034L8.76918 7.79887C9.10429 7.5554 9.17857 7.08637 8.93511 6.75126C8.69164 6.41616 8.22261 6.34187 7.8875 6.58534L7.88548 6.58681ZM5.34251 10.0868C5.21451 10.4808 5.4301 10.9039 5.82404 11.0319C6.21798 11.1599 6.6411 10.9443 6.7691 10.5503L6.76987 10.548C6.89787 10.154 6.68228 9.73091 6.28834 9.60291C5.8944 9.47491 5.47128 9.6905 5.34329 10.0844L5.34251 10.0868ZM18.6573 10.0869C18.5293 9.69295 18.1062 9.47736 17.7123 9.60536C17.3183 9.73336 17.1027 10.1565 17.2307 10.5504L17.2315 10.5528C17.3595 10.9467 17.7826 11.1623 18.1766 11.0343C18.5705 10.9063 18.7861 10.4832 18.6581 10.0893L18.6573 10.0869Z" fill="#191C1E"/>
</svg>
