<svg width="24" height="25" viewBox="0 0 24 25" fill="none" xmlns="http://www.w3.org/2000/svg">
<path d="M11 16C11 15.4477 11.4477 15 12 15C12.5523 15 13 15.4477 13 16C13 16.5523 12.5523 17 12 17C11.4477 17 11 16.5523 11 16Z" fill="#191C1E"/>
<path fill-rule="evenodd" clip-rule="evenodd" d="M12 2.25C6.47715 2.25 2 6.72715 2 12.25C2 16.3708 4.49234 19.9077 8.0488 21.4389L8.19079 21.5H15.8092L15.9512 21.4389C19.5077 19.9077 22 16.3708 22 12.25C22 6.72715 17.5228 2.25 12 2.25ZM14.5 16C14.5 14.8806 13.7643 13.933 12.75 13.6144V5.25H11.25V13.6144C10.2357 13.933 9.5 14.8806 9.5 16C9.5 17.3807 10.6193 18.5 12 18.5C13.3807 18.5 14.5 17.3807 14.5 16ZM7.88548 6.58684C7.55038 6.83031 7.47609 7.29933 7.71956 7.63444C7.96303 7.96954 8.43205 8.04383 8.76716 7.80036L8.76918 7.79889C9.10429 7.55542 9.17857 7.0864 8.93511 6.75129C8.69164 6.41619 8.22261 6.3419 7.8875 6.58537L7.88548 6.58684ZM5.34251 10.0868C5.21451 10.4808 5.4301 10.9039 5.82404 11.0319C6.21798 11.1599 6.6411 10.9443 6.7691 10.5504L6.76987 10.548C6.89787 10.1541 6.68228 9.73094 6.28834 9.60294C5.8944 9.47494 5.47128 9.69053 5.34329 10.0845L5.34251 10.0868ZM18.6573 10.0869C18.5293 9.69298 18.1062 9.47739 17.7123 9.60539C17.3183 9.73339 17.1027 10.1565 17.2307 10.5504L17.2315 10.5528C17.3595 10.9468 17.7826 11.1623 18.1766 11.0343C18.5705 10.9064 18.7861 10.4832 18.6581 10.0893L18.6573 10.0869ZM16.1145 6.58692C15.7794 6.34345 15.3104 6.41774 15.0669 6.75285C14.8234 7.08795 14.8977 7.55698 15.2328 7.80045L15.2348 7.80192C15.5699 8.04539 16.039 7.9711 16.2824 7.63599C16.5259 7.30089 16.4516 6.83186 16.1165 6.58839L16.1145 6.58692Z" fill="#191C1E"/>
</svg>
