<svg width="24" height="25" viewBox="0 0 24 25" fill="none" xmlns="http://www.w3.org/2000/svg">
<path d="M11.0823 16.3849C10.8692 15.8754 11.1094 15.2896 11.6189 15.0765C12.1284 14.8633 12.7143 15.1036 12.9274 15.6131C13.1405 16.1226 12.9003 16.7084 12.3908 16.9215C11.8812 17.1347 11.2954 16.8944 11.0823 16.3849Z" fill="#191C1E"/>
<path fill-rule="evenodd" clip-rule="evenodd" d="M12 2.25C6.47715 2.25 2 6.72715 2 12.25C2 16.3708 4.49234 19.9077 8.0488 21.4389L8.19079 21.5H15.8092L15.9512 21.4389C19.5077 19.9077 22 16.3708 22 12.25C22 6.72715 17.5228 2.25 12 2.25ZM7.349 6.79116L10.3928 14.0873C9.5797 14.7725 9.26643 15.9309 9.6985 16.9638C10.2313 18.2375 11.6959 18.8382 12.9696 18.3054C14.2434 17.7725 14.844 16.308 14.3112 15.0342C13.8793 14.0017 12.8352 13.4115 11.7768 13.5088L8.73336 6.21362L7.349 6.79116ZM12 5.25C11.5858 5.25 11.25 5.58579 11.25 6C11.25 6.41421 11.5858 6.75 12 6.75H12.0025C12.4167 6.75 12.7525 6.41421 12.7525 6C12.7525 5.58579 12.4167 5.25 12.0025 5.25H12ZM5.34251 10.0868C5.21451 10.4808 5.4301 10.9039 5.82404 11.0319C6.21798 11.1599 6.6411 10.9443 6.7691 10.5503L6.76987 10.548C6.89787 10.154 6.68228 9.73091 6.28834 9.60291C5.8944 9.47491 5.47128 9.6905 5.34329 10.0844L5.34251 10.0868ZM18.6573 10.0869C18.5293 9.69295 18.1062 9.47736 17.7123 9.60536C17.3183 9.73336 17.1027 10.1565 17.2307 10.5504L17.2315 10.5528C17.3595 10.9467 17.7826 11.1623 18.1766 11.0343C18.5705 10.9063 18.7861 10.4832 18.6581 10.0893L18.6573 10.0869ZM16.1145 6.5869C15.7794 6.34343 15.3104 6.41771 15.0669 6.75282C14.8234 7.08793 14.8977 7.55695 15.2328 7.80042L15.2348 7.80189C15.5699 8.04536 16.039 7.97107 16.2824 7.63597C16.5259 7.30086 16.4516 6.83183 16.1165 6.58837L16.1145 6.5869Z" fill="#191C1E"/>
</svg>
