<svg width="24" height="24" viewBox="0 0 24 24" fill="none" xmlns="http://www.w3.org/2000/svg">
<path fill-rule="evenodd" clip-rule="evenodd" d="M18.9571 3.54291L21.7071 6.29291C22.0976 6.68343 22.0976 7.3166 21.7071 7.70712L18.9571 10.4571L17.5429 9.04291L18.5858 8.00001H13.9454L10.3454 12L13.9454 16H18.5858L17.5429 14.9571L18.9571 13.5429L21.7071 16.2929C22.0976 16.6834 22.0976 17.3166 21.7071 17.7071L18.9571 20.4571L17.5429 19.0429L18.5858 18H13.5C13.2165 18 12.9463 17.8797 12.7567 17.669L8.55464 13H2V11H8.55464L12.7567 6.33105C12.9463 6.12034 13.2165 6.00001 13.5 6.00001H18.5858L17.5429 4.95712L18.9571 3.54291Z" fill="#191C1E"/>
</svg>
