<svg width="24" height="24" viewBox="0 0 24 24" fill="none" xmlns="http://www.w3.org/2000/svg">
<path d="M18.0506 8.6871L22.0506 6.9371L21.4494 5.56287L17.4494 7.31287L18.0506 8.6871Z" fill="#191C1E"/>
<path fill-rule="evenodd" clip-rule="evenodd" d="M16.166 7.12595C15.9574 6.98685 15.693 6.96123 15.4615 7.05768L12.6 8.24998H5.75C5.33579 8.24998 5 8.58577 5 8.99998V9.74998H4.25C3.00736 9.74998 2 10.7573 2 12C2 13.2426 3.00736 14.25 4.25 14.25H5V15C5 15.4142 5.33579 15.75 5.75 15.75H8V20H9.5V15.75H12.6L15.4615 16.9423C15.693 17.0387 15.9574 17.0131 16.166 16.874C16.3747 16.7349 16.5 16.5007 16.5 16.25V7.74998C16.5 7.49922 16.3747 7.26505 16.166 7.12595Z" fill="#191C1E"/>
<path d="M22.0506 17.0629L18.0506 15.3129L17.4494 16.6871L21.4494 18.4371L22.0506 17.0629Z" fill="#191C1E"/>
<path d="M18 11.25H22V12.75H18V11.25Z" fill="#191C1E"/>
</svg>
