<svg width="24" height="24" viewBox="0 0 24 24" fill="none" xmlns="http://www.w3.org/2000/svg">
<path d="M12.7361 3.01824C12.6357 2.70922 12.3478 2.5 12.0229 2.5C11.6979 2.5 11.41 2.70922 11.3096 3.01824L9.28893 9.23708H2.75005C2.42513 9.23708 2.13716 9.4463 2.03676 9.75532C1.93635 10.0643 2.04635 10.4029 2.30921 10.5938L7.59928 14.4373L5.57865 20.6562C5.47825 20.9652 5.58824 21.3037 5.85111 21.4947C6.11397 21.6857 6.46992 21.6857 6.73279 21.4947L12.0229 17.6512L17.3129 21.4947C17.5758 21.6857 17.9317 21.6857 18.1946 21.4947C18.4575 21.3037 18.5675 20.9652 18.4671 20.6562L16.4464 14.4373L21.7365 10.5938C21.9994 10.4029 22.1094 10.0643 22.0089 9.75532C21.9085 9.4463 21.6206 9.23708 21.2957 9.23708H14.7568L12.7361 3.01824Z" fill="#191C1E"/>
</svg>
