<svg width="24" height="24" viewBox="0 0 24 24" fill="none" xmlns="http://www.w3.org/2000/svg">
<path fill-rule="evenodd" clip-rule="evenodd" d="M10.1573 2.70683C9.03541 4.16755 9.36545 6.14698 11.0394 7.27684L13.6907 9.06633L13.8825 9.1958C13.8908 9.20094 13.899 9.20626 13.9072 9.21176L16.1816 10.7476C16.6977 11.096 17.1442 11.3974 17.461 11.6756C17.7857 11.9607 18.1186 12.3421 18.1621 12.8811C18.1625 12.8869 18.1629 12.8928 18.1633 12.8987C18.1706 13.0267 18.1644 13.1551 18.1449 13.2818L18.144 13.2881C18.0576 13.8194 17.6983 14.1751 17.3526 14.4377C17.0136 14.6952 16.5423 14.9679 15.9952 15.2844L14.9322 15.8992L14.1812 14.6008L15.2037 14.0093C15.804 13.662 16.1911 13.4363 16.4453 13.2432C16.601 13.1249 16.6511 13.0591 16.6645 13.0373C16.6654 13.0288 16.6659 13.0203 16.6661 13.0118C16.652 12.9868 16.6057 12.9207 16.4713 12.8027C16.2348 12.5951 15.8691 12.3465 15.2995 11.9619L13.6632 10.8575C13.1222 11.6246 12.6487 12.4378 12.2485 13.2879L12.2475 13.2901C11.7386 14.3623 11.6226 14.6597 11.6482 14.9906C11.6585 15.1262 11.7078 15.2983 11.8728 15.5975C12.0431 15.9062 12.2979 16.2843 12.6755 16.8427C12.8726 17.1339 13.0687 17.4267 13.2639 17.7181C14.1358 19.0198 14.9879 20.2919 15.8194 21.2619L14.6806 22.2381C13.785 21.1934 12.8693 19.8255 11.9963 18.5215C11.8063 18.2377 11.6184 17.9569 11.4331 17.6832L11.4149 17.6562C11.0606 17.1325 10.7666 16.6977 10.5594 16.3219C10.4373 16.1006 10.3339 15.8803 10.261 15.6515L8.20686 15.0913C7.62079 17.5713 7.33337 20.0932 7.33337 21.75H5.83337C5.83337 19.8555 6.17522 17.008 6.8586 14.2888C7.4477 11.9447 8.3215 9.56603 9.53953 7.99586C7.77102 6.34969 7.45025 3.76886 8.96769 1.79315L10.1573 2.70683ZM16.6716 13.0235C16.6716 13.0235 16.6707 13.0219 16.6698 13.0188C16.6713 13.022 16.6716 13.0235 16.6716 13.0235ZM16.6688 13.0291C16.6688 13.0291 16.6684 13.0304 16.6669 13.0332L16.6673 13.0321L16.668 13.0306C16.6685 13.0296 16.6688 13.0291 16.6688 13.0291Z" fill="#191C1E"/>
<path fill-rule="evenodd" clip-rule="evenodd" d="M13.029 3.27895C13.4744 2.83355 14.0784 2.58333 14.7083 2.58333C15.3382 2.58333 15.9423 2.83355 16.3877 3.27895C16.8331 3.72435 17.0833 4.32844 17.0833 4.95833C17.0833 5.58821 16.8331 6.19231 16.3877 6.6377C15.9423 7.0831 15.3382 7.33333 14.7083 7.33333C14.0784 7.33333 13.4744 7.0831 13.029 6.6377C12.5836 6.19231 12.3333 5.58821 12.3333 4.95833C12.3333 4.32844 12.5836 3.72435 13.029 3.27895Z" fill="#191C1E"/>
</svg>
