<svg width="24" height="24" viewBox="0 0 24 24" fill="none" xmlns="http://www.w3.org/2000/svg">
<path d="M3.75 3C3.33579 3 3 3.33579 3 3.75V6.5H21V3.75C21 3.33579 20.6642 3 20.25 3H3.75Z" fill="#191C1E"/>
<path d="M3.75 21C3.33579 21 3 20.6642 3 20.25V16.75H8.5L8.5 21H3.75Z" fill="#191C1E"/>
<path d="M21 20.25C21 20.6642 20.6642 21 20.25 21H15.5V16.75H21V20.25Z" fill="#191C1E"/>
<path d="M15.5 12.25L15.5 15.25H21V12.25H15.5Z" fill="#191C1E"/>
<path d="M14 15.25L14 12.25H10L10 15.25H14Z" fill="#191C1E"/>
<path d="M3 10.75V8H8.5V10.75H3Z" fill="#191C1E"/>
<path d="M3 12.25V15.25H8.5V12.25H3Z" fill="#191C1E"/>
<path d="M10 21H14V16.75H10V21Z" fill="#191C1E"/>
<path d="M21 8V10.75H15.5V8H21Z" fill="#191C1E"/>
<path d="M10 10.75V8H14V10.75H10Z" fill="#191C1E"/>
</svg>
