<svg width="24" height="24" viewBox="0 0 24 24" fill="none" xmlns="http://www.w3.org/2000/svg">
<path fill-rule="evenodd" clip-rule="evenodd" d="M20.9433 4.63583C20.9682 4.52473 20.9623 4.40895 20.9262 4.30099C20.89 4.19302 20.8251 4.09697 20.7384 4.02321C20.6517 3.94944 20.5465 3.90076 20.4341 3.88243C20.3217 3.86409 20.2065 3.87679 20.1008 3.91916L3.43417 10.5858C3.32404 10.6299 3.22873 10.7044 3.15937 10.8006C3.09 10.8969 3.04946 11.0108 3.04247 11.1293C3.03548 11.2477 3.06233 11.3656 3.11988 11.4693C3.17744 11.5731 3.26333 11.6583 3.3675 11.715L7.68417 14.07L8.4675 18.77C8.48706 18.8862 8.53908 18.9945 8.61756 19.0825C8.69604 19.1704 8.79778 19.2343 8.91104 19.2669C9.0243 19.2995 9.14447 19.2994 9.25767 19.2666C9.37088 19.2338 9.47251 19.1697 9.55084 19.0817L11.6758 16.6908L9.90917 14.7367C9.80008 14.6162 9.7422 14.458 9.7478 14.2956C9.7534 14.1332 9.82204 13.9793 9.93917 13.8667L13.4808 10.46L14.2258 9.69833C14.2833 9.63967 14.3517 9.59291 14.4273 9.5607C14.5028 9.52849 14.5839 9.51148 14.666 9.51063C14.7481 9.50978 14.8296 9.52511 14.9058 9.55574C14.9819 9.58637 15.0513 9.63171 15.11 9.68916C15.1687 9.74662 15.2154 9.81506 15.2476 9.89059C15.2798 9.96611 15.2969 10.0472 15.2977 10.1293C15.2986 10.2114 15.2832 10.2929 15.2526 10.3691C15.222 10.4453 15.1766 10.5147 15.1192 10.5733L14.3675 11.3408L14.3542 11.3542L11.2425 14.3475L13.8633 17.2475L16.5583 19.9417C16.6375 20.0208 16.7365 20.0771 16.8449 20.1049C16.9533 20.1327 17.0671 20.1309 17.1746 20.0996C17.282 20.0684 17.3791 20.0089 17.4557 19.9273C17.5323 19.8457 17.5856 19.745 17.61 19.6358L20.9433 4.63583Z" fill="#191C1E"/>
</svg>
