<svg width="24" height="24" viewBox="0 0 24 24" fill="none" xmlns="http://www.w3.org/2000/svg">
<path d="M9.75 17C9.75 16.0203 10.3761 15.1869 11.25 14.878V8.5H12.75V14.878C13.6239 15.1869 14.25 16.0203 14.25 17C14.25 18.2426 13.2426 19.25 12 19.25C10.7574 19.25 9.75 18.2426 9.75 17Z" fill="#191C1E"/>
<path fill-rule="evenodd" clip-rule="evenodd" d="M8.5 5.5C8.5 3.567 10.067 2 12 2C13.933 2 15.5 3.567 15.5 5.5V13.4293C16.4248 14.336 17 15.6011 17 17C17 19.7614 14.7614 22 12 22C9.23858 22 7 19.7614 7 17C7 15.6011 7.57523 14.336 8.5 13.4293V5.5ZM12 3.5C10.8954 3.5 10 4.39543 10 5.5V13.7595C10 13.9796 9.90331 14.1886 9.73556 14.3311C8.97844 14.9743 8.5 15.9309 8.5 17C8.5 18.933 10.067 20.5 12 20.5C13.933 20.5 15.5 18.933 15.5 17C15.5 15.9309 15.0216 14.9743 14.2644 14.3311C14.0967 14.1886 14 13.9796 14 13.7595V5.5C14 4.39543 13.1046 3.5 12 3.5Z" fill="#191C1E"/>
<path d="M17 5.5L20 5.5V7H17V5.5Z" fill="#191C1E"/>
<path d="M20 13V11.5H17V13H20Z" fill="#191C1E"/>
<path d="M18.5 8.5H17V10H18.5V8.5Z" fill="#191C1E"/>
</svg>
