<svg width="24" height="24" viewBox="0 0 24 24" fill="none" xmlns="http://www.w3.org/2000/svg">
<path d="M5 16C5 15.4477 5.44772 15 6 15H6.0025C6.55478 15 7.0025 15.4477 7.0025 16C7.0025 16.5523 6.55478 17 6.0025 17H6C5.44772 17 5 16.5523 5 16Z" fill="#191C1E"/>
<path fill-rule="evenodd" clip-rule="evenodd" d="M6 20C3.79086 20 2 18.2091 2 16V8C2 5.79086 3.79086 4 6 4C7.95279 4 9.57875 5.39935 9.9298 7.25H21.25C21.6642 7.25 22 7.58579 22 8V19.25C22 19.6642 21.6642 20 21.25 20H6ZM8.42748 16.6002C8.15866 17.691 7.1738 18.5 6 18.5C4.61929 18.5 3.5 17.3807 3.5 16C3.5 14.6193 4.61929 13.5 6 13.5C7.38071 13.5 8.5 14.6193 8.5 16C8.5 16.1706 8.47827 16.3786 8.42748 16.6002ZM6 12C6.94595 12 7.8152 12.3284 8.5 12.8773V8C8.5 6.61929 7.38071 5.5 6 5.5C4.61929 5.5 3.5 6.61929 3.5 8V12.8773C4.1848 12.3284 5.05405 12 6 12Z" fill="#191C1E"/>
</svg>
