<svg width="24" height="24" viewBox="0 0 24 24" fill="none" xmlns="http://www.w3.org/2000/svg">
<path d="M12.375 4C12.0989 4 11.875 4.22386 11.875 4.5V15C11.875 15.3461 11.7724 15.6845 11.5801 15.9722C11.3878 16.26 11.1145 16.4843 10.7947 16.6168C10.4749 16.7492 10.1231 16.7839 9.78359 16.7164C9.44413 16.6489 9.13231 16.4822 8.88756 16.2374C8.64282 15.9927 8.47615 15.6809 8.40863 15.3414C8.3411 15.0019 8.37576 14.6501 8.50821 14.3303C8.64066 14.0105 8.86497 13.7372 9.15275 13.5449C9.44054 13.3526 9.77888 13.25 10.125 13.25C10.4011 13.25 10.625 13.0261 10.625 12.75V10.5C10.625 10.2239 10.4011 10 10.125 10C8.79892 10 7.52715 10.5268 6.58947 11.4645C5.65178 12.4021 5.125 13.6739 5.125 15C5.125 16.3261 5.65178 17.5979 6.58947 18.5355C7.52715 19.4732 8.79892 20 10.125 20C11.4511 20 12.7229 19.4732 13.6605 18.5355C14.5982 17.5979 15.125 16.3261 15.125 15V10.1303C16.108 10.6986 17.2287 11.0015 18.3757 11C18.6515 10.9996 18.875 10.7759 18.875 10.5V8.25C18.875 8.11739 18.8223 7.99021 18.7286 7.89645C18.6348 7.80268 18.5076 7.75 18.375 7.75C17.513 7.75 16.6864 7.40759 16.0769 6.7981C15.4674 6.1886 15.125 5.36195 15.125 4.5C15.125 4.22386 14.9011 4 14.625 4H12.375Z" fill="#191C1E"/>
</svg>
