<svg width="24" height="24" viewBox="0 0 24 24" fill="none" xmlns="http://www.w3.org/2000/svg">
<path d="M16 2C14.7574 2 13.75 3.00736 13.75 4.25C13.75 5.49264 14.7574 6.5 16 6.5C17.2426 6.5 18.25 5.49264 18.25 4.25C18.25 3.00736 17.2426 2 16 2Z" fill="#191C1E"/>
<path d="M9.18631 8.37955C9.66689 6.95734 11.0009 6 12.5021 6H13.2488C14.2966 6 15.0216 7.04695 14.6529 8.02775L13.3731 11.4328L11.9557 7.49597C11.8696 7.25682 11.6745 7.08828 11.4465 7.02618L14.5378 15.6212L13.1263 16.1288L12.3777 14.0474C12.2441 14.2714 12.0008 14.413 11.7336 14.413H9.82249L11.7786 16.6969C11.853 16.7837 11.9065 16.8864 11.9351 16.997L13.1155 21.5623L11.6632 21.9377L10.5264 17.5407L7.62299 14.1509C7.45096 13.9501 7.39742 13.6735 7.48208 13.4229L9.18631 8.37955Z" fill="#191C1E"/>
<path d="M8.5908 17.3341L6.349 21.2526L7.65098 21.9974L9.89278 18.079L8.5908 17.3341Z" fill="#191C1E"/>
</svg>
