<svg width="24" height="25" viewBox="0 0 24 25" fill="none" xmlns="http://www.w3.org/2000/svg">
<path fill-rule="evenodd" clip-rule="evenodd" d="M12 2.25C6.47715 2.25 2 6.72715 2 12.25C2 17.7728 6.47715 22.25 12 22.25C17.5228 22.25 22 17.7728 22 12.25C22 6.72715 17.5228 2.25 12 2.25ZM12 6.75C11.0609 6.75 10.1769 6.98534 9.40349 7.40026L10.899 9.45866C11.2402 9.324 11.6118 9.24998 12 9.24998C12.3882 9.24998 12.7598 9.324 13.101 9.45866L14.5965 7.40024C13.8231 6.98533 12.939 6.75 12 6.75ZM6.5 12.25C6.5 10.6911 7.14857 9.28365 8.1906 8.28281L9.68587 10.3409C9.25794 10.8591 9 11.5245 9 12.25C9 12.3118 9.00188 12.3733 9.00559 12.4343L6.58539 13.2207C6.52928 12.9056 6.5 12.5812 6.5 12.25ZM11.25 17.6993C9.39564 17.4464 7.83537 16.2693 7.0486 14.6474L9.46901 13.8609C9.87182 14.4926 10.5046 14.9637 11.25 15.1555L11.25 17.6993ZM16.9514 14.6474C16.1646 16.2693 14.6043 17.4465 12.75 17.6993L12.75 15.1555C13.4954 14.9637 14.1282 14.4926 14.531 13.8609L16.9514 14.6474ZM17.5 12.25C17.5 12.5812 17.4707 12.9056 17.4146 13.2207L14.9944 12.4343C14.9981 12.3733 15 12.3118 15 12.25C15 11.5244 14.742 10.8591 14.3141 10.3408L15.8094 8.28279C16.8514 9.28363 17.5 10.6911 17.5 12.25ZM13.5 12.25C13.5 13.0784 12.8284 13.75 12 13.75C11.1716 13.75 10.5 13.0784 10.5 12.25C10.5 11.4216 11.1716 10.75 12 10.75C12.8284 10.75 13.5 11.4216 13.5 12.25Z" fill="#191C1E"/>
</svg>
