<svg width="24" height="24" viewBox="0 0 24 24" fill="none" xmlns="http://www.w3.org/2000/svg">
<path fill-rule="evenodd" clip-rule="evenodd" d="M11.25 20.5V19H12.75V20.5H16.25V22H7.75V20.5H11.25Z" fill="#191C1E"/>
<path d="M11.9999 2.25C9.37659 2.25 7.24994 4.37665 7.24994 7C7.24994 7.25671 7.27037 7.50908 7.3098 7.75545C6.31798 8.86127 5.71362 10.3243 5.71362 11.9274C5.71362 15.1378 8.13427 17.7829 11.25 18.1371V13.3106L9.09473 11.1553L10.1554 10.0947L12.0001 11.9393L13.8447 10.0947L14.9054 11.1553L12.75 13.3107V18.1284C15.8306 17.7416 18.2136 15.1128 18.2136 11.9274C18.2136 10.3575 17.634 8.92186 16.6785 7.82453C16.7255 7.55633 16.7499 7.28077 16.7499 7C16.7499 4.37665 14.6233 2.25 11.9999 2.25Z" fill="#191C1E"/>
</svg>
