<svg width="24" height="24" viewBox="0 0 24 24" fill="none" xmlns="http://www.w3.org/2000/svg">
<path d="M9.59177 7.43979C11.2043 6.8534 12.7957 6.8534 14.4083 7.43979C14.9273 7.62853 15.5011 7.36078 15.6898 6.84174C15.8786 6.32271 15.6108 5.74895 15.0918 5.56021C13.0377 4.81326 10.9624 4.81326 8.90829 5.56021C8.38925 5.74895 8.1215 6.32271 8.31023 6.84174C8.49897 7.36078 9.07274 7.62853 9.59177 7.43979Z" fill="#191C1E"/>
<path fill-rule="evenodd" clip-rule="evenodd" d="M2.75042 8C2.48037 8 2.23117 8.14518 2.09799 8.3801C1.9648 8.61502 1.96819 8.90341 2.10686 9.13514L2.77068 10.2444C2.27464 11.0183 2.00548 11.9201 2.00008 12.8466C1.99364 13.9524 2.36331 15.0274 3.04841 15.8954C3.7335 16.7634 4.69332 17.3726 5.77031 17.6232C6.84731 17.8738 7.9775 17.7507 8.97536 17.2743C9.62964 16.962 10.2015 16.5098 10.6538 15.955L11.4 16.95C11.5416 17.1389 11.7639 17.25 12 17.25C12.2361 17.25 12.4584 17.1389 12.6 16.95L13.3462 15.955C13.7985 16.5098 14.3704 16.962 15.0246 17.2743C16.0225 17.7507 17.1527 17.8738 18.2297 17.6232C19.3067 17.3726 20.2665 16.7634 20.9516 15.8954C21.6367 15.0274 22.0064 13.9524 21.9999 12.8466C21.9945 11.9201 21.7254 11.0183 21.2293 10.2444L21.8931 9.13514C22.0318 8.90341 22.0352 8.61502 21.902 8.3801C21.7688 8.14518 21.5196 8 21.2496 8H17.1245C16.0187 8.00011 14.9459 8.37614 14.082 9.06637C13.2181 9.75659 12.6145 10.72 12.3704 11.7985C12.164 12.71 12.2247 13.658 12.5397 14.5304L12 15.25L11.4603 14.5304C11.7753 13.658 11.836 12.71 11.6296 11.7985C11.3855 10.72 10.7819 9.75659 9.91801 9.06637C9.05413 8.37614 7.98118 8.00011 6.87542 8H2.75042ZM6.875 11.5C6.51033 11.5 6.16059 11.6449 5.90273 11.9027C5.64487 12.1606 5.5 12.5103 5.5 12.875C5.5 13.2397 5.64487 13.5894 5.90273 13.8473C6.16059 14.1051 6.51033 14.25 6.875 14.25C7.23967 14.25 7.58941 14.1051 7.84727 13.8473C8.10513 13.5894 8.25 13.2397 8.25 12.875C8.25 12.5103 8.10513 12.1606 7.84727 11.9027C7.58941 11.6449 7.23967 11.5 6.875 11.5ZM17.125 11.5C16.7603 11.5 16.4106 11.6449 16.1527 11.9027C15.8949 12.1606 15.75 12.5103 15.75 12.875C15.75 13.2397 15.8949 13.5894 16.1527 13.8473C16.4106 14.1051 16.7603 14.25 17.125 14.25C17.4897 14.25 17.8394 14.1051 18.0973 13.8473C18.3551 13.5894 18.5 13.2397 18.5 12.875C18.5 12.5103 18.3551 12.1606 18.0973 11.9027C17.8394 11.6449 17.4897 11.5 17.125 11.5Z" fill="#191C1E"/>
</svg>
