<svg width="24" height="25" viewBox="0 0 24 25" fill="none" xmlns="http://www.w3.org/2000/svg">
<path fill-rule="evenodd" clip-rule="evenodd" d="M2.75 4.25C2.33579 4.25 2 4.58579 2 5V17.5C2 17.9142 2.33579 18.25 2.75 18.25H4.35352C4.67998 19.4043 5.74122 20.25 7 20.25C8.25878 20.25 9.32002 19.4043 9.64648 18.25H14.3535C14.68 19.4043 15.7412 20.25 17 20.25C18.2588 20.25 19.32 19.4043 19.6465 18.25H21.25C21.6642 18.25 22 17.9142 22 17.5V11.875C22 11.6761 21.921 11.4853 21.7803 11.3447L16.9053 6.46967C16.7647 6.32902 16.5739 6.25 16.375 6.25H12.75V5C12.75 4.58579 12.4142 4.25 12 4.25H2.75ZM17.5643 9.25L16.0643 7.75H12.75V9.25H17.5643ZM15.75 17.5C15.75 16.8096 16.3096 16.25 17 16.25C17.6904 16.25 18.25 16.8096 18.25 17.5C18.25 18.1904 17.6904 18.75 17 18.75C16.3096 18.75 15.75 18.1904 15.75 17.5ZM7 16.25C6.30964 16.25 5.75 16.8096 5.75 17.5C5.75 18.1904 6.30964 18.75 7 18.75C7.69036 18.75 8.25 18.1904 8.25 17.5C8.25 16.8096 7.69036 16.25 7 16.25Z" fill="#191C1E"/>
</svg>
