<svg width="24" height="24" viewBox="0 0 24 24" fill="none" xmlns="http://www.w3.org/2000/svg">
<path d="M8.75 2C7.50736 2 6.5 3.00736 6.5 4.25C6.5 5.49264 7.50736 6.5 8.75 6.5C9.99264 6.5 11 5.49264 11 4.25C11 3.00736 9.99264 2 8.75 2Z" fill="#191C1E"/>
<path d="M11.3878 6.66349C11.5822 6.59867 11.7947 6.61626 11.9759 6.71216L18.3509 10.0872L17.649 11.4128L12.7605 8.82478L13.5718 12.0701L18.2523 19.214L16.9976 20.036L12.5691 13.2767L11.1095 13.7875L10.8746 21.772L9.37527 21.728L9.6211 13.3698L8.58704 10.4892L6.8213 14.9035L5.42859 14.3465L7.92859 8.09646C8.01052 7.89162 8.17848 7.73325 8.38778 7.66349L11.3878 6.66349Z" fill="#191C1E"/>
</svg>
