<svg width="24" height="24" viewBox="0 0 24 24" fill="none" xmlns="http://www.w3.org/2000/svg">
<path d="M3.70294 3.70294C4.15303 3.25286 4.76348 3 5.4 3C6.03652 3 6.64697 3.25286 7.09706 3.70294C7.54714 4.15303 7.8 4.76348 7.8 5.4C7.8 6.03652 7.54714 6.64697 7.09706 7.09706C6.64697 7.54714 6.03652 7.8 5.4 7.8C4.76348 7.8 4.15303 7.54714 3.70294 7.09706C3.25286 6.64697 3 6.03652 3 5.4C3 4.76348 3.25286 4.15303 3.70294 3.70294Z" fill="#191C1E"/>
<path d="M16.9029 3.70294C17.353 3.25286 17.9635 3 18.6 3C19.2365 3 19.847 3.25286 20.2971 3.70294C20.7471 4.15303 21 4.76348 21 5.4C21 6.03652 20.7471 6.64697 20.2971 7.09706C19.847 7.54714 19.2365 7.8 18.6 7.8C17.9635 7.8 17.353 7.54714 16.9029 7.09706C16.4529 6.64697 16.2 6.03652 16.2 5.4C16.2 4.76348 16.4529 4.15303 16.9029 3.70294Z" fill="#191C1E"/>
<path d="M3.70294 16.9029C4.15303 16.4529 4.76348 16.2 5.4 16.2C6.03652 16.2 6.64697 16.4529 7.09706 16.9029C7.54714 17.353 7.8 17.9635 7.8 18.6C7.8 19.2365 7.54714 19.847 7.09706 20.2971C6.64697 20.7471 6.03652 21 5.4 21C4.76348 21 4.15303 20.7471 3.70294 20.2971C3.25286 19.847 3 19.2365 3 18.6C3 17.9635 3.25286 17.353 3.70294 16.9029Z" fill="#191C1E"/>
<path d="M16.9029 16.9029C17.353 16.4529 17.9635 16.2 18.6 16.2C19.2365 16.2 19.847 16.4529 20.2971 16.9029C20.7471 17.353 21 17.9635 21 18.6C21 19.2365 20.7471 19.847 20.2971 20.2971C19.847 20.7471 19.2365 21 18.6 21C17.9635 21 17.353 20.7471 16.9029 20.2971C16.4529 19.847 16.2 19.2365 16.2 18.6C16.2 17.9635 16.4529 17.353 16.9029 16.9029Z" fill="#191C1E"/>
<path d="M9.08333 7.5C8.66341 7.5 8.26068 7.66682 7.96375 7.96375C7.66682 8.26068 7.5 8.66341 7.5 9.08333V9.91667C7.5 10.3366 7.66682 10.7393 7.96375 11.0363C8.26068 11.3332 8.66341 11.5 9.08333 11.5H14.9167C15.3366 11.5 15.7393 11.3332 16.0363 11.0363C16.3332 10.7393 16.5 10.3366 16.5 9.91667V9.08333C16.5 8.66341 16.3332 8.26068 16.0363 7.96375C15.7393 7.66682 15.3366 7.5 14.9167 7.5H9.08333Z" fill="#191C1E"/>
<path d="M9.08333 12.5C8.66341 12.5 8.26068 12.6668 7.96375 12.9637C7.66682 13.2607 7.5 13.6634 7.5 14.0833V14.9167C7.5 15.3366 7.66682 15.7393 7.96375 16.0363C8.26068 16.3332 8.66341 16.5 9.08333 16.5H14.9167C15.3366 16.5 15.7393 16.3332 16.0363 16.0363C16.3332 15.7393 16.5 15.3366 16.5 14.9167V14.0833C16.5 13.6634 16.3332 13.2607 16.0363 12.9637C15.7393 12.6668 15.3366 12.5 14.9167 12.5H9.08333Z" fill="#191C1E"/>
</svg>
