<svg width="24" height="24" viewBox="0 0 24 24" fill="none" xmlns="http://www.w3.org/2000/svg">
<path d="M17.9383 6.06174C16.5226 4.64609 14.2274 4.64609 12.8117 6.06174L9.95711 8.91637L8.54289 7.50216L11.3975 4.64752C13.5942 2.45083 17.1558 2.45083 19.3525 4.64752C21.5492 6.84422 21.5492 10.4058 19.3525 12.6025L16.4978 15.4571L15.0836 14.0429L17.9383 11.1883C19.3539 9.77261 19.3539 7.47739 17.9383 6.06174Z" fill="#191C1E"/>
<path d="M5.97751 17.9383C7.39316 19.3539 9.68838 19.3539 11.104 17.9383L13.9587 15.0836L15.3729 16.4979L12.5182 19.3525C10.3215 21.5492 6.75999 21.5492 4.5633 19.3525C2.3666 17.1558 2.3666 13.5942 4.5633 11.3975L7.41793 8.5429L8.83214 9.95711L5.97751 12.8117C4.56186 14.2274 4.56186 16.5226 5.97751 17.9383Z" fill="#191C1E"/>
<path d="M6.5 3V5.55H8.5V3H6.5Z" fill="#191C1E"/>
<path d="M3 8.5H5.55V6.5H3V8.5Z" fill="#191C1E"/>
<path d="M21 15.5H18.45V17.5H21V15.5Z" fill="#191C1E"/>
<path d="M17.5 21V18.45H15.5V21H17.5Z" fill="#191C1E"/>
</svg>
