<svg width="24" height="24" viewBox="0 0 24 24" fill="none" xmlns="http://www.w3.org/2000/svg">
<path d="M12.6387 2.35693C12.5022 2.13512 12.2604 2 12 2C11.7396 2 11.4978 2.13512 11.3613 2.35693L9.36126 5.60693C9.21885 5.83833 9.21274 6.12866 9.34528 6.36585C9.47783 6.60304 9.72829 6.75 10 6.75H11.25V14.2865L7.3882 12.3556C7.3035 12.3132 7.25 12.2267 7.25 12.132V11.6355C8.26428 11.317 9 10.3694 9 9.25C9 7.86929 7.88071 6.75 6.5 6.75C5.11929 6.75 4 7.86929 4 9.25C4 10.3694 4.73572 11.317 5.75 11.6355V12.132C5.75 12.7948 6.1245 13.4008 6.71738 13.6972L11.25 15.9635V16.8645C10.2357 17.183 9.5 18.1306 9.5 19.25C9.5 20.6307 10.6193 21.75 12 21.75C13.3807 21.75 14.5 20.6307 14.5 19.25C14.5 18.1306 13.7643 17.183 12.75 16.8645V13.4727L17.505 11.1985C18.113 10.9077 18.5 10.2937 18.5 9.61978V9.25H19.25C19.6642 9.25 20 8.91421 20 8.5V5.5C20 5.08579 19.6642 4.75 19.25 4.75H16.25C15.8358 4.75 15.5 5.08579 15.5 5.5V8.5C15.5 8.91421 15.8358 9.25 16.25 9.25H17V9.61978C17 9.71605 16.9447 9.80377 16.8579 9.84531L12.75 11.8099V6.75H14C14.2717 6.75 14.5222 6.60304 14.6547 6.36585C14.7873 6.12866 14.7811 5.83833 14.6387 5.60693L12.6387 2.35693Z" fill="#191C1E"/>
</svg>
