<svg width="24" height="24" viewBox="0 0 24 24" fill="none" xmlns="http://www.w3.org/2000/svg">
<path d="M8.25 7.75987C8.25 5.68567 9.92661 4 12 4C14.0734 4 15.75 5.68567 15.75 7.75987C15.75 9.83406 14.0734 11.5197 12 11.5197C9.92661 11.5197 8.25 9.83406 8.25 7.75987Z" fill="#191C1E"/>
<path d="M16.125 11.125C16.125 9.67525 17.3003 8.5 18.75 8.5C20.1997 8.5 21.375 9.67525 21.375 11.125C21.375 12.5747 20.1997 13.75 18.75 13.75C17.3003 13.75 16.125 12.5747 16.125 11.125Z" fill="#191C1E"/>
<path d="M5.25 8.5C3.80025 8.5 2.625 9.67525 2.625 11.125C2.625 12.5747 3.80025 13.75 5.25 13.75C6.69975 13.75 7.875 12.5747 7.875 11.125C7.875 9.67525 6.69975 8.5 5.25 8.5Z" fill="#191C1E"/>
<path d="M5.5 17.9688C5.5 17.0352 5.69802 16.1496 6.05395 15.3502C5.79684 15.2848 5.52748 15.25 5.25 15.25C3.45507 15.25 2 16.7051 2 18.5V19.25C2 19.6642 2.33579 20 2.75 20H5.62803C5.54512 19.7654 5.5 19.513 5.5 19.25V17.9688Z" fill="#191C1E"/>
<path d="M16.614 16.0505C15.858 14.2568 14.0741 13 12 13C9.93285 13 8.15393 14.2484 7.39366 16.0325L7.38604 16.0505C7.13743 16.6404 7 17.2883 7 17.9688V19.25C7 19.6642 7.33579 20 7.75 20H16.25C16.6642 20 17 19.6642 17 19.25V17.9688C17 17.2883 16.8626 16.6404 16.614 16.0505Z" fill="#191C1E"/>
<path d="M18.5 19.25C18.5 19.513 18.4549 19.7654 18.372 20H21.25C21.6642 20 22 19.6642 22 19.25V18.5C22 16.7051 20.5449 15.25 18.75 15.25C18.4725 15.25 18.2032 15.2848 17.946 15.3502C18.302 16.1496 18.5 17.0352 18.5 17.9688V19.25Z" fill="#191C1E"/>
</svg>
