<svg width="24" height="25" viewBox="0 0 24 25" fill="none" xmlns="http://www.w3.org/2000/svg">
<path d="M9.75 2.125C7.26472 2.125 5.25 4.13972 5.25 6.625C5.25 9.11028 7.26472 11.125 9.75 11.125C12.2353 11.125 14.25 9.11028 14.25 6.625C14.25 4.13972 12.2353 2.125 9.75 2.125Z" fill="#191C1E"/>
<path d="M9.75 13.125C6.57436 13.125 4 15.6994 4 18.875V21.375C4 21.7892 4.33579 22.125 4.75 22.125H12.7843C10.961 20.9737 9.75 18.9408 9.75 16.625C9.75 15.3709 10.1052 14.1997 10.7205 13.2065C10.405 13.1529 10.0808 13.125 9.75 13.125Z" fill="#191C1E"/>
<path d="M15 14.0568C15 13.4284 15.5349 12.875 16.25 12.875C16.9651 12.875 17.5 13.4284 17.5 14.0568V14.572H19V14.0568C19 12.5514 17.7441 11.375 16.25 11.375C14.7559 11.375 13.5 12.5514 13.5 14.0568V15.625H13.25C12.8358 15.625 12.5 15.9608 12.5 16.375V19.125C12.5 20.3676 13.5074 21.375 14.75 21.375H17.75C18.9926 21.375 20 20.3676 20 19.125V16.375C20 15.9608 19.6642 15.625 19.25 15.625H15V14.0568Z" fill="#191C1E"/>
</svg>
