<svg width="24" height="24" viewBox="0 0 24 24" fill="none" xmlns="http://www.w3.org/2000/svg">
<path d="M21.9444 4.75C21.9444 4.47104 21.7896 4.21513 21.5425 4.08567C21.2954 3.9562 20.9969 3.97457 20.7675 4.13336L14.6944 8.33781L14.6944 4.75C14.6944 4.47104 14.5396 4.21513 14.2925 4.08567C14.0454 3.9562 13.7469 3.97457 13.5175 4.13336L2.32309 11.8834C2.12074 12.0234 2 12.2539 2 12.5C2 12.7461 2.12074 12.9766 2.32309 13.1166L13.5175 20.8666C13.7469 21.0254 14.0454 21.0438 14.2925 20.9143C14.5396 20.7849 14.6944 20.529 14.6944 20.25V16.6622L20.7675 20.8666C20.9969 21.0254 21.2954 21.0438 21.5425 20.9143C21.7896 20.7849 21.9444 20.529 21.9444 20.25V4.75Z" fill="#191C1E"/>
</svg>
