<svg width="24" height="24" viewBox="0 0 24 24" fill="none" xmlns="http://www.w3.org/2000/svg">
<path d="M17.25 20C16.8358 20 16.5 19.6642 16.5 19.25V4.75C16.5 4.33579 16.8358 4 17.25 4H21.25C21.6642 4 22 4.33579 22 4.75V19.25C22 19.6642 21.6642 20 21.25 20H17.25Z" fill="#191C1E"/>
<path d="M3.14998 4.11556C2.9189 3.96988 2.62689 3.96135 2.3877 4.09331C2.14852 4.22527 2 4.47683 2 4.75V19.25C2 19.5232 2.14852 19.7747 2.3877 19.9067C2.62688 20.0386 2.9189 20.0301 3.14998 19.8844L14.65 12.6344C14.8678 12.4971 15 12.2576 15 12C15 11.7424 14.8678 11.5029 14.65 11.3656L3.14998 4.11556Z" fill="#191C1E"/>
</svg>
