<svg width="24" height="24" viewBox="0 0 24 24" fill="none" xmlns="http://www.w3.org/2000/svg">
<path d="M2 6.25C2 5.83579 2.33579 5.5 2.75 5.5H14.75C15.1642 5.5 15.5 5.83579 15.5 6.25V17.75C15.5 18.1642 15.1642 18.5 14.75 18.5H2.75C2.33579 18.5 2 18.1642 2 17.75V6.25Z" fill="#191C1E"/>
<path d="M22 6.25001C22 5.9645 21.8379 5.70375 21.5819 5.57742C21.3258 5.45109 21.0203 5.48109 20.7937 5.6548L17.2937 8.33813C17.1085 8.48007 17 8.70006 17 8.93334V15.0667C17 15.2999 17.1085 15.5199 17.2937 15.6619L20.7937 18.3452C21.0203 18.5189 21.3258 18.5489 21.5819 18.4226C21.8379 18.2963 22 18.0355 22 17.75V6.25001Z" fill="#191C1E"/>
</svg>
