<svg width="24" height="24" viewBox="0 0 24 24" fill="none" xmlns="http://www.w3.org/2000/svg">
<path d="M17.6244 3C17.938 2.99977 18.2187 3.19467 18.328 3.4886L18.523 4.01297C18.7994 4.76282 18.8728 4.91456 18.9796 5.0213C19.0855 5.12725 19.2369 5.2004 19.9851 5.47752L20.51 5.6715C20.8042 5.78024 20.9997 6.06058 21 6.37424C21.0003 6.68791 20.8054 6.96864 20.5114 7.07797L19.989 7.27222L19.987 7.27296C19.2372 7.54937 19.0854 7.62284 18.9787 7.72958C18.8727 7.83563 18.7995 7.9871 18.5218 8.73781L18.5206 8.74096L18.3284 9.26037C18.2195 9.55446 17.9391 9.74977 17.6256 9.75C17.312 9.75023 17.0313 9.55533 16.922 9.26141L16.7278 8.73903L16.727 8.73703C16.4506 7.98717 16.3772 7.83544 16.2704 7.7287C16.1645 7.62275 16.0131 7.5496 15.2649 7.27248L14.74 7.0785C14.4458 6.96976 14.2503 6.68942 14.25 6.37576C14.2497 6.06209 14.4446 5.78136 14.7386 5.67203L15.263 5.47704C16.0128 5.20062 16.1646 5.12716 16.2713 5.02042C16.3773 4.91437 16.4505 4.7629 16.7282 4.01219L16.9216 3.48963C17.0305 3.19554 17.3109 3.00023 17.6244 3Z" fill="#191C1E"/>
<path fill-rule="evenodd" clip-rule="evenodd" d="M14.2234 4.27384C14.3763 4.21561 14.3358 4 14.1723 4H3.75C3.33579 4 3 4.33579 3 4.75V20.25C3 20.6642 3.33579 21 3.75 21H19.25C19.6642 21 20 20.6642 20 20.25V9.82508C20 9.6678 19.7818 9.62781 19.7234 9.77384C19.3734 10.7572 18.6734 11.2488 17.6234 11.2488C16.5734 11.2488 15.8734 10.7572 15.5234 9.77384L15.3234 9.24884C15.2567 9.08217 15.1984 8.94051 15.1484 8.82384C15.0484 8.79051 14.9151 8.74051 14.7484 8.67384L14.2234 8.47384C13.2401 8.12384 12.7484 7.42384 12.7484 6.37384C12.7484 5.32384 13.2401 4.62384 14.2234 4.27384ZM10.6987 9.682C10.5831 9.60975 10.4374 9.60592 10.3182 9.67201C10.199 9.73809 10.125 9.86368 10.125 10V15C10.125 15.1363 10.199 15.2619 10.3182 15.328C10.4374 15.3941 10.5831 15.3903 10.6987 15.318L14.6987 12.818C14.8084 12.7495 14.875 12.6293 14.875 12.5C14.875 12.3707 14.8084 12.2505 14.6987 12.182L10.6987 9.682Z" fill="#191C1E"/>
</svg>
