<svg width="24" height="24" viewBox="0 0 24 24" fill="none" xmlns="http://www.w3.org/2000/svg">
<path d="M15.5 16.5607L20.7197 21.7804L21.7803 20.7197L3.28033 2.21973L2.21967 3.28039L4.43928 5.5H2.75C2.33579 5.5 2 5.83579 2 6.25V17.75C2 18.1642 2.33579 18.5 2.75 18.5H14.75C15.1642 18.5 15.5 18.1642 15.5 17.75V16.5607Z" fill="#191C1E"/>
<path d="M8.68194 5.5L15.5 12.3181V6.25C15.5 5.83579 15.1642 5.5 14.75 5.5H8.68194Z" fill="#191C1E"/>
<path d="M17 13.8181L21.5969 18.415C21.8442 18.286 22 18.0299 22 17.75V6.25001C22 5.9645 21.8379 5.70375 21.5819 5.57742C21.3258 5.45109 21.0203 5.48109 20.7937 5.6548L17.2937 8.33813C17.1085 8.48007 17 8.70006 17 8.93334V13.8181Z" fill="#191C1E"/>
</svg>
