<svg width="24" height="24" viewBox="0 0 24 24" fill="none" xmlns="http://www.w3.org/2000/svg">
<path d="M3.17691 4.13336C2.94755 3.97457 2.64902 3.9562 2.40192 4.08567C2.15482 4.21513 2 4.47104 2 4.75V20.25C2 20.529 2.15482 20.7849 2.40192 20.9143C2.64902 21.0438 2.94755 21.0254 3.17691 20.8666L9.25 16.6622V20.25C9.25 20.529 9.40482 20.7849 9.65192 20.9143C9.89902 21.0438 10.1975 21.0254 10.4269 20.8666L21.6213 13.1166C21.8237 12.9766 21.9444 12.7461 21.9444 12.5C21.9444 12.2539 21.8237 12.0234 21.6214 11.8834L10.4269 4.13336C10.1976 3.97457 9.89902 3.9562 9.65192 4.08567C9.40482 4.21513 9.25 4.47104 9.25 4.75V8.33781L3.17691 4.13336Z" fill="#191C1E"/>
</svg>
