<svg width="24" height="24" viewBox="0 0 24 24" fill="none" xmlns="http://www.w3.org/2000/svg">
<path d="M7.5 4.75C7.5 4.33579 7.16421 4 6.75 4H2.75C2.33579 4 2 4.33579 2 4.75V19.25C2 19.6642 2.33579 20 2.75 20H6.75C6.94891 20 7.13968 19.921 7.28033 19.7803C7.42098 19.6397 7.5 19.4489 7.5 19.25L7.5 4.75Z" fill="#191C1E"/>
<path d="M22 4.75C22 4.47683 21.8515 4.22527 21.6123 4.09331C21.3731 3.96135 21.0811 3.96988 20.85 4.11556L9.35002 11.3656C9.13215 11.5029 9 11.7424 9 12C9 12.2576 9.13215 12.4971 9.35002 12.6344L20.85 19.8844C21.0811 20.0301 21.3731 20.0386 21.6123 19.9067C21.8515 19.7747 22 19.5232 22 19.25V4.75Z" fill="#191C1E"/>
</svg>
