<svg width="24" height="24" viewBox="0 0 24 24" fill="none" xmlns="http://www.w3.org/2000/svg">
<path d="M3.66841 5.61319C4.72867 4.57271 6.16132 3.99327 7.65084 4.00006C9.14035 4.00685 10.5676 4.59933 11.6182 5.64947C12.6686 6.69945 13.2564 8.12111 13.25 9.60228V14.6669C13.25 14.6885 13.249 14.7101 13.2472 14.7316C13.1889 15.4042 12.8876 16.032 12.4006 16.5001C11.9137 16.9681 11.2738 17.2452 10.5991 17.2824C10.5594 17.2845 10.5196 17.2836 10.4801 17.2795L9.6027 17.188V19.25C9.6027 19.6642 9.26691 20 8.8527 20H2.75001C2.51429 20 2.29229 19.8892 2.15061 19.7008C2.00893 19.5124 1.96405 19.2684 2.02944 19.0419L2.94772 15.8617C3.1069 15.1788 3.09798 14.4679 2.92156 13.7889C2.91992 13.7826 2.91837 13.7763 2.91689 13.7699C2.85133 13.4875 2.77103 13.2624 2.68043 13.0354C2.65664 12.9758 2.63008 12.9114 2.60198 12.8432C2.52947 12.6672 2.44668 12.4663 2.37464 12.2594C2.15634 11.6322 2.00001 10.8679 2.00001 9.55605V9.55256C2.00689 8.07079 2.6079 6.6539 3.66841 5.61319Z" fill="#191C1E"/>
<path d="M22.0303 11.1553L19.9357 13.25L22.0303 15.3447L20.9697 16.4053L18.875 14.3107L16.7803 16.4053L15.7197 15.3447L17.8143 13.25L15.7197 11.1553L16.7803 10.0947L18.875 12.1893L20.9697 10.0947L22.0303 11.1553Z" fill="#191C1E"/>
</svg>
