<svg width="24" height="24" viewBox="0 0 24 24" fill="none" xmlns="http://www.w3.org/2000/svg">
<path d="M7.65084 4.00006C6.16132 3.99327 4.72867 4.57271 3.66841 5.61319C2.6079 6.6539 2.00689 8.07079 2.00001 9.55256V9.55605C2.00001 10.8679 2.15634 11.6322 2.37464 12.2594C2.44668 12.4663 2.52947 12.6672 2.60198 12.8432C2.63008 12.9114 2.65664 12.9758 2.68043 13.0354C2.77103 13.2624 2.85133 13.4875 2.91689 13.7699C2.91837 13.7763 2.91992 13.7826 2.92156 13.7889C3.09798 14.4679 3.1069 15.1788 2.94772 15.8617L2.02944 19.0419C1.96405 19.2684 2.00893 19.5124 2.15061 19.7008C2.29229 19.8892 2.51429 20 2.75001 20H8.8527C9.26691 20 9.6027 19.6642 9.6027 19.25V17.188L10.4801 17.2795C10.5196 17.2836 10.5594 17.2845 10.5991 17.2824C11.2738 17.2452 11.9137 16.9681 12.4006 16.5001C12.8876 16.032 13.1889 15.4042 13.2472 14.7316C13.249 14.7101 13.25 14.6885 13.25 14.6669V9.60228C13.2564 8.12111 12.6686 6.69945 11.6182 5.64947C10.5676 4.59933 9.14035 4.00685 7.65084 4.00006Z" fill="#191C1E"/>
<path d="M19.7045 7.78763C21.173 9.23434 22.0006 11.1991 22 13.2508C21.9994 15.3026 21.1707 17.2669 19.7014 18.7128L18.2986 17.2872C19.3895 16.2137 19.9996 14.7613 20 13.2503C20.0004 11.7392 19.3912 10.2865 18.3009 9.21236L19.7045 7.78763Z" fill="#191C1E"/>
<path d="M17.9001 11.6207C17.6727 11.1101 17.3425 10.6509 16.9314 10.2681L15.5686 11.7319C15.7867 11.9349 15.9572 12.1742 16.0731 12.4344C16.1889 12.6944 16.2485 12.9717 16.25 13.2506C16.2515 13.5295 16.1948 13.8072 16.0818 14.0682C15.9688 14.3293 15.8008 14.57 15.5851 14.775L16.9625 16.225C17.3697 15.8382 17.6951 15.3757 17.9172 14.8628C18.1393 14.3498 18.2529 13.798 18.25 13.24C18.247 12.682 18.1276 12.1314 17.9001 11.6207Z" fill="#191C1E"/>
</svg>
