<svg width="24" height="24" viewBox="0 0 24 24" fill="none" xmlns="http://www.w3.org/2000/svg">
<path fill-rule="evenodd" clip-rule="evenodd" d="M12.3754 21.582C12.1431 21.7163 11.8569 21.7163 11.6246 21.582L3.88782 17.1092L7.49756 15.0425L6.75226 13.7407L3.25 15.7459V7.05775C3.25 6.78995 3.39278 6.54248 3.62462 6.40844L11.2499 2.00008L11.2499 5.95412H12.7499L12.7499 1.99997L20.3754 6.40844C20.6072 6.54248 20.75 6.78995 20.75 7.05774L20.75 15.746L17.2476 13.7407L16.5023 15.0425L20.1121 17.1093L12.3754 21.582ZM11.3187 15.1286C11.4413 15.3942 11.7072 15.5643 11.9997 15.5643C12.2922 15.5643 12.5581 15.3942 12.6807 15.1286L15.6807 8.62863L14.3187 8.00004L11.9997 13.0246L9.68066 8.00004L8.31873 8.62863L11.3187 15.1286Z" fill="#191C1E"/>
</svg>
