<svg width="24" height="24" viewBox="0 0 24 24" fill="none" xmlns="http://www.w3.org/2000/svg">
<path d="M13.8821 4.10464C14.1102 4.23966 14.25 4.485 14.25 4.75V19.25C14.25 19.515 14.1102 19.7603 13.8821 19.8954C13.6541 20.0304 13.3717 20.035 13.1394 19.9076L5.55785 15.75H2.75C2.33579 15.75 2 15.4142 2 15V9C2 8.58579 2.33579 8.25 2.75 8.25H5.55785L13.1394 4.09239C13.3717 3.96497 13.6541 3.96963 13.8821 4.10464Z" fill="#191C1E"/>
<path d="M18.1554 7.90305C19.5601 8.72982 20.5 10.2555 20.5 12C20.5 13.7592 19.544 15.296 18.1196 16.1177L18.8692 17.417C20.7389 16.3384 22 14.3169 22 12C22 9.70253 20.76 7.69553 18.9163 6.61035L18.1554 7.90305Z" fill="#191C1E"/>
<path d="M16.9874 10.7625C17.3049 11.08 17.5 11.5165 17.5 12C17.5 12.4834 17.3049 12.9199 16.9874 13.2374L18.0481 14.2981C18.6354 13.7108 19 12.8972 19 12C19 11.1027 18.6354 10.2892 18.0481 9.70187L16.9874 10.7625Z" fill="#191C1E"/>
</svg>
