<svg width="24" height="24" viewBox="0 0 24 24" fill="none" xmlns="http://www.w3.org/2000/svg">
<path d="M13.8821 4.10464C14.1102 4.23966 14.25 4.485 14.25 4.75V19.25C14.25 19.515 14.1102 19.7603 13.8821 19.8954C13.6541 20.0304 13.3717 20.035 13.1394 19.9076L5.55785 15.75H2.75C2.33579 15.75 2 15.4142 2 15V9C2 8.58579 2.33579 8.25 2.75 8.25H5.55785L13.1394 4.09239C13.3717 3.96497 13.6541 3.96963 13.8821 4.10464Z" fill="#191C1E"/>
<path d="M22.0303 9.90539L19.9357 12.0001L22.0303 14.0947L20.9697 15.1554L18.875 13.0607L16.7803 15.1554L15.7197 14.0947L17.8143 12.0001L15.7197 9.90539L16.7803 8.84473L18.875 10.9394L20.9697 8.84473L22.0303 9.90539Z" fill="#191C1E"/>
</svg>
