<svg width="24" height="24" viewBox="0 0 24 24" fill="none" xmlns="http://www.w3.org/2000/svg">
<path d="M15.25 2C13.2554 2 11.5497 3.2292 10.8456 4.96859C10.752 5.19978 10.7795 5.46237 10.9189 5.66919C11.0583 5.87601 11.2914 6 11.5408 6H18.9593C19.2087 6 19.4418 5.87601 19.5812 5.66919C19.7206 5.46237 19.748 5.19978 19.6545 4.96859C18.9504 3.2292 17.2446 2 15.25 2Z" fill="#191C1E"/>
<path fill-rule="evenodd" clip-rule="evenodd" d="M2.75 3C2.33579 3 2 3.33579 2 3.75V20.25C2 20.6642 2.33579 21 2.75 21H21.25C21.6642 21 22 20.6642 22 20.25V8.25C22 7.83579 21.6642 7.5 21.25 7.5H3.5V4.5H9.625C9.625 4.5 9.875 3.75 10.625 3H2.75ZM16 11.75C16 10.9216 16.6716 10.25 17.5 10.25C18.3284 10.25 19 10.9216 19 11.75C19 12.5784 18.3284 13.25 17.5 13.25C16.6716 13.25 16 12.5784 16 11.75Z" fill="#191C1E"/>
</svg>
