<svg width="24" height="24" viewBox="0 0 24 24" fill="none" xmlns="http://www.w3.org/2000/svg">
<path fill-rule="evenodd" clip-rule="evenodd" d="M2.75 3C2.33579 3 2 3.33579 2 3.75V11.9252C3.29563 10.584 5.11292 9.75 7.125 9.75C11.06 9.75 14.25 12.94 14.25 16.875V17.125C14.25 18.5539 13.8294 19.8846 13.1051 21H21.25C21.6642 21 22 20.6642 22 20.25V7.25C22 6.83579 21.6642 6.5 21.25 6.5H3.5V4.5H21V3H2.75ZM16 11C16 10.1716 16.6716 9.5 17.5 9.5C18.3284 9.5 19 10.1716 19 11C19 11.8284 18.3284 12.5 17.5 12.5C16.6716 12.5 16 11.8284 16 11Z" fill="#191C1E"/>
<path d="M4.41811 15.5726L5.5268 16.721L4.44762 17.7628L2.11202 15.3435C1.83147 15.0529 1.83147 14.5923 2.11202 14.3017L4.44762 11.8823L5.5268 12.9241L4.41811 14.0726H8.69669V15.5726H4.41811Z" fill="#191C1E"/>
<path d="M8.7232 17.279L9.83189 18.4274L5.55331 18.4274V19.9274H9.83189L8.7232 21.0759L9.80238 22.1177L12.138 19.6983C12.4185 19.4077 12.4185 18.9471 12.138 18.6565L9.80238 16.2372L8.7232 17.279Z" fill="#191C1E"/>
</svg>
