<svg width="24" height="24" viewBox="0 0 24 24" fill="none" xmlns="http://www.w3.org/2000/svg">
<path d="M12.6854 2.4454C12.565 2.17455 12.2964 2 12 2C11.7036 2 11.435 2.17455 11.3146 2.4454C10.6069 4.03787 9.65287 5.47931 8.6863 6.93973C8.32708 7.4825 7.96611 8.02789 7.61541 8.58463C6.35507 10.5854 5.25 12.7101 5.25 15.125C5.25 16.9124 6.0965 18.6239 7.32531 19.8775C8.55327 21.1302 10.2365 22 12 22C13.7635 22 15.4467 21.1302 16.6747 19.8775C17.9035 18.6239 18.75 16.9124 18.75 15.125C18.75 12.7101 17.6449 10.5854 16.3846 8.58463C16.0339 8.02789 15.6729 7.4825 15.3137 6.93973C14.3471 5.47931 13.3931 4.03787 12.6854 2.4454Z" fill="#191C1E"/>
</svg>
