<svg width="24" height="24" viewBox="0 0 24 24" fill="none" xmlns="http://www.w3.org/2000/svg">
<path d="M10.4096 3.66665C8.82728 4.13841 7.55914 5.26022 7.02389 6.71533C4.788 6.97996 3 8.78563 3 11.0509C3 13.3951 4.91797 15.266 7.26781 15.4223L7.29266 15.4239H17.3914C19.3738 15.4239 21 13.8393 21 11.8583C21 9.88609 19.3867 8.30624 17.4159 8.29365C17.4338 6.87991 16.7601 5.52805 15.5778 4.60252C14.1497 3.48211 12.1824 3.13875 10.4096 3.66665Z" fill="#191C1E"/>
<path d="M5.5 16.9239L15.5 16.9239V18.4239L5.5 18.4239L5.5 16.9239Z" fill="#191C1E"/>
<path d="M17.1433 17.2331C17.3867 16.898 17.8558 16.8237 18.1909 17.0672L18.1929 17.0686C18.528 17.3121 18.6023 17.7811 18.3588 18.1162C18.1153 18.4513 17.6463 18.5256 17.3112 18.2821L17.3092 18.2807C16.9741 18.0372 16.8998 17.5682 17.1433 17.2331Z" fill="#191C1E"/>
<path d="M6.69087 20.0672C6.35576 19.8237 5.88674 19.898 5.64327 20.2331C5.3998 20.5682 5.47409 21.0372 5.80919 21.2807L5.81121 21.2821C6.14632 21.5256 6.61535 21.4513 6.85882 21.1162C7.10228 20.7811 7.028 20.3121 6.69289 20.0686L6.69087 20.0672Z" fill="#191C1E"/>
<path d="M18.5 19.9239H8.5V21.4239H18.5V19.9239Z" fill="#191C1E"/>
</svg>
