<svg width="24" height="24" viewBox="0 0 24 24" fill="none" xmlns="http://www.w3.org/2000/svg">
<path d="M6.25 12.424C6.25 9.24831 8.82436 6.67395 12 6.67395C15.1756 6.67395 17.75 9.24831 17.75 12.424C17.75 15.5996 15.1756 18.174 12 18.174C8.82436 18.174 6.25 15.5996 6.25 12.424Z" fill="#191C1E"/>
<path fill-rule="evenodd" clip-rule="evenodd" d="M12.4516 2.57514C12.1843 2.37355 11.8157 2.37355 11.5484 2.57514L9.76281 3.92174C9.08021 4.43651 8.28223 4.77679 7.43822 4.91301L5.43353 5.23656C5.11436 5.28807 4.86412 5.53831 4.81261 5.85748L4.48906 7.86217C4.35284 8.70618 4.01256 9.50417 3.49779 10.1868L2.15119 11.9724C1.9496 12.2397 1.9496 12.6082 2.15119 12.8755L3.49779 14.6611C4.01256 15.3437 4.35284 16.1417 4.48906 16.9857L4.81261 18.9904C4.86412 19.3096 5.11436 19.5598 5.43353 19.6113L7.43822 19.9349C8.28223 20.0711 9.08022 20.4114 9.76281 20.9262L11.5484 22.2728C11.8157 22.4743 12.1843 22.4743 12.4516 22.2728L14.2372 20.9262C14.9198 20.4114 15.7178 20.0711 16.5618 19.9349L18.5665 19.6113C18.8856 19.5598 19.1359 19.3096 19.1874 18.9904L19.5109 16.9857C19.6472 16.1417 19.9874 15.3437 20.5022 14.6611L21.8488 12.8755C22.0504 12.6082 22.0504 12.2397 21.8488 11.9724L20.5022 10.1868C19.9874 9.50417 19.6472 8.70618 19.5109 7.86217L19.1874 5.85748C19.1359 5.53831 18.8856 5.28807 18.5665 5.23656L16.5618 4.91301C15.7178 4.77679 14.9198 4.43651 14.2372 3.92174L12.4516 2.57514ZM10.666 5.11936L12 4.11332L13.334 5.11935C14.2116 5.7812 15.2376 6.21871 16.3228 6.39385L17.7928 6.63111L18.0301 8.10117C18.2052 9.18633 18.6427 10.2123 19.3046 11.0899L20.3106 12.424L19.3046 13.758C18.6427 14.6356 18.2052 15.6616 18.0301 16.7467L17.7928 18.2168L16.3228 18.4541C15.2376 18.6292 14.2116 19.0667 13.334 19.7285L12 20.7346L10.666 19.7285C9.78836 19.0667 8.76238 18.6292 7.67722 18.4541L6.20716 18.2168L5.9699 16.7467C5.79476 15.6616 5.35725 14.6356 4.69541 13.758L3.68937 12.424L4.69541 11.0899C5.35725 10.2123 5.79476 9.18633 5.9699 8.10117L6.20716 6.63111L7.67722 6.39385C8.76238 6.21871 9.78836 5.7812 10.666 5.11936Z" fill="#191C1E"/>
</svg>
