<svg width="24" height="24" viewBox="0 0 24 24" fill="none" xmlns="http://www.w3.org/2000/svg">
<path d="M13.4738 5.94177C12.9332 5.89238 12.377 5.94476 11.842 6.10713L11.8417 6.1072C11.1431 6.31957 10.5486 6.69897 10.1071 7.1807L9.00122 6.16728C9.63021 5.4809 10.4587 4.95975 11.4058 4.67194L11.4061 4.67186C13.1836 4.13233 15.1548 4.48421 16.5833 5.62659C17.7688 6.57256 18.4382 7.951 18.4157 9.38772C20.3999 9.40038 22 11.0179 22 13.0068C22 13.4096 21.9342 13.7986 21.8121 14.1625L20.39 13.6855C20.4611 13.4735 20.5 13.2455 20.5 13.0068C20.5 11.8331 19.5535 10.8876 18.3922 10.8876H17.5754C17.3478 10.8876 17.1326 10.7843 16.9902 10.6067C16.8479 10.4291 16.7939 10.1965 16.8434 9.9744C17.1001 8.82346 16.6669 7.61223 15.6474 6.79884L15.6467 6.79827C15.0349 6.30891 14.2713 6.01462 13.4738 5.94177Z" fill="#191C1E"/>
<path d="M6.02389 11.7154C6.55914 10.2603 7.82728 9.13849 9.40961 8.66673C11.1824 8.13883 13.1497 8.48219 14.5778 9.6026C15.7601 10.5281 16.4338 11.88 16.4159 13.2937C18.3867 13.3063 20 14.8862 20 16.8584C20 18.8394 18.3738 20.424 16.3914 20.424H6.29266L6.26781 20.4223C3.91797 20.2661 2 18.3952 2 16.051C2 13.7857 3.788 11.98 6.02389 11.7154Z" fill="#191C1E"/>
</svg>
