<svg width="24" height="24" viewBox="0 0 24 24" fill="none" xmlns="http://www.w3.org/2000/svg">
<path fill-rule="evenodd" clip-rule="evenodd" d="M15.5778 4.17863C14.1497 3.05821 12.1826 2.71479 10.4099 3.24268C8.82752 3.71445 7.55914 4.83633 7.02389 6.29143C4.788 6.55607 3 8.36173 3 10.627C3 12.9712 4.91797 14.8421 7.26781 14.9984C7.28437 14.9995 7.30097 15 7.31757 15H11.8231L12.478 15.3275L10.5872 18.899L11.9128 19.6009L14.1628 15.3509C14.2206 15.2418 14.25 15.1212 14.25 15H17.3914C19.3738 15 21 13.4154 21 11.4344C21 9.46219 19.3867 7.88234 17.4159 7.86975C17.4338 6.45602 16.7601 5.10415 15.5778 4.17863ZM14.25 15C14.25 14.923 14.2382 14.8458 14.2142 14.7711C14.1526 14.5788 14.016 14.4195 13.8354 14.3291L11.522 13.1724L13.4128 9.60088L12.0872 8.89905L9.83716 13.149C9.74268 13.3275 9.72415 13.5365 9.78578 13.7288C9.84741 13.9211 9.98397 14.0805 10.1646 14.1708L11.8231 15H14.25Z" fill="#191C1E"/>
</svg>
