<svg width="24" height="24" viewBox="0 0 24 24" fill="none" xmlns="http://www.w3.org/2000/svg">
<path d="M7.02389 6.71533C7.55914 5.26022 8.82728 4.13841 10.4096 3.66665C12.1824 3.13875 14.1497 3.48211 15.5778 4.60252C16.7601 5.52805 17.4338 6.87991 17.4159 8.29365C19.3867 8.30624 21 9.88609 21 11.8583C21 13.8393 19.3738 15.4239 17.3914 15.4239H7.29266L7.26781 15.4223C4.91797 15.266 3 13.3951 3 11.0509C3 8.78563 4.788 6.97996 7.02389 6.71533Z" fill="#191C1E"/>
<path d="M8.44087 17.0672C8.10576 16.8237 7.63674 16.898 7.39327 17.2331C7.1498 17.5682 7.22409 18.0372 7.55919 18.2807L7.56121 18.2821C7.89632 18.5256 8.36535 18.4513 8.60882 18.1162C8.85228 17.7811 8.778 17.3121 8.44289 17.0686L8.44087 17.0672Z" fill="#191C1E"/>
<path d="M11.3933 17.2331C11.6367 16.898 12.1058 16.8237 12.4409 17.0672L12.4429 17.0686C12.778 17.3121 12.8523 17.7811 12.6088 18.1162C12.3653 18.4513 11.8963 18.5256 11.5612 18.2821L11.5592 18.2807C11.2241 18.0372 11.1498 17.5682 11.3933 17.2331Z" fill="#191C1E"/>
<path d="M16.4409 17.0672C16.1058 16.8237 15.6367 16.898 15.3933 17.2331C15.1498 17.5682 15.2241 18.0372 15.5592 18.2807L15.5612 18.2821C15.8963 18.5256 16.3653 18.4513 16.6088 18.1162C16.8523 17.7811 16.778 17.3121 16.4429 17.0686L16.4409 17.0672Z" fill="#191C1E"/>
<path d="M13.3933 20.2331C13.6367 19.898 14.1058 19.8237 14.4409 20.0672L14.4429 20.0686C14.778 20.3121 14.8523 20.7811 14.6088 21.1162C14.3653 21.4513 13.8963 21.5256 13.5612 21.2821L13.5592 21.2807C13.2241 21.0372 13.1498 20.5682 13.3933 20.2331Z" fill="#191C1E"/>
<path d="M10.4409 20.0672C10.1058 19.8237 9.63674 19.898 9.39327 20.2331C9.1498 20.5682 9.22409 21.0372 9.55919 21.2807L9.56121 21.2821C9.89632 21.5256 10.3653 21.4513 10.6088 21.1162C10.8523 20.7811 10.778 20.3121 10.4429 20.0686L10.4409 20.0672Z" fill="#191C1E"/>
</svg>
