<svg width="24" height="24" viewBox="0 0 24 24" fill="none" xmlns="http://www.w3.org/2000/svg">
<path d="M7.02389 6.71533C7.55914 5.26022 8.82728 4.13841 10.4096 3.66665C12.1824 3.13875 14.1497 3.48211 15.5778 4.60252C16.7601 5.52805 17.4338 6.87991 17.4159 8.29365C19.3867 8.30624 21 9.88609 21 11.8583C21 13.8393 19.3738 15.4239 17.3914 15.4239H7.29266L7.26781 15.4223C4.91797 15.266 3 13.3951 3 11.0509C3 8.78563 4.788 6.97996 7.02389 6.71533Z" fill="#191C1E"/>
<path d="M11.8505 17.1828L9.85046 20.6469L11.1495 21.3969L13.1495 17.9328L11.8505 17.1828Z" fill="#191C1E"/>
<path d="M14.3505 20.6469L16.3505 17.1828L17.6495 17.9328L15.6495 21.3969L14.3505 20.6469Z" fill="#191C1E"/>
<path d="M7.35046 17.1828L5.35046 20.6469L6.6495 21.3969L8.6495 17.9328L7.35046 17.1828Z" fill="#191C1E"/>
</svg>
