<svg width="24" height="24" viewBox="0 0 24 24" fill="none" xmlns="http://www.w3.org/2000/svg">
<path fill-rule="evenodd" clip-rule="evenodd" d="M14.7391 7.75C15.0625 7.24485 15.25 6.64432 15.25 6C15.25 4.20507 13.7949 2.75 12 2.75C10.2051 2.75 8.75 4.20507 8.75 6C8.75 6.64432 8.9375 7.24485 9.26091 7.75H7.46876C7.12537 7.75 6.82584 7.9832 6.74165 8.31611L4.0229 19.0661C3.96619 19.2904 4.01612 19.5282 4.15822 19.7108C4.30032 19.8933 4.5187 20 4.75001 20H19.25C19.4813 20 19.6997 19.8933 19.8418 19.7108C19.9839 19.5282 20.0338 19.2904 19.9771 19.0661L17.2584 8.31611C17.1742 7.9832 16.8746 7.75 16.5313 7.75H14.7391ZM12 4.25C11.0335 4.25 10.25 5.0335 10.25 6C10.25 6.9665 11.0335 7.75 12 7.75C12.9665 7.75 13.75 6.9665 13.75 6C13.75 5.0335 12.9665 4.25 12 4.25Z" fill="#191C1E"/>
</svg>
