<svg width="24" height="24" viewBox="0 0 24 24" fill="none" xmlns="http://www.w3.org/2000/svg">
<path fill-rule="evenodd" clip-rule="evenodd" d="M12.0002 3C7.02977 3 3.00036 7.02949 3.00036 12C3.00036 13.5438 3.38965 14.9989 4.07615 16.2698L3.02129 20.2097C2.99283 20.3161 2.99291 20.4282 3.02149 20.5347C3.05008 20.6411 3.10618 20.7381 3.18415 20.816C3.26212 20.8939 3.35921 20.9499 3.46568 20.9784C3.57215 21.0068 3.68423 21.0068 3.79067 20.9782L7.7305 19.925C9.04213 20.633 10.5097 21.0025 12.0002 21C16.9706 21 21 16.9705 21 12C21 7.02949 16.9706 3 12.0002 3ZM7.81422 7.18604C7.64769 7.18604 7.48798 7.2522 7.37023 7.36995C7.25247 7.48771 7.18632 7.64742 7.18632 7.81395C7.18632 10.519 8.49151 12.8623 9.81511 14.1851C11.1379 15.5096 13.4812 16.8139 16.1861 16.8139C16.3527 16.8139 16.5124 16.7478 16.6301 16.63C16.7479 16.5123 16.814 16.3526 16.814 16.186V13.7414C16.8141 13.5927 16.7613 13.4488 16.6652 13.3353C16.5691 13.2219 16.4358 13.1462 16.2891 13.1219L13.0366 12.5827L11.5967 14.0486C11.2783 13.8235 10.9792 13.5723 10.7025 13.2977C10.4281 13.0204 10.1769 12.7211 9.95157 12.4027L11.4108 10.9694L10.9478 7.72521C10.9265 7.57549 10.8518 7.43852 10.7375 7.33947C10.6232 7.24042 10.477 7.18594 10.3258 7.18604H7.81422Z" fill="#191C1E"/>
</svg>
