<svg width="24" height="24" viewBox="0 0 24 24" fill="none" xmlns="http://www.w3.org/2000/svg">
<path d="M15.3839 16.4446L20.7197 21.7803L21.7803 20.7197L3.28033 2.21967L2.21967 3.28033L5.5315 6.59216C4.3412 7.21851 3.22353 8.02966 2.22133 9.02562C2.07966 9.16641 2 9.35788 2 9.55761C2 9.75733 2.07966 9.94881 2.22133 10.0896L11.4713 19.282C11.7638 19.5727 12.2362 19.5727 12.5287 19.282L15.3839 16.4446Z" fill="#191C1E"/>
<path d="M21.7787 10.0896L17.451 14.3903L8.50467 5.44401C13.0959 4.2567 18.1812 5.45057 21.7787 9.02562C21.9203 9.16641 22 9.35788 22 9.55761C22 9.75733 21.9203 9.9488 21.7787 10.0896Z" fill="#191C1E"/>
</svg>
