<svg width="24" height="24" viewBox="0 0 24 24" fill="none" xmlns="http://www.w3.org/2000/svg">
<path fill-rule="evenodd" clip-rule="evenodd" d="M9.37332 4.69126C9.09486 3.29898 10.1598 2 11.5796 2H12.4202C13.8401 2 14.905 3.29898 14.6265 4.69126L13.7481 9.08333C13.9459 9.32707 14.0937 9.61299 14.176 9.9255L18.2571 11.3061C19.6021 11.7611 20.1946 13.3328 19.4846 14.5624L19.0643 15.2904C18.3544 16.52 16.697 16.7928 15.6305 15.8555L12.75 13.324V20.5H20V22H4V20.5H11.25V13.324L8.36951 15.8555C7.30298 16.7928 5.64558 16.52 4.93565 15.2904L4.51536 14.5624C3.80543 13.3328 4.39793 11.7611 5.74291 11.3061L9.82401 9.9255C9.90628 9.61306 10.0541 9.3272 10.2518 9.08349L9.37332 4.69126ZM12 9.75C11.5858 9.75 11.25 10.0858 11.25 10.5C11.25 10.9142 11.5858 11.25 12 11.25C12.4142 11.25 12.75 10.9142 12.75 10.5C12.75 10.0858 12.4142 9.75 12 9.75Z" fill="#191C1E"/>
<path d="M6 9.99998C6 8.16446 6.95647 6.55156 8.4022 5.63302L7.5978 4.36694C5.73733 5.54899 4.5 7.62973 4.5 9.99998H6Z" fill="#191C1E"/>
<path d="M15.5978 5.63302C17.0435 6.55156 18 8.16446 18 9.99998H19.5C19.5 7.62973 18.2627 5.54899 16.4022 4.36694L15.5978 5.63302Z" fill="#191C1E"/>
</svg>
