<svg width="24" height="24" viewBox="0 0 24 24" fill="none" xmlns="http://www.w3.org/2000/svg">
<path fill-rule="evenodd" clip-rule="evenodd" d="M7 3.75C7 3.33579 7.33579 3 7.75 3H16.25C16.6642 3 17 3.33579 17 3.75V5.25H20.25C20.6642 5.25 21 5.58579 21 6V7.75C21 10.1941 19.154 12.2071 16.7802 12.4707C16.2233 14.2828 14.6644 15.6562 12.75 15.9441V19.5H17V21H7V19.5H11.25V15.9441C9.33562 15.6562 7.77668 14.2828 7.21981 12.4707C4.846 12.2071 3 10.1941 3 7.75V6C3 5.58579 3.33579 5.25 3.75 5.25H7V3.75ZM17 10.913C18.4334 10.5745 19.5 9.28679 19.5 7.75V6.75H17V10.913ZM7 10.913C5.56665 10.5745 4.5 9.28679 4.5 7.75V6.75H7V10.913Z" fill="#191C1E"/>
</svg>
