<svg width="24" height="25" viewBox="0 0 24 25" fill="none" xmlns="http://www.w3.org/2000/svg">
<path d="M9 5.125C9 3.46815 10.3431 2.125 12 2.125C13.6569 2.125 15 3.46815 15 5.125C15 6.78185 13.6569 8.125 12 8.125C10.3431 8.125 9 6.78185 9 5.125Z" fill="#191C1E"/>
<path d="M12.6996 10.1047C12.5879 9.81562 12.3099 9.625 12 9.625C11.6901 9.625 11.4121 9.81562 11.3004 10.1047L7.05041 21.1047C6.96128 21.3354 6.9916 21.5952 7.13145 21.7991C7.2713 22.0031 7.5027 22.125 7.75 22.125H16.25C16.4973 22.125 16.7287 22.0031 16.8686 21.7991C17.0084 21.5952 17.0387 21.3354 16.9496 21.1047L12.6996 10.1047Z" fill="#191C1E"/>
</svg>
