<svg width="24" height="24" viewBox="0 0 24 24" fill="none" xmlns="http://www.w3.org/2000/svg">
<path fill-rule="evenodd" clip-rule="evenodd" d="M21.25 6.75C21.6642 6.75 22 7.08579 22 7.5V11.25H2V7.5C2 7.08579 2.33579 6.75 2.75 6.75H7.25C7.25 5.23122 8.48122 4 10 4H14C15.5188 4 16.75 5.23122 16.75 6.75H21.25ZM10 5.5C9.30964 5.5 8.75 6.05964 8.75 6.75H15.25C15.25 6.05964 14.6904 5.5 14 5.5H10Z" fill="#191C1E"/>
<path d="M9 15.75C8.58579 15.75 8.25 15.4142 8.25 15V12.75H2V19.25C2 19.6642 2.33579 20 2.75 20H21.25C21.6642 20 22 19.6642 22 19.25V12.75H15.75V15C15.75 15.4142 15.4142 15.75 15 15.75H9Z" fill="#191C1E"/>
<path d="M9.75 14.25V12.75H14.25V14.25H9.75Z" fill="#191C1E"/>
</svg>
