<svg width="24" height="24" viewBox="0 0 24 24" fill="none" xmlns="http://www.w3.org/2000/svg">
<path d="M3.75 3C3.46836 3 3.21046 3.15779 3.08224 3.40855C2.95402 3.65931 2.97709 3.96076 3.14198 4.18909L9.68705 13.2523L3.21967 19.7197L4.28033 20.7803L10.5766 14.484L15.0587 20.6892C15.1997 20.8844 15.4259 21 15.6667 21H20.25C20.5316 21 20.7895 20.8422 20.9178 20.5915C21.046 20.3407 21.0229 20.0392 20.858 19.8109L14.313 10.7477L20.7803 4.28033L19.7197 3.21967L13.4234 9.51599L8.94132 3.31085C8.80032 3.11563 8.57415 3 8.33334 3H3.75Z" fill="#191C1E"/>
</svg>
