<svg width="24" height="24" viewBox="0 0 24 24" fill="none" xmlns="http://www.w3.org/2000/svg">
<path fill-rule="evenodd" clip-rule="evenodd" d="M12 4.75C8.85956 4.75 5.94792 5.05631 3.58746 5.58032C3.24423 5.65652 3 5.96092 3 6.3125V17.6875C3 18.0391 3.24423 18.3435 3.58746 18.4197C5.94792 18.9437 8.85956 19.25 12 19.25C15.1404 19.25 18.0529 18.9437 20.4126 18.4197C20.7558 18.3434 21 18.0391 21 17.6875V6.3125C21 5.96094 20.7558 5.65655 20.4126 5.58034C18.0529 5.0563 15.1404 4.75 12 4.75ZM9.94181 8.67777C9.82592 8.60878 9.68191 8.60735 9.56467 8.674C9.44742 8.74065 9.375 8.86513 9.375 9V15.25C9.375 15.3849 9.44742 15.5093 9.56467 15.576C9.68191 15.6427 9.82592 15.6412 9.94181 15.5722L15.1918 12.4472C15.3054 12.3796 15.375 12.2572 15.375 12.125C15.375 11.9928 15.3054 11.8704 15.1918 11.8028L9.94181 8.67777Z" fill="#191C1E"/>
</svg>
